<svg width="250" height="250" viewBox="0 0 250 250" fill="none" xmlns="http://www.w3.org/2000/svg">
<circle cx="125" cy="125" r="123" fill="#38234D" stroke="#5E4182" stroke-width="4"/>
<g filter="url(#filter0_d_50_729)">
<rect x="36" y="54.293" width="100" height="150" rx="10" transform="rotate(-4.5 36 54.293)" fill="#D9D9D9"/>
<path d="M136.213 186.819L131.248 187.209L130.669 189.281L127.878 189.501L132.647 174.902L132.846 174.886L139.861 188.558L137.149 188.771L136.213 186.819ZM135.323 184.943L133.569 181.269L133.143 180.179L132.911 181.321L131.814 185.219L135.323 184.943Z" fill="#0C5867"/>
<path d="M50.8753 71.1578L45.9106 71.5485L45.3314 73.6204L42.54 73.8401L47.3093 59.2409L47.5087 59.2252L54.523 72.897L51.8113 73.1104L50.8753 71.1578ZM49.9853 69.2819L48.2317 65.6081L47.8049 64.5183L47.5737 65.6599L46.4762 69.558L49.9853 69.2819Z" fill="#0C5867"/>
<path d="M104.067 117.426C95.6911 112.166 92.5914 107.674 90.4545 104.174C88.8887 107.965 86.5325 112.887 79.0825 119.392C66.3773 130.484 80.1805 143.482 90.7425 134.899C90.3913 139.737 88.1823 143.418 85.778 145.119L85.8995 146.663L101.6 145.427L101.478 143.883C98.8377 142.58 96.0801 139.289 94.9764 134.566C106.751 141.391 118.351 126.394 104.067 117.426V117.426Z" fill="#0C5867"/>
</g>
<g filter="url(#filter1_d_50_729)">
<rect x="114.418" y="46" width="100" height="150" rx="10" transform="rotate(5.5 114.418 46)" fill="#D9D9D9"/>
<path d="M175.913 117.189C175.458 115.776 174.731 114.464 173.773 113.329C172.816 112.19 171.648 111.246 170.334 110.548C168.971 109.822 167.478 109.374 165.941 109.229C163.786 109.022 161.625 109.41 159.69 110.349C159.227 110.573 158.783 110.826 158.359 111.108C157.996 110.75 157.609 110.417 157.197 110.109C155.477 108.817 153.43 108.025 151.275 107.817C149.722 107.668 148.189 107.82 146.711 108.274C145.283 108.71 143.967 109.408 142.804 110.347C141.646 111.278 140.683 112.426 139.967 113.728C139.223 115.082 138.769 116.552 138.62 118.096C138.48 119.552 138.631 121.098 139.073 122.698C139.443 124.036 140.022 125.442 140.797 126.881C142.026 129.157 143.783 131.577 146.014 134.074C149.712 138.212 153.481 141.188 153.641 141.31L154.614 142.074C155.045 142.411 155.635 142.468 156.123 142.219L157.223 141.654C157.404 141.561 161.667 139.364 166.091 136.007C168.757 133.982 170.944 131.942 172.584 129.942C173.62 128.677 174.461 127.408 175.075 126.165C175.814 124.678 176.258 123.189 176.398 121.733C176.551 120.19 176.385 118.66 175.913 117.189V117.189Z" fill="#C20C7A"/>
<path d="M190.096 193.914L185.139 193.437L184.209 195.377L181.422 195.108L188.654 181.559L188.853 181.578L193.387 196.26L190.679 196L190.096 193.914ZM189.546 191.912L188.457 187.99L188.225 186.842L187.8 187.926L186.042 191.575L189.546 191.912Z" fill="#C20C7A"/>
<path d="M126.139 65.1918L121.182 64.7144L120.252 66.6542L117.465 66.3858L124.697 52.8366L124.896 52.8558L129.429 67.5379L126.722 67.2772L126.139 65.1918ZM125.589 63.1898L124.499 59.2673L124.268 58.1199L123.843 59.2041L122.085 62.8524L125.589 63.1898Z" fill="#C20C7A"/>
</g>
<defs>
<filter id="filter0_d_50_729" x="26.7532" y="37.2004" width="129.954" height="175.877" filterUnits="userSpaceOnUse" color-interpolation-filters="sRGB">
<feFlood flood-opacity="0" result="BackgroundImageFix"/>
<feColorMatrix in="SourceAlpha" type="matrix" values="0 0 0 0 0 0 0 0 0 0 0 0 0 0 0 0 0 0 127 0" result="hardAlpha"/>
<feOffset/>
<feGaussianBlur stdDeviation="5"/>
<feComposite in2="hardAlpha" operator="out"/>
<feColorMatrix type="matrix" values="0 0 0 0 0 0 0 0 0 0 0 0 0 0 0 0 0 0 0.25 0"/>
<feBlend mode="normal" in2="BackgroundImageFix" result="effect1_dropShadow_50_729"/>
<feBlend mode="normal" in="SourceGraphic" in2="effect1_dropShadow_50_729" result="shape"/>
</filter>
<filter id="filter1_d_50_729" x="89.9531" y="35.9116" width="134.093" height="179.071" filterUnits="userSpaceOnUse" color-interpolation-filters="sRGB">
<feFlood flood-opacity="0" result="BackgroundImageFix"/>
<feColorMatrix in="SourceAlpha" type="matrix" values="0 0 0 0 0 0 0 0 0 0 0 0 0 0 0 0 0 0 127 0" result="hardAlpha"/>
<feOffset/>
<feGaussianBlur stdDeviation="5.5"/>
<feComposite in2="hardAlpha" operator="out"/>
<feColorMatrix type="matrix" values="0 0 0 0 0 0 0 0 0 0 0 0 0 0 0 0 0 0 0.51 0"/>
<feBlend mode="normal" in2="BackgroundImageFix" result="effect1_dropShadow_50_729"/>
<feBlend mode="normal" in="SourceGraphic" in2="effect1_dropShadow_50_729" result="shape"/>
</filter>
</defs>
</svg>
