<svg width="100" height="150" viewBox="0 0 100 150" fill="none" xmlns="http://www.w3.org/2000/svg">
<rect width="100" height="150" rx="10" fill="#D9D9D9"/>
<path d="M68.0345 64.9676C67.4457 63.6041 66.5966 62.3686 65.5348 61.3301C64.4722 60.2885 63.2194 59.4607 61.8445 58.8918C60.4188 58.2996 58.8897 57.9965 57.3459 58C55.1801 58 53.067 58.5931 51.2306 59.7134C50.7913 59.9814 50.3739 60.2757 49.9785 60.5964C49.5832 60.2757 49.1658 59.9814 48.7265 59.7134C46.8901 58.5931 44.777 58 42.6112 58C41.0516 58 39.5403 58.2988 38.1126 58.8918C36.7331 59.463 35.4898 60.2845 34.4223 61.3301C33.3591 62.3674 32.5098 63.6033 31.9226 64.9676C31.3119 66.3866 31 67.8935 31 69.4443C31 70.9072 31.2987 72.4316 31.8918 73.9824C32.3882 75.2784 33.0999 76.6227 34.0093 77.9802C35.4503 80.1285 37.4316 82.369 39.8918 84.6403C43.9687 88.4053 48.006 91.006 48.1773 91.1115L49.2185 91.7792C49.6798 92.0736 50.2729 92.0736 50.7342 91.7792L51.7754 91.1115C51.9467 91.0016 55.9796 88.4053 60.0609 84.6403C62.5211 82.369 64.5024 80.1285 65.9434 77.9802C66.8528 76.6227 67.5688 75.2784 68.0609 73.9824C68.654 72.4316 68.9527 70.9072 68.9527 69.4443C68.9571 67.8935 68.6452 66.3866 68.0345 64.9676V64.9676Z" fill="#C20C7A"/>
<path d="M89.5062 139.98H84.5262L83.7862 142H80.9862L86.8862 127.82H87.0862L93.0062 142H90.2862L89.5062 139.98ZM88.7662 138.04L87.3062 134.24L86.9662 133.12L86.6462 134.24L85.2462 138.04H88.7662Z" fill="#C20C7A"/>
<path d="M13.5062 17.98H8.52617L7.78617 20H4.98617L10.8862 5.82H11.0862L17.0062 20H14.2862L13.5062 17.98ZM12.7662 16.04L11.3062 12.24L10.9662 11.12L10.6462 12.24L9.24617 16.04H12.7662Z" fill="#C20C7A"/>
</svg>
