<svg width="100" height="150" viewBox="0 0 100 150" fill="none" xmlns="http://www.w3.org/2000/svg">
<rect width="100" height="150" rx="10" fill="#D9D9D9"/>
<path d="M14.75 13.72C15.5833 14 16.24 14.4333 16.72 15.02C17.2 15.6067 17.44 16.3267 17.44 17.18C17.44 18.1333 17.1867 18.9233 16.68 19.55C16.18 20.1767 15.53 20.6367 14.73 20.93C13.9367 21.2167 13.0933 21.36 12.2 21.36C11.3 21.36 10.45 21.2167 9.65 20.93C8.85667 20.6367 8.20667 20.1767 7.7 19.55C7.19333 18.9233 6.94 18.1333 6.94 17.18C6.94 16.3333 7.17667 15.62 7.65 15.04C8.12333 14.4533 8.77667 14.0133 9.61 13.72C8.94333 13.42 8.43 12.99 8.07 12.43C7.71667 11.8633 7.54 11.1667 7.54 10.34C7.54 9.50667 7.76 8.82 8.2 8.28C8.64 7.73333 9.21333 7.33667 9.92 7.09C10.6267 6.84333 11.3933 6.72 12.22 6.72C13.04 6.72 13.7967 6.84333 14.49 7.09C15.19 7.33667 15.7567 7.73333 16.19 8.28C16.6233 8.82 16.84 9.50667 16.84 10.34C16.84 11.1467 16.6533 11.8333 16.28 12.4C15.9133 12.9667 15.4033 13.4067 14.75 13.72ZM12.24 8.56C10.8933 8.56 10.22 9.21333 10.22 10.52C10.22 11.2333 10.4 11.7933 10.76 12.2C11.12 12.6 11.6133 12.8 12.24 12.8C12.86 12.8 13.3367 12.6 13.67 12.2C14.01 11.8 14.18 11.24 14.18 10.52C14.18 9.86 14.0233 9.37 13.71 9.05C13.3967 8.72333 12.9067 8.56 12.24 8.56ZM12.2 19.34C12.9667 19.34 13.5467 19.1567 13.94 18.79C14.34 18.4233 14.54 17.8733 14.54 17.14C14.54 16.3133 14.3133 15.71 13.86 15.33C13.4067 14.95 12.8533 14.76 12.2 14.76C11.5333 14.76 10.97 14.95 10.51 15.33C10.05 15.71 9.82 16.3133 9.82 17.14C9.82 17.8733 10.02 18.4233 10.42 18.79C10.8267 19.1567 11.42 19.34 12.2 19.34Z" fill="#C20C7A"/>
<path d="M89.75 134.72C90.5833 135 91.24 135.433 91.72 136.02C92.2 136.607 92.44 137.327 92.44 138.18C92.44 139.133 92.1867 139.923 91.68 140.55C91.18 141.177 90.53 141.637 89.73 141.93C88.9367 142.217 88.0933 142.36 87.2 142.36C86.3 142.36 85.45 142.217 84.65 141.93C83.8567 141.637 83.2067 141.177 82.7 140.55C82.1933 139.923 81.94 139.133 81.94 138.18C81.94 137.333 82.1767 136.62 82.65 136.04C83.1233 135.453 83.7767 135.013 84.61 134.72C83.9433 134.42 83.43 133.99 83.07 133.43C82.7167 132.863 82.54 132.167 82.54 131.34C82.54 130.507 82.76 129.82 83.2 129.28C83.64 128.733 84.2133 128.337 84.92 128.09C85.6267 127.843 86.3933 127.72 87.22 127.72C88.04 127.72 88.7967 127.843 89.49 128.09C90.19 128.337 90.7567 128.733 91.19 129.28C91.6233 129.82 91.84 130.507 91.84 131.34C91.84 132.147 91.6533 132.833 91.28 133.4C90.9133 133.967 90.4033 134.407 89.75 134.72ZM87.24 129.56C85.8933 129.56 85.22 130.213 85.22 131.52C85.22 132.233 85.4 132.793 85.76 133.2C86.12 133.6 86.6133 133.8 87.24 133.8C87.86 133.8 88.3367 133.6 88.67 133.2C89.01 132.8 89.18 132.24 89.18 131.52C89.18 130.86 89.0233 130.37 88.71 130.05C88.3967 129.723 87.9067 129.56 87.24 129.56ZM87.2 140.34C87.9667 140.34 88.5467 140.157 88.94 139.79C89.34 139.423 89.54 138.873 89.54 138.14C89.54 137.313 89.3133 136.71 88.86 136.33C88.4067 135.95 87.8533 135.76 87.2 135.76C86.5333 135.76 85.97 135.95 85.51 136.33C85.05 136.71 84.82 137.313 84.82 138.14C84.82 138.873 85.02 139.423 85.42 139.79C85.8267 140.157 86.42 140.34 87.2 140.34Z" fill="#C20C7A"/>
<path d="M39.4435 105.222C39.0867 104.396 38.5721 103.647 37.9287 103.018C37.2847 102.387 36.5255 101.885 35.6923 101.54C34.8283 101.182 33.9016 100.998 32.9661 101C31.6535 101 30.3729 101.359 29.2601 102.038C28.9939 102.201 28.7409 102.379 28.5013 102.573C28.2617 102.379 28.0088 102.201 27.7425 102.038C26.6297 101.359 25.3491 101 24.0366 101C23.0914 101 22.1756 101.181 21.3103 101.54C20.4744 101.887 19.7209 102.384 19.074 103.018C18.4297 103.647 17.915 104.396 17.5591 105.222C17.189 106.082 17 106.996 17 107.935C17 108.822 17.181 109.746 17.5405 110.686C17.8413 111.471 18.2726 112.286 18.8237 113.108C19.697 114.41 20.8977 115.768 22.3886 117.144C24.8592 119.426 27.3059 121.002 27.4098 121.066L28.0407 121.471C28.3203 121.649 28.6797 121.649 28.9592 121.471L29.5902 121.066C29.694 121 32.1381 119.426 34.6114 117.144C36.1023 115.768 37.303 114.41 38.1763 113.108C38.7274 112.286 39.1613 111.471 39.4595 110.686C39.8189 109.746 40 108.822 40 107.935C40.0026 106.996 39.8136 106.082 39.4435 105.222V105.222Z" fill="#C20C7A"/>
<path d="M82.4435 105.222C82.0867 104.396 81.5721 103.647 80.9287 103.018C80.2847 102.387 79.5255 101.885 78.6923 101.54C77.8283 101.182 76.9016 100.998 75.9661 101C74.6535 101 73.3729 101.359 72.2601 102.038C71.9939 102.201 71.7409 102.379 71.5013 102.573C71.2617 102.379 71.0088 102.201 70.7425 102.038C69.6297 101.359 68.3491 101 67.0366 101C66.0914 101 65.1756 101.181 64.3103 101.54C63.4744 101.887 62.7209 102.384 62.074 103.018C61.4297 103.647 60.915 104.396 60.5591 105.222C60.189 106.082 60 106.996 60 107.935C60 108.822 60.181 109.746 60.5405 110.686C60.8413 111.471 61.2726 112.286 61.8237 113.108C62.697 114.41 63.8977 115.768 65.3886 117.144C67.8592 119.426 70.3059 121.002 70.4098 121.066L71.0407 121.471C71.3203 121.649 71.6797 121.649 71.9592 121.471L72.5902 121.066C72.694 121 75.1381 119.426 77.6114 117.144C79.1023 115.768 80.303 114.41 81.1763 113.108C81.7274 112.286 82.1613 111.471 82.4595 110.686C82.8189 109.746 83 108.822 83 107.935C83.0026 106.996 82.8136 106.082 82.4435 105.222V105.222Z" fill="#C20C7A"/>
<path d="M39.4435 70.2225C39.0867 69.3962 38.5721 68.6474 37.9287 68.0181C37.2847 67.3868 36.5255 66.8852 35.6923 66.5405C34.8283 66.1816 33.9016 65.9979 32.9661 66C31.6535 66 30.3729 66.3594 29.2601 67.0383C28.9939 67.2007 28.7409 67.3791 28.5013 67.5735C28.2617 67.3791 28.0088 67.2007 27.7425 67.0383C26.6297 66.3594 25.3491 66 24.0366 66C23.0914 66 22.1756 66.1811 21.3103 66.5405C20.4744 66.8866 19.7209 67.3844 19.074 68.0181C18.4297 68.6467 17.915 69.3957 17.5591 70.2225C17.189 71.0824 17 71.9956 17 72.9354C17 73.822 17.181 74.7458 17.5405 75.6856C17.8413 76.471 18.2726 77.2857 18.8237 78.1084C19.697 79.4102 20.8977 80.768 22.3886 82.1445C24.8592 84.4261 27.3059 86.0022 27.4098 86.0661L28.0407 86.4708C28.3203 86.6492 28.6797 86.6492 28.9592 86.4708L29.5902 86.0661C29.694 85.9995 32.1381 84.4261 34.6114 82.1445C36.1023 80.768 37.303 79.4102 38.1763 78.1084C38.7274 77.2857 39.1613 76.471 39.4595 75.6856C39.8189 74.7458 40 73.822 40 72.9354C40.0026 71.9956 39.8136 71.0824 39.4435 70.2225V70.2225Z" fill="#C20C7A"/>
<path d="M82.4435 70.2225C82.0867 69.3962 81.5721 68.6474 80.9287 68.0181C80.2847 67.3868 79.5255 66.8852 78.6923 66.5405C77.8283 66.1816 76.9016 65.9979 75.9661 66C74.6535 66 73.3729 66.3594 72.2601 67.0383C71.9939 67.2007 71.7409 67.3791 71.5013 67.5735C71.2617 67.3791 71.0088 67.2007 70.7425 67.0383C69.6297 66.3594 68.3491 66 67.0366 66C66.0914 66 65.1756 66.1811 64.3103 66.5405C63.4744 66.8866 62.7209 67.3844 62.074 68.0181C61.4297 68.6467 60.915 69.3957 60.5591 70.2225C60.189 71.0824 60 71.9956 60 72.9354C60 73.822 60.181 74.7458 60.5405 75.6856C60.8413 76.471 61.2726 77.2857 61.8237 78.1084C62.697 79.4102 63.8977 80.768 65.3886 82.1445C67.8592 84.4261 70.3059 86.0022 70.4098 86.0661L71.0407 86.4708C71.3203 86.6492 71.6797 86.6492 71.9592 86.4708L72.5902 86.0661C72.694 85.9995 75.1381 84.4261 77.6114 82.1445C79.1023 80.768 80.303 79.4102 81.1763 78.1084C81.7274 77.2857 82.1613 76.471 82.4595 75.6856C82.8189 74.7458 83 73.822 83 72.9354C83.0026 71.9956 82.8136 71.0824 82.4435 70.2225V70.2225Z" fill="#C20C7A"/>
<path d="M61.4435 53.2225C61.0867 52.3962 60.5721 51.6474 59.9287 51.0181C59.2847 50.3868 58.5255 49.8852 57.6923 49.5405C56.8283 49.1816 55.9016 48.9979 54.9661 49C53.6535 49 52.3729 49.3594 51.2601 50.0383C50.9938 50.2007 50.7409 50.3791 50.5013 50.5735C50.2617 50.3791 50.0088 50.2007 49.7425 50.0383C48.6297 49.3594 47.3491 49 46.0366 49C45.0914 49 44.1756 49.1811 43.3103 49.5405C42.4744 49.8866 41.7209 50.3844 41.074 51.0181C40.4297 51.6467 39.915 52.3957 39.5591 53.2225C39.189 54.0824 39 54.9956 39 55.9354C39 56.822 39.181 57.7458 39.5405 58.6856C39.8413 59.471 40.2726 60.2857 40.8237 61.1084C41.697 62.4102 42.8977 63.768 44.3886 65.1445C46.8592 67.4261 49.3059 69.0022 49.4098 69.0661L50.0407 69.4708C50.3203 69.6492 50.6797 69.6492 50.9592 69.4708L51.5902 69.0661C51.694 68.9995 54.1381 67.4261 56.6114 65.1445C58.1023 63.768 59.303 62.4102 60.1763 61.1084C60.7274 60.2857 61.1613 59.471 61.4595 58.6856C61.8189 57.7458 62 56.822 62 55.9354C62.0026 54.9956 61.8136 54.0824 61.4435 53.2225Z" fill="#C20C7A"/>
<path d="M61.4435 88.2225C61.0867 87.3962 60.5721 86.6474 59.9287 86.0181C59.2847 85.3868 58.5255 84.8852 57.6923 84.5405C56.8283 84.1816 55.9016 83.9979 54.9661 84C53.6535 84 52.3729 84.3594 51.2601 85.0383C50.9938 85.2007 50.7409 85.3791 50.5013 85.5735C50.2617 85.3791 50.0088 85.2007 49.7425 85.0383C48.6297 84.3594 47.3491 84 46.0366 84C45.0914 84 44.1756 84.1811 43.3103 84.5405C42.4744 84.8866 41.7209 85.3844 41.074 86.0181C40.4297 86.6467 39.915 87.3957 39.5591 88.2225C39.189 89.0824 39 89.9956 39 90.9354C39 91.822 39.181 92.7458 39.5405 93.6856C39.8413 94.471 40.2726 95.2857 40.8237 96.1084C41.697 97.4102 42.8977 98.768 44.3886 100.144C46.8592 102.426 49.3059 104.002 49.4098 104.066L50.0407 104.471C50.3203 104.649 50.6797 104.649 50.9592 104.471L51.5902 104.066C51.694 104 54.1381 102.426 56.6114 100.144C58.1023 98.768 59.303 97.4102 60.1763 96.1084C60.7274 95.2857 61.1613 94.471 61.4595 93.6856C61.8189 92.7458 62 91.822 62 90.9354C62.0026 89.9956 61.8136 89.0824 61.4435 88.2225Z" fill="#C20C7A"/>
<path d="M39.4435 37.2225C39.0867 36.3962 38.5721 35.6474 37.9287 35.0181C37.2847 34.3868 36.5255 33.8852 35.6923 33.5405C34.8283 33.1816 33.9016 32.9979 32.9661 33C31.6535 33 30.3729 33.3594 29.2601 34.0383C28.9939 34.2007 28.7409 34.3791 28.5013 34.5735C28.2617 34.3791 28.0088 34.2007 27.7425 34.0383C26.6297 33.3594 25.3491 33 24.0366 33C23.0914 33 22.1756 33.1811 21.3103 33.5405C20.4744 33.8866 19.7209 34.3844 19.074 35.0181C18.4297 35.6467 17.915 36.3957 17.5591 37.2225C17.189 38.0824 17 38.9956 17 39.9354C17 40.822 17.181 41.7458 17.5405 42.6856C17.8413 43.471 18.2726 44.2857 18.8237 45.1084C19.697 46.4102 20.8977 47.768 22.3886 49.1445C24.8592 51.4261 27.3059 53.0022 27.4098 53.0661L28.0407 53.4708C28.3203 53.6492 28.6797 53.6492 28.9592 53.4708L29.5902 53.0661C29.694 52.9995 32.1381 51.4261 34.6114 49.1445C36.1023 47.768 37.303 46.4102 38.1763 45.1084C38.7274 44.2857 39.1613 43.471 39.4595 42.6856C39.8189 41.7458 40 40.822 40 39.9354C40.0026 38.9956 39.8136 38.0824 39.4435 37.2225V37.2225Z" fill="#C20C7A"/>
<path d="M82.4435 37.2225C82.0867 36.3962 81.5721 35.6474 80.9287 35.0181C80.2847 34.3868 79.5255 33.8852 78.6923 33.5405C77.8283 33.1816 76.9016 32.9979 75.9661 33C74.6535 33 73.3729 33.3594 72.2601 34.0383C71.9939 34.2007 71.7409 34.3791 71.5013 34.5735C71.2617 34.3791 71.0088 34.2007 70.7425 34.0383C69.6297 33.3594 68.3491 33 67.0366 33C66.0914 33 65.1756 33.1811 64.3103 33.5405C63.4744 33.8866 62.7209 34.3844 62.074 35.0181C61.4297 35.6467 60.915 36.3957 60.5591 37.2225C60.189 38.0824 60 38.9956 60 39.9354C60 40.822 60.181 41.7458 60.5405 42.6856C60.8413 43.471 61.2726 44.2857 61.8237 45.1084C62.697 46.4102 63.8977 47.768 65.3886 49.1445C67.8592 51.4261 70.3059 53.0022 70.4098 53.0661L71.0407 53.4708C71.3203 53.6492 71.6797 53.6492 71.9592 53.4708L72.5902 53.0661C72.694 52.9995 75.1381 51.4261 77.6114 49.1445C79.1023 47.768 80.303 46.4102 81.1763 45.1084C81.7274 44.2857 82.1613 43.471 82.4595 42.6856C82.8189 41.7458 83 40.822 83 39.9354C83.0026 38.9956 82.8136 38.0824 82.4435 37.2225V37.2225Z" fill="#C20C7A"/>
</svg>
