<svg width="100" height="150" viewBox="0 0 100 150" fill="none" xmlns="http://www.w3.org/2000/svg">
<rect width="100" height="150" rx="10" fill="#D9D9D9"/>
<path d="M10.6 21.26C9.92 21.26 9.24667 21.1867 8.58 21.04C7.92 20.8933 7.36 20.6667 6.9 20.36L7.64 18.12C7.93333 18.3933 8.32667 18.6233 8.82 18.81C9.31333 18.99 9.79333 19.08 10.26 19.08C10.8067 19.08 11.3067 19.0233 11.76 18.91C12.2133 18.79 12.6 18.54 12.92 18.16C13.24 17.7733 13.4 17.2133 13.4 16.48C13.4 15.9533 13.28 15.4967 13.04 15.11C12.8067 14.7167 12.46 14.4133 12 14.2C11.5467 13.9867 11 13.88 10.36 13.88C9.84 13.88 9.29667 13.95 8.73 14.09C8.16333 14.23 7.76 14.3733 7.52 14.52L7.78 7.06H15.5V9.18H10.06L9.86 12.16C10.16 12.0733 10.46 12.0133 10.76 11.98C11.0667 11.94 11.4067 11.92 11.78 11.92C12.7067 11.92 13.4933 12.0967 14.14 12.45C14.7867 12.7967 15.2733 13.2933 15.6 13.94C15.9333 14.58 16.1 15.34 16.1 16.22C16.1 17.2467 15.87 18.14 15.41 18.9C14.95 19.66 14.3033 20.2433 13.47 20.65C12.6433 21.0567 11.6867 21.26 10.6 21.26Z" fill="#C20C7A"/>
<path d="M85.6 142.26C84.92 142.26 84.2467 142.187 83.58 142.04C82.92 141.893 82.36 141.667 81.9 141.36L82.64 139.12C82.9333 139.393 83.3267 139.623 83.82 139.81C84.3133 139.99 84.7933 140.08 85.26 140.08C85.8067 140.08 86.3067 140.023 86.76 139.91C87.2133 139.79 87.6 139.54 87.92 139.16C88.24 138.773 88.4 138.213 88.4 137.48C88.4 136.953 88.28 136.497 88.04 136.11C87.8067 135.717 87.46 135.413 87 135.2C86.5467 134.987 86 134.88 85.36 134.88C84.84 134.88 84.2967 134.95 83.73 135.09C83.1633 135.23 82.76 135.373 82.52 135.52L82.78 128.06H90.5V130.18H85.06L84.86 133.16C85.16 133.073 85.46 133.013 85.76 132.98C86.0667 132.94 86.4067 132.92 86.78 132.92C87.7067 132.92 88.4933 133.097 89.14 133.45C89.7867 133.797 90.2733 134.293 90.6 134.94C90.9333 135.58 91.1 136.34 91.1 137.22C91.1 138.247 90.87 139.14 90.41 139.9C89.95 140.66 89.3033 141.243 88.47 141.65C87.6433 142.057 86.6867 142.26 85.6 142.26Z" fill="#C20C7A"/>
<path d="M61.4435 71.2225C61.0867 70.3962 60.5721 69.6474 59.9287 69.0181C59.2847 68.3868 58.5255 67.8852 57.6923 67.5405C56.8283 67.1816 55.9016 66.9979 54.9661 67C53.6535 67 52.3729 67.3594 51.2601 68.0383C50.9939 68.2007 50.7409 68.3791 50.5013 68.5735C50.2617 68.3791 50.0088 68.2007 49.7425 68.0383C48.6297 67.3594 47.3491 67 46.0366 67C45.0914 67 44.1756 67.1811 43.3103 67.5405C42.4744 67.8866 41.7209 68.3844 41.074 69.0181C40.4297 69.6467 39.915 70.3957 39.5591 71.2225C39.189 72.0824 39 72.9956 39 73.9354C39 74.822 39.181 75.7458 39.5405 76.6856C39.8413 77.471 40.2726 78.2857 40.8237 79.1084C41.697 80.4102 42.8977 81.768 44.3886 83.1445C46.8592 85.4261 49.3059 87.0022 49.4098 87.0661L50.0407 87.4708C50.3203 87.6492 50.6797 87.6492 50.9592 87.4708L51.5902 87.0661C51.694 86.9995 54.1381 85.4261 56.6114 83.1445C58.1023 81.768 59.303 80.4102 60.1763 79.1084C60.7274 78.2857 61.1613 77.471 61.4595 76.6856C61.8189 75.7458 62 74.822 62 73.9354C62.0026 72.9956 61.8136 72.0824 61.4435 71.2225V71.2225Z" fill="#C20C7A"/>
<path d="M38.4435 105.222C38.0867 104.396 37.5721 103.647 36.9287 103.018C36.2847 102.387 35.5255 101.885 34.6923 101.54C33.8283 101.182 32.9016 100.998 31.9661 101C30.6535 101 29.3729 101.359 28.2601 102.038C27.9939 102.201 27.7409 102.379 27.5013 102.573C27.2617 102.379 27.0088 102.201 26.7425 102.038C25.6297 101.359 24.3491 101 23.0366 101C22.0914 101 21.1756 101.181 20.3103 101.54C19.4744 101.887 18.7209 102.384 18.074 103.018C17.4297 103.647 16.915 104.396 16.5591 105.222C16.189 106.082 16 106.996 16 107.935C16 108.822 16.181 109.746 16.5405 110.686C16.8413 111.471 17.2726 112.286 17.8237 113.108C18.697 114.41 19.8977 115.768 21.3886 117.144C23.8592 119.426 26.3059 121.002 26.4098 121.066L27.0407 121.471C27.3203 121.649 27.6797 121.649 27.9592 121.471L28.5902 121.066C28.694 121 31.1381 119.426 33.6114 117.144C35.1023 115.768 36.303 114.41 37.1763 113.108C37.7274 112.286 38.1613 111.471 38.4595 110.686C38.8189 109.746 39 108.822 39 107.935C39.0026 106.996 38.8136 106.082 38.4435 105.222V105.222Z" fill="#C20C7A"/>
<path d="M38.4435 39.2225C38.0867 38.3962 37.5721 37.6474 36.9287 37.0181C36.2847 36.3868 35.5255 35.8852 34.6923 35.5405C33.8283 35.1816 32.9016 34.9979 31.9661 35C30.6535 35 29.3729 35.3594 28.2601 36.0383C27.9939 36.2007 27.7409 36.3791 27.5013 36.5735C27.2617 36.3791 27.0088 36.2007 26.7425 36.0383C25.6297 35.3594 24.3491 35 23.0366 35C22.0914 35 21.1756 35.1811 20.3103 35.5405C19.4744 35.8866 18.7209 36.3844 18.074 37.0181C17.4297 37.6467 16.915 38.3957 16.5591 39.2225C16.189 40.0824 16 40.9956 16 41.9354C16 42.822 16.181 43.7458 16.5405 44.6856C16.8413 45.471 17.2726 46.2857 17.8237 47.1084C18.697 48.4102 19.8977 49.768 21.3886 51.1445C23.8592 53.4261 26.3059 55.0022 26.4098 55.0661L27.0407 55.4708C27.3203 55.6492 27.6797 55.6492 27.9592 55.4708L28.5902 55.0661C28.694 54.9995 31.1381 53.4261 33.6114 51.1445C35.1023 49.768 36.303 48.4102 37.1763 47.1084C37.7274 46.2857 38.1613 45.471 38.4595 44.6856C38.8189 43.7458 39 42.822 39 41.9354C39.0026 40.9956 38.8136 40.0824 38.4435 39.2225V39.2225Z" fill="#C20C7A"/>
<path d="M84.4435 39.2225C84.0867 38.3962 83.5721 37.6474 82.9287 37.0181C82.2847 36.3868 81.5255 35.8852 80.6923 35.5405C79.8283 35.1816 78.9016 34.9979 77.9661 35C76.6535 35 75.3729 35.3594 74.2601 36.0383C73.9939 36.2007 73.7409 36.3791 73.5013 36.5735C73.2617 36.3791 73.0088 36.2007 72.7425 36.0383C71.6297 35.3594 70.3491 35 69.0366 35C68.0914 35 67.1756 35.1811 66.3103 35.5405C65.4744 35.8866 64.7209 36.3844 64.074 37.0181C63.4297 37.6467 62.915 38.3957 62.5591 39.2225C62.189 40.0824 62 40.9956 62 41.9354C62 42.822 62.181 43.7458 62.5405 44.6856C62.8413 45.471 63.2726 46.2857 63.8237 47.1084C64.697 48.4102 65.8977 49.768 67.3886 51.1445C69.8592 53.4261 72.3059 55.0022 72.4098 55.0661L73.0407 55.4708C73.3203 55.6492 73.6797 55.6492 73.9592 55.4708L74.5902 55.0661C74.694 54.9995 77.1381 53.4261 79.6114 51.1445C81.1023 49.768 82.303 48.4102 83.1763 47.1084C83.7274 46.2857 84.1613 45.471 84.4595 44.6856C84.8189 43.7458 85 42.822 85 41.9354C85.0026 40.9956 84.8136 40.0824 84.4435 39.2225V39.2225Z" fill="#C20C7A"/>
<path d="M84.4435 105.222C84.0867 104.396 83.5721 103.647 82.9287 103.018C82.2847 102.387 81.5255 101.885 80.6923 101.54C79.8283 101.182 78.9016 100.998 77.9661 101C76.6535 101 75.3729 101.359 74.2601 102.038C73.9939 102.201 73.7409 102.379 73.5013 102.573C73.2617 102.379 73.0088 102.201 72.7425 102.038C71.6297 101.359 70.3491 101 69.0366 101C68.0914 101 67.1756 101.181 66.3103 101.54C65.4744 101.887 64.7209 102.384 64.074 103.018C63.4297 103.647 62.915 104.396 62.5591 105.222C62.189 106.082 62 106.996 62 107.935C62 108.822 62.181 109.746 62.5405 110.686C62.8413 111.471 63.2726 112.286 63.8237 113.108C64.697 114.41 65.8977 115.768 67.3886 117.144C69.8592 119.426 72.3059 121.002 72.4098 121.066L73.0407 121.471C73.3203 121.649 73.6797 121.649 73.9592 121.471L74.5902 121.066C74.694 121 77.1381 119.426 79.6114 117.144C81.1023 115.768 82.303 114.41 83.1763 113.108C83.7274 112.286 84.1613 111.471 84.4595 110.686C84.8189 109.746 85 108.822 85 107.935C85.0026 106.996 84.8136 106.082 84.4435 105.222V105.222Z" fill="#C20C7A"/>
</svg>
