<svg width="100" height="150" viewBox="0 0 100 150" fill="none" xmlns="http://www.w3.org/2000/svg">
<rect width="100" height="150" rx="10" fill="#D9D9D9"/>
<path d="M17.7 18.48H16.02V21H13.4V18.48H6.8L6.66 18.26L11.8 7.06H16.02V16.54H17.7V18.48ZM10.22 16.54H13.52L13.61 8.49L11.36 14.06L10.22 16.54Z" fill="#C20C7A"/>
<path d="M92.7 139.48H91.02V142H88.4V139.48H81.8L81.66 139.26L86.8 128.06H91.02V137.54H92.7V139.48ZM85.22 137.54H88.52L88.61 129.49L86.36 135.06L85.22 137.54Z" fill="#C20C7A"/>
<path d="M85.4435 36.2225C85.0867 35.3962 84.5721 34.6474 83.9287 34.0181C83.2847 33.3868 82.5255 32.8852 81.6923 32.5405C80.8283 32.1816 79.9016 31.9979 78.9661 32C77.6535 32 76.3729 32.3594 75.2601 33.0383C74.9938 33.2007 74.7409 33.3791 74.5013 33.5735C74.2617 33.3791 74.0088 33.2007 73.7425 33.0383C72.6297 32.3594 71.3491 32 70.0366 32C69.0914 32 68.1756 32.1811 67.3103 32.5405C66.4744 32.8866 65.7209 33.3844 65.074 34.0181C64.4297 34.6467 63.915 35.3957 63.5591 36.2225C63.189 37.0824 63 37.9956 63 38.9354C63 39.822 63.181 40.7458 63.5405 41.6856C63.8413 42.471 64.2726 43.2857 64.8237 44.1084C65.697 45.4102 66.8977 46.768 68.3886 48.1445C70.8592 50.4261 73.3059 52.0022 73.4098 52.0661L74.0407 52.4708C74.3203 52.6492 74.6797 52.6492 74.9592 52.4708L75.5902 52.0661C75.694 51.9995 78.1381 50.4261 80.6114 48.1445C82.1023 46.768 83.303 45.4102 84.1763 44.1084C84.7274 43.2857 85.1613 42.471 85.4595 41.6856C85.8189 40.7458 86 39.822 86 38.9354C86.0026 37.9956 85.8136 37.0824 85.4435 36.2225Z" fill="#C20C7A"/>
<path d="M36.4435 36.2225C36.0867 35.3962 35.5721 34.6474 34.9287 34.0181C34.2847 33.3868 33.5255 32.8852 32.6923 32.5405C31.8283 32.1816 30.9016 31.9979 29.9661 32C28.6535 32 27.3729 32.3594 26.2601 33.0383C25.9938 33.2007 25.7409 33.3791 25.5013 33.5735C25.2617 33.3791 25.0088 33.2007 24.7425 33.0383C23.6297 32.3594 22.3491 32 21.0366 32C20.0914 32 19.1756 32.1811 18.3103 32.5405C17.4744 32.8866 16.7209 33.3844 16.074 34.0181C15.4297 34.6467 14.915 35.3957 14.5591 36.2225C14.189 37.0824 14 37.9956 14 38.9354C14 39.822 14.181 40.7458 14.5405 41.6856C14.8413 42.471 15.2726 43.2857 15.8237 44.1084C16.697 45.4102 17.8977 46.768 19.3886 48.1445C21.8592 50.4261 24.3059 52.0022 24.4098 52.0661L25.0407 52.4708C25.3203 52.6492 25.6797 52.6492 25.9592 52.4708L26.5902 52.0661C26.694 51.9995 29.1381 50.4261 31.6114 48.1445C33.1023 46.768 34.303 45.4102 35.1763 44.1084C35.7274 43.2857 36.1613 42.471 36.4595 41.6856C36.8189 40.7458 37 39.822 37 38.9354C37.0026 37.9956 36.8136 37.0824 36.4435 36.2225Z" fill="#C20C7A"/>
<path d="M85.4435 104.222C85.0867 103.396 84.5721 102.647 83.9287 102.018C83.2847 101.387 82.5255 100.885 81.6923 100.54C80.8283 100.182 79.9016 99.9979 78.9661 100C77.6535 100 76.3729 100.359 75.2601 101.038C74.9938 101.201 74.7409 101.379 74.5013 101.573C74.2617 101.379 74.0088 101.201 73.7425 101.038C72.6297 100.359 71.3491 100 70.0366 100C69.0914 100 68.1756 100.181 67.3103 100.54C66.4744 100.887 65.7209 101.384 65.074 102.018C64.4297 102.647 63.915 103.396 63.5591 104.222C63.189 105.082 63 105.996 63 106.935C63 107.822 63.181 108.746 63.5405 109.686C63.8413 110.471 64.2726 111.286 64.8237 112.108C65.697 113.41 66.8977 114.768 68.3886 116.144C70.8592 118.426 73.3059 120.002 73.4098 120.066L74.0407 120.471C74.3203 120.649 74.6797 120.649 74.9592 120.471L75.5902 120.066C75.694 120 78.1381 118.426 80.6114 116.144C82.1023 114.768 83.303 113.41 84.1763 112.108C84.7274 111.286 85.1613 110.471 85.4595 109.686C85.8189 108.746 86 107.822 86 106.935C86.0026 105.996 85.8136 105.082 85.4435 104.222Z" fill="#C20C7A"/>
<path d="M36.4435 104.222C36.0867 103.396 35.5721 102.647 34.9287 102.018C34.2847 101.387 33.5255 100.885 32.6923 100.54C31.8283 100.182 30.9016 99.9979 29.9661 100C28.6535 100 27.3729 100.359 26.2601 101.038C25.9938 101.201 25.7409 101.379 25.5013 101.573C25.2617 101.379 25.0088 101.201 24.7425 101.038C23.6297 100.359 22.3491 100 21.0366 100C20.0914 100 19.1756 100.181 18.3103 100.54C17.4744 100.887 16.7209 101.384 16.074 102.018C15.4297 102.647 14.915 103.396 14.5591 104.222C14.189 105.082 14 105.996 14 106.935C14 107.822 14.181 108.746 14.5405 109.686C14.8413 110.471 15.2726 111.286 15.8237 112.108C16.697 113.41 17.8977 114.768 19.3886 116.144C21.8592 118.426 24.3059 120.002 24.4098 120.066L25.0407 120.471C25.3203 120.649 25.6797 120.649 25.9592 120.471L26.5902 120.066C26.694 120 29.1381 118.426 31.6114 116.144C33.1023 114.768 34.303 113.41 35.1763 112.108C35.7274 111.286 36.1613 110.471 36.4595 109.686C36.8189 108.746 37 107.822 37 106.935C37.0026 105.996 36.8136 105.082 36.4435 104.222Z" fill="#C20C7A"/>
</svg>
