<svg width="100" height="150" viewBox="0 0 100 150" fill="none" xmlns="http://www.w3.org/2000/svg">
<rect width="100" height="150" rx="10" fill="#D9D9D9"/>
<path d="M8.38 21.3C8.00667 21.3 7.55 21.2333 7.01 21.1C6.47667 20.9733 6.09333 20.8267 5.86 20.66L6.82 18.28C6.98667 18.5267 7.2 18.7233 7.46 18.87C7.72667 19.01 7.99333 19.08 8.26 19.08C8.59333 19.08 8.87667 19.04 9.11 18.96C9.34333 18.8733 9.54 18.6833 9.7 18.39C9.86 18.09 9.94 17.6467 9.94 17.06V7.06H12.54V16.82C12.54 18.1867 12.2167 19.2767 11.57 20.09C10.9233 20.8967 9.86 21.3 8.38 21.3Z" fill="#C20C7A"/>
<path d="M86.38 142.3C86.0067 142.3 85.55 142.233 85.01 142.1C84.4767 141.973 84.0933 141.827 83.86 141.66L84.82 139.28C84.9867 139.527 85.2 139.723 85.46 139.87C85.7267 140.01 85.9933 140.08 86.26 140.08C86.5933 140.08 86.8767 140.04 87.11 139.96C87.3433 139.873 87.54 139.683 87.7 139.39C87.86 139.09 87.94 138.647 87.94 138.06V128.06H90.54V137.82C90.54 139.187 90.2167 140.277 89.57 141.09C88.9233 141.897 87.86 142.3 86.38 142.3Z" fill="#C20C7A"/>
<path d="M59.3568 85.256C59.3568 89.4373 59.0794 92.9787 58.5248 95.88C58.0128 98.824 57.1808 101.213 56.0288 103.048C54.8768 104.883 53.3834 106.227 51.5488 107.08C49.7141 107.933 47.4954 108.36 44.8927 108.36C41.9914 108.36 39.8367 107.912 38.4287 107.016C37.0207 106.12 36.3167 104.989 36.3167 103.624C35.3354 103.24 34.5674 102.621 34.0127 101.768C33.4154 100.957 33.1167 100.061 33.1167 99.08C33.1167 97.9707 33.5221 97.096 34.3327 96.456C35.1434 95.816 36.2527 95.496 37.6607 95.496C38.9407 95.496 39.7727 95.7307 40.1567 96.2C39.7727 96.968 39.5807 97.8 39.5807 98.696C39.5807 100.659 40.0927 102.173 41.1167 103.24C42.1407 104.349 43.8901 104.904 46.3648 104.904C47.8154 104.904 49.0528 104.669 50.0768 104.2C51.1008 103.773 51.8688 103.005 52.3808 101.896C52.5941 101.427 52.7648 100.808 52.8928 100.04C53.0634 99.3147 53.1914 98.376 53.2768 97.224C53.4048 96.1147 53.4901 94.7493 53.5328 93.128C53.5754 91.5493 53.5968 89.6293 53.5968 87.368V47.304C53.5968 45.9813 53.1061 44.9787 52.1248 44.296C51.1434 43.5707 49.7354 43.208 47.9008 43.208C47.9008 41.416 49.0528 40.52 51.3568 40.52C53.4474 40.52 55.1541 41.1813 56.4768 42.504C57.7994 41.1813 59.5061 40.52 61.5968 40.52C63.9008 40.52 65.0528 41.416 65.0528 43.208C63.2608 43.208 61.8528 43.5707 60.8288 44.296C59.8474 45.0213 59.3568 46.024 59.3568 47.304V85.256Z" fill="#C20C7A"/>
<path d="M92.428 9.27888C92.1509 8.63724 91.7513 8.0558 91.2517 7.56709C90.7516 7.07693 90.1621 6.6874 89.5151 6.41969C88.8442 6.141 88.1246 5.99834 87.3981 6.00001C86.3789 6.00001 85.3844 6.27911 84.5203 6.80629C84.3135 6.9324 84.1171 7.07092 83.9311 7.22184C83.745 7.07092 83.5486 6.9324 83.3419 6.80629C82.4777 6.27911 81.4833 6.00001 80.4641 6.00001C79.7302 6.00001 79.019 6.1406 78.3471 6.41969C77.6979 6.68845 77.1129 7.07505 76.6105 7.56709C76.1102 8.05524 75.7105 8.63683 75.4341 9.27888C75.1468 9.94665 75 10.6558 75 11.3855C75 12.074 75.1406 12.7914 75.4197 13.5211C75.6533 14.131 75.9882 14.7636 76.4162 15.4025C77.0943 16.4134 78.0266 17.4678 79.1844 18.5366C81.1029 20.3084 83.0028 21.5323 83.0835 21.5819L83.5734 21.8961C83.7905 22.0346 84.0696 22.0346 84.2867 21.8961L84.7766 21.5819C84.8573 21.5302 86.7551 20.3084 88.6757 18.5366C89.8335 17.4678 90.7658 16.4134 91.4439 15.4025C91.8719 14.7636 92.2089 14.131 92.4404 13.5211C92.7195 12.7914 92.8601 12.074 92.8601 11.3855C92.8622 10.6558 92.7154 9.94665 92.428 9.27888Z" fill="#C20C7A"/>
<path d="M23.428 130.279C23.1509 129.637 22.7513 129.056 22.2517 128.567C21.7516 128.077 21.1621 127.687 20.5151 127.42C19.8442 127.141 19.1246 126.998 18.3981 127C17.3789 127 16.3844 127.279 15.5203 127.806C15.3135 127.932 15.1171 128.071 14.9311 128.222C14.745 128.071 14.5486 127.932 14.3419 127.806C13.4777 127.279 12.4833 127 11.4641 127C10.7302 127 10.019 127.141 9.34709 127.42C8.69793 127.688 8.11286 128.075 7.61049 128.567C7.11018 129.055 6.71051 129.637 6.43415 130.279C6.14678 130.947 6 131.656 6 132.386C6 133.074 6.14058 133.791 6.41968 134.521C6.65329 135.131 6.98821 135.764 7.41616 136.402C8.09426 137.413 9.02664 138.468 10.1844 139.537C12.1029 141.308 14.0028 142.532 14.0835 142.582L14.5734 142.896C14.7905 143.035 15.0696 143.035 15.2867 142.896L15.7766 142.582C15.8573 142.53 17.7551 141.308 19.6757 139.537C20.8335 138.468 21.7658 137.413 22.4439 136.402C22.8719 135.764 23.2089 135.131 23.4404 134.521C23.7195 133.791 23.8601 133.074 23.8601 132.386C23.8622 131.656 23.7154 130.947 23.428 130.279Z" fill="#C20C7A"/>
</svg>
