<svg width="100" height="150" viewBox="0 0 100 150" fill="none" xmlns="http://www.w3.org/2000/svg">
<rect width="100" height="150" rx="10" fill="#D9D9D9"/>
<path d="M14.72 21L10.22 14.31V21H7.68V7.06H10.22V14L14.66 7.06H17.6L12.85 13.98L17.92 21H14.72Z" fill="#C20C7A"/>
<path d="M89.72 142L85.22 135.31V142H82.68V128.06H85.22V135L89.66 128.06H92.6L87.85 134.98L92.92 142H89.72Z" fill="#C20C7A"/>
<path d="M39.656 90.896C39.656 91.92 39.8907 92.7307 40.36 93.328C40.8293 93.9253 41.384 94.3733 42.024 94.672C42.7067 94.928 43.4107 95.0987 44.136 95.184C44.8613 95.2693 45.48 95.312 45.992 95.312V98C45.48 98 44.7973 97.9787 43.944 97.936C43.1333 97.8507 42.28 97.7653 41.384 97.68C40.488 97.5947 39.6133 97.5307 38.76 97.488C37.9493 97.4027 37.288 97.36 36.776 97.36C36.264 97.36 35.5813 97.4027 34.728 97.488C33.9173 97.5307 33.064 97.5947 32.168 97.68C31.272 97.7653 30.3973 97.8507 29.544 97.936C28.7333 97.9787 28.072 98 27.56 98V95.312C28.1147 95.312 28.7547 95.2693 29.48 95.184C30.248 95.0987 30.952 94.928 31.592 94.672C32.232 94.3733 32.7653 93.9253 33.192 93.328C33.6613 92.7307 33.896 91.92 33.896 90.896V52.304C33.896 50.9813 33.384 49.9787 32.36 49.296C31.3787 48.5707 29.992 48.208 28.2 48.208C28.2 47.4827 28.456 46.864 28.968 46.352C29.48 45.7973 30.376 45.52 31.656 45.52C32.7653 45.52 33.7467 45.712 34.6 46.096C35.496 46.48 36.2213 46.9493 36.776 47.504C37.3307 46.9493 38.0347 46.48 38.888 46.096C39.784 45.712 40.7867 45.52 41.896 45.52C43.176 45.52 44.072 45.7973 44.584 46.352C45.096 46.864 45.352 47.4827 45.352 48.208C43.6027 48.208 42.216 48.5707 41.192 49.296C40.168 49.9787 39.656 50.9813 39.656 52.304V74L53.608 57.36C53.992 56.9333 54.4613 56.3573 55.016 55.632C55.5707 54.9067 56.1253 54.16 56.68 53.392C57.2347 52.624 57.704 51.8987 58.088 51.216C58.472 50.5333 58.664 49.9787 58.664 49.552C58.664 49.168 58.4933 48.8907 58.152 48.72C57.8533 48.5067 57.4693 48.3787 57 48.336C56.5733 48.2507 56.1253 48.208 55.656 48.208C55.1867 48.208 54.7813 48.1867 54.44 48.144C54.4827 47.7173 54.6533 47.3547 54.952 47.056C55.2507 46.7147 55.592 46.4373 55.976 46.224C56.4027 46.0107 56.8507 45.8613 57.32 45.776C57.7893 45.6907 58.2373 45.648 58.664 45.648C59.3893 45.7333 60.072 45.9253 60.712 46.224C61.3947 46.48 61.9707 46.9707 62.44 47.696C62.9093 47.1413 63.5493 46.6507 64.36 46.224C65.2133 45.7973 66.1947 45.584 67.304 45.584C68.2853 45.584 69.1173 45.7973 69.8 46.224C70.5253 46.608 70.9093 47.2693 70.952 48.208C70.824 48.208 70.7173 48.208 70.632 48.208C70.5467 48.1653 70.3973 48.144 70.184 48.144C69.032 48.144 67.8587 48.5493 66.664 49.36C65.512 50.1707 64.4027 51.1307 63.336 52.24C62.2693 53.3493 61.2667 54.5013 60.328 55.696C59.432 56.848 58.6853 57.7867 58.088 58.512L50.216 67.664L67.24 90.896C67.8373 91.7067 68.52 92.3893 69.288 92.944C70.056 93.4987 70.8453 93.968 71.656 94.352C72.4667 94.6933 73.2347 94.9493 73.96 95.12C74.728 95.248 75.3893 95.312 75.944 95.312V98C75.432 98 74.664 97.9787 73.64 97.936C72.6587 97.8507 71.6133 97.7653 70.504 97.68C69.3947 97.5947 68.328 97.5307 67.304 97.488C66.3227 97.4027 65.576 97.36 65.064 97.36C64.552 97.36 63.8267 97.4027 62.888 97.488C61.9493 97.5307 60.968 97.5947 59.944 97.68C58.92 97.7653 57.9387 97.8507 57 97.936C56.104 97.9787 55.4 98 54.888 98V95.312C55.4 95.312 55.976 95.2907 56.616 95.248C57.2987 95.1627 57.9387 95.0347 58.536 94.864C59.1333 94.6933 59.624 94.4373 60.008 94.096C60.4347 93.7547 60.648 93.2853 60.648 92.688C60.648 91.9627 60.4133 91.216 59.944 90.448C59.4747 89.6373 59.1333 89.104 58.92 88.848L46.504 72.016L39.656 79.952V90.896Z" fill="#C20C7A"/>
<path d="M92.428 9.27888C92.1509 8.63724 91.7513 8.0558 91.2517 7.56709C90.7516 7.07693 90.1621 6.6874 89.5151 6.41969C88.8442 6.141 88.1246 5.99834 87.3981 6.00001C86.3789 6.00001 85.3844 6.27911 84.5203 6.80629C84.3135 6.9324 84.1171 7.07092 83.9311 7.22184C83.745 7.07092 83.5486 6.9324 83.3419 6.80629C82.4777 6.27911 81.4833 6.00001 80.4641 6.00001C79.7302 6.00001 79.019 6.1406 78.3471 6.41969C77.6979 6.68845 77.1129 7.07505 76.6105 7.56709C76.1102 8.05524 75.7105 8.63683 75.4341 9.27888C75.1468 9.94665 75 10.6558 75 11.3855C75 12.074 75.1406 12.7914 75.4197 13.5211C75.6533 14.131 75.9882 14.7636 76.4162 15.4025C77.0943 16.4134 78.0266 17.4678 79.1844 18.5366C81.1029 20.3084 83.0028 21.5323 83.0835 21.5819L83.5734 21.8961C83.7905 22.0346 84.0696 22.0346 84.2867 21.8961L84.7766 21.5819C84.8573 21.5302 86.7551 20.3084 88.6757 18.5366C89.8335 17.4678 90.7658 16.4134 91.4439 15.4025C91.8719 14.7636 92.2089 14.131 92.4404 13.5211C92.7195 12.7914 92.8601 12.074 92.8601 11.3855C92.8622 10.6558 92.7154 9.94665 92.428 9.27888Z" fill="#C20C7A"/>
<path d="M23.428 129.279C23.1509 128.637 22.7513 128.056 22.2517 127.567C21.7516 127.077 21.1621 126.687 20.5151 126.42C19.8442 126.141 19.1246 125.998 18.3981 126C17.3789 126 16.3844 126.279 15.5203 126.806C15.3135 126.932 15.1171 127.071 14.9311 127.222C14.745 127.071 14.5486 126.932 14.3419 126.806C13.4777 126.279 12.4833 126 11.4641 126C10.7302 126 10.019 126.141 9.34709 126.42C8.69793 126.688 8.11286 127.075 7.61049 127.567C7.11018 128.055 6.71051 128.637 6.43415 129.279C6.14678 129.947 6 130.656 6 131.386C6 132.074 6.14058 132.791 6.41968 133.521C6.65329 134.131 6.98821 134.764 7.41616 135.402C8.09426 136.413 9.02664 137.468 10.1844 138.537C12.1029 140.308 14.0028 141.532 14.0835 141.582L14.5734 141.896C14.7905 142.035 15.0696 142.035 15.2867 141.896L15.7766 141.582C15.8573 141.53 17.7551 140.308 19.6757 138.537C20.8335 137.468 21.7658 136.413 22.4439 135.402C22.8719 134.764 23.2089 134.131 23.4404 133.521C23.7195 132.791 23.8601 132.074 23.8601 131.386C23.8622 130.656 23.7154 129.947 23.428 129.279Z" fill="#C20C7A"/>
</svg>
