<svg width="100" height="150" viewBox="0 0 100 150" fill="none" xmlns="http://www.w3.org/2000/svg">
<rect width="100" height="150" rx="10" fill="#D9D9D9"/>
<path d="M11.54 21.3C10.6533 21.3 9.94667 21.2133 9.42 21.04C8.9 20.8667 8.46667 20.6133 8.12 20.28L9.1 18.28C9.34667 18.5467 9.68333 18.74 10.11 18.86C10.5367 18.98 10.9667 19.04 11.4 19.04C12.08 19.04 12.6833 18.8667 13.21 18.52C13.7433 18.1667 14.1633 17.68 14.47 17.06C14.7767 16.4333 14.9467 15.72 14.98 14.92C14.9933 14.7333 15 14.4867 15 14.18C14.66 14.84 14.16 15.3367 13.5 15.67C12.84 15.9967 12.12 16.16 11.34 16.16C10.4667 16.16 9.71333 15.96 9.08 15.56C8.45333 15.1533 7.97667 14.61 7.65 13.93C7.32333 13.25 7.16 12.5 7.16 11.68C7.16 10.6733 7.38 9.79667 7.82 9.05C8.26667 8.29667 8.88333 7.72 9.67 7.32C10.4633 6.92 11.3733 6.72 12.4 6.72C13.2733 6.72 14.1033 6.95333 14.89 7.42C15.6833 7.88667 16.3367 8.64667 16.85 9.7C17.3633 10.7467 17.62 12.0933 17.62 13.74C17.62 15.2667 17.36 16.6033 16.84 17.75C16.32 18.89 15.6 19.7667 14.68 20.38C13.76 20.9933 12.7133 21.3 11.54 21.3ZM12 14.12C12.4333 14.12 12.8467 14.0133 13.24 13.8C13.64 13.58 13.9667 13.29 14.22 12.93C14.4733 12.5633 14.6133 12.1667 14.64 11.74C14.64 11.2067 14.55 10.7167 14.37 10.27C14.19 9.81667 13.9267 9.45667 13.58 9.19C13.2333 8.91667 12.82 8.78 12.34 8.78C11.9067 8.78 11.5 8.88667 11.12 9.1C10.74 9.30667 10.43 9.61333 10.19 10.02C9.95667 10.42 9.84 10.8933 9.84 11.44C9.84 12.2467 10.0233 12.8967 10.39 13.39C10.7633 13.8767 11.3 14.12 12 14.12Z" fill="#C20C7A"/>
<path d="M86.54 142.3C85.6533 142.3 84.9467 142.213 84.42 142.04C83.9 141.867 83.4667 141.613 83.12 141.28L84.1 139.28C84.3467 139.547 84.6833 139.74 85.11 139.86C85.5367 139.98 85.9667 140.04 86.4 140.04C87.08 140.04 87.6833 139.867 88.21 139.52C88.7433 139.167 89.1633 138.68 89.47 138.06C89.7767 137.433 89.9467 136.72 89.98 135.92C89.9933 135.733 90 135.487 90 135.18C89.66 135.84 89.16 136.337 88.5 136.67C87.84 136.997 87.12 137.16 86.34 137.16C85.4667 137.16 84.7133 136.96 84.08 136.56C83.4533 136.153 82.9767 135.61 82.65 134.93C82.3233 134.25 82.16 133.5 82.16 132.68C82.16 131.673 82.38 130.797 82.82 130.05C83.2667 129.297 83.8833 128.72 84.67 128.32C85.4633 127.92 86.3733 127.72 87.4 127.72C88.2733 127.72 89.1033 127.953 89.89 128.42C90.6833 128.887 91.3367 129.647 91.85 130.7C92.3633 131.747 92.62 133.093 92.62 134.74C92.62 136.267 92.36 137.603 91.84 138.75C91.32 139.89 90.6 140.767 89.68 141.38C88.76 141.993 87.7133 142.3 86.54 142.3ZM87 135.12C87.4333 135.12 87.8467 135.013 88.24 134.8C88.64 134.58 88.9667 134.29 89.22 133.93C89.4733 133.563 89.6133 133.167 89.64 132.74C89.64 132.207 89.55 131.717 89.37 131.27C89.19 130.817 88.9267 130.457 88.58 130.19C88.2333 129.917 87.82 129.78 87.34 129.78C86.9067 129.78 86.5 129.887 86.12 130.1C85.74 130.307 85.43 130.613 85.19 131.02C84.9567 131.42 84.84 131.893 84.84 132.44C84.84 133.247 85.0233 133.897 85.39 134.39C85.7633 134.877 86.3 135.12 87 135.12Z" fill="#C20C7A"/>
<path d="M61.4435 69.2225C61.0867 68.3962 60.5721 67.6474 59.9287 67.0181C59.2847 66.3868 58.5255 65.8852 57.6923 65.5405C56.8283 65.1816 55.9016 64.9979 54.9661 65C53.6535 65 52.3729 65.3594 51.2601 66.0383C50.9939 66.2007 50.7409 66.3791 50.5013 66.5735C50.2617 66.3791 50.0088 66.2007 49.7425 66.0383C48.6297 65.3594 47.3491 65 46.0366 65C45.0914 65 44.1756 65.1811 43.3103 65.5405C42.4744 65.8866 41.7209 66.3844 41.074 67.0181C40.4297 67.6467 39.915 68.3957 39.5591 69.2225C39.189 70.0824 39 70.9956 39 71.9354C39 72.822 39.181 73.7458 39.5405 74.6856C39.8413 75.471 40.2726 76.2857 40.8237 77.1084C41.697 78.4102 42.8977 79.768 44.3886 81.1445C46.8592 83.4261 49.3059 85.0022 49.4098 85.0661L50.0407 85.4708C50.3203 85.6492 50.6797 85.6492 50.9592 85.4708L51.5902 85.0661C51.694 84.9995 54.1381 83.4261 56.6114 81.1445C58.1023 79.768 59.303 78.4102 60.1763 77.1084C60.7274 76.2857 61.1613 75.471 61.4595 74.6856C61.8189 73.7458 62 72.822 62 71.9354C62.0026 70.9956 61.8136 70.0824 61.4435 69.2225V69.2225Z" fill="#C20C7A"/>
<path d="M86.4435 56.2225C86.0867 55.3962 85.5721 54.6474 84.9287 54.0181C84.2847 53.3868 83.5255 52.8852 82.6923 52.5405C81.8283 52.1816 80.9016 51.9979 79.9661 52C78.6535 52 77.3729 52.3594 76.2601 53.0383C75.9939 53.2007 75.7409 53.3791 75.5013 53.5735C75.2617 53.3791 75.0088 53.2007 74.7425 53.0383C73.6297 52.3594 72.3491 52 71.0366 52C70.0914 52 69.1756 52.1811 68.3103 52.5405C67.4744 52.8866 66.7209 53.3844 66.074 54.0181C65.4297 54.6467 64.915 55.3957 64.5591 56.2225C64.189 57.0824 64 57.9956 64 58.9354C64 59.822 64.181 60.7458 64.5405 61.6856C64.8413 62.471 65.2726 63.2857 65.8237 64.1084C66.697 65.4102 67.8977 66.768 69.3886 68.1445C71.8592 70.4261 74.3059 72.0022 74.4098 72.0661L75.0407 72.4708C75.3203 72.6492 75.6797 72.6492 75.9592 72.4708L76.5902 72.0661C76.694 71.9995 79.1381 70.4261 81.6114 68.1445C83.1023 66.768 84.303 65.4102 85.1763 64.1084C85.7274 63.2857 86.1613 62.471 86.4595 61.6856C86.8189 60.7458 87 59.822 87 58.9354C87.0026 57.9956 86.8136 57.0824 86.4435 56.2225V56.2225Z" fill="#C20C7A"/>
<path d="M86.4435 28.2225C86.0867 27.3962 85.5721 26.6474 84.9287 26.0181C84.2847 25.3868 83.5255 24.8852 82.6923 24.5405C81.8283 24.1816 80.9016 23.9979 79.9661 24C78.6535 24 77.3729 24.3594 76.2601 25.0383C75.9939 25.2007 75.7409 25.3791 75.5013 25.5735C75.2617 25.3791 75.0088 25.2007 74.7425 25.0383C73.6297 24.3594 72.3491 24 71.0366 24C70.0914 24 69.1756 24.1811 68.3103 24.5405C67.4744 24.8866 66.7209 25.3844 66.074 26.0181C65.4297 26.6467 64.915 27.3957 64.5591 28.2225C64.189 29.0824 64 29.9956 64 30.9354C64 31.822 64.181 32.7458 64.5405 33.6856C64.8413 34.471 65.2726 35.2857 65.8237 36.1084C66.697 37.4102 67.8977 38.768 69.3886 40.1445C71.8592 42.4261 74.3059 44.0022 74.4098 44.0661L75.0407 44.4708C75.3203 44.6492 75.6797 44.6492 75.9592 44.4708L76.5902 44.0661C76.694 43.9995 79.1381 42.4261 81.6114 40.1445C83.1023 38.768 84.303 37.4102 85.1763 36.1084C85.7274 35.2857 86.1613 34.471 86.4595 33.6856C86.8189 32.7458 87 31.822 87 30.9354C87.0026 29.9956 86.8136 29.0824 86.4435 28.2225V28.2225Z" fill="#C20C7A"/>
<path d="M36.4435 56.2225C36.0867 55.3962 35.5721 54.6474 34.9287 54.0181C34.2847 53.3868 33.5255 52.8852 32.6923 52.5405C31.8283 52.1816 30.9016 51.9979 29.9661 52C28.6535 52 27.3729 52.3594 26.2601 53.0383C25.9939 53.2007 25.7409 53.3791 25.5013 53.5735C25.2617 53.3791 25.0088 53.2007 24.7425 53.0383C23.6297 52.3594 22.3491 52 21.0366 52C20.0914 52 19.1756 52.1811 18.3103 52.5405C17.4744 52.8866 16.7209 53.3844 16.074 54.0181C15.4297 54.6467 14.915 55.3957 14.5591 56.2225C14.189 57.0824 14 57.9956 14 58.9354C14 59.822 14.181 60.7458 14.5405 61.6856C14.8413 62.471 15.2726 63.2857 15.8237 64.1084C16.697 65.4102 17.8977 66.768 19.3886 68.1445C21.8592 70.4261 24.3059 72.0022 24.4098 72.0661L25.0407 72.4708C25.3203 72.6492 25.6797 72.6492 25.9592 72.4708L26.5902 72.0661C26.694 71.9995 29.1381 70.4261 31.6114 68.1445C33.1023 66.768 34.303 65.4102 35.1763 64.1084C35.7274 63.2857 36.1613 62.471 36.4595 61.6856C36.8189 60.7458 37 59.822 37 58.9354C37.0026 57.9956 36.8136 57.0824 36.4435 56.2225V56.2225Z" fill="#C20C7A"/>
<path d="M36.4435 28.2225C36.0867 27.3962 35.5721 26.6474 34.9287 26.0181C34.2847 25.3868 33.5255 24.8852 32.6923 24.5405C31.8283 24.1816 30.9016 23.9979 29.9661 24C28.6535 24 27.3729 24.3594 26.2601 25.0383C25.9939 25.2007 25.7409 25.3791 25.5013 25.5735C25.2617 25.3791 25.0088 25.2007 24.7425 25.0383C23.6297 24.3594 22.3491 24 21.0366 24C20.0914 24 19.1756 24.1811 18.3103 24.5405C17.4744 24.8866 16.7209 25.3844 16.074 26.0181C15.4297 26.6467 14.915 27.3957 14.5591 28.2225C14.189 29.0824 14 29.9956 14 30.9354C14 31.822 14.181 32.7458 14.5405 33.6856C14.8413 34.471 15.2726 35.2857 15.8237 36.1084C16.697 37.4102 17.8977 38.768 19.3886 40.1445C21.8592 42.4261 24.3059 44.0022 24.4098 44.0661L25.0407 44.4708C25.3203 44.6492 25.6797 44.6492 25.9592 44.4708L26.5902 44.0661C26.694 43.9995 29.1381 42.4261 31.6114 40.1445C33.1023 38.768 34.303 37.4102 35.1763 36.1084C35.7274 35.2857 36.1613 34.471 36.4595 33.6856C36.8189 32.7458 37 31.822 37 30.9354C37.0026 29.9956 36.8136 29.0824 36.4435 28.2225V28.2225Z" fill="#C20C7A"/>
<path d="M36.4435 84.2225C36.0867 83.3962 35.5721 82.6474 34.9287 82.0181C34.2847 81.3868 33.5255 80.8852 32.6923 80.5405C31.8283 80.1816 30.9016 79.9979 29.9661 80C28.6535 80 27.3729 80.3594 26.2601 81.0383C25.9939 81.2007 25.7409 81.3791 25.5013 81.5735C25.2617 81.3791 25.0088 81.2007 24.7425 81.0383C23.6297 80.3594 22.3491 80 21.0366 80C20.0914 80 19.1756 80.1811 18.3103 80.5405C17.4744 80.8866 16.7209 81.3844 16.074 82.0181C15.4297 82.6467 14.915 83.3957 14.5591 84.2225C14.189 85.0824 14 85.9956 14 86.9354C14 87.822 14.181 88.7458 14.5405 89.6856C14.8413 90.471 15.2726 91.2857 15.8237 92.1084C16.697 93.4102 17.8977 94.768 19.3886 96.1445C21.8592 98.4261 24.3059 100.002 24.4098 100.066L25.0407 100.471C25.3203 100.649 25.6797 100.649 25.9592 100.471L26.5902 100.066C26.694 99.9995 29.1381 98.4261 31.6114 96.1445C33.1023 94.768 34.303 93.4102 35.1763 92.1084C35.7274 91.2857 36.1613 90.471 36.4595 89.6856C36.8189 88.7458 37 87.822 37 86.9354C37.0026 85.9956 36.8136 85.0824 36.4435 84.2225V84.2225Z" fill="#C20C7A"/>
<path d="M36.4435 112.222C36.0867 111.396 35.5721 110.647 34.9287 110.018C34.2847 109.387 33.5255 108.885 32.6923 108.54C31.8283 108.182 30.9016 107.998 29.9661 108C28.6535 108 27.3729 108.359 26.2601 109.038C25.9939 109.201 25.7409 109.379 25.5013 109.573C25.2617 109.379 25.0088 109.201 24.7425 109.038C23.6297 108.359 22.3491 108 21.0366 108C20.0914 108 19.1756 108.181 18.3103 108.54C17.4744 108.887 16.7209 109.384 16.074 110.018C15.4297 110.647 14.915 111.396 14.5591 112.222C14.189 113.082 14 113.996 14 114.935C14 115.822 14.181 116.746 14.5405 117.686C14.8413 118.471 15.2726 119.286 15.8237 120.108C16.697 121.41 17.8977 122.768 19.3886 124.144C21.8592 126.426 24.3059 128.002 24.4098 128.066L25.0407 128.471C25.3203 128.649 25.6797 128.649 25.9592 128.471L26.5902 128.066C26.694 128 29.1381 126.426 31.6114 124.144C33.1023 122.768 34.303 121.41 35.1763 120.108C35.7274 119.286 36.1613 118.471 36.4595 117.686C36.8189 116.746 37 115.822 37 114.935C37.0026 113.996 36.8136 113.082 36.4435 112.222V112.222Z" fill="#C20C7A"/>
<path d="M86.4435 84.2225C86.0867 83.3962 85.5721 82.6474 84.9287 82.0181C84.2847 81.3868 83.5255 80.8852 82.6923 80.5405C81.8283 80.1816 80.9016 79.9979 79.9661 80C78.6535 80 77.3729 80.3594 76.2601 81.0383C75.9939 81.2007 75.7409 81.3791 75.5013 81.5735C75.2617 81.3791 75.0088 81.2007 74.7425 81.0383C73.6297 80.3594 72.3491 80 71.0366 80C70.0914 80 69.1756 80.1811 68.3103 80.5405C67.4744 80.8866 66.7209 81.3844 66.074 82.0181C65.4297 82.6467 64.915 83.3957 64.5591 84.2225C64.189 85.0824 64 85.9956 64 86.9354C64 87.822 64.181 88.7458 64.5405 89.6856C64.8413 90.471 65.2726 91.2857 65.8237 92.1084C66.697 93.4102 67.8977 94.768 69.3886 96.1445C71.8592 98.4261 74.3059 100.002 74.4098 100.066L75.0407 100.471C75.3203 100.649 75.6797 100.649 75.9592 100.471L76.5902 100.066C76.694 99.9995 79.1381 98.4261 81.6114 96.1445C83.1023 94.768 84.303 93.4102 85.1763 92.1084C85.7274 91.2857 86.1613 90.471 86.4595 89.6856C86.8189 88.7458 87 87.822 87 86.9354C87.0026 85.9956 86.8136 85.0824 86.4435 84.2225V84.2225Z" fill="#C20C7A"/>
<path d="M86.4435 112.222C86.0867 111.396 85.5721 110.647 84.9287 110.018C84.2847 109.387 83.5255 108.885 82.6923 108.54C81.8283 108.182 80.9016 107.998 79.9661 108C78.6535 108 77.3729 108.359 76.2601 109.038C75.9939 109.201 75.7409 109.379 75.5013 109.573C75.2617 109.379 75.0088 109.201 74.7425 109.038C73.6297 108.359 72.3491 108 71.0366 108C70.0914 108 69.1756 108.181 68.3103 108.54C67.4744 108.887 66.7209 109.384 66.074 110.018C65.4297 110.647 64.915 111.396 64.5591 112.222C64.189 113.082 64 113.996 64 114.935C64 115.822 64.181 116.746 64.5405 117.686C64.8413 118.471 65.2726 119.286 65.8237 120.108C66.697 121.41 67.8977 122.768 69.3886 124.144C71.8592 126.426 74.3059 128.002 74.4098 128.066L75.0407 128.471C75.3203 128.649 75.6797 128.649 75.9592 128.471L76.5902 128.066C76.694 128 79.1381 126.426 81.6114 124.144C83.1023 122.768 84.303 121.41 85.1763 120.108C85.7274 119.286 86.1613 118.471 86.4595 117.686C86.8189 116.746 87 115.822 87 114.935C87.0026 113.996 86.8136 113.082 86.4435 112.222V112.222Z" fill="#C20C7A"/>
</svg>
