<svg width="100" height="150" viewBox="0 0 100 150" fill="none" xmlns="http://www.w3.org/2000/svg">
<rect width="100" height="150" rx="10" fill="#D9D9D9"/>
<path d="M18.38 14.02C18.38 15.6667 18.0967 17.07 17.53 18.23C16.97 19.39 16.16 20.22 15.1 20.72L16.62 23.22L14.32 24.46L12.8 21.24H12.6C11.36 21.24 10.3033 20.9467 9.43 20.36C8.55667 19.7667 7.89667 18.93 7.45 17.85C7.00333 16.7633 6.78 15.4867 6.78 14.02C6.78 12.5667 7 11.3 7.44 10.22C7.88667 9.13333 8.54 8.29667 9.4 7.71C10.2667 7.11667 11.3133 6.82 12.54 6.82C13.8133 6.82 14.8867 7.12 15.76 7.72C16.6333 8.31333 17.2867 9.15 17.72 10.23C18.16 11.31 18.38 12.5733 18.38 14.02ZM9.46 13.98C9.46 15.1133 9.58667 16.0633 9.84 16.83C10.1 17.59 10.4633 18.16 10.93 18.54C11.4033 18.9133 11.96 19.1 12.6 19.1C13.1933 19.1 13.7233 18.91 14.19 18.53C14.6633 18.15 15.0367 17.5733 15.31 16.8C15.5833 16.0267 15.72 15.08 15.72 13.96C15.72 12.3133 15.44 11.06 14.88 10.2C14.3267 9.33333 13.5467 8.9 12.54 8.9C11.56 8.9 10.8 9.33333 10.26 10.2C9.72667 11.06 9.46 12.32 9.46 13.98Z" fill="#C20C7A"/>
<path d="M93.38 135.02C93.38 136.667 93.0967 138.07 92.53 139.23C91.97 140.39 91.16 141.22 90.1 141.72L91.62 144.22L89.32 145.46L87.8 142.24H87.6C86.36 142.24 85.3033 141.947 84.43 141.36C83.5567 140.767 82.8967 139.93 82.45 138.85C82.0033 137.763 81.78 136.487 81.78 135.02C81.78 133.567 82 132.3 82.44 131.22C82.8867 130.133 83.54 129.297 84.4 128.71C85.2667 128.117 86.3133 127.82 87.54 127.82C88.8133 127.82 89.8867 128.12 90.76 128.72C91.6333 129.313 92.2867 130.15 92.72 131.23C93.16 132.31 93.38 133.573 93.38 135.02ZM84.46 134.98C84.46 136.113 84.5867 137.063 84.84 137.83C85.1 138.59 85.4633 139.16 85.93 139.54C86.4033 139.913 86.96 140.1 87.6 140.1C88.1933 140.1 88.7233 139.91 89.19 139.53C89.6633 139.15 90.0367 138.573 90.31 137.8C90.5833 137.027 90.72 136.08 90.72 134.96C90.72 133.313 90.44 132.06 89.88 131.2C89.3267 130.333 88.5467 129.9 87.54 129.9C86.56 129.9 85.8 130.333 85.26 131.2C84.7267 132.06 84.46 133.32 84.46 134.98Z" fill="#C20C7A"/>
<path d="M44.504 106.768C42.84 106.512 42.008 105.616 42.008 104.08C42.008 103.525 42.264 102.949 42.776 102.352C42.776 100.517 43.4373 99.2587 44.76 98.576C43.2667 98.4053 41.8373 98.1493 40.472 97.808C39.1493 97.424 37.9547 96.912 36.888 96.272C35.864 95.632 35.032 94.8427 34.392 93.904C33.7947 92.9653 33.496 91.8347 33.496 90.512C32.0453 90.512 30.872 89.9573 29.976 88.848C29.1227 87.7387 28.44 86.288 27.928 84.496C27.4587 82.6613 27.1387 80.6133 26.968 78.352C26.84 76.0907 26.776 73.808 26.776 71.504C26.776 67.6213 27.288 64.08 28.312 60.88C29.3787 57.68 30.936 54.9493 32.984 52.688C35.0747 50.384 37.6347 48.6133 40.664 47.376C43.6933 46.1387 47.192 45.52 51.16 45.52C52.0987 45.52 53.3147 45.584 54.808 45.712C56.3013 45.84 57.752 46.1387 59.16 46.608C60.6107 47.0347 61.848 47.6747 62.872 48.528C63.896 49.3813 64.408 50.5547 64.408 52.048C65.9867 52.048 67.288 52.6667 68.312 53.904C69.3787 55.0987 70.232 56.6347 70.872 58.512C71.512 60.3467 71.96 62.352 72.216 64.528C72.472 66.704 72.6 68.7733 72.6 70.736C72.6 75.1733 72.024 79.12 70.872 82.576C69.7627 85.9893 68.2267 88.8907 66.264 91.28C64.344 93.6267 62.0613 95.44 59.416 96.72C56.7707 98 53.912 98.704 50.84 98.832C51.864 99.1307 52.9093 99.472 53.976 99.856C55.0853 100.283 56.152 100.667 57.176 101.008C58.2427 101.392 59.288 101.712 60.312 101.968C61.336 102.224 62.296 102.352 63.192 102.352C64.1733 102.352 65.0267 102.032 65.752 101.392C66.52 100.752 67.0533 99.6213 67.352 98C67.992 98.3413 68.4827 98.8107 68.824 99.408C69.208 100.005 69.4 100.624 69.4 101.264C69.4 102.203 69.1013 102.907 68.504 103.376C68.504 104.784 68.0133 105.744 67.032 106.256C66.0507 106.768 64.984 107.024 63.832 107.024C62.296 107.024 60.7813 106.811 59.288 106.384C57.7947 105.957 56.344 105.467 54.936 104.912C53.5707 104.4 52.248 103.931 50.968 103.504C49.688 103.077 48.4933 102.864 47.384 102.864C46.5307 102.864 45.848 103.141 45.336 103.696C44.824 104.251 44.5467 105.275 44.504 106.768ZM49.752 95.76C52.568 95.76 55 95.12 57.048 93.84C59.096 92.5173 60.76 90.768 62.04 88.592C63.3627 86.3733 64.3227 83.8133 64.92 80.912C65.56 78.0107 65.88 74.96 65.88 71.76C65.88 68.56 65.56 65.5733 64.92 62.8C64.3227 60.0267 63.3627 57.616 62.04 55.568C60.7173 53.4773 59.032 51.8347 56.984 50.64C54.9787 49.4453 52.5467 48.848 49.688 48.848C46.872 48.848 44.44 49.4453 42.392 50.64C40.344 51.792 38.6587 53.392 37.336 55.44C36.0133 57.488 35.032 59.92 34.392 62.736C33.7947 65.5093 33.496 68.496 33.496 71.696C33.496 74.896 33.7947 77.968 34.392 80.912C35.032 83.8133 36.0133 86.3733 37.336 88.592C38.6587 90.768 40.344 92.5173 42.392 93.84C44.44 95.12 46.8933 95.76 49.752 95.76Z" fill="#C20C7A"/>
<path d="M94.428 9.27888C94.1509 8.63724 93.7513 8.0558 93.2517 7.56709C92.7516 7.07693 92.1621 6.6874 91.5151 6.41969C90.8442 6.141 90.1246 5.99834 89.3981 6.00001C88.3789 6.00001 87.3844 6.27911 86.5203 6.80629C86.3135 6.9324 86.1171 7.07092 85.9311 7.22184C85.745 7.07092 85.5486 6.9324 85.3419 6.80629C84.4777 6.27911 83.4833 6.00001 82.4641 6.00001C81.7302 6.00001 81.019 6.1406 80.3471 6.41969C79.6979 6.68845 79.1129 7.07505 78.6105 7.56709C78.1102 8.05524 77.7105 8.63683 77.4341 9.27888C77.1468 9.94665 77 10.6558 77 11.3855C77 12.074 77.1406 12.7914 77.4197 13.5211C77.6533 14.131 77.9882 14.7636 78.4162 15.4025C79.0943 16.4134 80.0266 17.4678 81.1844 18.5366C83.1029 20.3084 85.0028 21.5323 85.0835 21.5819L85.5734 21.8961C85.7905 22.0346 86.0696 22.0346 86.2867 21.8961L86.7766 21.5819C86.8573 21.5302 88.7551 20.3084 90.6757 18.5366C91.8335 17.4678 92.7658 16.4134 93.4439 15.4025C93.8719 14.7636 94.2089 14.131 94.4404 13.5211C94.7195 12.7914 94.8601 12.074 94.8601 11.3855C94.8622 10.6558 94.7154 9.94665 94.428 9.27888Z" fill="#C20C7A"/>
<path d="M23.428 130.279C23.1509 129.637 22.7513 129.056 22.2517 128.567C21.7516 128.077 21.1621 127.687 20.5151 127.42C19.8442 127.141 19.1246 126.998 18.3981 127C17.3789 127 16.3844 127.279 15.5203 127.806C15.3135 127.932 15.1171 128.071 14.9311 128.222C14.745 128.071 14.5486 127.932 14.3419 127.806C13.4777 127.279 12.4833 127 11.4641 127C10.7302 127 10.019 127.141 9.34709 127.42C8.69793 127.688 8.11286 128.075 7.61049 128.567C7.11018 129.055 6.71051 129.637 6.43415 130.279C6.14678 130.947 6 131.656 6 132.386C6 133.074 6.14058 133.791 6.41968 134.521C6.65329 135.131 6.98821 135.764 7.41616 136.402C8.09426 137.413 9.02664 138.468 10.1844 139.537C12.1029 141.308 14.0028 142.532 14.0835 142.582L14.5734 142.896C14.7905 143.035 15.0696 143.035 15.2867 142.896L15.7766 142.582C15.8573 142.53 17.7551 141.308 19.6757 139.537C20.8335 138.468 21.7658 137.413 22.4439 136.402C22.8719 135.764 23.2089 135.131 23.4404 134.521C23.7195 133.791 23.8601 133.074 23.8601 132.386C23.8622 131.656 23.7154 130.947 23.428 130.279Z" fill="#C20C7A"/>
</svg>
