<svg width="100" height="150" viewBox="0 0 100 150" fill="none" xmlns="http://www.w3.org/2000/svg">
<rect width="100" height="150" rx="10" fill="#D9D9D9"/>
<path d="M16.04 7.06L11.54 21H8.68L12.69 9.42H6.9V7.06H16.04Z" fill="#C20C7A"/>
<path d="M91.04 128.06L86.54 142H83.68L87.69 130.42H81.9V128.06H91.04Z" fill="#C20C7A"/>
<path d="M39.4435 104.222C39.0867 103.396 38.5721 102.647 37.9287 102.018C37.2847 101.387 36.5255 100.885 35.6923 100.54C34.8283 100.182 33.9016 99.9979 32.9661 100C31.6535 100 30.3729 100.359 29.2601 101.038C28.9939 101.201 28.7409 101.379 28.5013 101.573C28.2617 101.379 28.0088 101.201 27.7425 101.038C26.6297 100.359 25.3491 100 24.0366 100C23.0914 100 22.1756 100.181 21.3103 100.54C20.4744 100.887 19.7209 101.384 19.074 102.018C18.4297 102.647 17.915 103.396 17.5591 104.222C17.189 105.082 17 105.996 17 106.935C17 107.822 17.181 108.746 17.5405 109.686C17.8413 110.471 18.2726 111.286 18.8237 112.108C19.697 113.41 20.8977 114.768 22.3886 116.144C24.8592 118.426 27.3059 120.002 27.4098 120.066L28.0407 120.471C28.3203 120.649 28.6797 120.649 28.9592 120.471L29.5902 120.066C29.694 120 32.1381 118.426 34.6114 116.144C36.1023 114.768 37.303 113.41 38.1763 112.108C38.7274 111.286 39.1613 110.471 39.4595 109.686C39.8189 108.746 40 107.822 40 106.935C40.0026 105.996 39.8136 105.082 39.4435 104.222V104.222Z" fill="#C20C7A"/>
<path d="M82.4435 104.222C82.0867 103.396 81.5721 102.647 80.9287 102.018C80.2847 101.387 79.5255 100.885 78.6923 100.54C77.8283 100.182 76.9016 99.9979 75.9661 100C74.6535 100 73.3729 100.359 72.2601 101.038C71.9939 101.201 71.7409 101.379 71.5013 101.573C71.2617 101.379 71.0088 101.201 70.7425 101.038C69.6297 100.359 68.3491 100 67.0366 100C66.0914 100 65.1756 100.181 64.3103 100.54C63.4744 100.887 62.7209 101.384 62.074 102.018C61.4297 102.647 60.915 103.396 60.5591 104.222C60.189 105.082 60 105.996 60 106.935C60 107.822 60.181 108.746 60.5405 109.686C60.8413 110.471 61.2726 111.286 61.8237 112.108C62.697 113.41 63.8977 114.768 65.3886 116.144C67.8592 118.426 70.3059 120.002 70.4098 120.066L71.0407 120.471C71.3203 120.649 71.6797 120.649 71.9592 120.471L72.5902 120.066C72.694 120 75.1381 118.426 77.6114 116.144C79.1023 114.768 80.303 113.41 81.1763 112.108C81.7274 111.286 82.1613 110.471 82.4595 109.686C82.8189 108.746 83 107.822 83 106.935C83.0026 105.996 82.8136 105.082 82.4435 104.222V104.222Z" fill="#C20C7A"/>
<path d="M39.4435 69.2225C39.0867 68.3962 38.5721 67.6474 37.9287 67.0181C37.2847 66.3868 36.5255 65.8852 35.6923 65.5405C34.8283 65.1816 33.9016 64.9979 32.9661 65C31.6535 65 30.3729 65.3594 29.2601 66.0383C28.9939 66.2007 28.7409 66.3791 28.5013 66.5735C28.2617 66.3791 28.0088 66.2007 27.7425 66.0383C26.6297 65.3594 25.3491 65 24.0366 65C23.0914 65 22.1756 65.1811 21.3103 65.5405C20.4744 65.8866 19.7209 66.3844 19.074 67.0181C18.4297 67.6467 17.915 68.3957 17.5591 69.2225C17.189 70.0824 17 70.9956 17 71.9354C17 72.822 17.181 73.7458 17.5405 74.6856C17.8413 75.471 18.2726 76.2857 18.8237 77.1084C19.697 78.4102 20.8977 79.768 22.3886 81.1445C24.8592 83.4261 27.3059 85.0022 27.4098 85.0661L28.0407 85.4708C28.3203 85.6492 28.6797 85.6492 28.9592 85.4708L29.5902 85.0661C29.694 84.9995 32.1381 83.4261 34.6114 81.1445C36.1023 79.768 37.303 78.4102 38.1763 77.1084C38.7274 76.2857 39.1613 75.471 39.4595 74.6856C39.8189 73.7458 40 72.822 40 71.9354C40.0026 70.9956 39.8136 70.0824 39.4435 69.2225V69.2225Z" fill="#C20C7A"/>
<path d="M82.4435 69.2225C82.0867 68.3962 81.5721 67.6474 80.9287 67.0181C80.2847 66.3868 79.5255 65.8852 78.6923 65.5405C77.8283 65.1816 76.9016 64.9979 75.9661 65C74.6535 65 73.3729 65.3594 72.2601 66.0383C71.9939 66.2007 71.7409 66.3791 71.5013 66.5735C71.2617 66.3791 71.0088 66.2007 70.7425 66.0383C69.6297 65.3594 68.3491 65 67.0366 65C66.0914 65 65.1756 65.1811 64.3103 65.5405C63.4744 65.8866 62.7209 66.3844 62.074 67.0181C61.4297 67.6467 60.915 68.3957 60.5591 69.2225C60.189 70.0824 60 70.9956 60 71.9354C60 72.822 60.181 73.7458 60.5405 74.6856C60.8413 75.471 61.2726 76.2857 61.8237 77.1084C62.697 78.4102 63.8977 79.768 65.3886 81.1445C67.8592 83.4261 70.3059 85.0022 70.4098 85.0661L71.0407 85.4708C71.3203 85.6492 71.6797 85.6492 71.9592 85.4708L72.5902 85.0661C72.694 84.9995 75.1381 83.4261 77.6114 81.1445C79.1023 79.768 80.303 78.4102 81.1763 77.1084C81.7274 76.2857 82.1613 75.471 82.4595 74.6856C82.8189 73.7458 83 72.822 83 71.9354C83.0026 70.9956 82.8136 70.0824 82.4435 69.2225V69.2225Z" fill="#C20C7A"/>
<path d="M61.4435 52.2225C61.0867 51.3962 60.5721 50.6474 59.9287 50.0181C59.2847 49.3868 58.5255 48.8852 57.6923 48.5405C56.8283 48.1816 55.9016 47.9979 54.9661 48C53.6535 48 52.3729 48.3594 51.2601 49.0383C50.9939 49.2007 50.7409 49.3791 50.5013 49.5735C50.2617 49.3791 50.0088 49.2007 49.7425 49.0383C48.6297 48.3594 47.3491 48 46.0366 48C45.0914 48 44.1756 48.1811 43.3103 48.5405C42.4744 48.8866 41.7209 49.3844 41.074 50.0181C40.4297 50.6467 39.915 51.3957 39.5591 52.2225C39.189 53.0824 39 53.9956 39 54.9354C39 55.822 39.181 56.7458 39.5405 57.6856C39.8413 58.471 40.2726 59.2857 40.8237 60.1084C41.697 61.4102 42.8977 62.768 44.3886 64.1445C46.8592 66.4261 49.3059 68.0022 49.4098 68.0661L50.0407 68.4708C50.3203 68.6492 50.6797 68.6492 50.9592 68.4708L51.5902 68.0661C51.694 67.9995 54.1381 66.4261 56.6114 64.1445C58.1023 62.768 59.303 61.4102 60.1763 60.1084C60.7274 59.2857 61.1613 58.471 61.4595 57.6856C61.8189 56.7458 62 55.822 62 54.9354C62.0026 53.9956 61.8136 53.0824 61.4435 52.2225V52.2225Z" fill="#C20C7A"/>
<path d="M39.4435 36.2225C39.0867 35.3962 38.5721 34.6474 37.9287 34.0181C37.2847 33.3868 36.5255 32.8852 35.6923 32.5405C34.8283 32.1816 33.9016 31.9979 32.9661 32C31.6535 32 30.3729 32.3594 29.2601 33.0383C28.9939 33.2007 28.7409 33.3791 28.5013 33.5735C28.2617 33.3791 28.0088 33.2007 27.7425 33.0383C26.6297 32.3594 25.3491 32 24.0366 32C23.0914 32 22.1756 32.1811 21.3103 32.5405C20.4744 32.8866 19.7209 33.3844 19.074 34.0181C18.4297 34.6467 17.915 35.3957 17.5591 36.2225C17.189 37.0824 17 37.9956 17 38.9354C17 39.822 17.181 40.7458 17.5405 41.6856C17.8413 42.471 18.2726 43.2857 18.8237 44.1084C19.697 45.4102 20.8977 46.768 22.3886 48.1445C24.8592 50.4261 27.3059 52.0022 27.4098 52.0661L28.0407 52.4708C28.3203 52.6492 28.6797 52.6492 28.9592 52.4708L29.5902 52.0661C29.694 51.9995 32.1381 50.4261 34.6114 48.1445C36.1023 46.768 37.303 45.4102 38.1763 44.1084C38.7274 43.2857 39.1613 42.471 39.4595 41.6856C39.8189 40.7458 40 39.822 40 38.9354C40.0026 37.9956 39.8136 37.0824 39.4435 36.2225V36.2225Z" fill="#C20C7A"/>
<path d="M82.4435 36.2225C82.0867 35.3962 81.5721 34.6474 80.9287 34.0181C80.2847 33.3868 79.5255 32.8852 78.6923 32.5405C77.8283 32.1816 76.9016 31.9979 75.9661 32C74.6535 32 73.3729 32.3594 72.2601 33.0383C71.9939 33.2007 71.7409 33.3791 71.5013 33.5735C71.2617 33.3791 71.0088 33.2007 70.7425 33.0383C69.6297 32.3594 68.3491 32 67.0366 32C66.0914 32 65.1756 32.1811 64.3103 32.5405C63.4744 32.8866 62.7209 33.3844 62.074 34.0181C61.4297 34.6467 60.915 35.3957 60.5591 36.2225C60.189 37.0824 60 37.9956 60 38.9354C60 39.822 60.181 40.7458 60.5405 41.6856C60.8413 42.471 61.2726 43.2857 61.8237 44.1084C62.697 45.4102 63.8977 46.768 65.3886 48.1445C67.8592 50.4261 70.3059 52.0022 70.4098 52.0661L71.0407 52.4708C71.3203 52.6492 71.6797 52.6492 71.9592 52.4708L72.5902 52.0661C72.694 51.9995 75.1381 50.4261 77.6114 48.1445C79.1023 46.768 80.303 45.4102 81.1763 44.1084C81.7274 43.2857 82.1613 42.471 82.4595 41.6856C82.8189 40.7458 83 39.822 83 38.9354C83.0026 37.9956 82.8136 37.0824 82.4435 36.2225V36.2225Z" fill="#C20C7A"/>
</svg>
