<svg width="100" height="150" viewBox="0 0 100 150" fill="none" xmlns="http://www.w3.org/2000/svg">
<rect width="100" height="150" rx="10" fill="#D9D9D9"/>
<path d="M12.48 21.3C11.5333 21.3 10.66 21.07 9.86 20.61C9.06 20.1433 8.41 19.3867 7.91 18.34C7.41 17.2933 7.16 15.94 7.16 14.28C7.16 12.7533 7.42 11.42 7.94 10.28C8.46 9.13333 9.18 8.25333 10.1 7.64C11.02 7.02667 12.0667 6.72 13.24 6.72C14.1267 6.72 14.83 6.80667 15.35 6.98C15.8767 7.15333 16.3133 7.40667 16.66 7.74L15.68 9.66C15.4333 9.39333 15.0967 9.2 14.67 9.08C14.2433 8.96 13.8133 8.9 13.38 8.9C12.72 8.9 12.13 9.10333 11.61 9.51C11.09 9.91 10.68 10.4333 10.38 11.08C10.08 11.72 9.90667 12.3933 9.86 13.1C9.84667 13.2867 9.84 13.5333 9.84 13.84C10.1867 13.18 10.68 12.6867 11.32 12.36C11.96 12.0267 12.6667 11.86 13.44 11.86C14.3133 11.86 15.0633 12.0567 15.69 12.45C16.3233 12.8367 16.8033 13.3633 17.13 14.03C17.4567 14.6967 17.62 15.44 17.62 16.26C17.62 17.2733 17.4067 18.16 16.98 18.92C16.5533 19.68 15.95 20.2667 15.17 20.68C14.3967 21.0933 13.5 21.3 12.48 21.3ZM12.62 19.24C13.0467 19.24 13.4367 19.13 13.79 18.91C14.1433 18.69 14.4233 18.3733 14.63 17.96C14.8367 17.54 14.94 17.0533 14.94 16.5C14.94 15.6933 14.7633 15.06 14.41 14.6C14.0633 14.1333 13.54 13.9 12.84 13.9C12.4067 13.9 11.9867 14.01 11.58 14.23C11.1733 14.4433 10.8367 14.7333 10.57 15.1C10.31 15.4667 10.1667 15.86 10.14 16.28C10.14 16.8133 10.24 17.3067 10.44 17.76C10.64 18.2067 10.9267 18.5667 11.3 18.84C11.68 19.1067 12.12 19.24 12.62 19.24Z" fill="#C20C7A"/>
<path d="M87.48 142.3C86.5333 142.3 85.66 142.07 84.86 141.61C84.06 141.143 83.41 140.387 82.91 139.34C82.41 138.293 82.16 136.94 82.16 135.28C82.16 133.753 82.42 132.42 82.94 131.28C83.46 130.133 84.18 129.253 85.1 128.64C86.02 128.027 87.0667 127.72 88.24 127.72C89.1267 127.72 89.83 127.807 90.35 127.98C90.8767 128.153 91.3133 128.407 91.66 128.74L90.68 130.66C90.4333 130.393 90.0967 130.2 89.67 130.08C89.2433 129.96 88.8133 129.9 88.38 129.9C87.72 129.9 87.13 130.103 86.61 130.51C86.09 130.91 85.68 131.433 85.38 132.08C85.08 132.72 84.9067 133.393 84.86 134.1C84.8467 134.287 84.84 134.533 84.84 134.84C85.1867 134.18 85.68 133.687 86.32 133.36C86.96 133.027 87.6667 132.86 88.44 132.86C89.3133 132.86 90.0633 133.057 90.69 133.45C91.3233 133.837 91.8033 134.363 92.13 135.03C92.4567 135.697 92.62 136.44 92.62 137.26C92.62 138.273 92.4067 139.16 91.98 139.92C91.5533 140.68 90.95 141.267 90.17 141.68C89.3967 142.093 88.5 142.3 87.48 142.3ZM87.62 140.24C88.0467 140.24 88.4367 140.13 88.79 139.91C89.1433 139.69 89.4233 139.373 89.63 138.96C89.8367 138.54 89.94 138.053 89.94 137.5C89.94 136.693 89.7633 136.06 89.41 135.6C89.0633 135.133 88.54 134.9 87.84 134.9C87.4067 134.9 86.9867 135.01 86.58 135.23C86.1733 135.443 85.8367 135.733 85.57 136.1C85.31 136.467 85.1667 136.86 85.14 137.28C85.14 137.813 85.24 138.307 85.44 138.76C85.64 139.207 85.9267 139.567 86.3 139.84C86.68 140.107 87.12 140.24 87.62 140.24Z" fill="#C20C7A"/>
<path d="M38.4435 105.222C38.0867 104.396 37.5721 103.647 36.9287 103.018C36.2847 102.387 35.5255 101.885 34.6923 101.54C33.8283 101.182 32.9016 100.998 31.9661 101C30.6535 101 29.3729 101.359 28.2601 102.038C27.9939 102.201 27.7409 102.379 27.5013 102.573C27.2617 102.379 27.0088 102.201 26.7425 102.038C25.6297 101.359 24.3491 101 23.0366 101C22.0914 101 21.1756 101.181 20.3103 101.54C19.4744 101.887 18.7209 102.384 18.074 103.018C17.4297 103.647 16.915 104.396 16.5591 105.222C16.189 106.082 16 106.996 16 107.935C16 108.822 16.181 109.746 16.5405 110.686C16.8413 111.471 17.2726 112.286 17.8237 113.108C18.697 114.41 19.8977 115.768 21.3886 117.144C23.8592 119.426 26.3059 121.002 26.4098 121.066L27.0407 121.471C27.3203 121.649 27.6797 121.649 27.9592 121.471L28.5902 121.066C28.694 121 31.1381 119.426 33.6114 117.144C35.1023 115.768 36.303 114.41 37.1763 113.108C37.7274 112.286 38.1613 111.471 38.4595 110.686C38.8189 109.746 39 108.822 39 107.935C39.0026 106.996 38.8136 106.082 38.4435 105.222V105.222Z" fill="#C20C7A"/>
<path d="M81.4435 105.222C81.0867 104.396 80.5721 103.647 79.9287 103.018C79.2847 102.387 78.5255 101.885 77.6923 101.54C76.8283 101.182 75.9016 100.998 74.9661 101C73.6535 101 72.3729 101.359 71.2601 102.038C70.9939 102.201 70.7409 102.379 70.5013 102.573C70.2617 102.379 70.0088 102.201 69.7425 102.038C68.6297 101.359 67.3491 101 66.0366 101C65.0914 101 64.1756 101.181 63.3103 101.54C62.4744 101.887 61.7209 102.384 61.074 103.018C60.4297 103.647 59.915 104.396 59.5591 105.222C59.189 106.082 59 106.996 59 107.935C59 108.822 59.181 109.746 59.5405 110.686C59.8413 111.471 60.2726 112.286 60.8237 113.108C61.697 114.41 62.8977 115.768 64.3886 117.144C66.8592 119.426 69.3059 121.002 69.4098 121.066L70.0407 121.471C70.3203 121.649 70.6797 121.649 70.9592 121.471L71.5902 121.066C71.694 121 74.1381 119.426 76.6114 117.144C78.1023 115.768 79.303 114.41 80.1763 113.108C80.7274 112.286 81.1613 111.471 81.4595 110.686C81.8189 109.746 82 108.822 82 107.935C82.0026 106.996 81.8136 106.082 81.4435 105.222V105.222Z" fill="#C20C7A"/>
<path d="M38.4435 70.2225C38.0867 69.3962 37.5721 68.6474 36.9287 68.0181C36.2847 67.3868 35.5255 66.8852 34.6923 66.5405C33.8283 66.1816 32.9016 65.9979 31.9661 66C30.6535 66 29.3729 66.3594 28.2601 67.0383C27.9939 67.2007 27.7409 67.3791 27.5013 67.5735C27.2617 67.3791 27.0088 67.2007 26.7425 67.0383C25.6297 66.3594 24.3491 66 23.0366 66C22.0914 66 21.1756 66.1811 20.3103 66.5405C19.4744 66.8866 18.7209 67.3844 18.074 68.0181C17.4297 68.6467 16.915 69.3957 16.5591 70.2225C16.189 71.0824 16 71.9956 16 72.9354C16 73.822 16.181 74.7458 16.5405 75.6856C16.8413 76.471 17.2726 77.2857 17.8237 78.1084C18.697 79.4102 19.8977 80.768 21.3886 82.1445C23.8592 84.4261 26.3059 86.0022 26.4098 86.0661L27.0407 86.4708C27.3203 86.6492 27.6797 86.6492 27.9592 86.4708L28.5902 86.0661C28.694 85.9995 31.1381 84.4261 33.6114 82.1445C35.1023 80.768 36.303 79.4102 37.1763 78.1084C37.7274 77.2857 38.1613 76.471 38.4595 75.6856C38.8189 74.7458 39 73.822 39 72.9354C39.0026 71.9956 38.8136 71.0824 38.4435 70.2225V70.2225Z" fill="#C20C7A"/>
<path d="M81.4435 70.2225C81.0867 69.3962 80.5721 68.6474 79.9287 68.0181C79.2847 67.3868 78.5255 66.8852 77.6923 66.5405C76.8283 66.1816 75.9016 65.9979 74.9661 66C73.6535 66 72.3729 66.3594 71.2601 67.0383C70.9939 67.2007 70.7409 67.3791 70.5013 67.5735C70.2617 67.3791 70.0088 67.2007 69.7425 67.0383C68.6297 66.3594 67.3491 66 66.0366 66C65.0914 66 64.1756 66.1811 63.3103 66.5405C62.4744 66.8866 61.7209 67.3844 61.074 68.0181C60.4297 68.6467 59.915 69.3957 59.5591 70.2225C59.189 71.0824 59 71.9956 59 72.9354C59 73.822 59.181 74.7458 59.5405 75.6856C59.8413 76.471 60.2726 77.2857 60.8237 78.1084C61.697 79.4102 62.8977 80.768 64.3886 82.1445C66.8592 84.4261 69.3059 86.0022 69.4098 86.0661L70.0407 86.4708C70.3203 86.6492 70.6797 86.6492 70.9592 86.4708L71.5902 86.0661C71.694 85.9995 74.1381 84.4261 76.6114 82.1445C78.1023 80.768 79.303 79.4102 80.1763 78.1084C80.7274 77.2857 81.1613 76.471 81.4595 75.6856C81.8189 74.7458 82 73.822 82 72.9354C82.0026 71.9956 81.8136 71.0824 81.4435 70.2225V70.2225Z" fill="#C20C7A"/>
<path d="M38.4435 37.2225C38.0867 36.3962 37.5721 35.6474 36.9287 35.0181C36.2847 34.3868 35.5255 33.8852 34.6923 33.5405C33.8283 33.1816 32.9016 32.9979 31.9661 33C30.6535 33 29.3729 33.3594 28.2601 34.0383C27.9939 34.2007 27.7409 34.3791 27.5013 34.5735C27.2617 34.3791 27.0088 34.2007 26.7425 34.0383C25.6297 33.3594 24.3491 33 23.0366 33C22.0914 33 21.1756 33.1811 20.3103 33.5405C19.4744 33.8866 18.7209 34.3844 18.074 35.0181C17.4297 35.6467 16.915 36.3957 16.5591 37.2225C16.189 38.0824 16 38.9956 16 39.9354C16 40.822 16.181 41.7458 16.5405 42.6856C16.8413 43.471 17.2726 44.2857 17.8237 45.1084C18.697 46.4102 19.8977 47.768 21.3886 49.1445C23.8592 51.4261 26.3059 53.0022 26.4098 53.0661L27.0407 53.4708C27.3203 53.6492 27.6797 53.6492 27.9592 53.4708L28.5902 53.0661C28.694 52.9995 31.1381 51.4261 33.6114 49.1445C35.1023 47.768 36.303 46.4102 37.1763 45.1084C37.7274 44.2857 38.1613 43.471 38.4595 42.6856C38.8189 41.7458 39 40.822 39 39.9354C39.0026 38.9956 38.8136 38.0824 38.4435 37.2225V37.2225Z" fill="#C20C7A"/>
<path d="M81.4435 37.2225C81.0867 36.3962 80.5721 35.6474 79.9287 35.0181C79.2847 34.3868 78.5255 33.8852 77.6923 33.5405C76.8283 33.1816 75.9016 32.9979 74.9661 33C73.6535 33 72.3729 33.3594 71.2601 34.0383C70.9939 34.2007 70.7409 34.3791 70.5013 34.5735C70.2617 34.3791 70.0088 34.2007 69.7425 34.0383C68.6297 33.3594 67.3491 33 66.0366 33C65.0914 33 64.1756 33.1811 63.3103 33.5405C62.4744 33.8866 61.7209 34.3844 61.074 35.0181C60.4297 35.6467 59.915 36.3957 59.5591 37.2225C59.189 38.0824 59 38.9956 59 39.9354C59 40.822 59.181 41.7458 59.5405 42.6856C59.8413 43.471 60.2726 44.2857 60.8237 45.1084C61.697 46.4102 62.8977 47.768 64.3886 49.1445C66.8592 51.4261 69.3059 53.0022 69.4098 53.0661L70.0407 53.4708C70.3203 53.6492 70.6797 53.6492 70.9592 53.4708L71.5902 53.0661C71.694 52.9995 74.1381 51.4261 76.6114 49.1445C78.1023 47.768 79.303 46.4102 80.1763 45.1084C80.7274 44.2857 81.1613 43.471 81.4595 42.6856C81.8189 41.7458 82 40.822 82 39.9354C82.0026 38.9956 81.8136 38.0824 81.4435 37.2225V37.2225Z" fill="#C20C7A"/>
</svg>
