<svg width="100" height="150" viewBox="0 0 100 150" fill="none" xmlns="http://www.w3.org/2000/svg">
<rect width="100" height="150" rx="10" fill="#D9D9D9"/>
<path d="M7.78 7.96L10.48 6.7V21H7.78V7.96ZM18.0695 21.36C16.3295 21.36 15.0462 20.71 14.2195 19.41C13.3995 18.11 12.9895 16.3267 12.9895 14.06C12.9895 11.6067 13.4262 9.77 14.2995 8.55C15.1729 7.33 16.4295 6.72 18.0695 6.72C19.7095 6.72 20.9662 7.33 21.8395 8.55C22.7129 9.77 23.1495 11.6067 23.1495 14.06C23.1495 16.3267 22.7362 18.11 21.9095 19.41C21.0895 20.71 19.8095 21.36 18.0695 21.36ZM18.0895 19.22C19.5962 19.22 20.3495 17.4933 20.3495 14.04C20.3495 10.56 19.5962 8.82 18.0895 8.82C16.5562 8.82 15.7895 10.56 15.7895 14.04C15.7895 15.6267 15.9695 16.8867 16.3295 17.82C16.6895 18.7533 17.2762 19.22 18.0895 19.22Z" fill="#C20C7A"/>
<path d="M76.78 128.96L79.48 127.7V142H76.78V128.96ZM87.0695 142.36C85.3295 142.36 84.0462 141.71 83.2195 140.41C82.3995 139.11 81.9895 137.327 81.9895 135.06C81.9895 132.607 82.4262 130.77 83.2995 129.55C84.1729 128.33 85.4295 127.72 87.0695 127.72C88.7095 127.72 89.9662 128.33 90.8395 129.55C91.7129 130.77 92.1495 132.607 92.1495 135.06C92.1495 137.327 91.7362 139.11 90.9095 140.41C90.0895 141.71 88.8095 142.36 87.0695 142.36ZM87.0895 140.22C88.5962 140.22 89.3495 138.493 89.3495 135.04C89.3495 131.56 88.5962 129.82 87.0895 129.82C85.5562 129.82 84.7895 131.56 84.7895 135.04C84.7895 136.627 84.9695 137.887 85.3295 138.82C85.6895 139.753 86.2762 140.22 87.0895 140.22Z" fill="#C20C7A"/>
<path d="M61.4435 42.2225C61.0867 41.3962 60.5721 40.6474 59.9287 40.0181C59.2847 39.3868 58.5255 38.8852 57.6923 38.5405C56.8283 38.1816 55.9016 37.9979 54.9661 38C53.6535 38 52.3729 38.3594 51.2601 39.0383C50.9939 39.2007 50.7409 39.3791 50.5013 39.5735C50.2617 39.3791 50.0088 39.2007 49.7425 39.0383C48.6297 38.3594 47.3491 38 46.0366 38C45.0914 38 44.1756 38.1811 43.3103 38.5405C42.4744 38.8866 41.7209 39.3844 41.074 40.0181C40.4297 40.6467 39.915 41.3957 39.5591 42.2225C39.189 43.0824 39 43.9956 39 44.9354C39 45.822 39.181 46.7458 39.5405 47.6856C39.8413 48.471 40.2726 49.2857 40.8237 50.1084C41.697 51.4102 42.8977 52.768 44.3886 54.1445C46.8592 56.4261 49.3059 58.0022 49.4098 58.0661L50.0407 58.4708C50.3203 58.6492 50.6797 58.6492 50.9592 58.4708L51.5902 58.0661C51.694 57.9995 54.1381 56.4261 56.6114 54.1445C58.1023 52.768 59.303 51.4102 60.1763 50.1084C60.7274 49.2857 61.1613 48.471 61.4595 47.6856C61.8189 46.7458 62 45.822 62 44.9354C62.0026 43.9956 61.8136 43.0824 61.4435 42.2225V42.2225Z" fill="#C20C7A"/>
<path d="M61.4435 92.2225C61.0867 91.3962 60.5721 90.6474 59.9287 90.0181C59.2847 89.3868 58.5255 88.8852 57.6923 88.5405C56.8283 88.1816 55.9016 87.9979 54.9661 88C53.6535 88 52.3729 88.3594 51.2601 89.0383C50.9939 89.2007 50.7409 89.3791 50.5013 89.5735C50.2617 89.3791 50.0088 89.2007 49.7425 89.0383C48.6297 88.3594 47.3491 88 46.0366 88C45.0914 88 44.1756 88.1811 43.3103 88.5405C42.4744 88.8866 41.7209 89.3844 41.074 90.0181C40.4297 90.6467 39.915 91.3957 39.5591 92.2225C39.189 93.0824 39 93.9956 39 94.9354C39 95.822 39.181 96.7458 39.5405 97.6856C39.8413 98.471 40.2726 99.2857 40.8237 100.108C41.697 101.41 42.8977 102.768 44.3886 104.144C46.8592 106.426 49.3059 108.002 49.4098 108.066L50.0407 108.471C50.3203 108.649 50.6797 108.649 50.9592 108.471L51.5902 108.066C51.694 108 54.1381 106.426 56.6114 104.144C58.1023 102.768 59.303 101.41 60.1763 100.108C60.7274 99.2857 61.1613 98.471 61.4595 97.6856C61.8189 96.7458 62 95.822 62 94.9354C62.0026 93.9956 61.8136 93.0824 61.4435 92.2225V92.2225Z" fill="#C20C7A"/>
<path d="M86.4435 56.2225C86.0867 55.3962 85.5721 54.6474 84.9287 54.0181C84.2847 53.3868 83.5255 52.8852 82.6923 52.5405C81.8283 52.1816 80.9016 51.9979 79.9661 52C78.6535 52 77.3729 52.3594 76.2601 53.0383C75.9939 53.2007 75.7409 53.3791 75.5013 53.5735C75.2617 53.3791 75.0088 53.2007 74.7425 53.0383C73.6297 52.3594 72.3491 52 71.0366 52C70.0914 52 69.1756 52.1811 68.3103 52.5405C67.4744 52.8866 66.7209 53.3844 66.074 54.0181C65.4297 54.6467 64.915 55.3957 64.5591 56.2225C64.189 57.0824 64 57.9956 64 58.9354C64 59.822 64.181 60.7458 64.5405 61.6856C64.8413 62.471 65.2726 63.2857 65.8237 64.1084C66.697 65.4102 67.8977 66.768 69.3886 68.1445C71.8592 70.4261 74.3059 72.0022 74.4098 72.0661L75.0407 72.4708C75.3203 72.6492 75.6797 72.6492 75.9592 72.4708L76.5902 72.0661C76.694 71.9995 79.1381 70.4261 81.6114 68.1445C83.1023 66.768 84.303 65.4102 85.1763 64.1084C85.7274 63.2857 86.1613 62.471 86.4595 61.6856C86.8189 60.7458 87 59.822 87 58.9354C87.0026 57.9956 86.8136 57.0824 86.4435 56.2225V56.2225Z" fill="#C20C7A"/>
<path d="M86.4435 31.2225C86.0867 30.3962 85.5721 29.6474 84.9287 29.0181C84.2847 28.3868 83.5255 27.8852 82.6923 27.5405C81.8283 27.1816 80.9016 26.9979 79.9661 27C78.6535 27 77.3729 27.3594 76.2601 28.0383C75.9939 28.2007 75.7409 28.3791 75.5013 28.5735C75.2617 28.3791 75.0088 28.2007 74.7425 28.0383C73.6297 27.3594 72.3491 27 71.0366 27C70.0914 27 69.1756 27.1811 68.3103 27.5405C67.4744 27.8866 66.7209 28.3844 66.074 29.0181C65.4297 29.6467 64.915 30.3957 64.5591 31.2225C64.189 32.0824 64 32.9956 64 33.9354C64 34.822 64.181 35.7458 64.5405 36.6856C64.8413 37.471 65.2726 38.2857 65.8237 39.1084C66.697 40.4102 67.8977 41.768 69.3886 43.1445C71.8592 45.4261 74.3059 47.0022 74.4098 47.0661L75.0407 47.4708C75.3203 47.6492 75.6797 47.6492 75.9592 47.4708L76.5902 47.0661C76.694 46.9995 79.1381 45.4261 81.6114 43.1445C83.1023 41.768 84.303 40.4102 85.1763 39.1084C85.7274 38.2857 86.1613 37.471 86.4595 36.6856C86.8189 35.7458 87 34.822 87 33.9354C87.0026 32.9956 86.8136 32.0824 86.4435 31.2225V31.2225Z" fill="#C20C7A"/>
<path d="M36.4435 56.2225C36.0867 55.3962 35.5721 54.6474 34.9287 54.0181C34.2847 53.3868 33.5255 52.8852 32.6923 52.5405C31.8283 52.1816 30.9016 51.9979 29.9661 52C28.6535 52 27.3729 52.3594 26.2601 53.0383C25.9938 53.2007 25.7409 53.3791 25.5013 53.5735C25.2617 53.3791 25.0088 53.2007 24.7425 53.0383C23.6297 52.3594 22.3491 52 21.0366 52C20.0914 52 19.1756 52.1811 18.3103 52.5405C17.4744 52.8866 16.7209 53.3844 16.074 54.0181C15.4297 54.6467 14.915 55.3957 14.5591 56.2225C14.189 57.0824 14 57.9956 14 58.9354C14 59.822 14.181 60.7458 14.5405 61.6856C14.8413 62.471 15.2726 63.2857 15.8237 64.1084C16.697 65.4102 17.8977 66.768 19.3886 68.1445C21.8592 70.4261 24.3059 72.0022 24.4098 72.0661L25.0407 72.4708C25.3203 72.6492 25.6797 72.6492 25.9592 72.4708L26.5902 72.0661C26.694 71.9995 29.1381 70.4261 31.6114 68.1445C33.1023 66.768 34.303 65.4102 35.1763 64.1084C35.7274 63.2857 36.1613 62.471 36.4595 61.6856C36.8189 60.7458 37 59.822 37 58.9354C37.0026 57.9956 36.8136 57.0824 36.4435 56.2225Z" fill="#C20C7A"/>
<path d="M36.4435 31.2225C36.0867 30.3962 35.5721 29.6474 34.9287 29.0181C34.2847 28.3868 33.5255 27.8852 32.6923 27.5405C31.8283 27.1816 30.9016 26.9979 29.9661 27C28.6535 27 27.3729 27.3594 26.2601 28.0383C25.9939 28.2007 25.7409 28.3791 25.5013 28.5735C25.2617 28.3791 25.0088 28.2007 24.7425 28.0383C23.6297 27.3594 22.3491 27 21.0366 27C20.0914 27 19.1756 27.1811 18.3103 27.5405C17.4744 27.8866 16.7209 28.3844 16.074 29.0181C15.4297 29.6467 14.915 30.3957 14.5591 31.2225C14.189 32.0824 14 32.9956 14 33.9354C14 34.822 14.181 35.7458 14.5405 36.6856C14.8413 37.471 15.2726 38.2857 15.8237 39.1084C16.697 40.4102 17.8977 41.768 19.3886 43.1445C21.8592 45.4261 24.3059 47.0022 24.4098 47.0661L25.0407 47.4708C25.3203 47.6492 25.6797 47.6492 25.9592 47.4708L26.5902 47.0661C26.694 46.9995 29.1381 45.4261 31.6114 43.1445C33.1023 41.768 34.303 40.4102 35.1763 39.1084C35.7274 38.2857 36.1613 37.471 36.4595 36.6856C36.8189 35.7458 37 34.822 37 33.9354C37.0026 32.9956 36.8136 32.0824 36.4435 31.2225V31.2225Z" fill="#C20C7A"/>
<path d="M36.4435 81.2225C36.0867 80.3962 35.5721 79.6474 34.9287 79.0181C34.2847 78.3868 33.5255 77.8852 32.6923 77.5405C31.8283 77.1816 30.9016 76.9979 29.9661 77C28.6535 77 27.3729 77.3594 26.2601 78.0383C25.9939 78.2007 25.7409 78.3791 25.5013 78.5735C25.2617 78.3791 25.0088 78.2007 24.7425 78.0383C23.6297 77.3594 22.3491 77 21.0366 77C20.0914 77 19.1756 77.1811 18.3103 77.5405C17.4744 77.8866 16.7209 78.3844 16.074 79.0181C15.4297 79.6467 14.915 80.3957 14.5591 81.2225C14.189 82.0824 14 82.9956 14 83.9354C14 84.822 14.181 85.7458 14.5405 86.6856C14.8413 87.471 15.2726 88.2857 15.8237 89.1084C16.697 90.4102 17.8977 91.768 19.3886 93.1445C21.8592 95.4261 24.3059 97.0022 24.4098 97.0661L25.0407 97.4708C25.3203 97.6492 25.6797 97.6492 25.9592 97.4708L26.5902 97.0661C26.694 96.9995 29.1381 95.4261 31.6114 93.1445C33.1023 91.768 34.303 90.4102 35.1763 89.1084C35.7274 88.2857 36.1613 87.471 36.4595 86.6856C36.8189 85.7458 37 84.822 37 83.9354C37.0026 82.9956 36.8136 82.0824 36.4435 81.2225V81.2225Z" fill="#C20C7A"/>
<path d="M36.4435 106.222C36.0867 105.396 35.5721 104.647 34.9287 104.018C34.2847 103.387 33.5255 102.885 32.6923 102.54C31.8283 102.182 30.9016 101.998 29.9661 102C28.6535 102 27.3729 102.359 26.2601 103.038C25.9939 103.201 25.7409 103.379 25.5013 103.573C25.2617 103.379 25.0088 103.201 24.7425 103.038C23.6297 102.359 22.3491 102 21.0366 102C20.0914 102 19.1756 102.181 18.3103 102.54C17.4744 102.887 16.7209 103.384 16.074 104.018C15.4297 104.647 14.915 105.396 14.5591 106.222C14.189 107.082 14 107.996 14 108.935C14 109.822 14.181 110.746 14.5405 111.686C14.8413 112.471 15.2726 113.286 15.8237 114.108C16.697 115.41 17.8977 116.768 19.3886 118.144C21.8592 120.426 24.3059 122.002 24.4098 122.066L25.0407 122.471C25.3203 122.649 25.6797 122.649 25.9592 122.471L26.5902 122.066C26.694 122 29.1381 120.426 31.6114 118.144C33.1023 116.768 34.303 115.41 35.1763 114.108C35.7274 113.286 36.1613 112.471 36.4595 111.686C36.8189 110.746 37 109.822 37 108.935C37.0026 107.996 36.8136 107.082 36.4435 106.222V106.222Z" fill="#C20C7A"/>
<path d="M86.4435 81.2225C86.0867 80.3962 85.5721 79.6474 84.9287 79.0181C84.2847 78.3868 83.5255 77.8852 82.6923 77.5405C81.8283 77.1816 80.9016 76.9979 79.9661 77C78.6535 77 77.3729 77.3594 76.2601 78.0383C75.9939 78.2007 75.7409 78.3791 75.5013 78.5735C75.2617 78.3791 75.0088 78.2007 74.7425 78.0383C73.6297 77.3594 72.3491 77 71.0366 77C70.0914 77 69.1756 77.1811 68.3103 77.5405C67.4744 77.8866 66.7209 78.3844 66.074 79.0181C65.4297 79.6467 64.915 80.3957 64.5591 81.2225C64.189 82.0824 64 82.9956 64 83.9354C64 84.822 64.181 85.7458 64.5405 86.6856C64.8413 87.471 65.2726 88.2857 65.8237 89.1084C66.697 90.4102 67.8977 91.768 69.3886 93.1445C71.8592 95.4261 74.3059 97.0022 74.4098 97.0661L75.0407 97.4708C75.3203 97.6492 75.6797 97.6492 75.9592 97.4708L76.5902 97.0661C76.694 96.9995 79.1381 95.4261 81.6114 93.1445C83.1023 91.768 84.303 90.4102 85.1763 89.1084C85.7274 88.2857 86.1613 87.471 86.4595 86.6856C86.8189 85.7458 87 84.822 87 83.9354C87.0026 82.9956 86.8136 82.0824 86.4435 81.2225V81.2225Z" fill="#C20C7A"/>
<path d="M86.4435 106.222C86.0867 105.396 85.5721 104.647 84.9287 104.018C84.2847 103.387 83.5255 102.885 82.6923 102.54C81.8283 102.182 80.9016 101.998 79.9661 102C78.6535 102 77.3729 102.359 76.2601 103.038C75.9939 103.201 75.7409 103.379 75.5013 103.573C75.2617 103.379 75.0088 103.201 74.7425 103.038C73.6297 102.359 72.3491 102 71.0366 102C70.0914 102 69.1756 102.181 68.3103 102.54C67.4744 102.887 66.7209 103.384 66.074 104.018C65.4297 104.647 64.915 105.396 64.5591 106.222C64.189 107.082 64 107.996 64 108.935C64 109.822 64.181 110.746 64.5405 111.686C64.8413 112.471 65.2726 113.286 65.8237 114.108C66.697 115.41 67.8977 116.768 69.3886 118.144C71.8592 120.426 74.3059 122.002 74.4098 122.066L75.0407 122.471C75.3203 122.649 75.6797 122.649 75.9592 122.471L76.5902 122.066C76.694 122 79.1381 120.426 81.6114 118.144C83.1023 116.768 84.303 115.41 85.1763 114.108C85.7274 113.286 86.1613 112.471 86.4595 111.686C86.8189 110.746 87 109.822 87 108.935C87.0026 107.996 86.8136 107.082 86.4435 106.222V106.222Z" fill="#C20C7A"/>
</svg>
