<svg width="100" height="150" viewBox="0 0 100 150" fill="none" xmlns="http://www.w3.org/2000/svg">
<rect width="100" height="150" rx="10" fill="#D9D9D9"/>
<path d="M10.94 21.3C10.1533 21.3 9.41 21.2033 8.71 21.01C8.01 20.8167 7.38667 20.5267 6.84 20.14L7.68 17.86C8.05333 18.22 8.51 18.5033 9.05 18.71C9.59667 18.9167 10.14 19.02 10.68 19.02C11.5467 19.02 12.2 18.8167 12.64 18.41C13.08 17.9967 13.3 17.4533 13.3 16.78C13.3 16.0333 13.0433 15.5167 12.53 15.23C12.0233 14.9433 11.3467 14.8 10.5 14.8H9.44V12.82H10.52C11.3133 12.82 11.9133 12.6267 12.32 12.24C12.7333 11.8533 12.94 11.34 12.94 10.7C12.94 10.0667 12.7533 9.62667 12.38 9.38C12.0067 9.12667 11.44 9 10.68 9C10.4067 9 10.0833 9.05 9.71 9.15C9.34333 9.24333 8.98333 9.38333 8.63 9.57C8.27667 9.75 7.98667 9.96667 7.76 10.22L6.76 8.1C7.21333 7.7 7.82333 7.37 8.59 7.11C9.36333 6.85 10.24 6.72 11.22 6.72C12.14 6.72 12.94 6.86 13.62 7.14C14.3 7.42 14.8233 7.83 15.19 8.37C15.5567 8.90333 15.74 9.54667 15.74 10.3C15.74 10.8133 15.6467 11.3167 15.46 11.81C15.28 12.3033 15.0133 12.73 14.66 13.09C14.3067 13.4433 13.8933 13.68 13.42 13.8C13.9667 13.8 14.4433 13.9533 14.85 14.26C15.2633 14.5667 15.5767 14.97 15.79 15.47C16.01 15.97 16.12 16.5067 16.12 17.08C16.12 17.9333 15.89 18.68 15.43 19.32C14.97 19.96 14.3467 20.45 13.56 20.79C12.7733 21.13 11.9 21.3 10.94 21.3Z" fill="#C20C7A"/>
<path d="M85.94 142.3C85.1533 142.3 84.41 142.203 83.71 142.01C83.01 141.817 82.3867 141.527 81.84 141.14L82.68 138.86C83.0533 139.22 83.51 139.503 84.05 139.71C84.5967 139.917 85.14 140.02 85.68 140.02C86.5467 140.02 87.2 139.817 87.64 139.41C88.08 138.997 88.3 138.453 88.3 137.78C88.3 137.033 88.0433 136.517 87.53 136.23C87.0233 135.943 86.3467 135.8 85.5 135.8H84.44V133.82H85.52C86.3133 133.82 86.9133 133.627 87.32 133.24C87.7333 132.853 87.94 132.34 87.94 131.7C87.94 131.067 87.7533 130.627 87.38 130.38C87.0067 130.127 86.44 130 85.68 130C85.4067 130 85.0833 130.05 84.71 130.15C84.3433 130.243 83.9833 130.383 83.63 130.57C83.2767 130.75 82.9867 130.967 82.76 131.22L81.76 129.1C82.2133 128.7 82.8233 128.37 83.59 128.11C84.3633 127.85 85.24 127.72 86.22 127.72C87.14 127.72 87.94 127.86 88.62 128.14C89.3 128.42 89.8233 128.83 90.19 129.37C90.5567 129.903 90.74 130.547 90.74 131.3C90.74 131.813 90.6467 132.317 90.46 132.81C90.28 133.303 90.0133 133.73 89.66 134.09C89.3067 134.443 88.8933 134.68 88.42 134.8C88.9667 134.8 89.4433 134.953 89.85 135.26C90.2633 135.567 90.5767 135.97 90.79 136.47C91.01 136.97 91.12 137.507 91.12 138.08C91.12 138.933 90.89 139.68 90.43 140.32C89.97 140.96 89.3467 141.45 88.56 141.79C87.7733 142.13 86.9 142.3 85.94 142.3Z" fill="#C20C7A"/>
<path d="M61.4435 105.222C61.0867 104.396 60.5721 103.647 59.9287 103.018C59.2847 102.387 58.5255 101.885 57.6923 101.54C56.8283 101.182 55.9016 100.998 54.9661 101C53.6535 101 52.3729 101.359 51.2601 102.038C50.9938 102.201 50.7409 102.379 50.5013 102.573C50.2617 102.379 50.0088 102.201 49.7425 102.038C48.6297 101.359 47.3491 101 46.0366 101C45.0914 101 44.1756 101.181 43.3103 101.54C42.4744 101.887 41.7209 102.384 41.074 103.018C40.4297 103.647 39.915 104.396 39.5591 105.222C39.189 106.082 39 106.996 39 107.935C39 108.822 39.181 109.746 39.5405 110.686C39.8413 111.471 40.2726 112.286 40.8237 113.108C41.697 114.41 42.8977 115.768 44.3886 117.144C46.8592 119.426 49.3059 121.002 49.4098 121.066L50.0407 121.471C50.3203 121.649 50.6797 121.649 50.9592 121.471L51.5902 121.066C51.694 121 54.1381 119.426 56.6114 117.144C58.1023 115.768 59.303 114.41 60.1763 113.108C60.7274 112.286 61.1613 111.471 61.4595 110.686C61.8189 109.746 62 108.822 62 107.935C62.0026 106.996 61.8136 106.082 61.4435 105.222Z" fill="#C20C7A"/>
<path d="M61.4435 68.2225C61.0867 67.3962 60.5721 66.6474 59.9287 66.0181C59.2847 65.3868 58.5255 64.8852 57.6923 64.5405C56.8283 64.1816 55.9016 63.9979 54.9661 64C53.6535 64 52.3729 64.3594 51.2601 65.0383C50.9938 65.2007 50.7409 65.3791 50.5013 65.5735C50.2617 65.3791 50.0088 65.2007 49.7425 65.0383C48.6297 64.3594 47.3491 64 46.0366 64C45.0914 64 44.1756 64.1811 43.3103 64.5405C42.4744 64.8866 41.7209 65.3844 41.074 66.0181C40.4297 66.6467 39.915 67.3957 39.5591 68.2225C39.189 69.0824 39 69.9956 39 70.9354C39 71.822 39.181 72.7458 39.5405 73.6856C39.8413 74.471 40.2726 75.2857 40.8237 76.1084C41.697 77.4102 42.8977 78.768 44.3886 80.1445C46.8592 82.4261 49.3059 84.0022 49.4098 84.0661L50.0407 84.4708C50.3203 84.6492 50.6797 84.6492 50.9592 84.4708L51.5902 84.0661C51.694 83.9995 54.1381 82.4261 56.6114 80.1445C58.1023 78.768 59.303 77.4102 60.1763 76.1084C60.7274 75.2857 61.1613 74.471 61.4595 73.6856C61.8189 72.7458 62 71.822 62 70.9354C62.0026 69.9956 61.8136 69.0824 61.4435 68.2225Z" fill="#C20C7A"/>
<path d="M61.4435 32.2225C61.0867 31.3962 60.5721 30.6474 59.9287 30.0181C59.2847 29.3868 58.5255 28.8852 57.6923 28.5405C56.8283 28.1816 55.9016 27.9979 54.9661 28C53.6535 28 52.3729 28.3594 51.2601 29.0383C50.9938 29.2007 50.7409 29.3791 50.5013 29.5735C50.2617 29.3791 50.0088 29.2007 49.7425 29.0383C48.6297 28.3594 47.3491 28 46.0366 28C45.0914 28 44.1756 28.1811 43.3103 28.5405C42.4744 28.8866 41.7209 29.3844 41.074 30.0181C40.4297 30.6467 39.915 31.3957 39.5591 32.2225C39.189 33.0824 39 33.9956 39 34.9354C39 35.822 39.181 36.7458 39.5405 37.6856C39.8413 38.471 40.2726 39.2857 40.8237 40.1084C41.697 41.4102 42.8977 42.768 44.3886 44.1445C46.8592 46.4261 49.3059 48.0022 49.4098 48.0661L50.0407 48.4708C50.3203 48.6492 50.6797 48.6492 50.9592 48.4708L51.5902 48.0661C51.694 47.9995 54.1381 46.4261 56.6114 44.1445C58.1023 42.768 59.303 41.4102 60.1763 40.1084C60.7274 39.2857 61.1613 38.471 61.4595 37.6856C61.8189 36.7458 62 35.822 62 34.9354C62.0026 33.9956 61.8136 33.0824 61.4435 32.2225Z" fill="#C20C7A"/>
</svg>
