<svg width="100" height="150" viewBox="0 0 100 150" fill="none" xmlns="http://www.w3.org/2000/svg">
<rect width="100" height="150" rx="10" fill="#D9D9D9"/>
<path d="M89.5062 139.98H84.5262L83.7862 142H80.9862L86.8862 127.82H87.0862L93.0062 142H90.2862L89.5062 139.98ZM88.7662 138.04L87.3062 134.24L86.9662 133.12L86.6462 134.24L85.2462 138.04H88.7662Z" fill="#0C5867"/>
<path d="M13.5062 17.98H8.52617L7.78617 20H4.98617L10.8862 5.82H11.0862L17.0062 20H14.2862L13.5062 17.98ZM12.7662 16.04L11.3062 12.24L10.9662 11.12L10.6462 12.24L9.24617 16.04H12.7662Z" fill="#0C5867"/>
<path d="M58.0316 86.0594C63.0524 86.0484 67.0579 81.9952 67.0122 76.9746C66.9692 72.2529 63.2905 68.4 58.6402 68.0791C58.3608 68.0598 58.1858 67.7731 58.2953 67.5153C58.7638 66.4116 59.0187 65.1953 59.0071 63.918C58.963 59.0508 54.9972 55.0663 50.1302 55.0008C45.1022 54.9332 41.0051 58.9887 41.0051 64.0012C41.0051 65.2489 41.2593 66.4372 41.7182 67.5174C41.8274 67.7743 41.6513 68.0598 41.3729 68.079C36.7223 68.3997 33.0434 72.2526 33.0004 76.9745C32.9547 81.9951 36.9602 86.0483 41.981 86.0593C44.6512 86.0652 47.0502 84.9074 48.7023 83.0657C48.6404 83.3681 48.5696 83.6685 48.4898 83.9666C48.3734 84.3896 48.2432 84.8194 48.0911 85.2492C48.0162 85.464 47.9342 85.6789 47.8526 85.893C47.7647 86.107 47.6845 86.3202 47.5898 86.5317L47.4528 86.8477L47.3087 87.1604C47.2133 87.3678 47.1192 87.5726 47.0006 87.774C46.5297 88.5799 45.8148 89.332 44.9592 89.9766L44.6424 90.2132C44.5933 90.2517 44.5342 90.2899 44.4783 90.3275L44.312 90.4391L44.1499 90.5478L44.0705 90.6011L43.9849 90.6537L43.6526 90.8563C43.5494 90.9218 43.4305 90.9852 43.3222 91.0463C43.2112 91.1075 43.1106 91.1665 43.0025 91.2232C42.7797 91.3365 42.592 91.4405 42.3802 91.5346L41.8412 91.7856C41.7671 91.8221 41.6791 91.8559 41.6053 91.8868L41.4006 91.9711L41.2388 92.0377C41.193 92.0569 41.1456 92.0731 41.112 92.0861C41.081 92.0977 41.0542 92.1185 41.0353 92.1457C41.0164 92.1729 41.0063 92.2053 41.0063 92.2384V94.8374C41.0063 94.9272 41.079 95 41.1688 95H58.8449C58.8881 95 58.9294 94.9829 58.9599 94.9524C58.9904 94.9219 59.0075 94.8806 59.0075 94.8374V92.2386C59.0075 92.1708 58.9654 92.11 58.9018 92.0863C58.8681 92.0733 58.8208 92.0571 58.7749 92.0379L58.6131 91.9714L58.4085 91.8871C58.3347 91.8561 58.2465 91.8223 58.1725 91.7859L57.6335 91.5348C57.4218 91.4408 57.2341 91.3367 57.0113 91.2234C56.9032 91.1668 56.8025 91.1078 56.6916 91.0466C56.5833 90.9854 56.4644 90.9221 56.3612 90.8566L56.0288 90.654L55.9433 90.6014L55.8639 90.5481L55.7018 90.4393L55.5355 90.3278C55.4797 90.2901 55.4205 90.252 55.3714 90.2134L55.0546 89.9769C54.1991 89.3322 53.4842 88.5801 53.0132 87.7743C52.8945 87.5728 52.8004 87.368 52.705 87.1607C52.6569 87.0565 52.6089 86.9522 52.5609 86.8479L52.424 86.532C52.3292 86.3205 52.249 86.1072 52.1611 85.8932C52.0796 85.6792 51.9976 85.4643 51.9226 85.2494C51.7706 84.8196 51.6403 84.3898 51.5238 83.9668C51.4443 83.6693 51.3735 83.3694 51.3117 83.0677C52.9638 84.9083 55.3622 86.0653 58.0316 86.0594Z" fill="#0C5867"/>
</svg>
