<svg width="100" height="150" viewBox="0 0 100 150" fill="none" xmlns="http://www.w3.org/2000/svg">
<rect width="100" height="150" rx="10" fill="#D9D9D9"/>
<path d="M14.75 13.72C15.5833 14 16.24 14.4333 16.72 15.02C17.2 15.6067 17.44 16.3267 17.44 17.18C17.44 18.1333 17.1867 18.9233 16.68 19.55C16.18 20.1767 15.53 20.6367 14.73 20.93C13.9367 21.2167 13.0933 21.36 12.2 21.36C11.3 21.36 10.45 21.2167 9.65 20.93C8.85667 20.6367 8.20667 20.1767 7.7 19.55C7.19333 18.9233 6.94 18.1333 6.94 17.18C6.94 16.3333 7.17667 15.62 7.65 15.04C8.12333 14.4533 8.77667 14.0133 9.61 13.72C8.94333 13.42 8.43 12.99 8.07 12.43C7.71667 11.8633 7.54 11.1667 7.54 10.34C7.54 9.50667 7.76 8.82 8.2 8.28C8.64 7.73333 9.21333 7.33667 9.92 7.09C10.6267 6.84333 11.3933 6.72 12.22 6.72C13.04 6.72 13.7967 6.84333 14.49 7.09C15.19 7.33667 15.7567 7.73333 16.19 8.28C16.6233 8.82 16.84 9.50667 16.84 10.34C16.84 11.1467 16.6533 11.8333 16.28 12.4C15.9133 12.9667 15.4033 13.4067 14.75 13.72ZM12.24 8.56C10.8933 8.56 10.22 9.21333 10.22 10.52C10.22 11.2333 10.4 11.7933 10.76 12.2C11.12 12.6 11.6133 12.8 12.24 12.8C12.86 12.8 13.3367 12.6 13.67 12.2C14.01 11.8 14.18 11.24 14.18 10.52C14.18 9.86 14.0233 9.37 13.71 9.05C13.3967 8.72333 12.9067 8.56 12.24 8.56ZM12.2 19.34C12.9667 19.34 13.5467 19.1567 13.94 18.79C14.34 18.4233 14.54 17.8733 14.54 17.14C14.54 16.3133 14.3133 15.71 13.86 15.33C13.4067 14.95 12.8533 14.76 12.2 14.76C11.5333 14.76 10.97 14.95 10.51 15.33C10.05 15.71 9.82 16.3133 9.82 17.14C9.82 17.8733 10.02 18.4233 10.42 18.79C10.8267 19.1567 11.42 19.34 12.2 19.34Z" fill="#0C5867"/>
<path d="M89.75 134.72C90.5833 135 91.24 135.433 91.72 136.02C92.2 136.607 92.44 137.327 92.44 138.18C92.44 139.133 92.1867 139.923 91.68 140.55C91.18 141.177 90.53 141.637 89.73 141.93C88.9367 142.217 88.0933 142.36 87.2 142.36C86.3 142.36 85.45 142.217 84.65 141.93C83.8567 141.637 83.2067 141.177 82.7 140.55C82.1933 139.923 81.94 139.133 81.94 138.18C81.94 137.333 82.1767 136.62 82.65 136.04C83.1233 135.453 83.7767 135.013 84.61 134.72C83.9433 134.42 83.43 133.99 83.07 133.43C82.7167 132.863 82.54 132.167 82.54 131.34C82.54 130.507 82.76 129.82 83.2 129.28C83.64 128.733 84.2133 128.337 84.92 128.09C85.6267 127.843 86.3933 127.72 87.22 127.72C88.04 127.72 88.7967 127.843 89.49 128.09C90.19 128.337 90.7567 128.733 91.19 129.28C91.6233 129.82 91.84 130.507 91.84 131.34C91.84 132.147 91.6533 132.833 91.28 133.4C90.9133 133.967 90.4033 134.407 89.75 134.72ZM87.24 129.56C85.8933 129.56 85.22 130.213 85.22 131.52C85.22 132.233 85.4 132.793 85.76 133.2C86.12 133.6 86.6133 133.8 87.24 133.8C87.86 133.8 88.3367 133.6 88.67 133.2C89.01 132.8 89.18 132.24 89.18 131.52C89.18 130.86 89.0233 130.37 88.71 130.05C88.3967 129.723 87.9067 129.56 87.24 129.56ZM87.2 140.34C87.9667 140.34 88.5467 140.157 88.94 139.79C89.34 139.423 89.54 138.873 89.54 138.14C89.54 137.313 89.3133 136.71 88.86 136.33C88.4067 135.95 87.8533 135.76 87.2 135.76C86.5333 135.76 85.97 135.95 85.51 136.33C85.05 136.71 84.82 137.313 84.82 138.14C84.82 138.873 85.02 139.423 85.42 139.79C85.8267 140.157 86.42 140.34 87.2 140.34Z" fill="#0C5867"/>
<path d="M32.0189 47.6357C35.0314 47.629 37.4348 45.1971 37.4073 42.1847C37.3815 39.3517 35.1743 37.04 32.3841 36.8474C32.2165 36.8359 32.1115 36.6638 32.1772 36.5092C32.4583 35.847 32.6112 35.1172 32.6043 34.3508C32.5778 31.4305 30.1983 29.0398 27.2781 29.0005C24.2613 28.9599 21.8031 31.3932 21.8031 34.4007C21.8031 35.1493 21.9556 35.8623 22.2309 36.5104C22.2964 36.6646 22.1908 36.8359 22.0237 36.8474C19.2334 37.0398 17.0261 39.3516 17.0002 42.1847C16.9728 45.1971 19.3761 47.629 22.3886 47.6356C23.9907 47.6391 25.4301 46.9445 26.4214 45.8394C26.3842 46.0208 26.3417 46.2011 26.2939 46.3799C26.224 46.6338 26.1459 46.8916 26.0546 47.1495C26.0097 47.2784 25.9605 47.4073 25.9115 47.5358C25.8588 47.6642 25.8107 47.7921 25.7539 47.919L25.6717 48.1086L25.5852 48.2963C25.528 48.4207 25.4715 48.5436 25.4003 48.6644C25.1178 49.1479 24.6889 49.5992 24.1755 49.986L23.9854 50.1279C23.956 50.151 23.9205 50.1739 23.887 50.1965L23.7872 50.2635L23.6899 50.3287L23.6423 50.3607L23.591 50.3922L23.3915 50.5138C23.3296 50.5531 23.2583 50.5911 23.1933 50.6278C23.1267 50.6645 23.0663 50.6999 23.0015 50.7339C22.8678 50.8019 22.7552 50.8643 22.6281 50.9208L22.3047 51.0714C22.2603 51.0933 22.2075 51.1135 22.1632 51.1321L22.0404 51.1827L21.9433 51.2226C21.9158 51.2341 21.8874 51.2438 21.8672 51.2517C21.8486 51.2586 21.8325 51.2711 21.8212 51.2874C21.8098 51.3037 21.8038 51.3232 21.8038 51.343V52.9025C21.8038 52.9563 21.8474 53 21.9013 53H32.507C32.5328 53 32.5576 52.9897 32.5759 52.9714C32.5942 52.9531 32.6045 52.9283 32.6045 52.9025V51.3432C32.6045 51.3025 32.5792 51.266 32.5411 51.2518C32.5209 51.244 32.4925 51.2343 32.465 51.2228L32.3679 51.1828L32.2451 51.1322C32.2008 51.1137 32.1479 51.0934 32.1035 51.0715L31.7801 50.9209C31.6531 50.8645 31.5404 50.802 31.4068 50.7341C31.3419 50.7001 31.2815 50.6647 31.2149 50.628C31.15 50.5913 31.0786 50.5532 31.0167 50.5139L30.8173 50.3924L30.766 50.3608L30.7183 50.3288L30.6211 50.2636L30.5213 50.1967C30.4878 50.1741 30.4523 50.1512 30.4228 50.1281L30.2328 49.9861C29.7195 49.5993 29.2905 49.1481 29.0079 48.6646C28.9367 48.5437 28.8803 48.4208 28.823 48.2964C28.7942 48.2339 28.7653 48.1713 28.7366 48.1088L28.6544 47.9192C28.5975 47.7923 28.5494 47.6643 28.4967 47.5359C28.4478 47.4075 28.3985 47.2786 28.3536 47.1496C28.2624 46.8918 28.1842 46.6339 28.1143 46.3801C28.0666 46.2016 28.0241 46.0216 27.987 45.8406C28.9783 46.945 30.4173 47.6392 32.0189 47.6357Z" fill="#0C5867"/>
<path d="M78.0189 47.6357C81.0314 47.629 83.4348 45.1971 83.4073 42.1847C83.3815 39.3517 81.1743 37.04 78.3841 36.8474C78.2165 36.8359 78.1115 36.6638 78.1772 36.5092C78.4583 35.847 78.6112 35.1172 78.6043 34.3508C78.5778 31.4305 76.1983 29.0398 73.2781 29.0005C70.2613 28.9599 67.8031 31.3932 67.8031 34.4007C67.8031 35.1493 67.9556 35.8623 68.2309 36.5104C68.2964 36.6646 68.1908 36.8359 68.0237 36.8474C65.2334 37.0398 63.0261 39.3516 63.0002 42.1847C62.9728 45.1971 65.3761 47.629 68.3886 47.6356C69.9907 47.6391 71.4301 46.9445 72.4214 45.8394C72.3842 46.0208 72.3417 46.2011 72.2939 46.3799C72.224 46.6338 72.1459 46.8916 72.0546 47.1495C72.0097 47.2784 71.9605 47.4073 71.9115 47.5358C71.8588 47.6642 71.8107 47.7921 71.7539 47.919L71.6717 48.1086L71.5852 48.2963C71.528 48.4207 71.4715 48.5436 71.4003 48.6644C71.1178 49.1479 70.6889 49.5992 70.1755 49.986L69.9854 50.1279C69.956 50.151 69.9205 50.1739 69.887 50.1965L69.7872 50.2635L69.6899 50.3287L69.6423 50.3607L69.591 50.3922L69.3915 50.5138C69.3296 50.5531 69.2583 50.5911 69.1933 50.6278C69.1267 50.6645 69.0663 50.6999 69.0015 50.7339C68.8678 50.8019 68.7552 50.8643 68.6281 50.9208L68.3047 51.0714C68.2603 51.0933 68.2075 51.1135 68.1632 51.1321L68.0404 51.1827L67.9433 51.2226C67.9158 51.2341 67.8874 51.2438 67.8672 51.2517C67.8486 51.2586 67.8325 51.2711 67.8212 51.2874C67.8098 51.3037 67.8038 51.3232 67.8038 51.343V52.9025C67.8038 52.9563 67.8474 53 67.9013 53H78.507C78.5328 53 78.5576 52.9897 78.5759 52.9714C78.5942 52.9531 78.6045 52.9283 78.6045 52.9025V51.3432C78.6045 51.3025 78.5792 51.266 78.5411 51.2518C78.5209 51.244 78.4925 51.2343 78.465 51.2228L78.3679 51.1828L78.2451 51.1322C78.2008 51.1137 78.1479 51.0934 78.1035 51.0715L77.7801 50.9209C77.6531 50.8645 77.5404 50.802 77.4068 50.7341C77.3419 50.7001 77.2815 50.6647 77.2149 50.628C77.15 50.5913 77.0786 50.5532 77.0167 50.5139L76.8173 50.3924L76.766 50.3608L76.7183 50.3288L76.6211 50.2636L76.5213 50.1967C76.4878 50.1741 76.4523 50.1512 76.4228 50.1281L76.2328 49.9861C75.7195 49.5993 75.2905 49.1481 75.0079 48.6646C74.9367 48.5437 74.8803 48.4208 74.823 48.2964C74.7942 48.2339 74.7653 48.1713 74.7366 48.1088L74.6544 47.9192C74.5975 47.7923 74.5494 47.6643 74.4967 47.5359C74.4478 47.4075 74.3985 47.2786 74.3536 47.1496C74.2624 46.8918 74.1842 46.6339 74.1143 46.3801C74.0666 46.2016 74.0241 46.0216 73.987 45.8406C74.9783 46.945 76.4173 47.6392 78.0189 47.6357Z" fill="#0C5867"/>
<path d="M32.0189 80.6357C35.0314 80.629 37.4348 78.1971 37.4073 75.1847C37.3815 72.3517 35.1743 70.04 32.3841 69.8474C32.2165 69.8359 32.1115 69.6638 32.1772 69.5092C32.4583 68.847 32.6112 68.1172 32.6043 67.3508C32.5778 64.4305 30.1983 62.0398 27.2781 62.0005C24.2613 61.9599 21.8031 64.3932 21.8031 67.4007C21.8031 68.1493 21.9556 68.8623 22.2309 69.5104C22.2964 69.6646 22.1908 69.8359 22.0237 69.8474C19.2334 70.0398 17.0261 72.3516 17.0002 75.1847C16.9728 78.1971 19.3761 80.629 22.3886 80.6356C23.9907 80.6391 25.4301 79.9445 26.4214 78.8394C26.3842 79.0208 26.3417 79.2011 26.2939 79.3799C26.224 79.6338 26.1459 79.8916 26.0546 80.1495C26.0097 80.2784 25.9605 80.4073 25.9115 80.5358C25.8588 80.6642 25.8107 80.7921 25.7539 80.919L25.6717 81.1086L25.5852 81.2963C25.528 81.4207 25.4715 81.5436 25.4003 81.6644C25.1178 82.1479 24.6889 82.5992 24.1755 82.986L23.9854 83.1279C23.956 83.151 23.9205 83.1739 23.887 83.1965L23.7872 83.2635L23.6899 83.3287L23.6423 83.3607L23.591 83.3922L23.3915 83.5138C23.3296 83.5531 23.2583 83.5911 23.1933 83.6278C23.1267 83.6645 23.0663 83.6999 23.0015 83.7339C22.8678 83.8019 22.7552 83.8643 22.6281 83.9208L22.3047 84.0714C22.2603 84.0933 22.2075 84.1135 22.1632 84.1321L22.0404 84.1827L21.9433 84.2226C21.9158 84.2341 21.8874 84.2438 21.8672 84.2517C21.8486 84.2586 21.8325 84.2711 21.8212 84.2874C21.8098 84.3037 21.8038 84.3232 21.8038 84.343V85.9025C21.8038 85.9563 21.8474 86 21.9013 86H32.507C32.5328 86 32.5576 85.9897 32.5759 85.9714C32.5942 85.9531 32.6045 85.9283 32.6045 85.9025V84.3432C32.6045 84.3025 32.5792 84.266 32.5411 84.2518C32.5209 84.244 32.4925 84.2343 32.465 84.2228L32.3679 84.1828L32.2451 84.1322C32.2008 84.1137 32.1479 84.0934 32.1035 84.0715L31.7801 83.9209C31.6531 83.8645 31.5404 83.802 31.4068 83.7341C31.3419 83.7001 31.2815 83.6647 31.2149 83.628C31.15 83.5913 31.0786 83.5532 31.0167 83.5139L30.8173 83.3924L30.766 83.3608L30.7183 83.3288L30.6211 83.2636L30.5213 83.1967C30.4878 83.1741 30.4523 83.1512 30.4228 83.1281L30.2328 82.9861C29.7195 82.5993 29.2905 82.1481 29.0079 81.6646C28.9367 81.5437 28.8803 81.4208 28.823 81.2964C28.7942 81.2339 28.7653 81.1713 28.7366 81.1088L28.6544 80.9192C28.5975 80.7923 28.5494 80.6643 28.4967 80.5359C28.4478 80.4075 28.3985 80.2786 28.3536 80.1496C28.2624 79.8918 28.1842 79.6339 28.1143 79.3801C28.0666 79.2016 28.0241 79.0216 27.987 78.8406C28.9783 79.945 30.4173 80.6392 32.0189 80.6357Z" fill="#0C5867"/>
<path d="M78.0189 115.636C81.0314 115.629 83.4348 113.197 83.4073 110.185C83.3815 107.352 81.1743 105.04 78.3841 104.847C78.2165 104.836 78.1115 104.664 78.1772 104.509C78.4583 103.847 78.6112 103.117 78.6043 102.351C78.5778 99.4305 76.1983 97.0398 73.2781 97.0005C70.2613 96.9599 67.8031 99.3932 67.8031 102.401C67.8031 103.149 67.9556 103.862 68.2309 104.51C68.2964 104.665 68.1908 104.836 68.0237 104.847C65.2334 105.04 63.0261 107.352 63.0002 110.185C62.9728 113.197 65.3761 115.629 68.3886 115.636C69.9907 115.639 71.4301 114.944 72.4214 113.839C72.3842 114.021 72.3417 114.201 72.2939 114.38C72.224 114.634 72.1459 114.892 72.0546 115.149C72.0097 115.278 71.9605 115.407 71.9115 115.536C71.8588 115.664 71.8107 115.792 71.7539 115.919L71.6717 116.109L71.5852 116.296C71.528 116.421 71.4715 116.544 71.4003 116.664C71.1178 117.148 70.6889 117.599 70.1755 117.986L69.9854 118.128C69.956 118.151 69.9205 118.174 69.887 118.197L69.7872 118.263L69.6899 118.329L69.6423 118.361L69.591 118.392L69.3915 118.514C69.3296 118.553 69.2583 118.591 69.1933 118.628C69.1267 118.665 69.0663 118.7 69.0015 118.734C68.8678 118.802 68.7552 118.864 68.6281 118.921L68.3047 119.071C68.2603 119.093 68.2075 119.114 68.1632 119.132L68.0404 119.183L67.9433 119.223C67.9158 119.234 67.8874 119.244 67.8672 119.252C67.8486 119.259 67.8325 119.271 67.8212 119.287C67.8098 119.304 67.8038 119.323 67.8038 119.343V120.902C67.8038 120.956 67.8474 121 67.9013 121H78.507C78.5328 121 78.5576 120.99 78.5759 120.971C78.5942 120.953 78.6045 120.928 78.6045 120.902V119.343C78.6045 119.302 78.5792 119.266 78.5411 119.252C78.5209 119.244 78.4925 119.234 78.465 119.223L78.3679 119.183L78.2451 119.132C78.2008 119.114 78.1479 119.093 78.1035 119.072L77.7801 118.921C77.6531 118.864 77.5404 118.802 77.4068 118.734C77.3419 118.7 77.2815 118.665 77.2149 118.628C77.15 118.591 77.0786 118.553 77.0167 118.514L76.8173 118.392L76.766 118.361L76.7183 118.329L76.6211 118.264L76.5213 118.197C76.4878 118.174 76.4523 118.151 76.4228 118.128L76.2328 117.986C75.7195 117.599 75.2905 117.148 75.0079 116.665C74.9367 116.544 74.8803 116.421 74.823 116.296C74.7942 116.234 74.7653 116.171 74.7366 116.109L74.6544 115.919C74.5975 115.792 74.5494 115.664 74.4967 115.536C74.4478 115.407 74.3985 115.279 74.3536 115.15C74.2624 114.892 74.1842 114.634 74.1143 114.38C74.0666 114.202 74.0241 114.022 73.987 113.841C74.9783 114.945 76.4173 115.639 78.0189 115.636Z" fill="#0C5867"/>
<path d="M78.0189 80.6357C81.0314 80.629 83.4348 78.1971 83.4073 75.1847C83.3815 72.3517 81.1743 70.04 78.3841 69.8474C78.2165 69.8359 78.1115 69.6638 78.1772 69.5092C78.4583 68.847 78.6112 68.1172 78.6043 67.3508C78.5778 64.4305 76.1983 62.0398 73.2781 62.0005C70.2613 61.9599 67.8031 64.3932 67.8031 67.4007C67.8031 68.1493 67.9556 68.8623 68.2309 69.5104C68.2964 69.6646 68.1908 69.8359 68.0237 69.8474C65.2334 70.0398 63.0261 72.3516 63.0002 75.1847C62.9728 78.1971 65.3761 80.629 68.3886 80.6356C69.9907 80.6391 71.4301 79.9445 72.4214 78.8394C72.3842 79.0208 72.3417 79.2011 72.2939 79.3799C72.224 79.6338 72.1459 79.8916 72.0546 80.1495C72.0097 80.2784 71.9605 80.4073 71.9115 80.5358C71.8588 80.6642 71.8107 80.7921 71.7539 80.919L71.6717 81.1086L71.5852 81.2963C71.528 81.4207 71.4715 81.5436 71.4003 81.6644C71.1178 82.1479 70.6889 82.5992 70.1755 82.986L69.9854 83.1279C69.956 83.151 69.9205 83.1739 69.887 83.1965L69.7872 83.2635L69.6899 83.3287L69.6423 83.3607L69.591 83.3922L69.3915 83.5138C69.3296 83.5531 69.2583 83.5911 69.1933 83.6278C69.1267 83.6645 69.0663 83.6999 69.0015 83.7339C68.8678 83.8019 68.7552 83.8643 68.6281 83.9208L68.3047 84.0714C68.2603 84.0933 68.2075 84.1135 68.1632 84.1321L68.0404 84.1827L67.9433 84.2226C67.9158 84.2341 67.8874 84.2438 67.8672 84.2517C67.8486 84.2586 67.8325 84.2711 67.8212 84.2874C67.8098 84.3037 67.8038 84.3232 67.8038 84.343V85.9025C67.8038 85.9563 67.8474 86 67.9013 86H78.507C78.5328 86 78.5576 85.9897 78.5759 85.9714C78.5942 85.9531 78.6045 85.9283 78.6045 85.9025V84.3432C78.6045 84.3025 78.5792 84.266 78.5411 84.2518C78.5209 84.244 78.4925 84.2343 78.465 84.2228L78.3679 84.1828L78.2451 84.1322C78.2008 84.1137 78.1479 84.0934 78.1035 84.0715L77.7801 83.9209C77.6531 83.8645 77.5404 83.802 77.4068 83.7341C77.3419 83.7001 77.2815 83.6647 77.2149 83.628C77.15 83.5913 77.0786 83.5532 77.0167 83.5139L76.8173 83.3924L76.766 83.3608L76.7183 83.3288L76.6211 83.2636L76.5213 83.1967C76.4878 83.1741 76.4523 83.1512 76.4228 83.1281L76.2328 82.9861C75.7195 82.5993 75.2905 82.1481 75.0079 81.6646C74.9367 81.5437 74.8803 81.4208 74.823 81.2964C74.7942 81.2339 74.7653 81.1713 74.7366 81.1088L74.6544 80.9192C74.5975 80.7923 74.5494 80.6643 74.4967 80.5359C74.4478 80.4075 74.3985 80.2786 74.3536 80.1496C74.2624 79.8918 74.1842 79.6339 74.1143 79.3801C74.0666 79.2016 74.0241 79.0216 73.987 78.8406C74.9783 79.945 76.4173 80.6392 78.0189 80.6357Z" fill="#0C5867"/>
<path d="M55.0189 65.6357C58.0314 65.629 60.4348 63.1971 60.4073 60.1847C60.3815 57.3517 58.1743 55.04 55.3841 54.8474C55.2165 54.8359 55.1115 54.6638 55.1772 54.5092C55.4583 53.847 55.6112 53.1172 55.6043 52.3508C55.5778 49.4305 53.1983 47.0398 50.2781 47.0005C47.2613 46.9599 44.8031 49.3932 44.8031 52.4007C44.8031 53.1493 44.9556 53.8623 45.2309 54.5104C45.2964 54.6646 45.1908 54.8359 45.0237 54.8474C42.2334 55.0398 40.0261 57.3516 40.0002 60.1847C39.9728 63.1971 42.3761 65.629 45.3886 65.6356C46.9907 65.6391 48.4301 64.9445 49.4214 63.8394C49.3842 64.0208 49.3417 64.2011 49.2939 64.3799C49.224 64.6338 49.1459 64.8916 49.0546 65.1495C49.0097 65.2784 48.9605 65.4073 48.9115 65.5358C48.8588 65.6642 48.8107 65.7921 48.7539 65.919L48.6717 66.1086L48.5852 66.2963C48.528 66.4207 48.4715 66.5435 48.4003 66.6644C48.1178 67.1479 47.6889 67.5992 47.1755 67.986L46.9854 68.1279C46.956 68.151 46.9205 68.1739 46.887 68.1965L46.7872 68.2635L46.6899 68.3287L46.6423 68.3607L46.591 68.3922L46.3915 68.5138C46.3297 68.5531 46.2583 68.5911 46.1933 68.6278C46.1267 68.6645 46.0663 68.6999 46.0015 68.7339C45.8678 68.8019 45.7552 68.8643 45.6281 68.9208L45.3047 69.0714C45.2603 69.0933 45.2075 69.1135 45.1632 69.1321L45.0404 69.1827L44.9433 69.2226C44.9158 69.2341 44.8874 69.2438 44.8672 69.2517C44.8486 69.2586 44.8325 69.2711 44.8212 69.2874C44.8098 69.3037 44.8038 69.3232 44.8038 69.343V70.9025C44.8038 70.9563 44.8474 71 44.9013 71H55.507C55.5328 71 55.5576 70.9897 55.5759 70.9714C55.5942 70.9531 55.6045 70.9283 55.6045 70.9025V69.3432C55.6045 69.3025 55.5792 69.266 55.5411 69.2518C55.5209 69.244 55.4925 69.2343 55.465 69.2228L55.3679 69.1828L55.2451 69.1322C55.2008 69.1137 55.1479 69.0934 55.1035 69.0715L54.7801 68.9209C54.6531 68.8645 54.5404 68.802 54.4068 68.7341C54.3419 68.7001 54.2815 68.6647 54.2149 68.628C54.15 68.5913 54.0786 68.5533 54.0167 68.5139L53.8173 68.3924L53.766 68.3608L53.7183 68.3288L53.6211 68.2636L53.5213 68.1967C53.4878 68.1741 53.4523 68.1512 53.4228 68.1281L53.2328 67.9861C52.7195 67.5993 52.2905 67.1481 52.0079 66.6646C51.9367 66.5437 51.8803 66.4208 51.823 66.2964C51.7942 66.2339 51.7653 66.1713 51.7366 66.1088L51.6544 65.9192C51.5975 65.7923 51.5494 65.6643 51.4967 65.5359C51.4478 65.4075 51.3985 65.2786 51.3536 65.1496C51.2624 64.8918 51.1842 64.6339 51.1143 64.3801C51.0666 64.2016 51.0241 64.0216 50.987 63.8406C51.9783 64.945 53.4173 65.6392 55.0189 65.6357Z" fill="#0C5867"/>
<path d="M55.0189 100.636C58.0314 100.629 60.4348 98.1971 60.4073 95.1847C60.3815 92.3517 58.1743 90.04 55.3841 89.8474C55.2165 89.8359 55.1115 89.6638 55.1772 89.5092C55.4583 88.847 55.6112 88.1172 55.6043 87.3508C55.5778 84.4305 53.1983 82.0398 50.2781 82.0005C47.2613 81.9599 44.8031 84.3932 44.8031 87.4007C44.8031 88.1493 44.9556 88.8623 45.2309 89.5104C45.2964 89.6646 45.1908 89.8359 45.0237 89.8474C42.2334 90.0398 40.0261 92.3516 40.0002 95.1847C39.9728 98.1971 42.3761 100.629 45.3886 100.636C46.9907 100.639 48.4301 99.9445 49.4214 98.8394C49.3842 99.0208 49.3417 99.2011 49.2939 99.3799C49.224 99.6338 49.1459 99.8916 49.0546 100.149C49.0097 100.278 48.9605 100.407 48.9115 100.536C48.8588 100.664 48.8107 100.792 48.7539 100.919L48.6717 101.109L48.5852 101.296C48.528 101.421 48.4715 101.544 48.4003 101.664C48.1178 102.148 47.6889 102.599 47.1755 102.986L46.9854 103.128C46.956 103.151 46.9205 103.174 46.887 103.197L46.7872 103.263L46.6899 103.329L46.6423 103.361L46.591 103.392L46.3915 103.514C46.3297 103.553 46.2583 103.591 46.1933 103.628C46.1267 103.665 46.0663 103.7 46.0015 103.734C45.8678 103.802 45.7552 103.864 45.6281 103.921L45.3047 104.071C45.2603 104.093 45.2075 104.114 45.1632 104.132L45.0404 104.183L44.9433 104.223C44.9158 104.234 44.8874 104.244 44.8672 104.252C44.8486 104.259 44.8325 104.271 44.8212 104.287C44.8098 104.304 44.8038 104.323 44.8038 104.343V105.902C44.8038 105.956 44.8474 106 44.9013 106H55.507C55.5328 106 55.5576 105.99 55.5759 105.971C55.5942 105.953 55.6045 105.928 55.6045 105.902V104.343C55.6045 104.302 55.5792 104.266 55.5411 104.252C55.5209 104.244 55.4925 104.234 55.465 104.223L55.3679 104.183L55.2451 104.132C55.2008 104.114 55.1479 104.093 55.1035 104.072L54.7801 103.921C54.6531 103.864 54.5404 103.802 54.4068 103.734C54.3419 103.7 54.2815 103.665 54.2149 103.628C54.15 103.591 54.0786 103.553 54.0167 103.514L53.8173 103.392L53.766 103.361L53.7183 103.329L53.6211 103.264L53.5213 103.197C53.4878 103.174 53.4523 103.151 53.4228 103.128L53.2328 102.986C52.7195 102.599 52.2905 102.148 52.0079 101.665C51.9367 101.544 51.8803 101.421 51.823 101.296C51.7942 101.234 51.7653 101.171 51.7366 101.109L51.6544 100.919C51.5975 100.792 51.5494 100.664 51.4967 100.536C51.4478 100.407 51.3985 100.279 51.3536 100.15C51.2624 99.8918 51.1842 99.6339 51.1143 99.3801C51.0666 99.2016 51.0241 99.0216 50.987 98.8406C51.9783 99.945 53.4173 100.639 55.0189 100.636Z" fill="#0C5867"/>
<path d="M32.0189 115.636C35.0314 115.629 37.4348 113.197 37.4073 110.185C37.3815 107.352 35.1743 105.04 32.3841 104.847C32.2165 104.836 32.1115 104.664 32.1772 104.509C32.4583 103.847 32.6112 103.117 32.6043 102.351C32.5778 99.4305 30.1983 97.0398 27.2781 97.0005C24.2613 96.9599 21.8031 99.3932 21.8031 102.401C21.8031 103.149 21.9556 103.862 22.2309 104.51C22.2964 104.665 22.1908 104.836 22.0237 104.847C19.2334 105.04 17.0261 107.352 17.0002 110.185C16.9728 113.197 19.3761 115.629 22.3886 115.636C23.9907 115.639 25.4301 114.944 26.4214 113.839C26.3842 114.021 26.3417 114.201 26.2939 114.38C26.224 114.634 26.1459 114.892 26.0546 115.149C26.0097 115.278 25.9605 115.407 25.9115 115.536C25.8588 115.664 25.8107 115.792 25.7539 115.919L25.6717 116.109L25.5852 116.296C25.528 116.421 25.4715 116.544 25.4003 116.664C25.1178 117.148 24.6889 117.599 24.1755 117.986L23.9854 118.128C23.956 118.151 23.9205 118.174 23.887 118.197L23.7872 118.263L23.6899 118.329L23.6423 118.361L23.591 118.392L23.3915 118.514C23.3296 118.553 23.2583 118.591 23.1933 118.628C23.1267 118.665 23.0663 118.7 23.0015 118.734C22.8678 118.802 22.7552 118.864 22.6281 118.921L22.3047 119.071C22.2603 119.093 22.2075 119.114 22.1632 119.132L22.0404 119.183L21.9433 119.223C21.9158 119.234 21.8874 119.244 21.8672 119.252C21.8486 119.259 21.8325 119.271 21.8212 119.287C21.8098 119.304 21.8038 119.323 21.8038 119.343V120.902C21.8038 120.956 21.8474 121 21.9013 121H32.507C32.5328 121 32.5576 120.99 32.5759 120.971C32.5942 120.953 32.6045 120.928 32.6045 120.902V119.343C32.6045 119.302 32.5792 119.266 32.5411 119.252C32.5209 119.244 32.4925 119.234 32.465 119.223L32.3679 119.183L32.2451 119.132C32.2008 119.114 32.1479 119.093 32.1035 119.072L31.7801 118.921C31.6531 118.864 31.5404 118.802 31.4068 118.734C31.3419 118.7 31.2815 118.665 31.2149 118.628C31.15 118.591 31.0786 118.553 31.0167 118.514L30.8173 118.392L30.766 118.361L30.7183 118.329L30.6211 118.264L30.5213 118.197C30.4878 118.174 30.4523 118.151 30.4228 118.128L30.2328 117.986C29.7195 117.599 29.2905 117.148 29.0079 116.665C28.9367 116.544 28.8803 116.421 28.823 116.296C28.7942 116.234 28.7653 116.171 28.7366 116.109L28.6544 115.919C28.5975 115.792 28.5494 115.664 28.4967 115.536C28.4478 115.407 28.3985 115.279 28.3536 115.15C28.2624 114.892 28.1842 114.634 28.1143 114.38C28.0666 114.202 28.0241 114.022 27.987 113.841C28.9783 114.945 30.4173 115.639 32.0189 115.636Z" fill="#0C5867"/>
</svg>
