<svg width="100" height="150" viewBox="0 0 100 150" fill="none" xmlns="http://www.w3.org/2000/svg">
<rect width="100" height="150" rx="10" fill="#D9D9D9"/>
<path d="M10.6 21.26C9.92 21.26 9.24667 21.1867 8.58 21.04C7.92 20.8933 7.36 20.6667 6.9 20.36L7.64 18.12C7.93333 18.3933 8.32667 18.6233 8.82 18.81C9.31333 18.99 9.79333 19.08 10.26 19.08C10.8067 19.08 11.3067 19.0233 11.76 18.91C12.2133 18.79 12.6 18.54 12.92 18.16C13.24 17.7733 13.4 17.2133 13.4 16.48C13.4 15.9533 13.28 15.4967 13.04 15.11C12.8067 14.7167 12.46 14.4133 12 14.2C11.5467 13.9867 11 13.88 10.36 13.88C9.84 13.88 9.29667 13.95 8.73 14.09C8.16333 14.23 7.76 14.3733 7.52 14.52L7.78 7.06H15.5V9.18H10.06L9.86 12.16C10.16 12.0733 10.46 12.0133 10.76 11.98C11.0667 11.94 11.4067 11.92 11.78 11.92C12.7067 11.92 13.4933 12.0967 14.14 12.45C14.7867 12.7967 15.2733 13.2933 15.6 13.94C15.9333 14.58 16.1 15.34 16.1 16.22C16.1 17.2467 15.87 18.14 15.41 18.9C14.95 19.66 14.3033 20.2433 13.47 20.65C12.6433 21.0567 11.6867 21.26 10.6 21.26Z" fill="#0C5867"/>
<path d="M85.6 142.26C84.92 142.26 84.2467 142.187 83.58 142.04C82.92 141.893 82.36 141.667 81.9 141.36L82.64 139.12C82.9333 139.393 83.3267 139.623 83.82 139.81C84.3133 139.99 84.7933 140.08 85.26 140.08C85.8067 140.08 86.3067 140.023 86.76 139.91C87.2133 139.79 87.6 139.54 87.92 139.16C88.24 138.773 88.4 138.213 88.4 137.48C88.4 136.953 88.28 136.497 88.04 136.11C87.8067 135.717 87.46 135.413 87 135.2C86.5467 134.987 86 134.88 85.36 134.88C84.84 134.88 84.2967 134.95 83.73 135.09C83.1633 135.23 82.76 135.373 82.52 135.52L82.78 128.06H90.5V130.18H85.06L84.86 133.16C85.16 133.073 85.46 133.013 85.76 132.98C86.0667 132.94 86.4067 132.92 86.78 132.92C87.7067 132.92 88.4933 133.097 89.14 133.45C89.7867 133.797 90.2733 134.293 90.6 134.94C90.9333 135.58 91.1 136.34 91.1 137.22C91.1 138.247 90.87 139.14 90.41 139.9C89.95 140.66 89.3033 141.243 88.47 141.65C87.6433 142.057 86.6867 142.26 85.6 142.26Z" fill="#0C5867"/>
<path d="M55.0189 82.6357C58.0314 82.629 60.4348 80.1971 60.4073 77.1847C60.3815 74.3517 58.1743 72.04 55.3841 71.8474C55.2165 71.8359 55.1115 71.6638 55.1772 71.5092C55.4583 70.847 55.6112 70.1172 55.6043 69.3508C55.5778 66.4305 53.1983 64.0398 50.2781 64.0005C47.2613 63.9599 44.8031 66.3932 44.8031 69.4007C44.8031 70.1493 44.9556 70.8623 45.2309 71.5104C45.2964 71.6646 45.1908 71.8359 45.0237 71.8474C42.2334 72.0398 40.0261 74.3516 40.0002 77.1847C39.9728 80.1971 42.3761 82.629 45.3886 82.6356C46.9907 82.6391 48.4301 81.9445 49.4214 80.8394C49.3842 81.0208 49.3417 81.2011 49.2939 81.3799C49.224 81.6338 49.1459 81.8916 49.0546 82.1495C49.0097 82.2784 48.9605 82.4073 48.9115 82.5358C48.8588 82.6642 48.8107 82.7921 48.7539 82.919L48.6717 83.1086L48.5852 83.2963C48.528 83.4207 48.4715 83.5436 48.4003 83.6644C48.1178 84.1479 47.6889 84.5992 47.1755 84.986L46.9854 85.1279C46.956 85.151 46.9205 85.1739 46.887 85.1965L46.7872 85.2635L46.6899 85.3287L46.6423 85.3607L46.591 85.3922L46.3915 85.5138C46.3296 85.5531 46.2583 85.5911 46.1933 85.6278C46.1267 85.6645 46.0663 85.6999 46.0015 85.7339C45.8678 85.8019 45.7552 85.8643 45.6281 85.9208L45.3047 86.0714C45.2603 86.0933 45.2075 86.1135 45.1632 86.1321L45.0404 86.1827L44.9433 86.2226C44.9158 86.2341 44.8874 86.2438 44.8672 86.2517C44.8486 86.2586 44.8325 86.2711 44.8212 86.2874C44.8098 86.3037 44.8038 86.3232 44.8038 86.343V87.9025C44.8038 87.9563 44.8474 88 44.9013 88H55.507C55.5328 88 55.5576 87.9897 55.5759 87.9714C55.5942 87.9531 55.6045 87.9283 55.6045 87.9025V86.3432C55.6045 86.3025 55.5792 86.266 55.5411 86.2518C55.5209 86.244 55.4925 86.2343 55.465 86.2228L55.3679 86.1828L55.2451 86.1322C55.2008 86.1137 55.1479 86.0934 55.1035 86.0715L54.7801 85.9209C54.6531 85.8645 54.5404 85.802 54.4068 85.7341C54.3419 85.7001 54.2815 85.6647 54.2149 85.628C54.15 85.5913 54.0786 85.5532 54.0167 85.5139L53.8173 85.3924L53.766 85.3608L53.7183 85.3288L53.6211 85.2636L53.5213 85.1967C53.4878 85.1741 53.4523 85.1512 53.4228 85.1281L53.2328 84.9861C52.7195 84.5993 52.2905 84.1481 52.0079 83.6646C51.9367 83.5437 51.8803 83.4208 51.823 83.2964C51.7942 83.2339 51.7653 83.1713 51.7366 83.1088L51.6544 82.9192C51.5975 82.7923 51.5494 82.6643 51.4967 82.5359C51.4478 82.4075 51.3985 82.2786 51.3536 82.1496C51.2624 81.8918 51.1842 81.6339 51.1143 81.3801C51.0666 81.2016 51.0241 81.0216 50.987 80.8406C51.9783 81.945 53.4173 82.6392 55.0189 82.6357Z" fill="#0C5867"/>
<path d="M79.0189 48.6357C82.0314 48.629 84.4348 46.1971 84.4073 43.1847C84.3815 40.3517 82.1743 38.04 79.3841 37.8474C79.2165 37.8359 79.1115 37.6638 79.1772 37.5092C79.4583 36.847 79.6112 36.1172 79.6043 35.3508C79.5778 32.4305 77.1983 30.0398 74.2781 30.0005C71.2613 29.9599 68.8031 32.3932 68.8031 35.4007C68.8031 36.1493 68.9556 36.8623 69.2309 37.5104C69.2964 37.6646 69.1908 37.8359 69.0237 37.8474C66.2334 38.0398 64.0261 40.3516 64.0002 43.1847C63.9728 46.1971 66.3761 48.629 69.3886 48.6356C70.9907 48.6391 72.4301 47.9445 73.4214 46.8394C73.3842 47.0208 73.3417 47.2011 73.2939 47.3799C73.224 47.6338 73.1459 47.8916 73.0546 48.1495C73.0097 48.2784 72.9605 48.4073 72.9115 48.5358C72.8588 48.6642 72.8107 48.7921 72.7539 48.919L72.6717 49.1086L72.5852 49.2963C72.528 49.4207 72.4715 49.5436 72.4003 49.6644C72.1178 50.1479 71.6889 50.5992 71.1755 50.986L70.9854 51.1279C70.956 51.151 70.9205 51.1739 70.887 51.1965L70.7872 51.2635L70.6899 51.3287L70.6423 51.3607L70.591 51.3922L70.3915 51.5138C70.3296 51.5531 70.2583 51.5911 70.1933 51.6278C70.1267 51.6645 70.0663 51.6999 70.0015 51.7339C69.8678 51.8019 69.7552 51.8643 69.6281 51.9208L69.3047 52.0714C69.2603 52.0933 69.2075 52.1135 69.1632 52.1321L69.0404 52.1827L68.9433 52.2226C68.9158 52.2341 68.8874 52.2438 68.8672 52.2517C68.8486 52.2586 68.8325 52.2711 68.8212 52.2874C68.8098 52.3037 68.8038 52.3232 68.8038 52.343V53.9025C68.8038 53.9563 68.8474 54 68.9013 54H79.507C79.5328 54 79.5576 53.9897 79.5759 53.9714C79.5942 53.9531 79.6045 53.9283 79.6045 53.9025V52.3432C79.6045 52.3025 79.5792 52.266 79.5411 52.2518C79.5209 52.244 79.4925 52.2343 79.465 52.2228L79.3679 52.1828L79.2451 52.1322C79.2008 52.1137 79.1479 52.0934 79.1035 52.0715L78.7801 51.9209C78.6531 51.8645 78.5404 51.802 78.4068 51.7341C78.3419 51.7001 78.2815 51.6647 78.2149 51.628C78.15 51.5913 78.0786 51.5532 78.0167 51.5139L77.8173 51.3924L77.766 51.3608L77.7183 51.3288L77.6211 51.2636L77.5213 51.1967C77.4878 51.1741 77.4523 51.1512 77.4228 51.1281L77.2328 50.9861C76.7195 50.5993 76.2905 50.1481 76.0079 49.6646C75.9367 49.5437 75.8803 49.4208 75.823 49.2964C75.7942 49.2339 75.7653 49.1713 75.7366 49.1088L75.6544 48.9192C75.5975 48.7923 75.5494 48.6643 75.4967 48.5359C75.4478 48.4075 75.3985 48.2786 75.3536 48.1496C75.2624 47.8918 75.1842 47.6339 75.1143 47.3801C75.0666 47.2016 75.0241 47.0216 74.987 46.8406C75.9783 47.945 77.4173 48.6392 79.0189 48.6357Z" fill="#0C5867"/>
<path d="M32.0189 48.6357C35.0314 48.629 37.4348 46.1971 37.4073 43.1847C37.3815 40.3517 35.1743 38.04 32.3841 37.8474C32.2165 37.8359 32.1115 37.6638 32.1772 37.5092C32.4583 36.847 32.6112 36.1172 32.6043 35.3508C32.5778 32.4305 30.1983 30.0398 27.2781 30.0005C24.2613 29.9599 21.8031 32.3932 21.8031 35.4007C21.8031 36.1493 21.9556 36.8623 22.2309 37.5104C22.2964 37.6646 22.1908 37.8359 22.0237 37.8474C19.2334 38.0398 17.0261 40.3516 17.0002 43.1847C16.9728 46.1971 19.3761 48.629 22.3886 48.6356C23.9907 48.6391 25.4301 47.9445 26.4214 46.8394C26.3842 47.0208 26.3417 47.2011 26.2939 47.3799C26.224 47.6338 26.1459 47.8916 26.0546 48.1495C26.0097 48.2784 25.9605 48.4073 25.9115 48.5358C25.8588 48.6642 25.8107 48.7921 25.7539 48.919L25.6717 49.1086L25.5852 49.2963C25.528 49.4207 25.4715 49.5436 25.4003 49.6644C25.1178 50.1479 24.6889 50.5992 24.1755 50.986L23.9854 51.1279C23.956 51.151 23.9205 51.1739 23.887 51.1965L23.7872 51.2635L23.6899 51.3287L23.6423 51.3607L23.591 51.3922L23.3915 51.5138C23.3296 51.5531 23.2583 51.5911 23.1933 51.6278C23.1267 51.6645 23.0663 51.6999 23.0015 51.7339C22.8678 51.8019 22.7552 51.8643 22.6281 51.9208L22.3047 52.0714C22.2603 52.0933 22.2075 52.1135 22.1632 52.1321L22.0404 52.1827L21.9433 52.2226C21.9158 52.2341 21.8874 52.2438 21.8672 52.2517C21.8486 52.2586 21.8325 52.2711 21.8212 52.2874C21.8098 52.3037 21.8038 52.3232 21.8038 52.343V53.9025C21.8038 53.9563 21.8474 54 21.9013 54H32.507C32.5328 54 32.5576 53.9897 32.5759 53.9714C32.5942 53.9531 32.6045 53.9283 32.6045 53.9025V52.3432C32.6045 52.3025 32.5792 52.266 32.5411 52.2518C32.5209 52.244 32.4925 52.2343 32.465 52.2228L32.3679 52.1828L32.2451 52.1322C32.2008 52.1137 32.1479 52.0934 32.1035 52.0715L31.7801 51.9209C31.6531 51.8645 31.5404 51.802 31.4068 51.7341C31.3419 51.7001 31.2815 51.6647 31.2149 51.628C31.15 51.5913 31.0786 51.5532 31.0167 51.5139L30.8173 51.3924L30.766 51.3608L30.7183 51.3288L30.6211 51.2636L30.5213 51.1967C30.4878 51.1741 30.4523 51.1512 30.4228 51.1281L30.2328 50.9861C29.7195 50.5993 29.2905 50.1481 29.0079 49.6646C28.9367 49.5437 28.8803 49.4208 28.823 49.2964C28.7942 49.2339 28.7653 49.1713 28.7366 49.1088L28.6544 48.9192C28.5975 48.7923 28.5494 48.6643 28.4967 48.5359C28.4478 48.4075 28.3985 48.2786 28.3536 48.1496C28.2624 47.8918 28.1842 47.6339 28.1143 47.3801C28.0666 47.2016 28.0241 47.0216 27.987 46.8406C28.9783 47.945 30.4173 48.6392 32.0189 48.6357Z" fill="#0C5867"/>
<path d="M32.0189 116.636C35.0314 116.629 37.4348 114.197 37.4073 111.185C37.3815 108.352 35.1743 106.04 32.3841 105.847C32.2165 105.836 32.1115 105.664 32.1772 105.509C32.4583 104.847 32.6112 104.117 32.6043 103.351C32.5778 100.43 30.1983 98.0398 27.2781 98.0005C24.2613 97.9599 21.8031 100.393 21.8031 103.401C21.8031 104.149 21.9556 104.862 22.2309 105.51C22.2964 105.665 22.1908 105.836 22.0237 105.847C19.2334 106.04 17.0261 108.352 17.0002 111.185C16.9728 114.197 19.3761 116.629 22.3886 116.636C23.9907 116.639 25.4301 115.944 26.4214 114.839C26.3842 115.021 26.3417 115.201 26.2939 115.38C26.224 115.634 26.1459 115.892 26.0546 116.149C26.0097 116.278 25.9605 116.407 25.9115 116.536C25.8588 116.664 25.8107 116.792 25.7539 116.919L25.6717 117.109L25.5852 117.296C25.528 117.421 25.4715 117.544 25.4003 117.664C25.1178 118.148 24.6889 118.599 24.1755 118.986L23.9854 119.128C23.956 119.151 23.9205 119.174 23.887 119.197L23.7872 119.263L23.6899 119.329L23.6423 119.361L23.591 119.392L23.3915 119.514C23.3296 119.553 23.2583 119.591 23.1933 119.628C23.1267 119.665 23.0663 119.7 23.0015 119.734C22.8678 119.802 22.7552 119.864 22.6281 119.921L22.3047 120.071C22.2603 120.093 22.2075 120.114 22.1632 120.132L22.0404 120.183L21.9433 120.223C21.9158 120.234 21.8874 120.244 21.8672 120.252C21.8486 120.259 21.8325 120.271 21.8212 120.287C21.8098 120.304 21.8038 120.323 21.8038 120.343V121.902C21.8038 121.956 21.8474 122 21.9013 122H32.507C32.5328 122 32.5576 121.99 32.5759 121.971C32.5942 121.953 32.6045 121.928 32.6045 121.902V120.343C32.6045 120.302 32.5792 120.266 32.5411 120.252C32.5209 120.244 32.4925 120.234 32.465 120.223L32.3679 120.183L32.2451 120.132C32.2008 120.114 32.1479 120.093 32.1035 120.072L31.7801 119.921C31.6531 119.864 31.5404 119.802 31.4068 119.734C31.3419 119.7 31.2815 119.665 31.2149 119.628C31.15 119.591 31.0786 119.553 31.0167 119.514L30.8173 119.392L30.766 119.361L30.7183 119.329L30.6211 119.264L30.5213 119.197C30.4878 119.174 30.4523 119.151 30.4228 119.128L30.2328 118.986C29.7195 118.599 29.2905 118.148 29.0079 117.665C28.9367 117.544 28.8803 117.421 28.823 117.296C28.7942 117.234 28.7653 117.171 28.7366 117.109L28.6544 116.919C28.5975 116.792 28.5494 116.664 28.4967 116.536C28.4478 116.407 28.3985 116.279 28.3536 116.15C28.2624 115.892 28.1842 115.634 28.1143 115.38C28.0666 115.202 28.0241 115.022 27.987 114.841C28.9783 115.945 30.4173 116.639 32.0189 116.636Z" fill="#0C5867"/>
<path d="M79.0189 116.636C82.0314 116.629 84.4348 114.197 84.4073 111.185C84.3815 108.352 82.1743 106.04 79.3841 105.847C79.2165 105.836 79.1115 105.664 79.1772 105.509C79.4583 104.847 79.6112 104.117 79.6043 103.351C79.5778 100.43 77.1983 98.0398 74.2781 98.0005C71.2613 97.9599 68.8031 100.393 68.8031 103.401C68.8031 104.149 68.9556 104.862 69.2309 105.51C69.2964 105.665 69.1908 105.836 69.0237 105.847C66.2334 106.04 64.0261 108.352 64.0002 111.185C63.9728 114.197 66.3761 116.629 69.3886 116.636C70.9907 116.639 72.4301 115.944 73.4214 114.839C73.3842 115.021 73.3417 115.201 73.2939 115.38C73.224 115.634 73.1459 115.892 73.0546 116.149C73.0097 116.278 72.9605 116.407 72.9115 116.536C72.8588 116.664 72.8107 116.792 72.7539 116.919L72.6717 117.109L72.5852 117.296C72.528 117.421 72.4715 117.544 72.4003 117.664C72.1178 118.148 71.6889 118.599 71.1755 118.986L70.9854 119.128C70.956 119.151 70.9205 119.174 70.887 119.197L70.7872 119.263L70.6899 119.329L70.6423 119.361L70.591 119.392L70.3915 119.514C70.3296 119.553 70.2583 119.591 70.1933 119.628C70.1267 119.665 70.0663 119.7 70.0015 119.734C69.8678 119.802 69.7552 119.864 69.6281 119.921L69.3047 120.071C69.2603 120.093 69.2075 120.114 69.1632 120.132L69.0404 120.183L68.9433 120.223C68.9158 120.234 68.8874 120.244 68.8672 120.252C68.8486 120.259 68.8325 120.271 68.8212 120.287C68.8098 120.304 68.8038 120.323 68.8038 120.343V121.902C68.8038 121.956 68.8474 122 68.9013 122H79.507C79.5328 122 79.5576 121.99 79.5759 121.971C79.5942 121.953 79.6045 121.928 79.6045 121.902V120.343C79.6045 120.302 79.5792 120.266 79.5411 120.252C79.5209 120.244 79.4925 120.234 79.465 120.223L79.3679 120.183L79.2451 120.132C79.2008 120.114 79.1479 120.093 79.1035 120.072L78.7801 119.921C78.6531 119.864 78.5404 119.802 78.4068 119.734C78.3419 119.7 78.2815 119.665 78.2149 119.628C78.15 119.591 78.0786 119.553 78.0167 119.514L77.8173 119.392L77.766 119.361L77.7183 119.329L77.6211 119.264L77.5213 119.197C77.4878 119.174 77.4523 119.151 77.4228 119.128L77.2328 118.986C76.7195 118.599 76.2905 118.148 76.0079 117.665C75.9367 117.544 75.8803 117.421 75.823 117.296C75.7942 117.234 75.7653 117.171 75.7366 117.109L75.6544 116.919C75.5975 116.792 75.5494 116.664 75.4967 116.536C75.4478 116.407 75.3985 116.279 75.3536 116.15C75.2624 115.892 75.1842 115.634 75.1143 115.38C75.0666 115.202 75.0241 115.022 74.987 114.841C75.9783 115.945 77.4173 116.639 79.0189 116.636Z" fill="#0C5867"/>
</svg>
