<svg width="100" height="150" viewBox="0 0 100 150" fill="none" xmlns="http://www.w3.org/2000/svg">
<rect width="100" height="150" rx="10" fill="#D9D9D9"/>
<path d="M17.7 18.48H16.02V21H13.4V18.48H6.8L6.66 18.26L11.8 7.06H16.02V16.54H17.7V18.48ZM10.22 16.54H13.52L13.61 8.49L11.36 14.06L10.22 16.54Z" fill="#0C5867"/>
<path d="M92.7 139.48H91.02V142H88.4V139.48H81.8L81.66 139.26L86.8 128.06H91.02V137.54H92.7V139.48ZM85.22 137.54H88.52L88.61 129.49L86.36 135.06L85.22 137.54Z" fill="#0C5867"/>
<path d="M30.0189 48.6357C33.0314 48.629 35.4348 46.1971 35.4073 43.1847C35.3815 40.3517 33.1743 38.04 30.3841 37.8474C30.2165 37.8359 30.1115 37.6638 30.1772 37.5092C30.4583 36.847 30.6112 36.1172 30.6043 35.3508C30.5778 32.4305 28.1983 30.0398 25.2781 30.0005C22.2613 29.9599 19.8031 32.3932 19.8031 35.4007C19.8031 36.1493 19.9556 36.8623 20.2309 37.5104C20.2964 37.6646 20.1908 37.8359 20.0237 37.8474C17.2334 38.0398 15.0261 40.3516 15.0002 43.1847C14.9728 46.1971 17.3761 48.629 20.3886 48.6356C21.9907 48.6391 23.4301 47.9445 24.4214 46.8394C24.3842 47.0208 24.3417 47.2011 24.2939 47.3799C24.224 47.6338 24.1459 47.8916 24.0546 48.1495C24.0097 48.2784 23.9605 48.4073 23.9115 48.5358C23.8588 48.6642 23.8107 48.7921 23.7539 48.919L23.6717 49.1086L23.5852 49.2963C23.528 49.4207 23.4715 49.5436 23.4003 49.6644C23.1178 50.1479 22.6889 50.5992 22.1755 50.986L21.9854 51.1279C21.956 51.1511 21.9205 51.1739 21.887 51.1965L21.7872 51.2635L21.6899 51.3287L21.6423 51.3607L21.591 51.3922L21.3915 51.5138C21.3296 51.5531 21.2583 51.5911 21.1933 51.6278C21.1267 51.6645 21.0663 51.6999 21.0015 51.7339C20.8678 51.8019 20.7552 51.8643 20.6281 51.9208L20.3047 52.0714C20.2603 52.0933 20.2075 52.1135 20.1632 52.1321L20.0404 52.1827L19.9433 52.2226C19.9158 52.2341 19.8874 52.2438 19.8672 52.2517C19.8486 52.2586 19.8325 52.2711 19.8212 52.2874C19.8098 52.3037 19.8038 52.3232 19.8038 52.343V53.9025C19.8038 53.9563 19.8474 54 19.9013 54H30.507C30.5328 54 30.5576 53.9897 30.5759 53.9714C30.5942 53.9531 30.6045 53.9283 30.6045 53.9025V52.3432C30.6045 52.3025 30.5792 52.266 30.5411 52.2518C30.5209 52.244 30.4925 52.2343 30.465 52.2228L30.3679 52.1828L30.2451 52.1322C30.2008 52.1137 30.1479 52.0934 30.1035 52.0715L29.7801 51.9209C29.6531 51.8645 29.5404 51.802 29.4068 51.7341C29.3419 51.7001 29.2815 51.6647 29.2149 51.628C29.15 51.5913 29.0786 51.5532 29.0167 51.5139L28.8173 51.3924L28.766 51.3608L28.7183 51.3288L28.6211 51.2636L28.5213 51.1967C28.4878 51.1741 28.4523 51.1512 28.4228 51.1281L28.2328 50.9861C27.7195 50.5993 27.2905 50.1481 27.0079 49.6646C26.9367 49.5437 26.8803 49.4208 26.823 49.2964C26.7942 49.2339 26.7653 49.1713 26.7366 49.1088L26.6544 48.9192C26.5975 48.7923 26.5494 48.6643 26.4967 48.5359C26.4478 48.4075 26.3985 48.2786 26.3536 48.1496C26.2624 47.8918 26.1842 47.6339 26.1143 47.3801C26.0666 47.2016 26.0241 47.0216 25.987 46.8406C26.9783 47.945 28.4173 48.6392 30.0189 48.6357Z" fill="#0C5867"/>
<path d="M79.0189 48.6357C82.0314 48.629 84.4348 46.1971 84.4073 43.1847C84.3815 40.3517 82.1743 38.04 79.3841 37.8474C79.2165 37.8359 79.1115 37.6638 79.1772 37.5092C79.4583 36.847 79.6112 36.1172 79.6043 35.3508C79.5778 32.4305 77.1983 30.0398 74.2781 30.0005C71.2613 29.9599 68.8031 32.3932 68.8031 35.4007C68.8031 36.1493 68.9556 36.8623 69.2309 37.5104C69.2964 37.6646 69.1908 37.8359 69.0237 37.8474C66.2334 38.0398 64.0261 40.3516 64.0002 43.1847C63.9728 46.1971 66.3761 48.629 69.3886 48.6356C70.9907 48.6391 72.4301 47.9445 73.4214 46.8394C73.3842 47.0208 73.3417 47.2011 73.2939 47.3799C73.224 47.6338 73.1459 47.8916 73.0546 48.1495C73.0097 48.2784 72.9605 48.4073 72.9115 48.5358C72.8588 48.6642 72.8107 48.7921 72.7539 48.919L72.6717 49.1086L72.5852 49.2963C72.528 49.4207 72.4715 49.5436 72.4003 49.6644C72.1178 50.1479 71.6889 50.5992 71.1755 50.986L70.9854 51.1279C70.956 51.1511 70.9205 51.1739 70.887 51.1965L70.7872 51.2635L70.6899 51.3287L70.6423 51.3607L70.591 51.3922L70.3915 51.5138C70.3296 51.5531 70.2583 51.5911 70.1933 51.6278C70.1267 51.6645 70.0663 51.6999 70.0015 51.7339C69.8678 51.8019 69.7552 51.8643 69.6281 51.9208L69.3047 52.0714C69.2603 52.0933 69.2075 52.1135 69.1632 52.1321L69.0404 52.1827L68.9433 52.2226C68.9158 52.2341 68.8874 52.2438 68.8672 52.2517C68.8486 52.2586 68.8325 52.2711 68.8212 52.2874C68.8098 52.3037 68.8038 52.3232 68.8038 52.343V53.9025C68.8038 53.9563 68.8474 54 68.9013 54H79.507C79.5328 54 79.5576 53.9897 79.5759 53.9714C79.5942 53.9531 79.6045 53.9283 79.6045 53.9025V52.3432C79.6045 52.3025 79.5792 52.266 79.5411 52.2518C79.5209 52.244 79.4925 52.2343 79.465 52.2228L79.3679 52.1828L79.2451 52.1322C79.2008 52.1137 79.1479 52.0934 79.1035 52.0715L78.7801 51.9209C78.6531 51.8645 78.5404 51.802 78.4068 51.7341C78.3419 51.7001 78.2815 51.6647 78.2149 51.628C78.15 51.5913 78.0786 51.5532 78.0167 51.5139L77.8173 51.3924L77.766 51.3608L77.7183 51.3288L77.6211 51.2636L77.5213 51.1967C77.4878 51.1741 77.4523 51.1512 77.4228 51.1281L77.2328 50.9861C76.7195 50.5993 76.2905 50.1481 76.0079 49.6646C75.9367 49.5437 75.8803 49.4208 75.823 49.2964C75.7942 49.2339 75.7653 49.1713 75.7366 49.1088L75.6544 48.9192C75.5975 48.7923 75.5494 48.6643 75.4967 48.5359C75.4478 48.4075 75.3985 48.2786 75.3536 48.1496C75.2624 47.8918 75.1842 47.6339 75.1143 47.3801C75.0666 47.2016 75.0241 47.0216 74.987 46.8406C75.9783 47.945 77.4173 48.6392 79.0189 48.6357Z" fill="#0C5867"/>
<path d="M30.0189 116.636C33.0314 116.629 35.4348 114.197 35.4073 111.185C35.3815 108.352 33.1743 106.04 30.3841 105.847C30.2165 105.836 30.1115 105.664 30.1772 105.509C30.4583 104.847 30.6112 104.117 30.6043 103.351C30.5778 100.43 28.1983 98.0398 25.2781 98.0005C22.2613 97.9599 19.8031 100.393 19.8031 103.401C19.8031 104.149 19.9556 104.862 20.2309 105.51C20.2964 105.665 20.1908 105.836 20.0237 105.847C17.2334 106.04 15.0261 108.352 15.0002 111.185C14.9728 114.197 17.3761 116.629 20.3886 116.636C21.9907 116.639 23.4301 115.944 24.4214 114.839C24.3842 115.021 24.3417 115.201 24.2939 115.38C24.224 115.634 24.1459 115.892 24.0546 116.149C24.0097 116.278 23.9605 116.407 23.9115 116.536C23.8588 116.664 23.8107 116.792 23.7539 116.919L23.6717 117.109L23.5852 117.296C23.528 117.421 23.4715 117.544 23.4003 117.664C23.1178 118.148 22.6889 118.599 22.1755 118.986L21.9854 119.128C21.956 119.151 21.9205 119.174 21.887 119.197L21.7872 119.263L21.6899 119.329L21.6423 119.361L21.591 119.392L21.3915 119.514C21.3296 119.553 21.2583 119.591 21.1933 119.628C21.1267 119.665 21.0663 119.7 21.0015 119.734C20.8678 119.802 20.7552 119.864 20.6281 119.921L20.3047 120.071C20.2603 120.093 20.2075 120.114 20.1632 120.132L20.0404 120.183L19.9433 120.223C19.9158 120.234 19.8874 120.244 19.8672 120.252C19.8486 120.259 19.8325 120.271 19.8212 120.287C19.8098 120.304 19.8038 120.323 19.8038 120.343V121.902C19.8038 121.956 19.8474 122 19.9013 122H30.507C30.5328 122 30.5576 121.99 30.5759 121.971C30.5942 121.953 30.6045 121.928 30.6045 121.902V120.343C30.6045 120.302 30.5792 120.266 30.5411 120.252C30.5209 120.244 30.4925 120.234 30.465 120.223L30.3679 120.183L30.2451 120.132C30.2008 120.114 30.1479 120.093 30.1035 120.072L29.7801 119.921C29.6531 119.864 29.5404 119.802 29.4068 119.734C29.3419 119.7 29.2815 119.665 29.2149 119.628C29.15 119.591 29.0786 119.553 29.0167 119.514L28.8173 119.392L28.766 119.361L28.7183 119.329L28.6211 119.264L28.5213 119.197C28.4878 119.174 28.4523 119.151 28.4228 119.128L28.2328 118.986C27.7195 118.599 27.2905 118.148 27.0079 117.665C26.9367 117.544 26.8803 117.421 26.823 117.296C26.7942 117.234 26.7653 117.171 26.7366 117.109L26.6544 116.919C26.5975 116.792 26.5494 116.664 26.4967 116.536C26.4478 116.407 26.3985 116.279 26.3536 116.15C26.2624 115.892 26.1842 115.634 26.1143 115.38C26.0666 115.202 26.0241 115.022 25.987 114.841C26.9783 115.945 28.4173 116.639 30.0189 116.636Z" fill="#0C5867"/>
<path d="M79.0189 116.636C82.0314 116.629 84.4348 114.197 84.4073 111.185C84.3815 108.352 82.1743 106.04 79.3841 105.847C79.2165 105.836 79.1115 105.664 79.1772 105.509C79.4583 104.847 79.6112 104.117 79.6043 103.351C79.5778 100.43 77.1983 98.0398 74.2781 98.0005C71.2613 97.9599 68.8031 100.393 68.8031 103.401C68.8031 104.149 68.9556 104.862 69.2309 105.51C69.2964 105.665 69.1908 105.836 69.0237 105.847C66.2334 106.04 64.0261 108.352 64.0002 111.185C63.9728 114.197 66.3761 116.629 69.3886 116.636C70.9907 116.639 72.4301 115.944 73.4214 114.839C73.3842 115.021 73.3417 115.201 73.2939 115.38C73.224 115.634 73.1459 115.892 73.0546 116.149C73.0097 116.278 72.9605 116.407 72.9115 116.536C72.8588 116.664 72.8107 116.792 72.7539 116.919L72.6717 117.109L72.5852 117.296C72.528 117.421 72.4715 117.544 72.4003 117.664C72.1178 118.148 71.6889 118.599 71.1755 118.986L70.9854 119.128C70.956 119.151 70.9205 119.174 70.887 119.197L70.7872 119.263L70.6899 119.329L70.6423 119.361L70.591 119.392L70.3915 119.514C70.3296 119.553 70.2583 119.591 70.1933 119.628C70.1267 119.665 70.0663 119.7 70.0015 119.734C69.8678 119.802 69.7552 119.864 69.6281 119.921L69.3047 120.071C69.2603 120.093 69.2075 120.114 69.1632 120.132L69.0404 120.183L68.9433 120.223C68.9158 120.234 68.8874 120.244 68.8672 120.252C68.8486 120.259 68.8325 120.271 68.8212 120.287C68.8098 120.304 68.8038 120.323 68.8038 120.343V121.902C68.8038 121.956 68.8474 122 68.9013 122H79.507C79.5328 122 79.5576 121.99 79.5759 121.971C79.5942 121.953 79.6045 121.928 79.6045 121.902V120.343C79.6045 120.302 79.5792 120.266 79.5411 120.252C79.5209 120.244 79.4925 120.234 79.465 120.223L79.3679 120.183L79.2451 120.132C79.2008 120.114 79.1479 120.093 79.1035 120.072L78.7801 119.921C78.6531 119.864 78.5404 119.802 78.4068 119.734C78.3419 119.7 78.2815 119.665 78.2149 119.628C78.15 119.591 78.0786 119.553 78.0167 119.514L77.8173 119.392L77.766 119.361L77.7183 119.329L77.6211 119.264L77.5213 119.197C77.4878 119.174 77.4523 119.151 77.4228 119.128L77.2328 118.986C76.7195 118.599 76.2905 118.148 76.0079 117.665C75.9367 117.544 75.8803 117.421 75.823 117.296C75.7942 117.234 75.7653 117.171 75.7366 117.109L75.6544 116.919C75.5975 116.792 75.5494 116.664 75.4967 116.536C75.4478 116.407 75.3985 116.279 75.3536 116.15C75.2624 115.892 75.1842 115.634 75.1143 115.38C75.0666 115.202 75.0241 115.022 74.987 114.841C75.9783 115.945 77.4173 116.639 79.0189 116.636Z" fill="#0C5867"/>
</svg>
