<svg width="100" height="150" viewBox="0 0 100 150" fill="none" xmlns="http://www.w3.org/2000/svg">
<rect width="100" height="150" rx="10" fill="#D9D9D9"/>
<path d="M8.38 21.3C8.00667 21.3 7.55 21.2333 7.01 21.1C6.47667 20.9733 6.09333 20.8267 5.86 20.66L6.82 18.28C6.98667 18.5267 7.2 18.7233 7.46 18.87C7.72667 19.01 7.99333 19.08 8.26 19.08C8.59333 19.08 8.87667 19.04 9.11 18.96C9.34333 18.8733 9.54 18.6833 9.7 18.39C9.86 18.09 9.94 17.6467 9.94 17.06V7.06H12.54V16.82C12.54 18.1867 12.2167 19.2767 11.57 20.09C10.9233 20.8967 9.86 21.3 8.38 21.3Z" fill="#0C5867"/>
<path d="M86.38 142.3C86.0067 142.3 85.55 142.233 85.01 142.1C84.4767 141.973 84.0933 141.827 83.86 141.66L84.82 139.28C84.9867 139.527 85.2 139.723 85.46 139.87C85.7267 140.01 85.9933 140.08 86.26 140.08C86.5933 140.08 86.8767 140.04 87.11 139.96C87.3433 139.873 87.54 139.683 87.7 139.39C87.86 139.09 87.94 138.647 87.94 138.06V128.06H90.54V137.82C90.54 139.187 90.2167 140.277 89.57 141.09C88.9233 141.897 87.86 142.3 86.38 142.3Z" fill="#0C5867"/>
<path d="M56.3568 86.256C56.3568 90.4373 56.0794 93.9787 55.5248 96.88C55.0128 99.824 54.1808 102.213 53.0288 104.048C51.8768 105.883 50.3834 107.227 48.5488 108.08C46.7141 108.933 44.4954 109.36 41.8927 109.36C38.9914 109.36 36.8367 108.912 35.4287 108.016C34.0207 107.12 33.3167 105.989 33.3167 104.624C32.3354 104.24 31.5674 103.621 31.0127 102.768C30.4154 101.957 30.1167 101.061 30.1167 100.08C30.1167 98.9707 30.5221 98.096 31.3327 97.456C32.1434 96.816 33.2527 96.496 34.6607 96.496C35.9407 96.496 36.7727 96.7307 37.1567 97.2C36.7727 97.968 36.5807 98.8 36.5807 99.696C36.5807 101.659 37.0927 103.173 38.1167 104.24C39.1407 105.349 40.8901 105.904 43.3648 105.904C44.8154 105.904 46.0528 105.669 47.0768 105.2C48.1008 104.773 48.8688 104.005 49.3808 102.896C49.5941 102.427 49.7648 101.808 49.8928 101.04C50.0634 100.315 50.1914 99.376 50.2768 98.224C50.4048 97.1147 50.4901 95.7493 50.5328 94.128C50.5754 92.5493 50.5968 90.6293 50.5968 88.368V48.304C50.5968 46.9813 50.1061 45.9787 49.1248 45.296C48.1434 44.5707 46.7354 44.208 44.9008 44.208C44.9008 42.416 46.0528 41.52 48.3568 41.52C50.4474 41.52 52.1541 42.1813 53.4768 43.504C54.7994 42.1813 56.5061 41.52 58.5968 41.52C60.9008 41.52 62.0528 42.416 62.0528 44.208C60.2608 44.208 58.8528 44.5707 57.8288 45.296C56.8474 46.0213 56.3568 47.024 56.3568 48.304V86.256Z" fill="#0C5867"/>
<path d="M89.2642 19.9767C91.5236 19.9718 93.3261 18.1478 93.3055 15.8886C93.2861 13.7638 91.6307 12.03 89.5381 11.8856C89.4124 11.8769 89.3336 11.7479 89.3829 11.6319C89.5937 11.1352 89.7084 10.5879 89.7032 10.0131C89.6834 7.82286 87.8987 6.02985 85.7086 6.00037C83.446 5.96996 81.6023 7.79492 81.6023 10.0505C81.6023 10.612 81.7167 11.1467 81.9232 11.6328C81.9723 11.7484 81.8931 11.8769 81.7678 11.8855C79.675 12.0299 78.0196 13.7637 78.0002 15.8885C77.9796 18.1478 79.7821 19.9717 82.0415 19.9767C83.243 19.9793 84.3226 19.4583 85.066 18.6296C85.0382 18.7656 85.0063 18.9008 84.9704 19.035C84.918 19.2253 84.8594 19.4187 84.791 19.6121C84.7573 19.7088 84.7204 19.8055 84.6837 19.9018C84.6441 19.9981 84.608 20.0941 84.5654 20.1893L84.5038 20.3315L84.4389 20.4722C84.396 20.5655 84.3536 20.6577 84.3003 20.7483C84.0883 21.1109 83.7666 21.4494 83.3816 21.7395L83.2391 21.8459C83.217 21.8633 83.1904 21.8804 83.1652 21.8974L83.0904 21.9476L83.0175 21.9965L82.9817 22.0205L82.9432 22.0442L82.7937 22.1353C82.7472 22.1648 82.6937 22.1933 82.645 22.2209C82.595 22.2484 82.5498 22.2749 82.5011 22.3004C82.4009 22.3514 82.3164 22.3982 82.2211 22.4406L81.9786 22.5535C81.9452 22.57 81.9056 22.5851 81.8724 22.5991L81.7803 22.637L81.7075 22.667C81.6869 22.6756 81.6655 22.6829 81.6504 22.6887C81.6364 22.694 81.6244 22.7033 81.6159 22.7156C81.6074 22.7278 81.6028 22.7424 81.6028 22.7573V23.9268C81.6028 23.9673 81.6356 24 81.676 24H89.6302C89.6496 24 89.6682 23.9923 89.6819 23.9786C89.6957 23.9649 89.7034 23.9463 89.7034 23.9268V22.7574C89.7034 22.7269 89.6844 22.6995 89.6558 22.6889C89.6407 22.683 89.6194 22.6757 89.5987 22.6671L89.5259 22.6371L89.4338 22.5992C89.4006 22.5852 89.3609 22.57 89.3276 22.5536L89.0851 22.4407C88.9898 22.3984 88.9053 22.3515 88.8051 22.3005C88.7564 22.275 88.7111 22.2485 88.6612 22.221C88.6125 22.1934 88.559 22.1649 88.5125 22.1355L88.363 22.0443L88.3245 22.0206L88.2887 21.9966L88.2158 21.9477L88.141 21.8975C88.1159 21.8806 88.0892 21.8634 88.0671 21.8461L87.9246 21.7396C87.5396 21.4495 87.2179 21.1111 87.0059 20.7484C86.9525 20.6578 86.9102 20.5656 86.8673 20.4723C86.8456 20.4254 86.824 20.3785 86.8024 20.3316L86.7408 20.1894C86.6981 20.0942 86.662 19.9983 86.6225 19.9019C86.5858 19.8056 86.5489 19.7089 86.5152 19.6122C86.4468 19.4188 86.3881 19.2254 86.3357 19.0351C86.2999 18.9012 86.2681 18.7662 86.2403 18.6304C86.9837 19.4587 88.063 19.9794 89.2642 19.9767Z" fill="#0C5867"/>
<path d="M17.2642 137.977C19.5236 137.972 21.3261 136.148 21.3055 133.889C21.2861 131.764 19.6307 130.03 17.5381 129.886C17.4124 129.877 17.3336 129.748 17.3829 129.632C17.5937 129.135 17.7084 128.588 17.7032 128.013C17.6834 125.823 15.8987 124.03 13.7086 124C11.446 123.97 9.60229 125.795 9.60229 128.051C9.60229 128.612 9.71668 129.147 9.92321 129.633C9.97233 129.748 9.89309 129.877 9.76778 129.886C7.67504 130.03 6.01955 131.764 6.00017 133.889C5.9796 136.148 7.7821 137.972 10.0415 137.977C11.243 137.979 12.3226 137.458 13.066 136.63C13.0382 136.766 13.0063 136.901 12.9704 137.035C12.918 137.225 12.8594 137.419 12.791 137.612C12.7573 137.709 12.7204 137.806 12.6837 137.902C12.6441 137.998 12.608 138.094 12.5654 138.189L12.5038 138.331L12.4389 138.472C12.396 138.566 12.3536 138.658 12.3003 138.748C12.0883 139.111 11.7666 139.449 11.3816 139.739L11.2391 139.846C11.217 139.863 11.1904 139.88 11.1652 139.897L11.0904 139.948L11.0175 139.997L10.9817 140.021L10.9432 140.044L10.7937 140.135C10.7472 140.165 10.6937 140.193 10.645 140.221C10.595 140.248 10.5498 140.275 10.5011 140.3C10.4009 140.351 10.3164 140.398 10.2211 140.441L9.97856 140.554C9.94521 140.57 9.9056 140.585 9.87236 140.599L9.78029 140.637L9.70748 140.667C9.68686 140.676 9.66553 140.683 9.6504 140.689C9.63643 140.694 9.62438 140.703 9.61588 140.716C9.60738 140.728 9.60282 140.742 9.60282 140.757V141.927C9.60282 141.967 9.63556 142 9.67597 142H17.6302C17.6496 142 17.6682 141.992 17.6819 141.979C17.6957 141.965 17.7034 141.946 17.7034 141.927V140.757C17.7034 140.727 17.6844 140.7 17.6558 140.689C17.6407 140.683 17.6194 140.676 17.5987 140.667L17.5259 140.637L17.4338 140.599C17.4006 140.585 17.3609 140.57 17.3276 140.554L17.0851 140.441C16.9898 140.398 16.9053 140.352 16.8051 140.301C16.7564 140.275 16.7111 140.248 16.6612 140.221C16.6125 140.193 16.559 140.165 16.5125 140.135L16.363 140.044L16.3245 140.021L16.2887 139.997L16.2158 139.948L16.141 139.897C16.1159 139.881 16.0892 139.863 16.0671 139.846L15.9246 139.74C15.5396 139.45 15.2179 139.111 15.0059 138.748C14.9525 138.658 14.9102 138.566 14.8673 138.472C14.8456 138.425 14.824 138.378 14.8024 138.332L14.7408 138.189C14.6981 138.094 14.662 137.998 14.6225 137.902C14.5858 137.806 14.5489 137.709 14.5152 137.612C14.4468 137.419 14.3881 137.225 14.3357 137.035C14.2999 136.901 14.2681 136.766 14.2403 136.63C14.9837 137.459 16.063 137.979 17.2642 137.977Z" fill="#0C5867"/>
</svg>
