<svg width="100" height="150" viewBox="0 0 100 150" fill="none" xmlns="http://www.w3.org/2000/svg">
<rect width="100" height="150" rx="10" fill="#D9D9D9"/>
<path d="M14.72 21L10.22 14.31V21H7.68V7.06H10.22V14L14.66 7.06H17.6L12.85 13.98L17.92 21H14.72Z" fill="#0C5867"/>
<path d="M89.72 142L85.22 135.31V142H82.68V128.06H85.22V135L89.66 128.06H92.6L87.85 134.98L92.92 142H89.72Z" fill="#0C5867"/>
<path d="M39.656 94.896C39.656 95.92 39.8907 96.7307 40.36 97.328C40.8293 97.9253 41.384 98.3733 42.024 98.672C42.7067 98.928 43.4107 99.0987 44.136 99.184C44.8613 99.2693 45.48 99.312 45.992 99.312V102C45.48 102 44.7973 101.979 43.944 101.936C43.1333 101.851 42.28 101.765 41.384 101.68C40.488 101.595 39.6133 101.531 38.76 101.488C37.9493 101.403 37.288 101.36 36.776 101.36C36.264 101.36 35.5813 101.403 34.728 101.488C33.9173 101.531 33.064 101.595 32.168 101.68C31.272 101.765 30.3973 101.851 29.544 101.936C28.7333 101.979 28.072 102 27.56 102V99.312C28.1147 99.312 28.7547 99.2693 29.48 99.184C30.248 99.0987 30.952 98.928 31.592 98.672C32.232 98.3733 32.7653 97.9253 33.192 97.328C33.6613 96.7307 33.896 95.92 33.896 94.896V56.304C33.896 54.9813 33.384 53.9787 32.36 53.296C31.3787 52.5707 29.992 52.208 28.2 52.208C28.2 51.4827 28.456 50.864 28.968 50.352C29.48 49.7973 30.376 49.52 31.656 49.52C32.7653 49.52 33.7467 49.712 34.6 50.096C35.496 50.48 36.2213 50.9493 36.776 51.504C37.3307 50.9493 38.0347 50.48 38.888 50.096C39.784 49.712 40.7867 49.52 41.896 49.52C43.176 49.52 44.072 49.7973 44.584 50.352C45.096 50.864 45.352 51.4827 45.352 52.208C43.6027 52.208 42.216 52.5707 41.192 53.296C40.168 53.9787 39.656 54.9813 39.656 56.304V78L53.608 61.36C53.992 60.9333 54.4613 60.3573 55.016 59.632C55.5707 58.9067 56.1253 58.16 56.68 57.392C57.2347 56.624 57.704 55.8987 58.088 55.216C58.472 54.5333 58.664 53.9787 58.664 53.552C58.664 53.168 58.4933 52.8907 58.152 52.72C57.8533 52.5067 57.4693 52.3787 57 52.336C56.5733 52.2507 56.1253 52.208 55.656 52.208C55.1867 52.208 54.7813 52.1867 54.44 52.144C54.4827 51.7173 54.6533 51.3547 54.952 51.056C55.2507 50.7147 55.592 50.4373 55.976 50.224C56.4027 50.0107 56.8507 49.8613 57.32 49.776C57.7893 49.6907 58.2373 49.648 58.664 49.648C59.3893 49.7333 60.072 49.9253 60.712 50.224C61.3947 50.48 61.9707 50.9707 62.44 51.696C62.9093 51.1413 63.5493 50.6507 64.36 50.224C65.2133 49.7973 66.1947 49.584 67.304 49.584C68.2853 49.584 69.1173 49.7973 69.8 50.224C70.5253 50.608 70.9093 51.2693 70.952 52.208C70.824 52.208 70.7173 52.208 70.632 52.208C70.5467 52.1653 70.3973 52.144 70.184 52.144C69.032 52.144 67.8587 52.5493 66.664 53.36C65.512 54.1707 64.4027 55.1307 63.336 56.24C62.2693 57.3493 61.2667 58.5013 60.328 59.696C59.432 60.848 58.6853 61.7867 58.088 62.512L50.216 71.664L67.24 94.896C67.8373 95.7067 68.52 96.3893 69.288 96.944C70.056 97.4987 70.8453 97.968 71.656 98.352C72.4667 98.6933 73.2347 98.9493 73.96 99.12C74.728 99.248 75.3893 99.312 75.944 99.312V102C75.432 102 74.664 101.979 73.64 101.936C72.6587 101.851 71.6133 101.765 70.504 101.68C69.3947 101.595 68.328 101.531 67.304 101.488C66.3227 101.403 65.576 101.36 65.064 101.36C64.552 101.36 63.8267 101.403 62.888 101.488C61.9493 101.531 60.968 101.595 59.944 101.68C58.92 101.765 57.9387 101.851 57 101.936C56.104 101.979 55.4 102 54.888 102V99.312C55.4 99.312 55.976 99.2907 56.616 99.248C57.2987 99.1627 57.9387 99.0347 58.536 98.864C59.1333 98.6933 59.624 98.4373 60.008 98.096C60.4347 97.7547 60.648 97.2853 60.648 96.688C60.648 95.9627 60.4133 95.216 59.944 94.448C59.4747 93.6373 59.1333 93.104 58.92 92.848L46.504 76.016L39.656 83.952V94.896Z" fill="#0C5867"/>
<path d="M89.2642 19.9767C91.5236 19.9718 93.3261 18.1478 93.3055 15.8886C93.2861 13.7638 91.6307 12.03 89.5381 11.8856C89.4124 11.8769 89.3336 11.7479 89.3829 11.6319C89.5937 11.1352 89.7084 10.5879 89.7032 10.0131C89.6834 7.82286 87.8987 6.02985 85.7086 6.00037C83.446 5.96996 81.6023 7.79492 81.6023 10.0505C81.6023 10.612 81.7167 11.1467 81.9232 11.6328C81.9723 11.7484 81.8931 11.8769 81.7678 11.8855C79.675 12.0299 78.0196 13.7637 78.0002 15.8885C77.9796 18.1478 79.7821 19.9717 82.0415 19.9767C83.243 19.9793 84.3226 19.4583 85.066 18.6296C85.0382 18.7656 85.0063 18.9008 84.9704 19.035C84.918 19.2253 84.8594 19.4187 84.791 19.6121C84.7573 19.7088 84.7204 19.8055 84.6837 19.9018C84.6441 19.9981 84.608 20.0941 84.5654 20.1893L84.5038 20.3315L84.4389 20.4722C84.396 20.5655 84.3536 20.6577 84.3003 20.7483C84.0883 21.1109 83.7666 21.4494 83.3816 21.7395L83.2391 21.8459C83.217 21.8633 83.1904 21.8804 83.1652 21.8974L83.0904 21.9476L83.0175 21.9965L82.9817 22.0205L82.9432 22.0442L82.7937 22.1353C82.7472 22.1648 82.6937 22.1933 82.645 22.2209C82.595 22.2484 82.5498 22.2749 82.5011 22.3004C82.4009 22.3514 82.3164 22.3982 82.2211 22.4406L81.9786 22.5535C81.9452 22.57 81.9056 22.5851 81.8724 22.5991L81.7803 22.637L81.7075 22.667C81.6869 22.6756 81.6655 22.6829 81.6504 22.6887C81.6364 22.694 81.6244 22.7033 81.6159 22.7156C81.6074 22.7278 81.6028 22.7424 81.6028 22.7573V23.9268C81.6028 23.9673 81.6356 24 81.676 24H89.6302C89.6496 24 89.6682 23.9923 89.6819 23.9786C89.6957 23.9649 89.7034 23.9463 89.7034 23.9268V22.7574C89.7034 22.7269 89.6844 22.6995 89.6558 22.6889C89.6407 22.683 89.6194 22.6757 89.5987 22.6671L89.5259 22.6371L89.4338 22.5992C89.4006 22.5852 89.3609 22.57 89.3276 22.5536L89.0851 22.4407C88.9898 22.3984 88.9053 22.3515 88.8051 22.3005C88.7564 22.275 88.7111 22.2485 88.6612 22.221C88.6125 22.1934 88.559 22.1649 88.5125 22.1355L88.363 22.0443L88.3245 22.0206L88.2887 21.9966L88.2158 21.9477L88.141 21.8975C88.1159 21.8806 88.0892 21.8634 88.0671 21.8461L87.9246 21.7396C87.5396 21.4495 87.2179 21.1111 87.0059 20.7484C86.9525 20.6578 86.9102 20.5656 86.8673 20.4723C86.8456 20.4254 86.824 20.3785 86.8024 20.3316L86.7408 20.1894C86.6981 20.0942 86.662 19.9983 86.6225 19.9019C86.5858 19.8056 86.5489 19.7089 86.5152 19.6122C86.4468 19.4188 86.3881 19.2254 86.3357 19.0351C86.2999 18.9012 86.2681 18.7662 86.2403 18.6304C86.9837 19.4587 88.063 19.9794 89.2642 19.9767Z" fill="#0C5867"/>
<path d="M17.2642 137.977C19.5236 137.972 21.3261 136.148 21.3055 133.889C21.2861 131.764 19.6307 130.03 17.5381 129.886C17.4124 129.877 17.3336 129.748 17.3829 129.632C17.5937 129.135 17.7084 128.588 17.7032 128.013C17.6834 125.823 15.8987 124.03 13.7086 124C11.446 123.97 9.60229 125.795 9.60229 128.051C9.60229 128.612 9.71668 129.147 9.92321 129.633C9.97233 129.748 9.89309 129.877 9.76778 129.886C7.67504 130.03 6.01955 131.764 6.00017 133.889C5.9796 136.148 7.7821 137.972 10.0415 137.977C11.243 137.979 12.3226 137.458 13.066 136.63C13.0382 136.766 13.0063 136.901 12.9704 137.035C12.918 137.225 12.8594 137.419 12.791 137.612C12.7573 137.709 12.7204 137.806 12.6837 137.902C12.6441 137.998 12.608 138.094 12.5654 138.189L12.5038 138.331L12.4389 138.472C12.396 138.566 12.3536 138.658 12.3003 138.748C12.0883 139.111 11.7666 139.449 11.3816 139.739L11.2391 139.846C11.217 139.863 11.1904 139.88 11.1652 139.897L11.0904 139.948L11.0175 139.997L10.9817 140.021L10.9432 140.044L10.7937 140.135C10.7472 140.165 10.6937 140.193 10.645 140.221C10.595 140.248 10.5498 140.275 10.5011 140.3C10.4009 140.351 10.3164 140.398 10.2211 140.441L9.97856 140.554C9.94521 140.57 9.9056 140.585 9.87236 140.599L9.78029 140.637L9.70748 140.667C9.68686 140.676 9.66553 140.683 9.6504 140.689C9.63643 140.694 9.62438 140.703 9.61588 140.716C9.60738 140.728 9.60282 140.742 9.60282 140.757V141.927C9.60282 141.967 9.63556 142 9.67597 142H17.6302C17.6496 142 17.6682 141.992 17.6819 141.979C17.6957 141.965 17.7034 141.946 17.7034 141.927V140.757C17.7034 140.727 17.6844 140.7 17.6558 140.689C17.6407 140.683 17.6194 140.676 17.5987 140.667L17.5259 140.637L17.4338 140.599C17.4006 140.585 17.3609 140.57 17.3276 140.554L17.0851 140.441C16.9898 140.398 16.9053 140.352 16.8051 140.301C16.7564 140.275 16.7111 140.248 16.6612 140.221C16.6125 140.193 16.559 140.165 16.5125 140.135L16.363 140.044L16.3245 140.021L16.2887 139.997L16.2158 139.948L16.141 139.897C16.1159 139.881 16.0892 139.863 16.0671 139.846L15.9246 139.74C15.5396 139.45 15.2179 139.111 15.0059 138.748C14.9525 138.658 14.9102 138.566 14.8673 138.472C14.8456 138.425 14.824 138.378 14.8024 138.332L14.7408 138.189C14.6981 138.094 14.662 137.998 14.6225 137.902C14.5858 137.806 14.5489 137.709 14.5152 137.612C14.4468 137.419 14.3881 137.225 14.3357 137.035C14.2999 136.901 14.2681 136.766 14.2403 136.63C14.9837 137.459 16.063 137.979 17.2642 137.977Z" fill="#0C5867"/>
</svg>
