<svg width="100" height="150" viewBox="0 0 100 150" fill="none" xmlns="http://www.w3.org/2000/svg">
<rect width="100" height="150" rx="10" fill="#D9D9D9"/>
<path d="M11.54 21.3C10.6533 21.3 9.94667 21.2133 9.42 21.04C8.9 20.8667 8.46667 20.6133 8.12 20.28L9.1 18.28C9.34667 18.5467 9.68333 18.74 10.11 18.86C10.5367 18.98 10.9667 19.04 11.4 19.04C12.08 19.04 12.6833 18.8667 13.21 18.52C13.7433 18.1667 14.1633 17.68 14.47 17.06C14.7767 16.4333 14.9467 15.72 14.98 14.92C14.9933 14.7333 15 14.4867 15 14.18C14.66 14.84 14.16 15.3367 13.5 15.67C12.84 15.9967 12.12 16.16 11.34 16.16C10.4667 16.16 9.71333 15.96 9.08 15.56C8.45333 15.1533 7.97667 14.61 7.65 13.93C7.32333 13.25 7.16 12.5 7.16 11.68C7.16 10.6733 7.38 9.79667 7.82 9.05C8.26667 8.29667 8.88333 7.72 9.67 7.32C10.4633 6.92 11.3733 6.72 12.4 6.72C13.2733 6.72 14.1033 6.95333 14.89 7.42C15.6833 7.88667 16.3367 8.64667 16.85 9.7C17.3633 10.7467 17.62 12.0933 17.62 13.74C17.62 15.2667 17.36 16.6033 16.84 17.75C16.32 18.89 15.6 19.7667 14.68 20.38C13.76 20.9933 12.7133 21.3 11.54 21.3ZM12 14.12C12.4333 14.12 12.8467 14.0133 13.24 13.8C13.64 13.58 13.9667 13.29 14.22 12.93C14.4733 12.5633 14.6133 12.1667 14.64 11.74C14.64 11.2067 14.55 10.7167 14.37 10.27C14.19 9.81667 13.9267 9.45667 13.58 9.19C13.2333 8.91667 12.82 8.78 12.34 8.78C11.9067 8.78 11.5 8.88667 11.12 9.1C10.74 9.30667 10.43 9.61333 10.19 10.02C9.95667 10.42 9.84 10.8933 9.84 11.44C9.84 12.2467 10.0233 12.8967 10.39 13.39C10.7633 13.8767 11.3 14.12 12 14.12Z" fill="#0C5867"/>
<path d="M86.54 142.3C85.6533 142.3 84.9467 142.213 84.42 142.04C83.9 141.867 83.4667 141.613 83.12 141.28L84.1 139.28C84.3467 139.547 84.6833 139.74 85.11 139.86C85.5367 139.98 85.9667 140.04 86.4 140.04C87.08 140.04 87.6833 139.867 88.21 139.52C88.7433 139.167 89.1633 138.68 89.47 138.06C89.7767 137.433 89.9467 136.72 89.98 135.92C89.9933 135.733 90 135.487 90 135.18C89.66 135.84 89.16 136.337 88.5 136.67C87.84 136.997 87.12 137.16 86.34 137.16C85.4667 137.16 84.7133 136.96 84.08 136.56C83.4533 136.153 82.9767 135.61 82.65 134.93C82.3233 134.25 82.16 133.5 82.16 132.68C82.16 131.673 82.38 130.797 82.82 130.05C83.2667 129.297 83.8833 128.72 84.67 128.32C85.4633 127.92 86.3733 127.72 87.4 127.72C88.2733 127.72 89.1033 127.953 89.89 128.42C90.6833 128.887 91.3367 129.647 91.85 130.7C92.3633 131.747 92.62 133.093 92.62 134.74C92.62 136.267 92.36 137.603 91.84 138.75C91.32 139.89 90.6 140.767 89.68 141.38C88.76 141.993 87.7133 142.3 86.54 142.3ZM87 135.12C87.4333 135.12 87.8467 135.013 88.24 134.8C88.64 134.58 88.9667 134.29 89.22 133.93C89.4733 133.563 89.6133 133.167 89.64 132.74C89.64 132.207 89.55 131.717 89.37 131.27C89.19 130.817 88.9267 130.457 88.58 130.19C88.2333 129.917 87.82 129.78 87.34 129.78C86.9067 129.78 86.5 129.887 86.12 130.1C85.74 130.307 85.43 130.613 85.19 131.02C84.9567 131.42 84.84 131.893 84.84 132.44C84.84 133.247 85.0233 133.897 85.39 134.39C85.7633 134.877 86.3 135.12 87 135.12Z" fill="#0C5867"/>
<path d="M55.0189 81.6357C58.0314 81.629 60.4348 79.1971 60.4073 76.1847C60.3815 73.3517 58.1743 71.04 55.3841 70.8474C55.2165 70.8359 55.1115 70.6638 55.1772 70.5092C55.4583 69.847 55.6112 69.1172 55.6043 68.3508C55.5778 65.4305 53.1983 63.0398 50.2781 63.0005C47.2613 62.9599 44.8031 65.3932 44.8031 68.4007C44.8031 69.1493 44.9556 69.8623 45.2309 70.5104C45.2964 70.6646 45.1908 70.8359 45.0237 70.8474C42.2334 71.0398 40.0261 73.3516 40.0002 76.1847C39.9728 79.1971 42.3761 81.629 45.3886 81.6356C46.9907 81.6391 48.4301 80.9445 49.4214 79.8394C49.3842 80.0208 49.3417 80.2011 49.2939 80.3799C49.224 80.6338 49.1459 80.8916 49.0546 81.1495C49.0097 81.2784 48.9605 81.4073 48.9115 81.5358C48.8588 81.6642 48.8107 81.7921 48.7539 81.919L48.6717 82.1086L48.5852 82.2963C48.528 82.4207 48.4715 82.5436 48.4003 82.6644C48.1178 83.1479 47.6889 83.5992 47.1755 83.986L46.9854 84.1279C46.956 84.151 46.9205 84.1739 46.887 84.1965L46.7872 84.2635L46.6899 84.3287L46.6423 84.3607L46.591 84.3922L46.3915 84.5138C46.3296 84.5531 46.2583 84.5911 46.1933 84.6278C46.1267 84.6645 46.0663 84.6999 46.0015 84.7339C45.8678 84.8019 45.7552 84.8643 45.6281 84.9208L45.3047 85.0714C45.2603 85.0933 45.2075 85.1135 45.1632 85.1321L45.0404 85.1827L44.9433 85.2226C44.9158 85.2341 44.8874 85.2438 44.8672 85.2517C44.8486 85.2586 44.8325 85.2711 44.8212 85.2874C44.8098 85.3037 44.8038 85.3232 44.8038 85.343V86.9025C44.8038 86.9563 44.8474 87 44.9013 87H55.507C55.5328 87 55.5576 86.9897 55.5759 86.9714C55.5942 86.9531 55.6045 86.9283 55.6045 86.9025V85.3432C55.6045 85.3025 55.5792 85.266 55.5411 85.2518C55.5209 85.244 55.4925 85.2343 55.465 85.2228L55.3679 85.1828L55.2451 85.1322C55.2008 85.1137 55.1479 85.0934 55.1035 85.0715L54.7801 84.9209C54.6531 84.8645 54.5404 84.802 54.4068 84.7341C54.3419 84.7001 54.2815 84.6647 54.2149 84.628C54.15 84.5913 54.0786 84.5532 54.0167 84.5139L53.8173 84.3924L53.766 84.3608L53.7183 84.3288L53.6211 84.2636L53.5213 84.1967C53.4878 84.1741 53.4523 84.1512 53.4228 84.1281L53.2328 83.9861C52.7195 83.5993 52.2905 83.1481 52.0079 82.6646C51.9367 82.5437 51.8803 82.4208 51.823 82.2964C51.7942 82.2339 51.7653 82.1713 51.7366 82.1088L51.6544 81.9192C51.5975 81.7923 51.5494 81.6643 51.4967 81.5359C51.4478 81.4075 51.3985 81.2786 51.3536 81.1496C51.2624 80.8918 51.1842 80.6339 51.1143 80.3801C51.0666 80.2016 51.0241 80.0216 50.987 79.8406C51.9783 80.945 53.4173 81.6392 55.0189 81.6357Z" fill="#0C5867"/>
<path d="M78.0189 118.636C81.0314 118.629 83.4348 116.197 83.4073 113.185C83.3815 110.352 81.1743 108.04 78.3841 107.847C78.2165 107.836 78.1115 107.664 78.1772 107.509C78.4583 106.847 78.6112 106.117 78.6043 105.351C78.5778 102.43 76.1983 100.04 73.2781 100C70.2613 99.9599 67.8031 102.393 67.8031 105.401C67.8031 106.149 67.9556 106.862 68.2309 107.51C68.2964 107.665 68.1908 107.836 68.0237 107.847C65.2334 108.04 63.0261 110.352 63.0002 113.185C62.9728 116.197 65.3761 118.629 68.3886 118.636C69.9907 118.639 71.4301 117.944 72.4214 116.839C72.3842 117.021 72.3417 117.201 72.2939 117.38C72.224 117.634 72.1459 117.892 72.0546 118.149C72.0097 118.278 71.9605 118.407 71.9115 118.536C71.8588 118.664 71.8107 118.792 71.7539 118.919L71.6717 119.109L71.5852 119.296C71.528 119.421 71.4715 119.544 71.4003 119.664C71.1178 120.148 70.6889 120.599 70.1755 120.986L69.9854 121.128C69.956 121.151 69.9205 121.174 69.887 121.197L69.7872 121.263L69.6899 121.329L69.6423 121.361L69.591 121.392L69.3915 121.514C69.3296 121.553 69.2583 121.591 69.1933 121.628C69.1267 121.665 69.0663 121.7 69.0015 121.734C68.8678 121.802 68.7552 121.864 68.6281 121.921L68.3047 122.071C68.2603 122.093 68.2075 122.114 68.1632 122.132L68.0404 122.183L67.9433 122.223C67.9158 122.234 67.8874 122.244 67.8672 122.252C67.8486 122.259 67.8325 122.271 67.8212 122.287C67.8098 122.304 67.8038 122.323 67.8038 122.343V123.902C67.8038 123.956 67.8474 124 67.9013 124H78.507C78.5328 124 78.5576 123.99 78.5759 123.971C78.5942 123.953 78.6045 123.928 78.6045 123.902V122.343C78.6045 122.302 78.5792 122.266 78.5411 122.252C78.5209 122.244 78.4925 122.234 78.465 122.223L78.3679 122.183L78.2451 122.132C78.2008 122.114 78.1479 122.093 78.1035 122.072L77.7801 121.921C77.6531 121.864 77.5404 121.802 77.4068 121.734C77.3419 121.7 77.2815 121.665 77.2149 121.628C77.15 121.591 77.0786 121.553 77.0167 121.514L76.8173 121.392L76.766 121.361L76.7183 121.329L76.6211 121.264L76.5213 121.197C76.4878 121.174 76.4523 121.151 76.4228 121.128L76.2328 120.986C75.7195 120.599 75.2905 120.148 75.0079 119.665C74.9367 119.544 74.8803 119.421 74.823 119.296C74.7942 119.234 74.7653 119.171 74.7366 119.109L74.6544 118.919C74.5975 118.792 74.5494 118.664 74.4967 118.536C74.4478 118.407 74.3985 118.279 74.3536 118.15C74.2624 117.892 74.1842 117.634 74.1143 117.38C74.0666 117.202 74.0241 117.022 73.987 116.841C74.9783 117.945 76.4173 118.639 78.0189 118.636Z" fill="#0C5867"/>
<path d="M78.0189 92.6357C81.0314 92.629 83.4348 90.1971 83.4073 87.1847C83.3815 84.3517 81.1743 82.04 78.3841 81.8474C78.2165 81.8359 78.1115 81.6638 78.1772 81.5092C78.4583 80.847 78.6112 80.1172 78.6043 79.3508C78.5778 76.4305 76.1983 74.0398 73.2781 74.0005C70.2613 73.9599 67.8031 76.3932 67.8031 79.4007C67.8031 80.1493 67.9556 80.8623 68.2309 81.5104C68.2964 81.6646 68.1908 81.8359 68.0237 81.8474C65.2334 82.0398 63.0261 84.3516 63.0002 87.1847C62.9728 90.1971 65.3761 92.629 68.3886 92.6356C69.9907 92.6391 71.4301 91.9445 72.4214 90.8394C72.3842 91.0208 72.3417 91.2011 72.2939 91.3799C72.224 91.6338 72.1459 91.8916 72.0546 92.1495C72.0097 92.2784 71.9605 92.4073 71.9115 92.5358C71.8588 92.6642 71.8107 92.7921 71.7539 92.919L71.6717 93.1086L71.5852 93.2963C71.528 93.4207 71.4715 93.5436 71.4003 93.6644C71.1178 94.1479 70.6889 94.5992 70.1755 94.986L69.9854 95.1279C69.956 95.151 69.9205 95.1739 69.887 95.1965L69.7872 95.2635L69.6899 95.3287L69.6423 95.3607L69.591 95.3922L69.3915 95.5138C69.3296 95.5531 69.2583 95.5911 69.1933 95.6278C69.1267 95.6645 69.0663 95.6999 69.0015 95.7339C68.8678 95.8019 68.7552 95.8643 68.6281 95.9208L68.3047 96.0714C68.2603 96.0933 68.2075 96.1135 68.1632 96.1321L68.0404 96.1827L67.9433 96.2226C67.9158 96.2341 67.8874 96.2438 67.8672 96.2517C67.8486 96.2586 67.8325 96.2711 67.8212 96.2874C67.8098 96.3037 67.8038 96.3232 67.8038 96.343V97.9025C67.8038 97.9563 67.8474 98 67.9013 98H78.507C78.5328 98 78.5576 97.9897 78.5759 97.9714C78.5942 97.9531 78.6045 97.9283 78.6045 97.9025V96.3432C78.6045 96.3025 78.5792 96.266 78.5411 96.2518C78.5209 96.244 78.4925 96.2343 78.465 96.2228L78.3679 96.1828L78.2451 96.1322C78.2008 96.1137 78.1479 96.0934 78.1035 96.0715L77.7801 95.9209C77.6531 95.8645 77.5404 95.802 77.4068 95.7341C77.3419 95.7001 77.2815 95.6647 77.2149 95.628C77.15 95.5913 77.0786 95.5532 77.0167 95.5139L76.8173 95.3924L76.766 95.3608L76.7183 95.3288L76.6211 95.2636L76.5213 95.1967C76.4878 95.1741 76.4523 95.1512 76.4228 95.1281L76.2328 94.9861C75.7195 94.5993 75.2905 94.1481 75.0079 93.6646C74.9367 93.5437 74.8803 93.4208 74.823 93.2964C74.7942 93.2339 74.7653 93.1713 74.7366 93.1088L74.6544 92.9192C74.5975 92.7923 74.5494 92.6643 74.4967 92.5359C74.4478 92.4075 74.3985 92.2786 74.3536 92.1496C74.2624 91.8918 74.1842 91.6339 74.1143 91.3801C74.0666 91.2016 74.0241 91.0216 73.987 90.8406C74.9783 91.945 76.4173 92.6392 78.0189 92.6357Z" fill="#0C5867"/>
<path d="M78.0189 66.6357C81.0314 66.629 83.4348 64.1971 83.4073 61.1847C83.3815 58.3517 81.1743 56.04 78.3841 55.8474C78.2165 55.8359 78.1115 55.6638 78.1772 55.5092C78.4583 54.847 78.6112 54.1172 78.6043 53.3508C78.5778 50.4305 76.1983 48.0398 73.2781 48.0005C70.2613 47.9599 67.8031 50.3932 67.8031 53.4007C67.8031 54.1493 67.9556 54.8623 68.2309 55.5104C68.2964 55.6646 68.1908 55.8359 68.0237 55.8474C65.2334 56.0398 63.0261 58.3516 63.0002 61.1847C62.9728 64.1971 65.3761 66.629 68.3886 66.6356C69.9907 66.6391 71.4301 65.9445 72.4214 64.8394C72.3842 65.0208 72.3417 65.2011 72.2939 65.3799C72.224 65.6338 72.1459 65.8916 72.0546 66.1495C72.0097 66.2784 71.9605 66.4073 71.9115 66.5358C71.8588 66.6642 71.8107 66.7921 71.7539 66.919L71.6717 67.1086L71.5852 67.2963C71.528 67.4207 71.4715 67.5436 71.4003 67.6644C71.1178 68.1479 70.6889 68.5992 70.1755 68.986L69.9854 69.1279C69.956 69.151 69.9205 69.1739 69.887 69.1965L69.7872 69.2635L69.6899 69.3287L69.6423 69.3607L69.591 69.3922L69.3915 69.5138C69.3296 69.5531 69.2583 69.5911 69.1933 69.6278C69.1267 69.6645 69.0663 69.6999 69.0015 69.7339C68.8678 69.8019 68.7552 69.8643 68.6281 69.9208L68.3047 70.0714C68.2603 70.0933 68.2075 70.1135 68.1632 70.1321L68.0404 70.1827L67.9433 70.2226C67.9158 70.2341 67.8874 70.2438 67.8672 70.2517C67.8486 70.2586 67.8325 70.2711 67.8212 70.2874C67.8098 70.3037 67.8038 70.3232 67.8038 70.343V71.9025C67.8038 71.9563 67.8474 72 67.9013 72H78.507C78.5328 72 78.5576 71.9897 78.5759 71.9714C78.5942 71.9531 78.6045 71.9283 78.6045 71.9025V70.3432C78.6045 70.3025 78.5792 70.266 78.5411 70.2518C78.5209 70.244 78.4925 70.2343 78.465 70.2228L78.3679 70.1828L78.2451 70.1322C78.2008 70.1137 78.1479 70.0934 78.1035 70.0715L77.7801 69.9209C77.6531 69.8645 77.5404 69.802 77.4068 69.7341C77.3419 69.7001 77.2815 69.6647 77.2149 69.628C77.15 69.5913 77.0786 69.5532 77.0167 69.5139L76.8173 69.3924L76.766 69.3608L76.7183 69.3288L76.6211 69.2636L76.5213 69.1967C76.4878 69.1741 76.4523 69.1512 76.4228 69.1281L76.2328 68.9861C75.7195 68.5993 75.2905 68.1481 75.0079 67.6646C74.9367 67.5437 74.8803 67.4208 74.823 67.2964C74.7942 67.2339 74.7653 67.1713 74.7366 67.1088L74.6544 66.9192C74.5975 66.7923 74.5494 66.6643 74.4967 66.5359C74.4478 66.4075 74.3985 66.2786 74.3536 66.1496C74.2624 65.8918 74.1842 65.6339 74.1143 65.3801C74.0666 65.2016 74.0241 65.0216 73.987 64.8406C74.9783 65.945 76.4173 66.6392 78.0189 66.6357Z" fill="#0C5867"/>
<path d="M78.0189 40.6357C81.0314 40.629 83.4348 38.1971 83.4073 35.1847C83.3815 32.3517 81.1743 30.04 78.3841 29.8474C78.2165 29.8359 78.1115 29.6638 78.1772 29.5092C78.4583 28.847 78.6112 28.1172 78.6043 27.3508C78.5778 24.4305 76.1983 22.0398 73.2781 22.0005C70.2613 21.9599 67.8031 24.3932 67.8031 27.4007C67.8031 28.1493 67.9556 28.8623 68.2309 29.5104C68.2964 29.6646 68.1908 29.8359 68.0237 29.8474C65.2334 30.0398 63.0261 32.3516 63.0002 35.1847C62.9728 38.1971 65.3761 40.629 68.3886 40.6356C69.9907 40.6391 71.4301 39.9445 72.4214 38.8394C72.3842 39.0208 72.3417 39.2011 72.2939 39.3799C72.224 39.6338 72.1459 39.8916 72.0546 40.1495C72.0097 40.2784 71.9605 40.4073 71.9115 40.5358C71.8588 40.6642 71.8107 40.7921 71.7539 40.919L71.6717 41.1086L71.5852 41.2963C71.528 41.4207 71.4715 41.5436 71.4003 41.6644C71.1178 42.1479 70.6889 42.5992 70.1755 42.986L69.9854 43.1279C69.956 43.151 69.9205 43.1739 69.887 43.1965L69.7872 43.2635L69.6899 43.3287L69.6423 43.3607L69.591 43.3922L69.3915 43.5138C69.3296 43.5531 69.2583 43.5911 69.1933 43.6278C69.1267 43.6645 69.0663 43.6999 69.0015 43.7339C68.8678 43.8019 68.7552 43.8643 68.6281 43.9208L68.3047 44.0714C68.2603 44.0933 68.2075 44.1135 68.1632 44.1321L68.0404 44.1827L67.9433 44.2226C67.9158 44.2341 67.8874 44.2438 67.8672 44.2517C67.8486 44.2586 67.8325 44.2711 67.8212 44.2874C67.8098 44.3037 67.8038 44.3232 67.8038 44.343V45.9025C67.8038 45.9563 67.8474 46 67.9013 46H78.507C78.5328 46 78.5576 45.9897 78.5759 45.9714C78.5942 45.9531 78.6045 45.9283 78.6045 45.9025V44.3432C78.6045 44.3025 78.5792 44.266 78.5411 44.2518C78.5209 44.244 78.4925 44.2343 78.465 44.2228L78.3679 44.1828L78.2451 44.1322C78.2008 44.1137 78.1479 44.0934 78.1035 44.0715L77.7801 43.9209C77.6531 43.8645 77.5404 43.802 77.4068 43.7341C77.3419 43.7001 77.2815 43.6647 77.2149 43.628C77.15 43.5913 77.0786 43.5532 77.0167 43.5139L76.8173 43.3924L76.766 43.3608L76.7183 43.3288L76.6211 43.2636L76.5213 43.1967C76.4878 43.1741 76.4523 43.1512 76.4228 43.1281L76.2328 42.9861C75.7195 42.5993 75.2905 42.1481 75.0079 41.6646C74.9367 41.5437 74.8803 41.4208 74.823 41.2964C74.7942 41.2339 74.7653 41.1713 74.7366 41.1088L74.6544 40.9192C74.5975 40.7923 74.5494 40.6643 74.4967 40.5359C74.4478 40.4075 74.3985 40.2786 74.3536 40.1496C74.2624 39.8918 74.1842 39.6339 74.1143 39.3801C74.0666 39.2016 74.0241 39.0216 73.987 38.8406C74.9783 39.945 76.4173 40.6392 78.0189 40.6357Z" fill="#0C5867"/>
<path d="M32.0189 40.6357C35.0314 40.629 37.4348 38.1971 37.4073 35.1847C37.3815 32.3517 35.1743 30.04 32.3841 29.8474C32.2165 29.8359 32.1115 29.6638 32.1772 29.5092C32.4583 28.847 32.6112 28.1172 32.6043 27.3508C32.5778 24.4305 30.1983 22.0398 27.2781 22.0005C24.2613 21.9599 21.8031 24.3932 21.8031 27.4007C21.8031 28.1493 21.9556 28.8623 22.2309 29.5104C22.2964 29.6646 22.1908 29.8359 22.0237 29.8474C19.2334 30.0398 17.0261 32.3516 17.0002 35.1847C16.9728 38.1971 19.3761 40.629 22.3886 40.6356C23.9907 40.6391 25.4301 39.9445 26.4214 38.8394C26.3842 39.0208 26.3417 39.2011 26.2939 39.3799C26.224 39.6338 26.1459 39.8916 26.0546 40.1495C26.0097 40.2784 25.9605 40.4073 25.9115 40.5358C25.8588 40.6642 25.8107 40.7921 25.7539 40.919L25.6717 41.1086L25.5852 41.2963C25.528 41.4207 25.4715 41.5436 25.4003 41.6644C25.1178 42.1479 24.6889 42.5992 24.1755 42.986L23.9854 43.1279C23.956 43.151 23.9205 43.1739 23.887 43.1965L23.7872 43.2635L23.6899 43.3287L23.6423 43.3607L23.591 43.3922L23.3915 43.5138C23.3296 43.5531 23.2583 43.5911 23.1933 43.6278C23.1267 43.6645 23.0663 43.6999 23.0015 43.7339C22.8678 43.8019 22.7552 43.8643 22.6281 43.9208L22.3047 44.0714C22.2603 44.0933 22.2075 44.1135 22.1632 44.1321L22.0404 44.1827L21.9433 44.2226C21.9158 44.2341 21.8874 44.2438 21.8672 44.2517C21.8486 44.2586 21.8325 44.2711 21.8212 44.2874C21.8098 44.3037 21.8038 44.3232 21.8038 44.343V45.9025C21.8038 45.9563 21.8474 46 21.9013 46H32.507C32.5328 46 32.5576 45.9897 32.5759 45.9714C32.5942 45.9531 32.6045 45.9283 32.6045 45.9025V44.3432C32.6045 44.3025 32.5792 44.266 32.5411 44.2518C32.5209 44.244 32.4925 44.2343 32.465 44.2228L32.3679 44.1828L32.2451 44.1322C32.2008 44.1137 32.1479 44.0934 32.1035 44.0715L31.7801 43.9209C31.6531 43.8645 31.5404 43.802 31.4068 43.7341C31.3419 43.7001 31.2815 43.6647 31.2149 43.628C31.15 43.5913 31.0786 43.5532 31.0167 43.5139L30.8173 43.3924L30.766 43.3608L30.7183 43.3288L30.6211 43.2636L30.5213 43.1967C30.4878 43.1741 30.4523 43.1512 30.4228 43.1281L30.2328 42.9861C29.7195 42.5993 29.2905 42.1481 29.0079 41.6646C28.9367 41.5437 28.8803 41.4208 28.823 41.2964C28.7942 41.2339 28.7653 41.1713 28.7366 41.1088L28.6544 40.9192C28.5975 40.7923 28.5494 40.6643 28.4967 40.5359C28.4478 40.4075 28.3985 40.2786 28.3536 40.1496C28.2624 39.8918 28.1842 39.6339 28.1143 39.3801C28.0666 39.2016 28.0241 39.0216 27.987 38.8406C28.9783 39.945 30.4173 40.6392 32.0189 40.6357Z" fill="#0C5867"/>
<path d="M32.0189 66.6357C35.0314 66.629 37.4348 64.1971 37.4073 61.1847C37.3815 58.3517 35.1743 56.04 32.3841 55.8474C32.2165 55.8359 32.1115 55.6638 32.1772 55.5092C32.4583 54.847 32.6112 54.1172 32.6043 53.3508C32.5778 50.4305 30.1983 48.0398 27.2781 48.0005C24.2613 47.9599 21.8031 50.3932 21.8031 53.4007C21.8031 54.1493 21.9556 54.8623 22.2309 55.5104C22.2964 55.6646 22.1908 55.8359 22.0237 55.8474C19.2334 56.0398 17.0261 58.3516 17.0002 61.1847C16.9728 64.1971 19.3761 66.629 22.3886 66.6356C23.9907 66.6391 25.4301 65.9445 26.4214 64.8394C26.3842 65.0208 26.3417 65.2011 26.2939 65.3799C26.224 65.6338 26.1459 65.8916 26.0546 66.1495C26.0097 66.2784 25.9605 66.4073 25.9115 66.5358C25.8588 66.6642 25.8107 66.7921 25.7539 66.919L25.6717 67.1086L25.5852 67.2963C25.528 67.4207 25.4715 67.5436 25.4003 67.6644C25.1178 68.1479 24.6889 68.5992 24.1755 68.986L23.9854 69.1279C23.956 69.151 23.9205 69.1739 23.887 69.1965L23.7872 69.2635L23.6899 69.3287L23.6423 69.3607L23.591 69.3922L23.3915 69.5138C23.3296 69.5531 23.2583 69.5911 23.1933 69.6278C23.1267 69.6645 23.0663 69.6999 23.0015 69.7339C22.8678 69.8019 22.7552 69.8643 22.6281 69.9208L22.3047 70.0714C22.2603 70.0933 22.2075 70.1135 22.1632 70.1321L22.0404 70.1827L21.9433 70.2226C21.9158 70.2341 21.8874 70.2438 21.8672 70.2517C21.8486 70.2586 21.8325 70.2711 21.8212 70.2874C21.8098 70.3037 21.8038 70.3232 21.8038 70.343V71.9025C21.8038 71.9563 21.8474 72 21.9013 72H32.507C32.5328 72 32.5576 71.9897 32.5759 71.9714C32.5942 71.9531 32.6045 71.9283 32.6045 71.9025V70.3432C32.6045 70.3025 32.5792 70.266 32.5411 70.2518C32.5209 70.244 32.4925 70.2343 32.465 70.2228L32.3679 70.1828L32.2451 70.1322C32.2008 70.1137 32.1479 70.0934 32.1035 70.0715L31.7801 69.9209C31.6531 69.8645 31.5404 69.802 31.4068 69.7341C31.3419 69.7001 31.2815 69.6647 31.2149 69.628C31.15 69.5913 31.0786 69.5532 31.0167 69.5139L30.8173 69.3924L30.766 69.3608L30.7183 69.3288L30.6211 69.2636L30.5213 69.1967C30.4878 69.1741 30.4523 69.1512 30.4228 69.1281L30.2328 68.9861C29.7195 68.5993 29.2905 68.1481 29.0079 67.6646C28.9367 67.5437 28.8803 67.4208 28.823 67.2964C28.7942 67.2339 28.7653 67.1713 28.7366 67.1088L28.6544 66.9192C28.5975 66.7923 28.5494 66.6643 28.4967 66.5359C28.4478 66.4075 28.3985 66.2786 28.3536 66.1496C28.2624 65.8918 28.1842 65.6339 28.1143 65.3801C28.0666 65.2016 28.0241 65.0216 27.987 64.8406C28.9783 65.945 30.4173 66.6392 32.0189 66.6357Z" fill="#0C5867"/>
<path d="M32.0189 92.6357C35.0314 92.629 37.4348 90.1971 37.4073 87.1847C37.3815 84.3517 35.1743 82.04 32.3841 81.8474C32.2165 81.8359 32.1115 81.6638 32.1772 81.5092C32.4583 80.847 32.6112 80.1172 32.6043 79.3508C32.5778 76.4305 30.1983 74.0398 27.2781 74.0005C24.2613 73.9599 21.8031 76.3932 21.8031 79.4007C21.8031 80.1493 21.9556 80.8623 22.2309 81.5104C22.2964 81.6646 22.1908 81.8359 22.0237 81.8474C19.2334 82.0398 17.0261 84.3516 17.0002 87.1847C16.9728 90.1971 19.3761 92.629 22.3886 92.6356C23.9907 92.6391 25.4301 91.9445 26.4214 90.8394C26.3842 91.0208 26.3417 91.2011 26.2939 91.3799C26.224 91.6338 26.1459 91.8916 26.0546 92.1495C26.0097 92.2784 25.9605 92.4073 25.9115 92.5358C25.8588 92.6642 25.8107 92.7921 25.7539 92.919L25.6717 93.1086L25.5852 93.2963C25.528 93.4207 25.4715 93.5436 25.4003 93.6644C25.1178 94.1479 24.6889 94.5992 24.1755 94.986L23.9854 95.1279C23.956 95.151 23.9205 95.1739 23.887 95.1965L23.7872 95.2635L23.6899 95.3287L23.6423 95.3607L23.591 95.3922L23.3915 95.5138C23.3296 95.5531 23.2583 95.5911 23.1933 95.6278C23.1267 95.6645 23.0663 95.6999 23.0015 95.7339C22.8678 95.8019 22.7552 95.8643 22.6281 95.9208L22.3047 96.0714C22.2603 96.0933 22.2075 96.1135 22.1632 96.1321L22.0404 96.1827L21.9433 96.2226C21.9158 96.2341 21.8874 96.2438 21.8672 96.2517C21.8486 96.2586 21.8325 96.2711 21.8212 96.2874C21.8098 96.3037 21.8038 96.3232 21.8038 96.343V97.9025C21.8038 97.9563 21.8474 98 21.9013 98H32.507C32.5328 98 32.5576 97.9897 32.5759 97.9714C32.5942 97.9531 32.6045 97.9283 32.6045 97.9025V96.3432C32.6045 96.3025 32.5792 96.266 32.5411 96.2518C32.5209 96.244 32.4925 96.2343 32.465 96.2228L32.3679 96.1828L32.2451 96.1322C32.2008 96.1137 32.1479 96.0934 32.1035 96.0715L31.7801 95.9209C31.6531 95.8645 31.5404 95.802 31.4068 95.7341C31.3419 95.7001 31.2815 95.6647 31.2149 95.628C31.15 95.5913 31.0786 95.5532 31.0167 95.5139L30.8173 95.3924L30.766 95.3608L30.7183 95.3288L30.6211 95.2636L30.5213 95.1967C30.4878 95.1741 30.4523 95.1512 30.4228 95.1281L30.2328 94.9861C29.7195 94.5993 29.2905 94.1481 29.0079 93.6646C28.9367 93.5437 28.8803 93.4208 28.823 93.2964C28.7942 93.2339 28.7653 93.1713 28.7366 93.1088L28.6544 92.9192C28.5975 92.7923 28.5494 92.6643 28.4967 92.5359C28.4478 92.4075 28.3985 92.2786 28.3536 92.1496C28.2624 91.8918 28.1842 91.6339 28.1143 91.3801C28.0666 91.2016 28.0241 91.0216 27.987 90.8406C28.9783 91.945 30.4173 92.6392 32.0189 92.6357Z" fill="#0C5867"/>
<path d="M32.0189 118.636C35.0314 118.629 37.4348 116.197 37.4073 113.185C37.3815 110.352 35.1743 108.04 32.3841 107.847C32.2165 107.836 32.1115 107.664 32.1772 107.509C32.4583 106.847 32.6112 106.117 32.6043 105.351C32.5778 102.43 30.1983 100.04 27.2781 100C24.2613 99.9599 21.8031 102.393 21.8031 105.401C21.8031 106.149 21.9556 106.862 22.2309 107.51C22.2964 107.665 22.1908 107.836 22.0237 107.847C19.2334 108.04 17.0261 110.352 17.0002 113.185C16.9728 116.197 19.3761 118.629 22.3886 118.636C23.9907 118.639 25.4301 117.944 26.4214 116.839C26.3842 117.021 26.3417 117.201 26.2939 117.38C26.224 117.634 26.1459 117.892 26.0546 118.149C26.0097 118.278 25.9605 118.407 25.9115 118.536C25.8588 118.664 25.8107 118.792 25.7539 118.919L25.6717 119.109L25.5852 119.296C25.528 119.421 25.4715 119.544 25.4003 119.664C25.1178 120.148 24.6889 120.599 24.1755 120.986L23.9854 121.128C23.956 121.151 23.9205 121.174 23.887 121.197L23.7872 121.263L23.6899 121.329L23.6423 121.361L23.591 121.392L23.3915 121.514C23.3296 121.553 23.2583 121.591 23.1933 121.628C23.1267 121.665 23.0663 121.7 23.0015 121.734C22.8678 121.802 22.7552 121.864 22.6281 121.921L22.3047 122.071C22.2603 122.093 22.2075 122.114 22.1632 122.132L22.0404 122.183L21.9433 122.223C21.9158 122.234 21.8874 122.244 21.8672 122.252C21.8486 122.259 21.8325 122.271 21.8212 122.287C21.8098 122.304 21.8038 122.323 21.8038 122.343V123.902C21.8038 123.956 21.8474 124 21.9013 124H32.507C32.5328 124 32.5576 123.99 32.5759 123.971C32.5942 123.953 32.6045 123.928 32.6045 123.902V122.343C32.6045 122.302 32.5792 122.266 32.5411 122.252C32.5209 122.244 32.4925 122.234 32.465 122.223L32.3679 122.183L32.2451 122.132C32.2008 122.114 32.1479 122.093 32.1035 122.072L31.7801 121.921C31.6531 121.864 31.5404 121.802 31.4068 121.734C31.3419 121.7 31.2815 121.665 31.2149 121.628C31.15 121.591 31.0786 121.553 31.0167 121.514L30.8173 121.392L30.766 121.361L30.7183 121.329L30.6211 121.264L30.5213 121.197C30.4878 121.174 30.4523 121.151 30.4228 121.128L30.2328 120.986C29.7195 120.599 29.2905 120.148 29.0079 119.665C28.9367 119.544 28.8803 119.421 28.823 119.296C28.7942 119.234 28.7653 119.171 28.7366 119.109L28.6544 118.919C28.5975 118.792 28.5494 118.664 28.4967 118.536C28.4478 118.407 28.3985 118.279 28.3536 118.15C28.2624 117.892 28.1842 117.634 28.1143 117.38C28.0666 117.202 28.0241 117.022 27.987 116.841C28.9783 117.945 30.4173 118.639 32.0189 118.636Z" fill="#0C5867"/>
</svg>
