<svg width="100" height="150" viewBox="0 0 100 150" fill="none" xmlns="http://www.w3.org/2000/svg">
<rect width="100" height="150" rx="10" fill="#D9D9D9"/>
<path d="M18.38 14.02C18.38 15.6667 18.0967 17.07 17.53 18.23C16.97 19.39 16.16 20.22 15.1 20.72L16.62 23.22L14.32 24.46L12.8 21.24H12.6C11.36 21.24 10.3033 20.9467 9.43 20.36C8.55667 19.7667 7.89667 18.93 7.45 17.85C7.00333 16.7633 6.78 15.4867 6.78 14.02C6.78 12.5667 7 11.3 7.44 10.22C7.88667 9.13333 8.54 8.29667 9.4 7.71C10.2667 7.11667 11.3133 6.82 12.54 6.82C13.8133 6.82 14.8867 7.12 15.76 7.72C16.6333 8.31333 17.2867 9.15 17.72 10.23C18.16 11.31 18.38 12.5733 18.38 14.02ZM9.46 13.98C9.46 15.1133 9.58667 16.0633 9.84 16.83C10.1 17.59 10.4633 18.16 10.93 18.54C11.4033 18.9133 11.96 19.1 12.6 19.1C13.1933 19.1 13.7233 18.91 14.19 18.53C14.6633 18.15 15.0367 17.5733 15.31 16.8C15.5833 16.0267 15.72 15.08 15.72 13.96C15.72 12.3133 15.44 11.06 14.88 10.2C14.3267 9.33333 13.5467 8.9 12.54 8.9C11.56 8.9 10.8 9.33333 10.26 10.2C9.72667 11.06 9.46 12.32 9.46 13.98Z" fill="#0C5867"/>
<path d="M93.38 135.02C93.38 136.667 93.0967 138.07 92.53 139.23C91.97 140.39 91.16 141.22 90.1 141.72L91.62 144.22L89.32 145.46L87.8 142.24H87.6C86.36 142.24 85.3033 141.947 84.43 141.36C83.5567 140.767 82.8967 139.93 82.45 138.85C82.0033 137.763 81.78 136.487 81.78 135.02C81.78 133.567 82 132.3 82.44 131.22C82.8867 130.133 83.54 129.297 84.4 128.71C85.2667 128.117 86.3133 127.82 87.54 127.82C88.8133 127.82 89.8867 128.12 90.76 128.72C91.6333 129.313 92.2867 130.15 92.72 131.23C93.16 132.31 93.38 133.573 93.38 135.02ZM84.46 134.98C84.46 136.113 84.5867 137.063 84.84 137.83C85.1 138.59 85.4633 139.16 85.93 139.54C86.4033 139.913 86.96 140.1 87.6 140.1C88.1933 140.1 88.7233 139.91 89.19 139.53C89.6633 139.15 90.0367 138.573 90.31 137.8C90.5833 137.027 90.72 136.08 90.72 134.96C90.72 133.313 90.44 132.06 89.88 131.2C89.3267 130.333 88.5467 129.9 87.54 129.9C86.56 129.9 85.8 130.333 85.26 131.2C84.7267 132.06 84.46 133.32 84.46 134.98Z" fill="#0C5867"/>
<path d="M44.504 107.768C42.84 107.512 42.008 106.616 42.008 105.08C42.008 104.525 42.264 103.949 42.776 103.352C42.776 101.517 43.4373 100.259 44.76 99.576C43.2667 99.4053 41.8373 99.1493 40.472 98.808C39.1493 98.424 37.9547 97.912 36.888 97.272C35.864 96.632 35.032 95.8427 34.392 94.904C33.7947 93.9653 33.496 92.8347 33.496 91.512C32.0453 91.512 30.872 90.9573 29.976 89.848C29.1227 88.7387 28.44 87.288 27.928 85.496C27.4587 83.6613 27.1387 81.6133 26.968 79.352C26.84 77.0907 26.776 74.808 26.776 72.504C26.776 68.6213 27.288 65.08 28.312 61.88C29.3787 58.68 30.936 55.9493 32.984 53.688C35.0747 51.384 37.6347 49.6133 40.664 48.376C43.6933 47.1387 47.192 46.52 51.16 46.52C52.0987 46.52 53.3147 46.584 54.808 46.712C56.3013 46.84 57.752 47.1387 59.16 47.608C60.6107 48.0347 61.848 48.6747 62.872 49.528C63.896 50.3813 64.408 51.5547 64.408 53.048C65.9867 53.048 67.288 53.6667 68.312 54.904C69.3787 56.0987 70.232 57.6347 70.872 59.512C71.512 61.3467 71.96 63.352 72.216 65.528C72.472 67.704 72.6 69.7733 72.6 71.736C72.6 76.1733 72.024 80.12 70.872 83.576C69.7627 86.9893 68.2267 89.8907 66.264 92.28C64.344 94.6267 62.0613 96.44 59.416 97.72C56.7707 99 53.912 99.704 50.84 99.832C51.864 100.131 52.9093 100.472 53.976 100.856C55.0853 101.283 56.152 101.667 57.176 102.008C58.2427 102.392 59.288 102.712 60.312 102.968C61.336 103.224 62.296 103.352 63.192 103.352C64.1733 103.352 65.0267 103.032 65.752 102.392C66.52 101.752 67.0533 100.621 67.352 99C67.992 99.3413 68.4827 99.8107 68.824 100.408C69.208 101.005 69.4 101.624 69.4 102.264C69.4 103.203 69.1013 103.907 68.504 104.376C68.504 105.784 68.0133 106.744 67.032 107.256C66.0507 107.768 64.984 108.024 63.832 108.024C62.296 108.024 60.7813 107.811 59.288 107.384C57.7947 106.957 56.344 106.467 54.936 105.912C53.5707 105.4 52.248 104.931 50.968 104.504C49.688 104.077 48.4933 103.864 47.384 103.864C46.5307 103.864 45.848 104.141 45.336 104.696C44.824 105.251 44.5467 106.275 44.504 107.768ZM49.752 96.76C52.568 96.76 55 96.12 57.048 94.84C59.096 93.5173 60.76 91.768 62.04 89.592C63.3627 87.3733 64.3227 84.8133 64.92 81.912C65.56 79.0107 65.88 75.96 65.88 72.76C65.88 69.56 65.56 66.5733 64.92 63.8C64.3227 61.0267 63.3627 58.616 62.04 56.568C60.7173 54.4773 59.032 52.8347 56.984 51.64C54.9787 50.4453 52.5467 49.848 49.688 49.848C46.872 49.848 44.44 50.4453 42.392 51.64C40.344 52.792 38.6587 54.392 37.336 56.44C36.0133 58.488 35.032 60.92 34.392 63.736C33.7947 66.5093 33.496 69.496 33.496 72.696C33.496 75.896 33.7947 78.968 34.392 81.912C35.032 84.8133 36.0133 87.3733 37.336 89.592C38.6587 91.768 40.344 93.5173 42.392 94.84C44.44 96.12 46.8933 96.76 49.752 96.76Z" fill="#0C5867"/>
<path d="M91.2642 20.9767C93.5236 20.9718 95.3261 19.1478 95.3055 16.8886C95.2861 14.7638 93.6307 13.03 91.5381 12.8856C91.4124 12.8769 91.3336 12.7479 91.3829 12.6319C91.5937 12.1352 91.7084 11.5879 91.7032 11.0131C91.6834 8.82286 89.8987 7.02985 87.7086 7.00037C85.446 6.96996 83.6023 8.79492 83.6023 11.0505C83.6023 11.612 83.7167 12.1467 83.9232 12.6328C83.9723 12.7484 83.8931 12.8769 83.7678 12.8855C81.675 13.0299 80.0196 14.7637 80.0002 16.8885C79.9796 19.1478 81.7821 20.9717 84.0415 20.9767C85.243 20.9793 86.3226 20.4583 87.066 19.6296C87.0382 19.7656 87.0063 19.9008 86.9704 20.035C86.918 20.2253 86.8594 20.4187 86.791 20.6121C86.7573 20.7088 86.7204 20.8055 86.6837 20.9018C86.6441 20.9981 86.608 21.0941 86.5654 21.1893L86.5038 21.3315L86.4389 21.4722C86.396 21.5655 86.3536 21.6577 86.3003 21.7483C86.0883 22.1109 85.7666 22.4494 85.3816 22.7395L85.2391 22.8459C85.217 22.8633 85.1904 22.8804 85.1652 22.8974L85.0904 22.9476L85.0175 22.9965L84.9817 23.0205L84.9432 23.0442L84.7937 23.1353C84.7472 23.1648 84.6937 23.1933 84.645 23.2209C84.595 23.2484 84.5498 23.2749 84.5011 23.3004C84.4009 23.3514 84.3164 23.3982 84.2211 23.4406L83.9786 23.5535C83.9452 23.57 83.9056 23.5851 83.8724 23.5991L83.7803 23.637L83.7075 23.667C83.6869 23.6756 83.6655 23.6829 83.6504 23.6887C83.6364 23.694 83.6244 23.7033 83.6159 23.7156C83.6074 23.7278 83.6028 23.7424 83.6028 23.7573V24.9268C83.6028 24.9673 83.6356 25 83.676 25H91.6302C91.6496 25 91.6682 24.9923 91.6819 24.9786C91.6957 24.9649 91.7034 24.9463 91.7034 24.9268V23.7574C91.7034 23.7269 91.6844 23.6995 91.6558 23.6889C91.6407 23.683 91.6194 23.6757 91.5987 23.6671L91.5259 23.6371L91.4338 23.5992C91.4006 23.5852 91.3609 23.57 91.3276 23.5536L91.0851 23.4407C90.9898 23.3984 90.9053 23.3515 90.8051 23.3005C90.7564 23.275 90.7111 23.2485 90.6612 23.221C90.6125 23.1934 90.559 23.1649 90.5125 23.1355L90.363 23.0443L90.3245 23.0206L90.2887 22.9966L90.2158 22.9477L90.141 22.8975C90.1159 22.8806 90.0892 22.8634 90.0671 22.8461L89.9246 22.7396C89.5396 22.4495 89.2179 22.1111 89.0059 21.7484C88.9525 21.6578 88.9102 21.5656 88.8673 21.4723C88.8456 21.4254 88.824 21.3785 88.8024 21.3316L88.7408 21.1894C88.6981 21.0942 88.662 20.9983 88.6225 20.9019C88.5858 20.8056 88.5489 20.7089 88.5152 20.6122C88.4468 20.4188 88.3881 20.2254 88.3357 20.0351C88.2999 19.9012 88.2681 19.7662 88.2403 19.6304C88.9837 20.4587 90.063 20.9794 91.2642 20.9767Z" fill="#0C5867"/>
<path d="M17.2642 137.977C19.5236 137.972 21.3261 136.148 21.3055 133.889C21.2861 131.764 19.6307 130.03 17.5381 129.886C17.4124 129.877 17.3336 129.748 17.3829 129.632C17.5937 129.135 17.7084 128.588 17.7032 128.013C17.6834 125.823 15.8987 124.03 13.7086 124C11.446 123.97 9.60229 125.795 9.60229 128.051C9.60229 128.612 9.71668 129.147 9.92321 129.633C9.97233 129.748 9.89309 129.877 9.76778 129.886C7.67504 130.03 6.01955 131.764 6.00017 133.889C5.9796 136.148 7.7821 137.972 10.0415 137.977C11.243 137.979 12.3226 137.458 13.066 136.63C13.0382 136.766 13.0063 136.901 12.9704 137.035C12.918 137.225 12.8594 137.419 12.791 137.612C12.7573 137.709 12.7204 137.806 12.6837 137.902C12.6441 137.998 12.608 138.094 12.5654 138.189L12.5038 138.331L12.4389 138.472C12.396 138.566 12.3536 138.658 12.3003 138.748C12.0883 139.111 11.7666 139.449 11.3816 139.739L11.2391 139.846C11.217 139.863 11.1904 139.88 11.1652 139.897L11.0904 139.948L11.0175 139.997L10.9817 140.021L10.9432 140.044L10.7937 140.135C10.7472 140.165 10.6937 140.193 10.645 140.221C10.595 140.248 10.5498 140.275 10.5011 140.3C10.4009 140.351 10.3164 140.398 10.2211 140.441L9.97856 140.554C9.94521 140.57 9.9056 140.585 9.87236 140.599L9.78029 140.637L9.70748 140.667C9.68686 140.676 9.66553 140.683 9.6504 140.689C9.63643 140.694 9.62438 140.703 9.61588 140.716C9.60738 140.728 9.60282 140.742 9.60282 140.757V141.927C9.60282 141.967 9.63556 142 9.67597 142H17.6302C17.6496 142 17.6682 141.992 17.6819 141.979C17.6957 141.965 17.7034 141.946 17.7034 141.927V140.757C17.7034 140.727 17.6844 140.7 17.6558 140.689C17.6407 140.683 17.6194 140.676 17.5987 140.667L17.5259 140.637L17.4338 140.599C17.4006 140.585 17.3609 140.57 17.3276 140.554L17.0851 140.441C16.9898 140.398 16.9053 140.352 16.8051 140.301C16.7564 140.275 16.7111 140.248 16.6612 140.221C16.6125 140.193 16.559 140.165 16.5125 140.135L16.363 140.044L16.3245 140.021L16.2887 139.997L16.2158 139.948L16.141 139.897C16.1159 139.881 16.0892 139.863 16.0671 139.846L15.9246 139.74C15.5396 139.45 15.2179 139.111 15.0059 138.748C14.9525 138.658 14.9102 138.566 14.8673 138.472C14.8456 138.425 14.824 138.378 14.8024 138.332L14.7408 138.189C14.6981 138.094 14.662 137.998 14.6225 137.902C14.5858 137.806 14.5489 137.709 14.5152 137.612C14.4468 137.419 14.3881 137.225 14.3357 137.035C14.2999 136.901 14.2681 136.766 14.2403 136.63C14.9837 137.459 16.063 137.979 17.2642 137.977Z" fill="#0C5867"/>
</svg>
