<svg width="100" height="150" viewBox="0 0 100 150" fill="none" xmlns="http://www.w3.org/2000/svg">
<rect width="100" height="150" rx="10" fill="#D9D9D9"/>
<path d="M16.04 7.06L11.54 21H8.68L12.69 9.42H6.9V7.06H16.04Z" fill="#0C5867"/>
<path d="M91.04 128.06L86.54 142H83.68L87.69 130.42H81.9V128.06H91.04Z" fill="#0C5867"/>
<path d="M32.0189 48.6357C35.0314 48.629 37.4348 46.1971 37.4073 43.1847C37.3815 40.3517 35.1743 38.04 32.3841 37.8474C32.2165 37.8359 32.1115 37.6638 32.1772 37.5092C32.4583 36.847 32.6112 36.1172 32.6043 35.3508C32.5778 32.4305 30.1983 30.0398 27.2781 30.0005C24.2613 29.9599 21.8031 32.3932 21.8031 35.4007C21.8031 36.1493 21.9556 36.8623 22.2309 37.5104C22.2964 37.6646 22.1908 37.8359 22.0237 37.8474C19.2334 38.0398 17.0261 40.3516 17.0002 43.1847C16.9728 46.1971 19.3761 48.629 22.3886 48.6356C23.9907 48.6391 25.4301 47.9445 26.4214 46.8394C26.3842 47.0208 26.3417 47.2011 26.2939 47.3799C26.224 47.6338 26.1459 47.8916 26.0546 48.1495C26.0097 48.2784 25.9605 48.4073 25.9115 48.5358C25.8588 48.6642 25.8107 48.7921 25.7539 48.919L25.6717 49.1086L25.5852 49.2963C25.528 49.4207 25.4715 49.5436 25.4003 49.6644C25.1178 50.1479 24.6889 50.5992 24.1755 50.986L23.9854 51.1279C23.956 51.151 23.9205 51.1739 23.887 51.1965L23.7872 51.2635L23.6899 51.3287L23.6423 51.3607L23.591 51.3922L23.3915 51.5138C23.3296 51.5531 23.2583 51.5911 23.1933 51.6278C23.1267 51.6645 23.0663 51.6999 23.0015 51.7339C22.8678 51.8019 22.7552 51.8643 22.6281 51.9208L22.3047 52.0714C22.2603 52.0933 22.2075 52.1135 22.1632 52.1321L22.0404 52.1827L21.9433 52.2226C21.9158 52.2341 21.8874 52.2438 21.8672 52.2517C21.8486 52.2586 21.8325 52.2711 21.8212 52.2874C21.8098 52.3037 21.8038 52.3232 21.8038 52.343V53.9025C21.8038 53.9563 21.8474 54 21.9013 54H32.507C32.5328 54 32.5576 53.9897 32.5759 53.9714C32.5942 53.9531 32.6045 53.9283 32.6045 53.9025V52.3432C32.6045 52.3025 32.5792 52.266 32.5411 52.2518C32.5209 52.244 32.4925 52.2343 32.465 52.2228L32.3679 52.1828L32.2451 52.1322C32.2008 52.1137 32.1479 52.0934 32.1035 52.0715L31.7801 51.9209C31.6531 51.8645 31.5404 51.802 31.4068 51.7341C31.3419 51.7001 31.2815 51.6647 31.2149 51.628C31.15 51.5913 31.0786 51.5532 31.0167 51.5139L30.8173 51.3924L30.766 51.3608L30.7183 51.3288L30.6211 51.2636L30.5213 51.1967C30.4878 51.1741 30.4523 51.1512 30.4228 51.1281L30.2328 50.9861C29.7195 50.5993 29.2905 50.1481 29.0079 49.6646C28.9367 49.5437 28.8803 49.4208 28.823 49.2964C28.7942 49.2339 28.7653 49.1713 28.7366 49.1088L28.6544 48.9192C28.5975 48.7923 28.5494 48.6643 28.4967 48.5359C28.4478 48.4075 28.3985 48.2786 28.3536 48.1496C28.2624 47.8918 28.1842 47.6339 28.1143 47.3801C28.0666 47.2016 28.0241 47.0216 27.987 46.8406C28.9783 47.945 30.4173 48.6392 32.0189 48.6357Z" fill="#0C5867"/>
<path d="M78.0189 48.6357C81.0314 48.629 83.4348 46.1971 83.4073 43.1847C83.3815 40.3517 81.1743 38.04 78.3841 37.8474C78.2165 37.8359 78.1115 37.6638 78.1772 37.5092C78.4583 36.847 78.6112 36.1172 78.6043 35.3508C78.5778 32.4305 76.1983 30.0398 73.2781 30.0005C70.2613 29.9599 67.8031 32.3932 67.8031 35.4007C67.8031 36.1493 67.9556 36.8623 68.2309 37.5104C68.2964 37.6646 68.1908 37.8359 68.0237 37.8474C65.2334 38.0398 63.0261 40.3516 63.0002 43.1847C62.9728 46.1971 65.3761 48.629 68.3886 48.6356C69.9907 48.6391 71.4301 47.9445 72.4214 46.8394C72.3842 47.0208 72.3417 47.2011 72.2939 47.3799C72.224 47.6338 72.1459 47.8916 72.0546 48.1495C72.0097 48.2784 71.9605 48.4073 71.9115 48.5358C71.8588 48.6642 71.8107 48.7921 71.7539 48.919L71.6717 49.1086L71.5852 49.2963C71.528 49.4207 71.4715 49.5436 71.4003 49.6644C71.1178 50.1479 70.6889 50.5992 70.1755 50.986L69.9854 51.1279C69.956 51.151 69.9205 51.1739 69.887 51.1965L69.7872 51.2635L69.6899 51.3287L69.6423 51.3607L69.591 51.3922L69.3915 51.5138C69.3296 51.5531 69.2583 51.5911 69.1933 51.6278C69.1267 51.6645 69.0663 51.6999 69.0015 51.7339C68.8678 51.8019 68.7552 51.8643 68.6281 51.9208L68.3047 52.0714C68.2603 52.0933 68.2075 52.1135 68.1632 52.1321L68.0404 52.1827L67.9433 52.2226C67.9158 52.2341 67.8874 52.2438 67.8672 52.2517C67.8486 52.2586 67.8325 52.2711 67.8212 52.2874C67.8098 52.3037 67.8038 52.3232 67.8038 52.343V53.9025C67.8038 53.9563 67.8474 54 67.9013 54H78.507C78.5328 54 78.5576 53.9897 78.5759 53.9714C78.5942 53.9531 78.6045 53.9283 78.6045 53.9025V52.3432C78.6045 52.3025 78.5792 52.266 78.5411 52.2518C78.5209 52.244 78.4925 52.2343 78.465 52.2228L78.3679 52.1828L78.2451 52.1322C78.2008 52.1137 78.1479 52.0934 78.1035 52.0715L77.7801 51.9209C77.6531 51.8645 77.5404 51.802 77.4068 51.7341C77.3419 51.7001 77.2815 51.6647 77.2149 51.628C77.15 51.5913 77.0786 51.5532 77.0167 51.5139L76.8173 51.3924L76.766 51.3608L76.7183 51.3288L76.6211 51.2636L76.5213 51.1967C76.4878 51.1741 76.4523 51.1512 76.4228 51.1281L76.2328 50.9861C75.7195 50.5993 75.2905 50.1481 75.0079 49.6646C74.9367 49.5437 74.8803 49.4208 74.823 49.2964C74.7942 49.2339 74.7653 49.1713 74.7366 49.1088L74.6544 48.9192C74.5975 48.7923 74.5494 48.6643 74.4967 48.5359C74.4478 48.4075 74.3985 48.2786 74.3536 48.1496C74.2624 47.8918 74.1842 47.6339 74.1143 47.3801C74.0666 47.2016 74.0241 47.0216 73.987 46.8406C74.9783 47.945 76.4173 48.6392 78.0189 48.6357Z" fill="#0C5867"/>
<path d="M32.0189 81.6357C35.0314 81.629 37.4348 79.1971 37.4073 76.1847C37.3815 73.3517 35.1743 71.04 32.3841 70.8474C32.2165 70.8359 32.1115 70.6638 32.1772 70.5092C32.4583 69.847 32.6112 69.1172 32.6043 68.3508C32.5778 65.4305 30.1983 63.0398 27.2781 63.0005C24.2613 62.9599 21.8031 65.3932 21.8031 68.4007C21.8031 69.1493 21.9556 69.8623 22.2309 70.5104C22.2964 70.6646 22.1908 70.8359 22.0237 70.8474C19.2334 71.0398 17.0261 73.3516 17.0002 76.1847C16.9728 79.1971 19.3761 81.629 22.3886 81.6356C23.9907 81.6391 25.4301 80.9445 26.4214 79.8394C26.3842 80.0208 26.3417 80.2011 26.2939 80.3799C26.224 80.6338 26.1459 80.8916 26.0546 81.1495C26.0097 81.2784 25.9605 81.4073 25.9115 81.5358C25.8588 81.6642 25.8107 81.7921 25.7539 81.919L25.6717 82.1086L25.5852 82.2963C25.528 82.4207 25.4715 82.5436 25.4003 82.6644C25.1178 83.1479 24.6889 83.5992 24.1755 83.986L23.9854 84.1279C23.956 84.151 23.9205 84.1739 23.887 84.1965L23.7872 84.2635L23.6899 84.3287L23.6423 84.3607L23.591 84.3922L23.3915 84.5138C23.3296 84.5531 23.2583 84.5911 23.1933 84.6278C23.1267 84.6645 23.0663 84.6999 23.0015 84.7339C22.8678 84.8019 22.7552 84.8643 22.6281 84.9208L22.3047 85.0714C22.2603 85.0933 22.2075 85.1135 22.1632 85.1321L22.0404 85.1827L21.9433 85.2226C21.9158 85.2341 21.8874 85.2438 21.8672 85.2517C21.8486 85.2586 21.8325 85.2711 21.8212 85.2874C21.8098 85.3037 21.8038 85.3232 21.8038 85.343V86.9025C21.8038 86.9563 21.8474 87 21.9013 87H32.507C32.5328 87 32.5576 86.9897 32.5759 86.9714C32.5942 86.9531 32.6045 86.9283 32.6045 86.9025V85.3432C32.6045 85.3025 32.5792 85.266 32.5411 85.2518C32.5209 85.244 32.4925 85.2343 32.465 85.2228L32.3679 85.1828L32.2451 85.1322C32.2008 85.1137 32.1479 85.0934 32.1035 85.0715L31.7801 84.9209C31.6531 84.8645 31.5404 84.802 31.4068 84.7341C31.3419 84.7001 31.2815 84.6647 31.2149 84.628C31.15 84.5913 31.0786 84.5532 31.0167 84.5139L30.8173 84.3924L30.766 84.3608L30.7183 84.3288L30.6211 84.2636L30.5213 84.1967C30.4878 84.1741 30.4523 84.1512 30.4228 84.1281L30.2328 83.9861C29.7195 83.5993 29.2905 83.1481 29.0079 82.6646C28.9367 82.5437 28.8803 82.4208 28.823 82.2964C28.7942 82.2339 28.7653 82.1713 28.7366 82.1088L28.6544 81.9192C28.5975 81.7923 28.5494 81.6643 28.4967 81.5359C28.4478 81.4075 28.3985 81.2786 28.3536 81.1496C28.2624 80.8918 28.1842 80.6339 28.1143 80.3801C28.0666 80.2016 28.0241 80.0216 27.987 79.8406C28.9783 80.945 30.4173 81.6392 32.0189 81.6357Z" fill="#0C5867"/>
<path d="M78.0189 116.636C81.0314 116.629 83.4348 114.197 83.4073 111.185C83.3815 108.352 81.1743 106.04 78.3841 105.847C78.2165 105.836 78.1115 105.664 78.1772 105.509C78.4583 104.847 78.6112 104.117 78.6043 103.351C78.5778 100.43 76.1983 98.0398 73.2781 98.0005C70.2613 97.9599 67.8031 100.393 67.8031 103.401C67.8031 104.149 67.9556 104.862 68.2309 105.51C68.2964 105.665 68.1908 105.836 68.0237 105.847C65.2334 106.04 63.0261 108.352 63.0002 111.185C62.9728 114.197 65.3761 116.629 68.3886 116.636C69.9907 116.639 71.4301 115.944 72.4214 114.839C72.3842 115.021 72.3417 115.201 72.2939 115.38C72.224 115.634 72.1459 115.892 72.0546 116.149C72.0097 116.278 71.9605 116.407 71.9115 116.536C71.8588 116.664 71.8107 116.792 71.7539 116.919L71.6717 117.109L71.5852 117.296C71.528 117.421 71.4715 117.544 71.4003 117.664C71.1178 118.148 70.6889 118.599 70.1755 118.986L69.9854 119.128C69.956 119.151 69.9205 119.174 69.887 119.197L69.7872 119.263L69.6899 119.329L69.6423 119.361L69.591 119.392L69.3915 119.514C69.3296 119.553 69.2583 119.591 69.1933 119.628C69.1267 119.665 69.0663 119.7 69.0015 119.734C68.8678 119.802 68.7552 119.864 68.6281 119.921L68.3047 120.071C68.2603 120.093 68.2075 120.114 68.1632 120.132L68.0404 120.183L67.9433 120.223C67.9158 120.234 67.8874 120.244 67.8672 120.252C67.8486 120.259 67.8325 120.271 67.8212 120.287C67.8098 120.304 67.8038 120.323 67.8038 120.343V121.902C67.8038 121.956 67.8474 122 67.9013 122H78.507C78.5328 122 78.5576 121.99 78.5759 121.971C78.5942 121.953 78.6045 121.928 78.6045 121.902V120.343C78.6045 120.302 78.5792 120.266 78.5411 120.252C78.5209 120.244 78.4925 120.234 78.465 120.223L78.3679 120.183L78.2451 120.132C78.2008 120.114 78.1479 120.093 78.1035 120.072L77.7801 119.921C77.6531 119.864 77.5404 119.802 77.4068 119.734C77.3419 119.7 77.2815 119.665 77.2149 119.628C77.15 119.591 77.0786 119.553 77.0167 119.514L76.8173 119.392L76.766 119.361L76.7183 119.329L76.6211 119.264L76.5213 119.197C76.4878 119.174 76.4523 119.151 76.4228 119.128L76.2328 118.986C75.7195 118.599 75.2905 118.148 75.0079 117.665C74.9367 117.544 74.8803 117.421 74.823 117.296C74.7942 117.234 74.7653 117.171 74.7366 117.109L74.6544 116.919C74.5975 116.792 74.5494 116.664 74.4967 116.536C74.4478 116.407 74.3985 116.279 74.3536 116.15C74.2624 115.892 74.1842 115.634 74.1143 115.38C74.0666 115.202 74.0241 115.022 73.987 114.841C74.9783 115.945 76.4173 116.639 78.0189 116.636Z" fill="#0C5867"/>
<path d="M78.0189 81.6357C81.0314 81.629 83.4348 79.1971 83.4073 76.1847C83.3815 73.3517 81.1743 71.04 78.3841 70.8474C78.2165 70.8359 78.1115 70.6638 78.1772 70.5092C78.4583 69.847 78.6112 69.1172 78.6043 68.3508C78.5778 65.4305 76.1983 63.0398 73.2781 63.0005C70.2613 62.9599 67.8031 65.3932 67.8031 68.4007C67.8031 69.1493 67.9556 69.8623 68.2309 70.5104C68.2964 70.6646 68.1908 70.8359 68.0237 70.8474C65.2334 71.0398 63.0261 73.3516 63.0002 76.1847C62.9728 79.1971 65.3761 81.629 68.3886 81.6356C69.9907 81.6391 71.4301 80.9445 72.4214 79.8394C72.3842 80.0208 72.3417 80.2011 72.2939 80.3799C72.224 80.6338 72.1459 80.8916 72.0546 81.1495C72.0097 81.2784 71.9605 81.4073 71.9115 81.5358C71.8588 81.6642 71.8107 81.7921 71.7539 81.919L71.6717 82.1086L71.5852 82.2963C71.528 82.4207 71.4715 82.5436 71.4003 82.6644C71.1178 83.1479 70.6889 83.5992 70.1755 83.986L69.9854 84.1279C69.956 84.151 69.9205 84.1739 69.887 84.1965L69.7872 84.2635L69.6899 84.3287L69.6423 84.3607L69.591 84.3922L69.3915 84.5138C69.3296 84.5531 69.2583 84.5911 69.1933 84.6278C69.1267 84.6645 69.0663 84.6999 69.0015 84.7339C68.8678 84.8019 68.7552 84.8643 68.6281 84.9208L68.3047 85.0714C68.2603 85.0933 68.2075 85.1135 68.1632 85.1321L68.0404 85.1827L67.9433 85.2226C67.9158 85.2341 67.8874 85.2438 67.8672 85.2517C67.8486 85.2586 67.8325 85.2711 67.8212 85.2874C67.8098 85.3037 67.8038 85.3232 67.8038 85.343V86.9025C67.8038 86.9563 67.8474 87 67.9013 87H78.507C78.5328 87 78.5576 86.9897 78.5759 86.9714C78.5942 86.9531 78.6045 86.9283 78.6045 86.9025V85.3432C78.6045 85.3025 78.5792 85.266 78.5411 85.2518C78.5209 85.244 78.4925 85.2343 78.465 85.2228L78.3679 85.1828L78.2451 85.1322C78.2008 85.1137 78.1479 85.0934 78.1035 85.0715L77.7801 84.9209C77.6531 84.8645 77.5404 84.802 77.4068 84.7341C77.3419 84.7001 77.2815 84.6647 77.2149 84.628C77.15 84.5913 77.0786 84.5532 77.0167 84.5139L76.8173 84.3924L76.766 84.3608L76.7183 84.3288L76.6211 84.2636L76.5213 84.1967C76.4878 84.1741 76.4523 84.1512 76.4228 84.1281L76.2328 83.9861C75.7195 83.5993 75.2905 83.1481 75.0079 82.6646C74.9367 82.5437 74.8803 82.4208 74.823 82.2964C74.7942 82.2339 74.7653 82.1713 74.7366 82.1088L74.6544 81.9192C74.5975 81.7923 74.5494 81.6643 74.4967 81.5359C74.4478 81.4075 74.3985 81.2786 74.3536 81.1496C74.2624 80.8918 74.1842 80.6339 74.1143 80.3801C74.0666 80.2016 74.0241 80.0216 73.987 79.8406C74.9783 80.945 76.4173 81.6392 78.0189 81.6357Z" fill="#0C5867"/>
<path d="M55.0189 66.6357C58.0314 66.629 60.4348 64.1971 60.4073 61.1847C60.3815 58.3517 58.1743 56.04 55.3841 55.8474C55.2165 55.8359 55.1115 55.6638 55.1772 55.5092C55.4583 54.847 55.6112 54.1172 55.6043 53.3508C55.5778 50.4305 53.1983 48.0398 50.2781 48.0005C47.2613 47.9599 44.8031 50.3932 44.8031 53.4007C44.8031 54.1493 44.9556 54.8623 45.2309 55.5104C45.2964 55.6646 45.1908 55.8359 45.0237 55.8474C42.2334 56.0398 40.0261 58.3516 40.0002 61.1847C39.9728 64.1971 42.3761 66.629 45.3886 66.6356C46.9907 66.6391 48.4301 65.9445 49.4214 64.8394C49.3842 65.0208 49.3417 65.2011 49.2939 65.3799C49.224 65.6338 49.1459 65.8916 49.0546 66.1495C49.0097 66.2784 48.9605 66.4073 48.9115 66.5358C48.8588 66.6642 48.8107 66.7921 48.7539 66.919L48.6717 67.1086L48.5852 67.2963C48.528 67.4207 48.4715 67.5436 48.4003 67.6644C48.1178 68.1479 47.6889 68.5992 47.1755 68.986L46.9854 69.1279C46.956 69.151 46.9205 69.1739 46.887 69.1965L46.7872 69.2635L46.6899 69.3287L46.6423 69.3607L46.591 69.3922L46.3915 69.5138C46.3296 69.5531 46.2583 69.5911 46.1933 69.6278C46.1267 69.6645 46.0663 69.6999 46.0015 69.7339C45.8678 69.8019 45.7552 69.8643 45.6281 69.9208L45.3047 70.0714C45.2603 70.0933 45.2075 70.1135 45.1632 70.1321L45.0404 70.1827L44.9433 70.2226C44.9158 70.2341 44.8874 70.2438 44.8672 70.2517C44.8486 70.2586 44.8325 70.2711 44.8212 70.2874C44.8098 70.3037 44.8038 70.3232 44.8038 70.343V71.9025C44.8038 71.9563 44.8474 72 44.9013 72H55.507C55.5328 72 55.5576 71.9897 55.5759 71.9714C55.5942 71.9531 55.6045 71.9283 55.6045 71.9025V70.3432C55.6045 70.3025 55.5792 70.266 55.5411 70.2518C55.5209 70.244 55.4925 70.2343 55.465 70.2228L55.3679 70.1828L55.2451 70.1322C55.2008 70.1137 55.1479 70.0934 55.1035 70.0715L54.7801 69.9209C54.6531 69.8645 54.5404 69.802 54.4068 69.7341C54.3419 69.7001 54.2815 69.6647 54.2149 69.628C54.15 69.5913 54.0786 69.5532 54.0167 69.5139L53.8173 69.3924L53.766 69.3608L53.7183 69.3288L53.6211 69.2636L53.5213 69.1967C53.4878 69.1741 53.4523 69.1512 53.4228 69.1281L53.2328 68.9861C52.7195 68.5993 52.2905 68.1481 52.0079 67.6646C51.9367 67.5437 51.8803 67.4208 51.823 67.2964C51.7942 67.2339 51.7653 67.1713 51.7366 67.1088L51.6544 66.9192C51.5975 66.7923 51.5494 66.6643 51.4967 66.5359C51.4478 66.4075 51.3985 66.2786 51.3536 66.1496C51.2624 65.8918 51.1842 65.6339 51.1143 65.3801C51.0666 65.2016 51.0241 65.0216 50.987 64.8406C51.9783 65.945 53.4173 66.6392 55.0189 66.6357Z" fill="#0C5867"/>
<path d="M32.0189 116.636C35.0314 116.629 37.4348 114.197 37.4073 111.185C37.3815 108.352 35.1743 106.04 32.3841 105.847C32.2165 105.836 32.1115 105.664 32.1772 105.509C32.4583 104.847 32.6112 104.117 32.6043 103.351C32.5778 100.43 30.1983 98.0398 27.2781 98.0005C24.2613 97.9599 21.8031 100.393 21.8031 103.401C21.8031 104.149 21.9556 104.862 22.2309 105.51C22.2964 105.665 22.1908 105.836 22.0237 105.847C19.2334 106.04 17.0261 108.352 17.0002 111.185C16.9728 114.197 19.3761 116.629 22.3886 116.636C23.9907 116.639 25.4301 115.944 26.4214 114.839C26.3842 115.021 26.3417 115.201 26.2939 115.38C26.224 115.634 26.1459 115.892 26.0546 116.149C26.0097 116.278 25.9605 116.407 25.9115 116.536C25.8588 116.664 25.8107 116.792 25.7539 116.919L25.6717 117.109L25.5852 117.296C25.528 117.421 25.4715 117.544 25.4003 117.664C25.1178 118.148 24.6889 118.599 24.1755 118.986L23.9854 119.128C23.956 119.151 23.9205 119.174 23.887 119.197L23.7872 119.263L23.6899 119.329L23.6423 119.361L23.591 119.392L23.3915 119.514C23.3296 119.553 23.2583 119.591 23.1933 119.628C23.1267 119.665 23.0663 119.7 23.0015 119.734C22.8678 119.802 22.7552 119.864 22.6281 119.921L22.3047 120.071C22.2603 120.093 22.2075 120.114 22.1632 120.132L22.0404 120.183L21.9433 120.223C21.9158 120.234 21.8874 120.244 21.8672 120.252C21.8486 120.259 21.8325 120.271 21.8212 120.287C21.8098 120.304 21.8038 120.323 21.8038 120.343V121.902C21.8038 121.956 21.8474 122 21.9013 122H32.507C32.5328 122 32.5576 121.99 32.5759 121.971C32.5942 121.953 32.6045 121.928 32.6045 121.902V120.343C32.6045 120.302 32.5792 120.266 32.5411 120.252C32.5209 120.244 32.4925 120.234 32.465 120.223L32.3679 120.183L32.2451 120.132C32.2008 120.114 32.1479 120.093 32.1035 120.072L31.7801 119.921C31.6531 119.864 31.5404 119.802 31.4068 119.734C31.3419 119.7 31.2815 119.665 31.2149 119.628C31.15 119.591 31.0786 119.553 31.0167 119.514L30.8173 119.392L30.766 119.361L30.7183 119.329L30.6211 119.264L30.5213 119.197C30.4878 119.174 30.4523 119.151 30.4228 119.128L30.2328 118.986C29.7195 118.599 29.2905 118.148 29.0079 117.665C28.9367 117.544 28.8803 117.421 28.823 117.296C28.7942 117.234 28.7653 117.171 28.7366 117.109L28.6544 116.919C28.5975 116.792 28.5494 116.664 28.4967 116.536C28.4478 116.407 28.3985 116.279 28.3536 116.15C28.2624 115.892 28.1842 115.634 28.1143 115.38C28.0666 115.202 28.0241 115.022 27.987 114.841C28.9783 115.945 30.4173 116.639 32.0189 116.636Z" fill="#0C5867"/>
</svg>
