<svg width="100" height="150" viewBox="0 0 100 150" fill="none" xmlns="http://www.w3.org/2000/svg">
<rect width="100" height="150" rx="10" fill="#D9D9D9"/>
<path d="M12.48 21.3C11.5333 21.3 10.66 21.07 9.86 20.61C9.06 20.1433 8.41 19.3867 7.91 18.34C7.41 17.2933 7.16 15.94 7.16 14.28C7.16 12.7533 7.42 11.42 7.94 10.28C8.46 9.13333 9.18 8.25333 10.1 7.64C11.02 7.02667 12.0667 6.72 13.24 6.72C14.1267 6.72 14.83 6.80667 15.35 6.98C15.8767 7.15333 16.3133 7.40667 16.66 7.74L15.68 9.66C15.4333 9.39333 15.0967 9.2 14.67 9.08C14.2433 8.96 13.8133 8.9 13.38 8.9C12.72 8.9 12.13 9.10333 11.61 9.51C11.09 9.91 10.68 10.4333 10.38 11.08C10.08 11.72 9.90667 12.3933 9.86 13.1C9.84667 13.2867 9.84 13.5333 9.84 13.84C10.1867 13.18 10.68 12.6867 11.32 12.36C11.96 12.0267 12.6667 11.86 13.44 11.86C14.3133 11.86 15.0633 12.0567 15.69 12.45C16.3233 12.8367 16.8033 13.3633 17.13 14.03C17.4567 14.6967 17.62 15.44 17.62 16.26C17.62 17.2733 17.4067 18.16 16.98 18.92C16.5533 19.68 15.95 20.2667 15.17 20.68C14.3967 21.0933 13.5 21.3 12.48 21.3ZM12.62 19.24C13.0467 19.24 13.4367 19.13 13.79 18.91C14.1433 18.69 14.4233 18.3733 14.63 17.96C14.8367 17.54 14.94 17.0533 14.94 16.5C14.94 15.6933 14.7633 15.06 14.41 14.6C14.0633 14.1333 13.54 13.9 12.84 13.9C12.4067 13.9 11.9867 14.01 11.58 14.23C11.1733 14.4433 10.8367 14.7333 10.57 15.1C10.31 15.4667 10.1667 15.86 10.14 16.28C10.14 16.8133 10.24 17.3067 10.44 17.76C10.64 18.2067 10.9267 18.5667 11.3 18.84C11.68 19.1067 12.12 19.24 12.62 19.24Z" fill="#0C5867"/>
<path d="M87.48 142.3C86.5333 142.3 85.66 142.07 84.86 141.61C84.06 141.143 83.41 140.387 82.91 139.34C82.41 138.293 82.16 136.94 82.16 135.28C82.16 133.753 82.42 132.42 82.94 131.28C83.46 130.133 84.18 129.253 85.1 128.64C86.02 128.027 87.0667 127.72 88.24 127.72C89.1267 127.72 89.83 127.807 90.35 127.98C90.8767 128.153 91.3133 128.407 91.66 128.74L90.68 130.66C90.4333 130.393 90.0967 130.2 89.67 130.08C89.2433 129.96 88.8133 129.9 88.38 129.9C87.72 129.9 87.13 130.103 86.61 130.51C86.09 130.91 85.68 131.433 85.38 132.08C85.08 132.72 84.9067 133.393 84.86 134.1C84.8467 134.287 84.84 134.533 84.84 134.84C85.1867 134.18 85.68 133.687 86.32 133.36C86.96 133.027 87.6667 132.86 88.44 132.86C89.3133 132.86 90.0633 133.057 90.69 133.45C91.3233 133.837 91.8033 134.363 92.13 135.03C92.4567 135.697 92.62 136.44 92.62 137.26C92.62 138.273 92.4067 139.16 91.98 139.92C91.5533 140.68 90.95 141.267 90.17 141.68C89.3967 142.093 88.5 142.3 87.48 142.3ZM87.62 140.24C88.0467 140.24 88.4367 140.13 88.79 139.91C89.1433 139.69 89.4233 139.373 89.63 138.96C89.8367 138.54 89.94 138.053 89.94 137.5C89.94 136.693 89.7633 136.06 89.41 135.6C89.0633 135.133 88.54 134.9 87.84 134.9C87.4067 134.9 86.9867 135.01 86.58 135.23C86.1733 135.443 85.8367 135.733 85.57 136.1C85.31 136.467 85.1667 136.86 85.14 137.28C85.14 137.813 85.24 138.307 85.44 138.76C85.64 139.207 85.9267 139.567 86.3 139.84C86.68 140.107 87.12 140.24 87.62 140.24Z" fill="#0C5867"/>
<path d="M33.0189 48.6357C36.0314 48.629 38.4348 46.1971 38.4073 43.1847C38.3815 40.3517 36.1743 38.04 33.3841 37.8474C33.2165 37.8359 33.1115 37.6638 33.1772 37.5092C33.4583 36.847 33.6112 36.1172 33.6043 35.3508C33.5778 32.4305 31.1983 30.0398 28.2781 30.0005C25.2613 29.9599 22.8031 32.3932 22.8031 35.4007C22.8031 36.1493 22.9556 36.8623 23.2309 37.5104C23.2964 37.6646 23.1908 37.8359 23.0237 37.8474C20.2334 38.0398 18.0261 40.3516 18.0002 43.1847C17.9728 46.1971 20.3761 48.629 23.3886 48.6356C24.9907 48.6391 26.4301 47.9445 27.4214 46.8394C27.3842 47.0208 27.3417 47.2011 27.2939 47.3799C27.224 47.6338 27.1459 47.8916 27.0546 48.1495C27.0097 48.2784 26.9605 48.4073 26.9115 48.5358C26.8588 48.6642 26.8107 48.7921 26.7539 48.919L26.6717 49.1086L26.5852 49.2963C26.528 49.4207 26.4715 49.5436 26.4003 49.6644C26.1178 50.1479 25.6889 50.5992 25.1755 50.986L24.9854 51.1279C24.956 51.151 24.9205 51.1739 24.887 51.1965L24.7872 51.2635L24.6899 51.3287L24.6423 51.3607L24.591 51.3922L24.3915 51.5138C24.3296 51.5531 24.2583 51.5911 24.1933 51.6278C24.1267 51.6645 24.0663 51.6999 24.0015 51.7339C23.8678 51.8019 23.7552 51.8643 23.6281 51.9208L23.3047 52.0714C23.2603 52.0933 23.2075 52.1135 23.1632 52.1321L23.0404 52.1827L22.9433 52.2226C22.9158 52.2341 22.8874 52.2438 22.8672 52.2517C22.8486 52.2586 22.8325 52.2711 22.8212 52.2874C22.8098 52.3037 22.8038 52.3232 22.8038 52.343V53.9025C22.8038 53.9563 22.8474 54 22.9013 54H33.507C33.5328 54 33.5576 53.9897 33.5759 53.9714C33.5942 53.9531 33.6045 53.9283 33.6045 53.9025V52.3432C33.6045 52.3025 33.5792 52.266 33.5411 52.2518C33.5209 52.244 33.4925 52.2343 33.465 52.2228L33.3679 52.1828L33.2451 52.1322C33.2008 52.1137 33.1479 52.0934 33.1035 52.0715L32.7801 51.9209C32.6531 51.8645 32.5404 51.802 32.4068 51.7341C32.3419 51.7001 32.2815 51.6647 32.2149 51.628C32.15 51.5913 32.0786 51.5532 32.0167 51.5139L31.8173 51.3924L31.766 51.3608L31.7183 51.3288L31.6211 51.2636L31.5213 51.1967C31.4878 51.1741 31.4523 51.1512 31.4228 51.1281L31.2328 50.9861C30.7195 50.5993 30.2905 50.1481 30.0079 49.6646C29.9367 49.5437 29.8803 49.4208 29.823 49.2964C29.7942 49.2339 29.7653 49.1713 29.7366 49.1088L29.6544 48.9192C29.5975 48.7923 29.5494 48.6643 29.4967 48.5359C29.4478 48.4075 29.3985 48.2786 29.3536 48.1496C29.2624 47.8918 29.1842 47.6339 29.1143 47.3801C29.0666 47.2016 29.0241 47.0216 28.987 46.8406C29.9783 47.945 31.4173 48.6392 33.0189 48.6357Z" fill="#0C5867"/>
<path d="M79.0189 48.6357C82.0314 48.629 84.4348 46.1971 84.4073 43.1847C84.3815 40.3517 82.1743 38.04 79.3841 37.8474C79.2165 37.8359 79.1115 37.6638 79.1772 37.5092C79.4583 36.847 79.6112 36.1172 79.6043 35.3508C79.5778 32.4305 77.1983 30.0398 74.2781 30.0005C71.2613 29.9599 68.8031 32.3932 68.8031 35.4007C68.8031 36.1493 68.9556 36.8623 69.2309 37.5104C69.2964 37.6646 69.1908 37.8359 69.0237 37.8474C66.2334 38.0398 64.0261 40.3516 64.0002 43.1847C63.9728 46.1971 66.3761 48.629 69.3886 48.6356C70.9907 48.6391 72.4301 47.9445 73.4214 46.8394C73.3842 47.0208 73.3417 47.2011 73.2939 47.3799C73.224 47.6338 73.1459 47.8916 73.0546 48.1495C73.0097 48.2784 72.9605 48.4073 72.9115 48.5358C72.8588 48.6642 72.8107 48.7921 72.7539 48.919L72.6717 49.1086L72.5852 49.2963C72.528 49.4207 72.4715 49.5436 72.4003 49.6644C72.1178 50.1479 71.6889 50.5992 71.1755 50.986L70.9854 51.1279C70.956 51.151 70.9205 51.1739 70.887 51.1965L70.7872 51.2635L70.6899 51.3287L70.6423 51.3607L70.591 51.3922L70.3915 51.5138C70.3296 51.5531 70.2583 51.5911 70.1933 51.6278C70.1267 51.6645 70.0663 51.6999 70.0015 51.7339C69.8678 51.8019 69.7552 51.8643 69.6281 51.9208L69.3047 52.0714C69.2603 52.0933 69.2075 52.1135 69.1632 52.1321L69.0404 52.1827L68.9433 52.2226C68.9158 52.2341 68.8874 52.2438 68.8672 52.2517C68.8486 52.2586 68.8325 52.2711 68.8212 52.2874C68.8098 52.3037 68.8038 52.3232 68.8038 52.343V53.9025C68.8038 53.9563 68.8474 54 68.9013 54H79.507C79.5328 54 79.5576 53.9897 79.5759 53.9714C79.5942 53.9531 79.6045 53.9283 79.6045 53.9025V52.3432C79.6045 52.3025 79.5792 52.266 79.5411 52.2518C79.5209 52.244 79.4925 52.2343 79.465 52.2228L79.3679 52.1828L79.2451 52.1322C79.2008 52.1137 79.1479 52.0934 79.1035 52.0715L78.7801 51.9209C78.6531 51.8645 78.5404 51.802 78.4068 51.7341C78.3419 51.7001 78.2815 51.6647 78.2149 51.628C78.15 51.5913 78.0786 51.5532 78.0167 51.5139L77.8173 51.3924L77.766 51.3608L77.7183 51.3288L77.6211 51.2636L77.5213 51.1967C77.4878 51.1741 77.4523 51.1512 77.4228 51.1281L77.2328 50.9861C76.7195 50.5993 76.2905 50.1481 76.0079 49.6646C75.9367 49.5437 75.8803 49.4208 75.823 49.2964C75.7942 49.2339 75.7653 49.1713 75.7366 49.1088L75.6544 48.9192C75.5975 48.7923 75.5494 48.6643 75.4967 48.5359C75.4478 48.4075 75.3985 48.2786 75.3536 48.1496C75.2624 47.8918 75.1842 47.6339 75.1143 47.3801C75.0666 47.2016 75.0241 47.0216 74.987 46.8406C75.9783 47.945 77.4173 48.6392 79.0189 48.6357Z" fill="#0C5867"/>
<path d="M33.0189 81.6357C36.0314 81.629 38.4348 79.1971 38.4073 76.1847C38.3815 73.3517 36.1743 71.04 33.3841 70.8474C33.2165 70.8359 33.1115 70.6638 33.1772 70.5092C33.4583 69.847 33.6112 69.1172 33.6043 68.3508C33.5778 65.4305 31.1983 63.0398 28.2781 63.0005C25.2613 62.9599 22.8031 65.3932 22.8031 68.4007C22.8031 69.1493 22.9556 69.8623 23.2309 70.5104C23.2964 70.6646 23.1908 70.8359 23.0237 70.8474C20.2334 71.0398 18.0261 73.3516 18.0002 76.1847C17.9728 79.1971 20.3761 81.629 23.3886 81.6356C24.9907 81.6391 26.4301 80.9445 27.4214 79.8394C27.3842 80.0208 27.3417 80.2011 27.2939 80.3799C27.224 80.6338 27.1459 80.8916 27.0546 81.1495C27.0097 81.2784 26.9605 81.4073 26.9115 81.5358C26.8588 81.6642 26.8107 81.7921 26.7539 81.919L26.6717 82.1086L26.5852 82.2963C26.528 82.4207 26.4715 82.5436 26.4003 82.6644C26.1178 83.1479 25.6889 83.5992 25.1755 83.986L24.9854 84.1279C24.956 84.151 24.9205 84.1739 24.887 84.1965L24.7872 84.2635L24.6899 84.3287L24.6423 84.3607L24.591 84.3922L24.3915 84.5138C24.3296 84.5531 24.2583 84.5911 24.1933 84.6278C24.1267 84.6645 24.0663 84.6999 24.0015 84.7339C23.8678 84.8019 23.7552 84.8643 23.6281 84.9208L23.3047 85.0714C23.2603 85.0933 23.2075 85.1135 23.1632 85.1321L23.0404 85.1827L22.9433 85.2226C22.9158 85.2341 22.8874 85.2438 22.8672 85.2517C22.8486 85.2586 22.8325 85.2711 22.8212 85.2874C22.8098 85.3037 22.8038 85.3232 22.8038 85.343V86.9025C22.8038 86.9563 22.8474 87 22.9013 87H33.507C33.5328 87 33.5576 86.9897 33.5759 86.9714C33.5942 86.9531 33.6045 86.9283 33.6045 86.9025V85.3432C33.6045 85.3025 33.5792 85.266 33.5411 85.2518C33.5209 85.244 33.4925 85.2343 33.465 85.2228L33.3679 85.1828L33.2451 85.1322C33.2008 85.1137 33.1479 85.0934 33.1035 85.0715L32.7801 84.9209C32.6531 84.8645 32.5404 84.802 32.4068 84.7341C32.3419 84.7001 32.2815 84.6647 32.2149 84.628C32.15 84.5913 32.0786 84.5532 32.0167 84.5139L31.8173 84.3924L31.766 84.3608L31.7183 84.3288L31.6211 84.2636L31.5213 84.1967C31.4878 84.1741 31.4523 84.1512 31.4228 84.1281L31.2328 83.9861C30.7195 83.5993 30.2905 83.1481 30.0079 82.6646C29.9367 82.5437 29.8803 82.4208 29.823 82.2964C29.7942 82.2339 29.7653 82.1713 29.7366 82.1088L29.6544 81.9192C29.5975 81.7923 29.5494 81.6643 29.4967 81.5359C29.4478 81.4075 29.3985 81.2786 29.3536 81.1496C29.2624 80.8918 29.1842 80.6339 29.1143 80.3801C29.0666 80.2016 29.0241 80.0216 28.987 79.8406C29.9783 80.945 31.4173 81.6392 33.0189 81.6357Z" fill="#0C5867"/>
<path d="M79.0189 116.636C82.0314 116.629 84.4348 114.197 84.4073 111.185C84.3815 108.352 82.1743 106.04 79.3841 105.847C79.2165 105.836 79.1115 105.664 79.1772 105.509C79.4583 104.847 79.6112 104.117 79.6043 103.351C79.5778 100.43 77.1983 98.0398 74.2781 98.0005C71.2613 97.9599 68.8031 100.393 68.8031 103.401C68.8031 104.149 68.9556 104.862 69.2309 105.51C69.2964 105.665 69.1908 105.836 69.0237 105.847C66.2334 106.04 64.0261 108.352 64.0002 111.185C63.9728 114.197 66.3761 116.629 69.3886 116.636C70.9907 116.639 72.4301 115.944 73.4214 114.839C73.3842 115.021 73.3417 115.201 73.2939 115.38C73.224 115.634 73.1459 115.892 73.0546 116.149C73.0097 116.278 72.9605 116.407 72.9115 116.536C72.8588 116.664 72.8107 116.792 72.7539 116.919L72.6717 117.109L72.5852 117.296C72.528 117.421 72.4715 117.544 72.4003 117.664C72.1178 118.148 71.6889 118.599 71.1755 118.986L70.9854 119.128C70.956 119.151 70.9205 119.174 70.887 119.197L70.7872 119.263L70.6899 119.329L70.6423 119.361L70.591 119.392L70.3915 119.514C70.3296 119.553 70.2583 119.591 70.1933 119.628C70.1267 119.665 70.0663 119.7 70.0015 119.734C69.8678 119.802 69.7552 119.864 69.6281 119.921L69.3047 120.071C69.2603 120.093 69.2075 120.114 69.1632 120.132L69.0404 120.183L68.9433 120.223C68.9158 120.234 68.8874 120.244 68.8672 120.252C68.8486 120.259 68.8325 120.271 68.8212 120.287C68.8098 120.304 68.8038 120.323 68.8038 120.343V121.902C68.8038 121.956 68.8474 122 68.9013 122H79.507C79.5328 122 79.5576 121.99 79.5759 121.971C79.5942 121.953 79.6045 121.928 79.6045 121.902V120.343C79.6045 120.302 79.5792 120.266 79.5411 120.252C79.5209 120.244 79.4925 120.234 79.465 120.223L79.3679 120.183L79.2451 120.132C79.2008 120.114 79.1479 120.093 79.1035 120.072L78.7801 119.921C78.6531 119.864 78.5404 119.802 78.4068 119.734C78.3419 119.7 78.2815 119.665 78.2149 119.628C78.15 119.591 78.0786 119.553 78.0167 119.514L77.8173 119.392L77.766 119.361L77.7183 119.329L77.6211 119.264L77.5213 119.197C77.4878 119.174 77.4523 119.151 77.4228 119.128L77.2328 118.986C76.7195 118.599 76.2905 118.148 76.0079 117.665C75.9367 117.544 75.8803 117.421 75.823 117.296C75.7942 117.234 75.7653 117.171 75.7366 117.109L75.6544 116.919C75.5975 116.792 75.5494 116.664 75.4967 116.536C75.4478 116.407 75.3985 116.279 75.3536 116.15C75.2624 115.892 75.1842 115.634 75.1143 115.38C75.0666 115.202 75.0241 115.022 74.987 114.841C75.9783 115.945 77.4173 116.639 79.0189 116.636Z" fill="#0C5867"/>
<path d="M79.0189 81.6357C82.0314 81.629 84.4348 79.1971 84.4073 76.1847C84.3815 73.3517 82.1743 71.04 79.3841 70.8474C79.2165 70.8359 79.1115 70.6638 79.1772 70.5092C79.4583 69.847 79.6112 69.1172 79.6043 68.3508C79.5778 65.4305 77.1983 63.0398 74.2781 63.0005C71.2613 62.9599 68.8031 65.3932 68.8031 68.4007C68.8031 69.1493 68.9556 69.8623 69.2309 70.5104C69.2964 70.6646 69.1908 70.8359 69.0237 70.8474C66.2334 71.0398 64.0261 73.3516 64.0002 76.1847C63.9728 79.1971 66.3761 81.629 69.3886 81.6356C70.9907 81.6391 72.4301 80.9445 73.4214 79.8394C73.3842 80.0208 73.3417 80.2011 73.2939 80.3799C73.224 80.6338 73.1459 80.8916 73.0546 81.1495C73.0097 81.2784 72.9605 81.4073 72.9115 81.5358C72.8588 81.6642 72.8107 81.7921 72.7539 81.919L72.6717 82.1086L72.5852 82.2963C72.528 82.4207 72.4715 82.5436 72.4003 82.6644C72.1178 83.1479 71.6889 83.5992 71.1755 83.986L70.9854 84.1279C70.956 84.151 70.9205 84.1739 70.887 84.1965L70.7872 84.2635L70.6899 84.3287L70.6423 84.3607L70.591 84.3922L70.3915 84.5138C70.3296 84.5531 70.2583 84.5911 70.1933 84.6278C70.1267 84.6645 70.0663 84.6999 70.0015 84.7339C69.8678 84.8019 69.7552 84.8643 69.6281 84.9208L69.3047 85.0714C69.2603 85.0933 69.2075 85.1135 69.1632 85.1321L69.0404 85.1827L68.9433 85.2226C68.9158 85.2341 68.8874 85.2438 68.8672 85.2517C68.8486 85.2586 68.8325 85.2711 68.8212 85.2874C68.8098 85.3037 68.8038 85.3232 68.8038 85.343V86.9025C68.8038 86.9563 68.8474 87 68.9013 87H79.507C79.5328 87 79.5576 86.9897 79.5759 86.9714C79.5942 86.9531 79.6045 86.9283 79.6045 86.9025V85.3432C79.6045 85.3025 79.5792 85.266 79.5411 85.2518C79.5209 85.244 79.4925 85.2343 79.465 85.2228L79.3679 85.1828L79.2451 85.1322C79.2008 85.1137 79.1479 85.0934 79.1035 85.0715L78.7801 84.9209C78.6531 84.8645 78.5404 84.802 78.4068 84.7341C78.3419 84.7001 78.2815 84.6647 78.2149 84.628C78.15 84.5913 78.0786 84.5532 78.0167 84.5139L77.8173 84.3924L77.766 84.3608L77.7183 84.3288L77.6211 84.2636L77.5213 84.1967C77.4878 84.1741 77.4523 84.1512 77.4228 84.1281L77.2328 83.9861C76.7195 83.5993 76.2905 83.1481 76.0079 82.6646C75.9367 82.5437 75.8803 82.4208 75.823 82.2964C75.7942 82.2339 75.7653 82.1713 75.7366 82.1088L75.6544 81.9192C75.5975 81.7923 75.5494 81.6643 75.4967 81.5359C75.4478 81.4075 75.3985 81.2786 75.3536 81.1496C75.2624 80.8918 75.1842 80.6339 75.1143 80.3801C75.0666 80.2016 75.0241 80.0216 74.987 79.8406C75.9783 80.945 77.4173 81.6392 79.0189 81.6357Z" fill="#0C5867"/>
<path d="M33.0189 116.636C36.0314 116.629 38.4348 114.197 38.4073 111.185C38.3815 108.352 36.1743 106.04 33.3841 105.847C33.2165 105.836 33.1115 105.664 33.1772 105.509C33.4583 104.847 33.6112 104.117 33.6043 103.351C33.5778 100.43 31.1983 98.0398 28.2781 98.0005C25.2613 97.9599 22.8031 100.393 22.8031 103.401C22.8031 104.149 22.9556 104.862 23.2309 105.51C23.2964 105.665 23.1908 105.836 23.0237 105.847C20.2334 106.04 18.0261 108.352 18.0002 111.185C17.9728 114.197 20.3761 116.629 23.3886 116.636C24.9907 116.639 26.4301 115.944 27.4214 114.839C27.3842 115.021 27.3417 115.201 27.2939 115.38C27.224 115.634 27.1459 115.892 27.0546 116.149C27.0097 116.278 26.9605 116.407 26.9115 116.536C26.8588 116.664 26.8107 116.792 26.7539 116.919L26.6717 117.109L26.5852 117.296C26.528 117.421 26.4715 117.544 26.4003 117.664C26.1178 118.148 25.6889 118.599 25.1755 118.986L24.9854 119.128C24.956 119.151 24.9205 119.174 24.887 119.197L24.7872 119.263L24.6899 119.329L24.6423 119.361L24.591 119.392L24.3915 119.514C24.3296 119.553 24.2583 119.591 24.1933 119.628C24.1267 119.665 24.0663 119.7 24.0015 119.734C23.8678 119.802 23.7552 119.864 23.6281 119.921L23.3047 120.071C23.2603 120.093 23.2075 120.114 23.1632 120.132L23.0404 120.183L22.9433 120.223C22.9158 120.234 22.8874 120.244 22.8672 120.252C22.8486 120.259 22.8325 120.271 22.8212 120.287C22.8098 120.304 22.8038 120.323 22.8038 120.343V121.902C22.8038 121.956 22.8474 122 22.9013 122H33.507C33.5328 122 33.5576 121.99 33.5759 121.971C33.5942 121.953 33.6045 121.928 33.6045 121.902V120.343C33.6045 120.302 33.5792 120.266 33.5411 120.252C33.5209 120.244 33.4925 120.234 33.465 120.223L33.3679 120.183L33.2451 120.132C33.2008 120.114 33.1479 120.093 33.1035 120.072L32.7801 119.921C32.6531 119.864 32.5404 119.802 32.4068 119.734C32.3419 119.7 32.2815 119.665 32.2149 119.628C32.15 119.591 32.0786 119.553 32.0167 119.514L31.8173 119.392L31.766 119.361L31.7183 119.329L31.6211 119.264L31.5213 119.197C31.4878 119.174 31.4523 119.151 31.4228 119.128L31.2328 118.986C30.7195 118.599 30.2905 118.148 30.0079 117.665C29.9367 117.544 29.8803 117.421 29.823 117.296C29.7942 117.234 29.7653 117.171 29.7366 117.109L29.6544 116.919C29.5975 116.792 29.5494 116.664 29.4967 116.536C29.4478 116.407 29.3985 116.279 29.3536 116.15C29.2624 115.892 29.1842 115.634 29.1143 115.38C29.0666 115.202 29.0241 115.022 28.987 114.841C29.9783 115.945 31.4173 116.639 33.0189 116.636Z" fill="#0C5867"/>
</svg>
