<svg width="100" height="150" viewBox="0 0 100 150" fill="none" xmlns="http://www.w3.org/2000/svg">
<rect width="100" height="150" rx="10" fill="#D9D9D9"/>
<path d="M7.78 7.96L10.48 6.7V21H7.78V7.96ZM18.0695 21.36C16.3295 21.36 15.0462 20.71 14.2195 19.41C13.3995 18.11 12.9895 16.3267 12.9895 14.06C12.9895 11.6067 13.4262 9.77 14.2995 8.55C15.1729 7.33 16.4295 6.72 18.0695 6.72C19.7095 6.72 20.9662 7.33 21.8395 8.55C22.7129 9.77 23.1495 11.6067 23.1495 14.06C23.1495 16.3267 22.7362 18.11 21.9095 19.41C21.0895 20.71 19.8095 21.36 18.0695 21.36ZM18.0895 19.22C19.5962 19.22 20.3495 17.4933 20.3495 14.04C20.3495 10.56 19.5962 8.82 18.0895 8.82C16.5562 8.82 15.7895 10.56 15.7895 14.04C15.7895 15.6267 15.9695 16.8867 16.3295 17.82C16.6895 18.7533 17.2762 19.22 18.0895 19.22Z" fill="#0C5867"/>
<path d="M76.78 128.96L79.48 127.7V142H76.78V128.96ZM87.0695 142.36C85.3295 142.36 84.0462 141.71 83.2195 140.41C82.3995 139.11 81.9895 137.327 81.9895 135.06C81.9895 132.607 82.4262 130.77 83.2995 129.55C84.1729 128.33 85.4295 127.72 87.0695 127.72C88.7095 127.72 89.9662 128.33 90.8395 129.55C91.7129 130.77 92.1495 132.607 92.1495 135.06C92.1495 137.327 91.7362 139.11 90.9095 140.41C90.0895 141.71 88.8095 142.36 87.0695 142.36ZM87.0895 140.22C88.5962 140.22 89.3495 138.493 89.3495 135.04C89.3495 131.56 88.5962 129.82 87.0895 129.82C85.5562 129.82 84.7895 131.56 84.7895 135.04C84.7895 136.627 84.9695 137.887 85.3295 138.82C85.6895 139.753 86.2762 140.22 87.0895 140.22Z" fill="#0C5867"/>
<path d="M55.0189 109.636C58.0314 109.629 60.4348 107.197 60.4073 104.185C60.3815 101.352 58.1743 99.04 55.3841 98.8474C55.2165 98.8359 55.1115 98.6638 55.1772 98.5092C55.4583 97.847 55.6112 97.1172 55.6043 96.3508C55.5778 93.4305 53.1983 91.0398 50.2781 91.0005C47.2613 90.9599 44.8031 93.3932 44.8031 96.4007C44.8031 97.1493 44.9556 97.8623 45.2309 98.5104C45.2964 98.6646 45.1908 98.8359 45.0237 98.8474C42.2334 99.0398 40.0261 101.352 40.0002 104.185C39.9728 107.197 42.3761 109.629 45.3886 109.636C46.9907 109.639 48.4301 108.944 49.4214 107.839C49.3842 108.021 49.3417 108.201 49.2939 108.38C49.224 108.634 49.1459 108.892 49.0546 109.149C49.0097 109.278 48.9605 109.407 48.9115 109.536C48.8588 109.664 48.8107 109.792 48.7539 109.919L48.6717 110.109L48.5852 110.296C48.528 110.421 48.4715 110.544 48.4003 110.664C48.1178 111.148 47.6889 111.599 47.1755 111.986L46.9854 112.128C46.956 112.151 46.9205 112.174 46.887 112.197L46.7872 112.263L46.6899 112.329L46.6423 112.361L46.591 112.392L46.3915 112.514C46.3296 112.553 46.2583 112.591 46.1933 112.628C46.1267 112.665 46.0663 112.7 46.0015 112.734C45.8678 112.802 45.7552 112.864 45.6281 112.921L45.3047 113.071C45.2603 113.093 45.2075 113.114 45.1632 113.132L45.0404 113.183L44.9433 113.223C44.9158 113.234 44.8874 113.244 44.8672 113.252C44.8486 113.259 44.8325 113.271 44.8212 113.287C44.8098 113.304 44.8038 113.323 44.8038 113.343V114.902C44.8038 114.956 44.8474 115 44.9013 115H55.507C55.5328 115 55.5576 114.99 55.5759 114.971C55.5942 114.953 55.6045 114.928 55.6045 114.902V113.343C55.6045 113.302 55.5792 113.266 55.5411 113.252C55.5209 113.244 55.4925 113.234 55.465 113.223L55.3679 113.183L55.2451 113.132C55.2008 113.114 55.1479 113.093 55.1035 113.072L54.7801 112.921C54.6531 112.864 54.5404 112.802 54.4068 112.734C54.3419 112.7 54.2815 112.665 54.2149 112.628C54.15 112.591 54.0786 112.553 54.0167 112.514L53.8173 112.392L53.766 112.361L53.7183 112.329L53.6211 112.264L53.5213 112.197C53.4878 112.174 53.4523 112.151 53.4228 112.128L53.2328 111.986C52.7195 111.599 52.2905 111.148 52.0079 110.665C51.9367 110.544 51.8803 110.421 51.823 110.296C51.7942 110.234 51.7653 110.171 51.7366 110.109L51.6544 109.919C51.5975 109.792 51.5494 109.664 51.4967 109.536C51.4478 109.407 51.3985 109.279 51.3536 109.15C51.2624 108.892 51.1842 108.634 51.1143 108.38C51.0666 108.202 51.0241 108.022 50.987 107.841C51.9783 108.945 53.4173 109.639 55.0189 109.636Z" fill="#0C5867"/>
<path d="M55.0189 57.6357C58.0314 57.629 60.4348 55.1971 60.4073 52.1847C60.3815 49.3517 58.1743 47.04 55.3841 46.8474C55.2165 46.8359 55.1115 46.6638 55.1772 46.5092C55.4583 45.847 55.6112 45.1172 55.6043 44.3508C55.5778 41.4305 53.1983 39.0398 50.2781 39.0005C47.2613 38.9599 44.8031 41.3932 44.8031 44.4007C44.8031 45.1493 44.9556 45.8623 45.2309 46.5104C45.2964 46.6646 45.1908 46.8359 45.0237 46.8474C42.2334 47.0398 40.0261 49.3516 40.0002 52.1847C39.9728 55.1971 42.3761 57.629 45.3886 57.6356C46.9907 57.6391 48.4301 56.9445 49.4214 55.8394C49.3842 56.0208 49.3417 56.2011 49.2939 56.3799C49.224 56.6338 49.1459 56.8916 49.0546 57.1495C49.0097 57.2784 48.9605 57.4073 48.9115 57.5358C48.8588 57.6642 48.8107 57.7921 48.7539 57.919L48.6717 58.1086L48.5852 58.2963C48.528 58.4207 48.4715 58.5436 48.4003 58.6644C48.1178 59.1479 47.6889 59.5992 47.1755 59.986L46.9854 60.1279C46.956 60.151 46.9205 60.1739 46.887 60.1965L46.7872 60.2635L46.6899 60.3287L46.6423 60.3607L46.591 60.3922L46.3915 60.5138C46.3296 60.5531 46.2583 60.5911 46.1933 60.6278C46.1267 60.6645 46.0663 60.6999 46.0015 60.7339C45.8678 60.8019 45.7552 60.8643 45.6281 60.9208L45.3047 61.0714C45.2603 61.0933 45.2075 61.1135 45.1632 61.1321L45.0404 61.1827L44.9433 61.2226C44.9158 61.2341 44.8874 61.2438 44.8672 61.2517C44.8486 61.2586 44.8325 61.2711 44.8212 61.2874C44.8098 61.3037 44.8038 61.3232 44.8038 61.343V62.9025C44.8038 62.9563 44.8474 63 44.9013 63H55.507C55.5328 63 55.5576 62.9897 55.5759 62.9714C55.5942 62.9531 55.6045 62.9283 55.6045 62.9025V61.3432C55.6045 61.3025 55.5792 61.266 55.5411 61.2518C55.5209 61.244 55.4925 61.2343 55.465 61.2228L55.3679 61.1828L55.2451 61.1322C55.2008 61.1137 55.1479 61.0934 55.1035 61.0715L54.7801 60.9209C54.6531 60.8645 54.5404 60.802 54.4068 60.7341C54.3419 60.7001 54.2815 60.6647 54.2149 60.628C54.15 60.5913 54.0786 60.5532 54.0167 60.5139L53.8173 60.3924L53.766 60.3608L53.7183 60.3288L53.6211 60.2636L53.5213 60.1967C53.4878 60.1741 53.4523 60.1512 53.4228 60.1281L53.2328 59.9861C52.7195 59.5993 52.2905 59.1481 52.0079 58.6646C51.9367 58.5437 51.8803 58.4208 51.823 58.2964C51.7942 58.2339 51.7653 58.1713 51.7366 58.1088L51.6544 57.9192C51.5975 57.7923 51.5494 57.6643 51.4967 57.5359C51.4478 57.4075 51.3985 57.2786 51.3536 57.1496C51.2624 56.8918 51.1842 56.6339 51.1143 56.3801C51.0666 56.2016 51.0241 56.0216 50.987 55.8406C51.9783 56.945 53.4173 57.6392 55.0189 57.6357Z" fill="#0C5867"/>
<path d="M79.0189 119.636C82.0314 119.629 84.4348 117.197 84.4073 114.185C84.3815 111.352 82.1743 109.04 79.3841 108.847C79.2165 108.836 79.1115 108.664 79.1772 108.509C79.4583 107.847 79.6112 107.117 79.6043 106.351C79.5778 103.43 77.1983 101.04 74.2781 101C71.2613 100.96 68.8031 103.393 68.8031 106.401C68.8031 107.149 68.9556 107.862 69.2309 108.51C69.2964 108.665 69.1908 108.836 69.0237 108.847C66.2334 109.04 64.0261 111.352 64.0002 114.185C63.9728 117.197 66.3761 119.629 69.3886 119.636C70.9907 119.639 72.4301 118.944 73.4214 117.839C73.3842 118.021 73.3417 118.201 73.2939 118.38C73.224 118.634 73.1459 118.892 73.0546 119.149C73.0097 119.278 72.9605 119.407 72.9115 119.536C72.8588 119.664 72.8107 119.792 72.7539 119.919L72.6717 120.109L72.5852 120.296C72.528 120.421 72.4715 120.544 72.4003 120.664C72.1178 121.148 71.6889 121.599 71.1755 121.986L70.9854 122.128C70.956 122.151 70.9205 122.174 70.887 122.197L70.7872 122.263L70.6899 122.329L70.6423 122.361L70.591 122.392L70.3915 122.514C70.3296 122.553 70.2583 122.591 70.1933 122.628C70.1267 122.665 70.0663 122.7 70.0015 122.734C69.8678 122.802 69.7552 122.864 69.6281 122.921L69.3047 123.071C69.2603 123.093 69.2075 123.114 69.1632 123.132L69.0404 123.183L68.9433 123.223C68.9158 123.234 68.8874 123.244 68.8672 123.252C68.8486 123.259 68.8325 123.271 68.8212 123.287C68.8098 123.304 68.8038 123.323 68.8038 123.343V124.902C68.8038 124.956 68.8474 125 68.9013 125H79.507C79.5328 125 79.5576 124.99 79.5759 124.971C79.5942 124.953 79.6045 124.928 79.6045 124.902V123.343C79.6045 123.302 79.5792 123.266 79.5411 123.252C79.5209 123.244 79.4925 123.234 79.465 123.223L79.3679 123.183L79.2451 123.132C79.2008 123.114 79.1479 123.093 79.1035 123.072L78.7801 122.921C78.6531 122.864 78.5404 122.802 78.4068 122.734C78.3419 122.7 78.2815 122.665 78.2149 122.628C78.15 122.591 78.0786 122.553 78.0167 122.514L77.8173 122.392L77.766 122.361L77.7183 122.329L77.6211 122.264L77.5213 122.197C77.4878 122.174 77.4523 122.151 77.4228 122.128L77.2328 121.986C76.7195 121.599 76.2905 121.148 76.0079 120.665C75.9367 120.544 75.8803 120.421 75.823 120.296C75.7942 120.234 75.7653 120.171 75.7366 120.109L75.6544 119.919C75.5975 119.792 75.5494 119.664 75.4967 119.536C75.4478 119.407 75.3985 119.279 75.3536 119.15C75.2624 118.892 75.1842 118.634 75.1143 118.38C75.0666 118.202 75.0241 118.022 74.987 117.841C75.9783 118.945 77.4173 119.639 79.0189 119.636Z" fill="#0C5867"/>
<path d="M79.0189 93.6357C82.0314 93.629 84.4348 91.1971 84.4073 88.1847C84.3815 85.3517 82.1743 83.04 79.3841 82.8474C79.2165 82.8359 79.1115 82.6638 79.1772 82.5092C79.4583 81.847 79.6112 81.1172 79.6043 80.3508C79.5778 77.4305 77.1983 75.0398 74.2781 75.0005C71.2613 74.9599 68.8031 77.3932 68.8031 80.4007C68.8031 81.1493 68.9556 81.8623 69.2309 82.5104C69.2964 82.6646 69.1908 82.8359 69.0237 82.8474C66.2334 83.0398 64.0261 85.3516 64.0002 88.1847C63.9728 91.1971 66.3761 93.629 69.3886 93.6356C70.9907 93.6391 72.4301 92.9445 73.4214 91.8394C73.3842 92.0208 73.3417 92.2011 73.2939 92.3799C73.224 92.6338 73.1459 92.8916 73.0546 93.1495C73.0097 93.2784 72.9605 93.4073 72.9115 93.5358C72.8588 93.6642 72.8107 93.7921 72.7539 93.919L72.6717 94.1086L72.5852 94.2963C72.528 94.4207 72.4715 94.5436 72.4003 94.6644C72.1178 95.1479 71.6889 95.5992 71.1755 95.986L70.9854 96.1279C70.956 96.151 70.9205 96.1739 70.887 96.1965L70.7872 96.2635L70.6899 96.3287L70.6423 96.3607L70.591 96.3922L70.3915 96.5138C70.3296 96.5531 70.2583 96.5911 70.1933 96.6278C70.1267 96.6645 70.0663 96.6999 70.0015 96.7339C69.8678 96.8019 69.7552 96.8643 69.6281 96.9208L69.3047 97.0714C69.2603 97.0933 69.2075 97.1135 69.1632 97.1321L69.0404 97.1827L68.9433 97.2226C68.9158 97.2341 68.8874 97.2438 68.8672 97.2517C68.8486 97.2586 68.8325 97.2711 68.8212 97.2874C68.8098 97.3037 68.8038 97.3232 68.8038 97.343V98.9025C68.8038 98.9563 68.8474 99 68.9013 99H79.507C79.5328 99 79.5576 98.9897 79.5759 98.9714C79.5942 98.9531 79.6045 98.9283 79.6045 98.9025V97.3432C79.6045 97.3025 79.5792 97.266 79.5411 97.2518C79.5209 97.244 79.4925 97.2343 79.465 97.2228L79.3679 97.1828L79.2451 97.1322C79.2008 97.1137 79.1479 97.0934 79.1035 97.0715L78.7801 96.9209C78.6531 96.8645 78.5404 96.802 78.4068 96.7341C78.3419 96.7001 78.2815 96.6647 78.2149 96.628C78.15 96.5913 78.0786 96.5532 78.0167 96.5139L77.8173 96.3924L77.766 96.3608L77.7183 96.3288L77.6211 96.2636L77.5213 96.1967C77.4878 96.1741 77.4523 96.1512 77.4228 96.1281L77.2328 95.9861C76.7195 95.5993 76.2905 95.1481 76.0079 94.6646C75.9367 94.5437 75.8803 94.4208 75.823 94.2964C75.7942 94.2339 75.7653 94.1713 75.7366 94.1088L75.6544 93.9192C75.5975 93.7923 75.5494 93.6643 75.4967 93.5359C75.4478 93.4075 75.3985 93.2786 75.3536 93.1496C75.2624 92.8918 75.1842 92.6339 75.1143 92.3801C75.0666 92.2016 75.0241 92.0216 74.987 91.8406C75.9783 92.945 77.4173 93.6392 79.0189 93.6357Z" fill="#0C5867"/>
<path d="M79.0189 67.6357C82.0314 67.629 84.4348 65.1971 84.4073 62.1847C84.3815 59.3517 82.1743 57.04 79.3841 56.8474C79.2165 56.8359 79.1115 56.6638 79.1772 56.5092C79.4583 55.847 79.6112 55.1172 79.6043 54.3508C79.5778 51.4305 77.1983 49.0398 74.2781 49.0005C71.2613 48.9599 68.8031 51.3932 68.8031 54.4007C68.8031 55.1493 68.9556 55.8623 69.2309 56.5104C69.2964 56.6646 69.1908 56.8359 69.0237 56.8474C66.2334 57.0398 64.0261 59.3516 64.0002 62.1847C63.9728 65.1971 66.3761 67.629 69.3886 67.6356C70.9907 67.6391 72.4301 66.9445 73.4214 65.8394C73.3842 66.0208 73.3417 66.2011 73.2939 66.3799C73.224 66.6338 73.1459 66.8916 73.0546 67.1495C73.0097 67.2784 72.9605 67.4073 72.9115 67.5358C72.8588 67.6642 72.8107 67.7921 72.7539 67.919L72.6717 68.1086L72.5852 68.2963C72.528 68.4207 72.4715 68.5436 72.4003 68.6644C72.1178 69.1479 71.6889 69.5992 71.1755 69.986L70.9854 70.1279C70.956 70.151 70.9205 70.1739 70.887 70.1965L70.7872 70.2635L70.6899 70.3287L70.6423 70.3607L70.591 70.3922L70.3915 70.5138C70.3296 70.5531 70.2583 70.5911 70.1933 70.6278C70.1267 70.6645 70.0663 70.6999 70.0015 70.7339C69.8678 70.8019 69.7552 70.8643 69.6281 70.9208L69.3047 71.0714C69.2603 71.0933 69.2075 71.1135 69.1632 71.1321L69.0404 71.1827L68.9433 71.2226C68.9158 71.2341 68.8874 71.2438 68.8672 71.2517C68.8486 71.2586 68.8325 71.2711 68.8212 71.2874C68.8098 71.3037 68.8038 71.3232 68.8038 71.343V72.9025C68.8038 72.9563 68.8474 73 68.9013 73H79.507C79.5328 73 79.5576 72.9897 79.5759 72.9714C79.5942 72.9531 79.6045 72.9283 79.6045 72.9025V71.3432C79.6045 71.3025 79.5792 71.266 79.5411 71.2518C79.5209 71.244 79.4925 71.2343 79.465 71.2228L79.3679 71.1828L79.2451 71.1322C79.2008 71.1137 79.1479 71.0934 79.1035 71.0715L78.7801 70.9209C78.6531 70.8645 78.5404 70.802 78.4068 70.7341C78.3419 70.7001 78.2815 70.6647 78.2149 70.628C78.15 70.5913 78.0786 70.5532 78.0167 70.5139L77.8173 70.3924L77.766 70.3608L77.7183 70.3288L77.6211 70.2636L77.5213 70.1967C77.4878 70.1741 77.4523 70.1512 77.4228 70.1281L77.2328 69.9861C76.7195 69.5993 76.2905 69.1481 76.0079 68.6646C75.9367 68.5437 75.8803 68.4208 75.823 68.2964C75.7942 68.2339 75.7653 68.1713 75.7366 68.1088L75.6544 67.9192C75.5975 67.7923 75.5494 67.6643 75.4967 67.5359C75.4478 67.4075 75.3985 67.2786 75.3536 67.1496C75.2624 66.8918 75.1842 66.6339 75.1143 66.3801C75.0666 66.2016 75.0241 66.0216 74.987 65.8406C75.9783 66.945 77.4173 67.6392 79.0189 67.6357Z" fill="#0C5867"/>
<path d="M79.0189 41.6357C82.0314 41.629 84.4348 39.1971 84.4073 36.1847C84.3815 33.3517 82.1743 31.04 79.3841 30.8474C79.2165 30.8359 79.1115 30.6638 79.1772 30.5092C79.4583 29.847 79.6112 29.1172 79.6043 28.3508C79.5778 25.4305 77.1983 23.0398 74.2781 23.0005C71.2613 22.9599 68.8031 25.3932 68.8031 28.4007C68.8031 29.1493 68.9556 29.8623 69.2309 30.5104C69.2964 30.6646 69.1908 30.8359 69.0237 30.8474C66.2334 31.0398 64.0261 33.3516 64.0002 36.1847C63.9728 39.1971 66.3761 41.629 69.3886 41.6356C70.9907 41.6391 72.4301 40.9445 73.4214 39.8394C73.3842 40.0208 73.3417 40.2011 73.2939 40.3799C73.224 40.6338 73.1459 40.8916 73.0546 41.1495C73.0097 41.2784 72.9605 41.4073 72.9115 41.5358C72.8588 41.6642 72.8107 41.7921 72.7539 41.919L72.6717 42.1086L72.5852 42.2963C72.528 42.4207 72.4715 42.5436 72.4003 42.6644C72.1178 43.1479 71.6889 43.5992 71.1755 43.986L70.9854 44.1279C70.956 44.151 70.9205 44.1739 70.887 44.1965L70.7872 44.2635L70.6899 44.3287L70.6423 44.3607L70.591 44.3922L70.3915 44.5138C70.3296 44.5531 70.2583 44.5911 70.1933 44.6278C70.1267 44.6645 70.0663 44.6999 70.0015 44.7339C69.8678 44.8019 69.7552 44.8643 69.6281 44.9208L69.3047 45.0714C69.2603 45.0933 69.2075 45.1135 69.1632 45.1321L69.0404 45.1827L68.9433 45.2226C68.9158 45.2341 68.8874 45.2438 68.8672 45.2517C68.8486 45.2586 68.8325 45.2711 68.8212 45.2874C68.8098 45.3037 68.8038 45.3232 68.8038 45.343V46.9025C68.8038 46.9563 68.8474 47 68.9013 47H79.507C79.5328 47 79.5576 46.9897 79.5759 46.9714C79.5942 46.9531 79.6045 46.9283 79.6045 46.9025V45.3432C79.6045 45.3025 79.5792 45.266 79.5411 45.2518C79.5209 45.244 79.4925 45.2343 79.465 45.2228L79.3679 45.1828L79.2451 45.1322C79.2008 45.1137 79.1479 45.0934 79.1035 45.0715L78.7801 44.9209C78.6531 44.8645 78.5404 44.802 78.4068 44.7341C78.3419 44.7001 78.2815 44.6647 78.2149 44.628C78.15 44.5913 78.0786 44.5532 78.0167 44.5139L77.8173 44.3924L77.766 44.3608L77.7183 44.3288L77.6211 44.2636L77.5213 44.1967C77.4878 44.1741 77.4523 44.1512 77.4228 44.1281L77.2328 43.9861C76.7195 43.5993 76.2905 43.1481 76.0079 42.6646C75.9367 42.5437 75.8803 42.4208 75.823 42.2964C75.7942 42.2339 75.7653 42.1713 75.7366 42.1088L75.6544 41.9192C75.5975 41.7923 75.5494 41.6643 75.4967 41.5359C75.4478 41.4075 75.3985 41.2786 75.3536 41.1496C75.2624 40.8918 75.1842 40.6339 75.1143 40.3801C75.0666 40.2016 75.0241 40.0216 74.987 39.8406C75.9783 40.945 77.4173 41.6392 79.0189 41.6357Z" fill="#0C5867"/>
<path d="M33.0189 41.6357C36.0314 41.629 38.4348 39.1971 38.4073 36.1847C38.3815 33.3517 36.1743 31.04 33.3841 30.8474C33.2165 30.8359 33.1115 30.6638 33.1772 30.5092C33.4583 29.847 33.6112 29.1172 33.6043 28.3508C33.5778 25.4305 31.1983 23.0398 28.2781 23.0005C25.2613 22.9599 22.8031 25.3932 22.8031 28.4007C22.8031 29.1493 22.9556 29.8623 23.2309 30.5104C23.2964 30.6646 23.1908 30.8359 23.0237 30.8474C20.2334 31.0398 18.0261 33.3516 18.0002 36.1847C17.9728 39.1971 20.3761 41.629 23.3886 41.6356C24.9907 41.6391 26.4301 40.9445 27.4214 39.8394C27.3842 40.0208 27.3417 40.2011 27.2939 40.3799C27.224 40.6338 27.1459 40.8916 27.0546 41.1495C27.0097 41.2784 26.9605 41.4073 26.9115 41.5358C26.8588 41.6642 26.8107 41.7921 26.7539 41.919L26.6717 42.1086L26.5852 42.2963C26.528 42.4207 26.4715 42.5436 26.4003 42.6644C26.1178 43.1479 25.6889 43.5992 25.1755 43.986L24.9854 44.1279C24.956 44.151 24.9205 44.1739 24.887 44.1965L24.7872 44.2635L24.6899 44.3287L24.6423 44.3607L24.591 44.3922L24.3915 44.5138C24.3296 44.5531 24.2583 44.5911 24.1933 44.6278C24.1267 44.6645 24.0663 44.6999 24.0015 44.7339C23.8678 44.8019 23.7552 44.8643 23.6281 44.9208L23.3047 45.0714C23.2603 45.0933 23.2075 45.1135 23.1632 45.1321L23.0404 45.1827L22.9433 45.2226C22.9158 45.2341 22.8874 45.2438 22.8672 45.2517C22.8486 45.2586 22.8325 45.2711 22.8212 45.2874C22.8098 45.3037 22.8038 45.3232 22.8038 45.343V46.9025C22.8038 46.9563 22.8474 47 22.9013 47H33.507C33.5328 47 33.5576 46.9897 33.5759 46.9714C33.5942 46.9531 33.6045 46.9283 33.6045 46.9025V45.3432C33.6045 45.3025 33.5792 45.266 33.5411 45.2518C33.5209 45.244 33.4925 45.2343 33.465 45.2228L33.3679 45.1828L33.2451 45.1322C33.2008 45.1137 33.1479 45.0934 33.1035 45.0715L32.7801 44.9209C32.6531 44.8645 32.5404 44.802 32.4068 44.7341C32.3419 44.7001 32.2815 44.6647 32.2149 44.628C32.15 44.5913 32.0786 44.5532 32.0167 44.5139L31.8173 44.3924L31.766 44.3608L31.7183 44.3288L31.6211 44.2636L31.5213 44.1967C31.4878 44.1741 31.4523 44.1512 31.4228 44.1281L31.2328 43.9861C30.7195 43.5993 30.2905 43.1481 30.0079 42.6646C29.9367 42.5437 29.8803 42.4208 29.823 42.2964C29.7942 42.2339 29.7653 42.1713 29.7366 42.1088L29.6544 41.9192C29.5975 41.7923 29.5494 41.6643 29.4967 41.5359C29.4478 41.4075 29.3985 41.2786 29.3536 41.1496C29.2624 40.8918 29.1842 40.6339 29.1143 40.3801C29.0666 40.2016 29.0241 40.0216 28.987 39.8406C29.9783 40.945 31.4173 41.6392 33.0189 41.6357Z" fill="#0C5867"/>
<path d="M33.0189 67.6357C36.0314 67.629 38.4348 65.1971 38.4073 62.1847C38.3815 59.3517 36.1743 57.04 33.3841 56.8474C33.2165 56.8359 33.1115 56.6638 33.1772 56.5092C33.4583 55.847 33.6112 55.1172 33.6043 54.3508C33.5778 51.4305 31.1983 49.0398 28.2781 49.0005C25.2613 48.9599 22.8031 51.3932 22.8031 54.4007C22.8031 55.1493 22.9556 55.8623 23.2309 56.5104C23.2964 56.6646 23.1908 56.8359 23.0237 56.8474C20.2334 57.0398 18.0261 59.3516 18.0002 62.1847C17.9728 65.1971 20.3761 67.629 23.3886 67.6356C24.9907 67.6391 26.4301 66.9445 27.4214 65.8394C27.3842 66.0208 27.3417 66.2011 27.2939 66.3799C27.224 66.6338 27.1459 66.8916 27.0546 67.1495C27.0097 67.2784 26.9605 67.4073 26.9115 67.5358C26.8588 67.6642 26.8107 67.7921 26.7539 67.919L26.6717 68.1086L26.5852 68.2963C26.528 68.4207 26.4715 68.5436 26.4003 68.6644C26.1178 69.1479 25.6889 69.5992 25.1755 69.986L24.9854 70.1279C24.956 70.151 24.9205 70.1739 24.887 70.1965L24.7872 70.2635L24.6899 70.3287L24.6423 70.3607L24.591 70.3922L24.3915 70.5138C24.3296 70.5531 24.2583 70.5911 24.1933 70.6278C24.1267 70.6645 24.0663 70.6999 24.0015 70.7339C23.8678 70.8019 23.7552 70.8643 23.6281 70.9208L23.3047 71.0714C23.2603 71.0933 23.2075 71.1135 23.1632 71.1321L23.0404 71.1827L22.9433 71.2226C22.9158 71.2341 22.8874 71.2438 22.8672 71.2517C22.8486 71.2586 22.8325 71.2711 22.8212 71.2874C22.8098 71.3037 22.8038 71.3232 22.8038 71.343V72.9025C22.8038 72.9563 22.8474 73 22.9013 73H33.507C33.5328 73 33.5576 72.9897 33.5759 72.9714C33.5942 72.9531 33.6045 72.9283 33.6045 72.9025V71.3432C33.6045 71.3025 33.5792 71.266 33.5411 71.2518C33.5209 71.244 33.4925 71.2343 33.465 71.2228L33.3679 71.1828L33.2451 71.1322C33.2008 71.1137 33.1479 71.0934 33.1035 71.0715L32.7801 70.9209C32.6531 70.8645 32.5404 70.802 32.4068 70.7341C32.3419 70.7001 32.2815 70.6647 32.2149 70.628C32.15 70.5913 32.0786 70.5532 32.0167 70.5139L31.8173 70.3924L31.766 70.3608L31.7183 70.3288L31.6211 70.2636L31.5213 70.1967C31.4878 70.1741 31.4523 70.1512 31.4228 70.1281L31.2328 69.9861C30.7195 69.5993 30.2905 69.1481 30.0079 68.6646C29.9367 68.5437 29.8803 68.4208 29.823 68.2964C29.7942 68.2339 29.7653 68.1713 29.7366 68.1088L29.6544 67.9192C29.5975 67.7923 29.5494 67.6643 29.4967 67.5359C29.4478 67.4075 29.3985 67.2786 29.3536 67.1496C29.2624 66.8918 29.1842 66.6339 29.1143 66.3801C29.0666 66.2016 29.0241 66.0216 28.987 65.8406C29.9783 66.945 31.4173 67.6392 33.0189 67.6357Z" fill="#0C5867"/>
<path d="M33.0189 93.6357C36.0314 93.629 38.4348 91.1971 38.4073 88.1847C38.3815 85.3517 36.1743 83.04 33.3841 82.8474C33.2165 82.8359 33.1115 82.6638 33.1772 82.5092C33.4583 81.847 33.6112 81.1172 33.6043 80.3508C33.5778 77.4305 31.1983 75.0398 28.2781 75.0005C25.2613 74.9599 22.8031 77.3932 22.8031 80.4007C22.8031 81.1493 22.9556 81.8623 23.2309 82.5104C23.2964 82.6646 23.1908 82.8359 23.0237 82.8474C20.2334 83.0398 18.0261 85.3516 18.0002 88.1847C17.9728 91.1971 20.3761 93.629 23.3886 93.6356C24.9907 93.6391 26.4301 92.9445 27.4214 91.8394C27.3842 92.0208 27.3417 92.2011 27.2939 92.3799C27.224 92.6338 27.1459 92.8916 27.0546 93.1495C27.0097 93.2784 26.9605 93.4073 26.9115 93.5358C26.8588 93.6642 26.8107 93.7921 26.7539 93.919L26.6717 94.1086L26.5852 94.2963C26.528 94.4207 26.4715 94.5436 26.4003 94.6644C26.1178 95.1479 25.6889 95.5992 25.1755 95.986L24.9854 96.1279C24.956 96.151 24.9205 96.1739 24.887 96.1965L24.7872 96.2635L24.6899 96.3287L24.6423 96.3607L24.591 96.3922L24.3915 96.5138C24.3296 96.5531 24.2583 96.5911 24.1933 96.6278C24.1267 96.6645 24.0663 96.6999 24.0015 96.7339C23.8678 96.8019 23.7552 96.8643 23.6281 96.9208L23.3047 97.0714C23.2603 97.0933 23.2075 97.1135 23.1632 97.1321L23.0404 97.1827L22.9433 97.2226C22.9158 97.2341 22.8874 97.2438 22.8672 97.2517C22.8486 97.2586 22.8325 97.2711 22.8212 97.2874C22.8098 97.3037 22.8038 97.3232 22.8038 97.343V98.9025C22.8038 98.9563 22.8474 99 22.9013 99H33.507C33.5328 99 33.5576 98.9897 33.5759 98.9714C33.5942 98.9531 33.6045 98.9283 33.6045 98.9025V97.3432C33.6045 97.3025 33.5792 97.266 33.5411 97.2518C33.5209 97.244 33.4925 97.2343 33.465 97.2228L33.3679 97.1828L33.2451 97.1322C33.2008 97.1137 33.1479 97.0934 33.1035 97.0715L32.7801 96.9209C32.6531 96.8645 32.5404 96.802 32.4068 96.7341C32.3419 96.7001 32.2815 96.6647 32.2149 96.628C32.15 96.5913 32.0786 96.5532 32.0167 96.5139L31.8173 96.3924L31.766 96.3608L31.7183 96.3288L31.6211 96.2636L31.5213 96.1967C31.4878 96.1741 31.4523 96.1512 31.4228 96.1281L31.2328 95.9861C30.7195 95.5993 30.2905 95.1481 30.0079 94.6646C29.9367 94.5437 29.8803 94.4208 29.823 94.2964C29.7942 94.2339 29.7653 94.1713 29.7366 94.1088L29.6544 93.9192C29.5975 93.7923 29.5494 93.6643 29.4967 93.5359C29.4478 93.4075 29.3985 93.2786 29.3536 93.1496C29.2624 92.8918 29.1842 92.6339 29.1143 92.3801C29.0666 92.2016 29.0241 92.0216 28.987 91.8406C29.9783 92.945 31.4173 93.6392 33.0189 93.6357Z" fill="#0C5867"/>
<path d="M33.0189 119.636C36.0314 119.629 38.4348 117.197 38.4073 114.185C38.3815 111.352 36.1743 109.04 33.3841 108.847C33.2165 108.836 33.1115 108.664 33.1772 108.509C33.4583 107.847 33.6112 107.117 33.6043 106.351C33.5778 103.43 31.1983 101.04 28.2781 101C25.2613 100.96 22.8031 103.393 22.8031 106.401C22.8031 107.149 22.9556 107.862 23.2309 108.51C23.2964 108.665 23.1908 108.836 23.0237 108.847C20.2334 109.04 18.0261 111.352 18.0002 114.185C17.9728 117.197 20.3761 119.629 23.3886 119.636C24.9907 119.639 26.4301 118.944 27.4214 117.839C27.3842 118.021 27.3417 118.201 27.2939 118.38C27.224 118.634 27.1459 118.892 27.0546 119.149C27.0097 119.278 26.9605 119.407 26.9115 119.536C26.8588 119.664 26.8107 119.792 26.7539 119.919L26.6717 120.109L26.5852 120.296C26.528 120.421 26.4715 120.544 26.4003 120.664C26.1178 121.148 25.6889 121.599 25.1755 121.986L24.9854 122.128C24.956 122.151 24.9205 122.174 24.887 122.197L24.7872 122.263L24.6899 122.329L24.6423 122.361L24.591 122.392L24.3915 122.514C24.3296 122.553 24.2583 122.591 24.1933 122.628C24.1267 122.665 24.0663 122.7 24.0015 122.734C23.8678 122.802 23.7552 122.864 23.6281 122.921L23.3047 123.071C23.2603 123.093 23.2075 123.114 23.1632 123.132L23.0404 123.183L22.9433 123.223C22.9158 123.234 22.8874 123.244 22.8672 123.252C22.8486 123.259 22.8325 123.271 22.8212 123.287C22.8098 123.304 22.8038 123.323 22.8038 123.343V124.902C22.8038 124.956 22.8474 125 22.9013 125H33.507C33.5328 125 33.5576 124.99 33.5759 124.971C33.5942 124.953 33.6045 124.928 33.6045 124.902V123.343C33.6045 123.302 33.5792 123.266 33.5411 123.252C33.5209 123.244 33.4925 123.234 33.465 123.223L33.3679 123.183L33.2451 123.132C33.2008 123.114 33.1479 123.093 33.1035 123.072L32.7801 122.921C32.6531 122.864 32.5404 122.802 32.4068 122.734C32.3419 122.7 32.2815 122.665 32.2149 122.628C32.15 122.591 32.0786 122.553 32.0167 122.514L31.8173 122.392L31.766 122.361L31.7183 122.329L31.6211 122.264L31.5213 122.197C31.4878 122.174 31.4523 122.151 31.4228 122.128L31.2328 121.986C30.7195 121.599 30.2905 121.148 30.0079 120.665C29.9367 120.544 29.8803 120.421 29.823 120.296C29.7942 120.234 29.7653 120.171 29.7366 120.109L29.6544 119.919C29.5975 119.792 29.5494 119.664 29.4967 119.536C29.4478 119.407 29.3985 119.279 29.3536 119.15C29.2624 118.892 29.1842 118.634 29.1143 118.38C29.0666 118.202 29.0241 118.022 28.987 117.841C29.9783 118.945 31.4173 119.639 33.0189 119.636Z" fill="#0C5867"/>
</svg>
