<svg width="100" height="150" viewBox="0 0 100 150" fill="none" xmlns="http://www.w3.org/2000/svg">
<rect width="100" height="150" rx="10" fill="#D9D9D9"/>
<path d="M10.94 21.3C10.1533 21.3 9.41 21.2033 8.71 21.01C8.01 20.8167 7.38667 20.5267 6.84 20.14L7.68 17.86C8.05333 18.22 8.51 18.5033 9.05 18.71C9.59667 18.9167 10.14 19.02 10.68 19.02C11.5467 19.02 12.2 18.8167 12.64 18.41C13.08 17.9967 13.3 17.4533 13.3 16.78C13.3 16.0333 13.0433 15.5167 12.53 15.23C12.0233 14.9433 11.3467 14.8 10.5 14.8H9.44V12.82H10.52C11.3133 12.82 11.9133 12.6267 12.32 12.24C12.7333 11.8533 12.94 11.34 12.94 10.7C12.94 10.0667 12.7533 9.62667 12.38 9.38C12.0067 9.12667 11.44 9 10.68 9C10.4067 9 10.0833 9.05 9.71 9.15C9.34333 9.24333 8.98333 9.38333 8.63 9.57C8.27667 9.75 7.98667 9.96667 7.76 10.22L6.76 8.1C7.21333 7.7 7.82333 7.37 8.59 7.11C9.36333 6.85 10.24 6.72 11.22 6.72C12.14 6.72 12.94 6.86 13.62 7.14C14.3 7.42 14.8233 7.83 15.19 8.37C15.5567 8.90333 15.74 9.54667 15.74 10.3C15.74 10.8133 15.6467 11.3167 15.46 11.81C15.28 12.3033 15.0133 12.73 14.66 13.09C14.3067 13.4433 13.8933 13.68 13.42 13.8C13.9667 13.8 14.4433 13.9533 14.85 14.26C15.2633 14.5667 15.5767 14.97 15.79 15.47C16.01 15.97 16.12 16.5067 16.12 17.08C16.12 17.9333 15.89 18.68 15.43 19.32C14.97 19.96 14.3467 20.45 13.56 20.79C12.7733 21.13 11.9 21.3 10.94 21.3Z" fill="#0C5867"/>
<path d="M85.94 142.3C85.1533 142.3 84.41 142.203 83.71 142.01C83.01 141.817 82.3867 141.527 81.84 141.14L82.68 138.86C83.0533 139.22 83.51 139.503 84.05 139.71C84.5967 139.917 85.14 140.02 85.68 140.02C86.5467 140.02 87.2 139.817 87.64 139.41C88.08 138.997 88.3 138.453 88.3 137.78C88.3 137.033 88.0433 136.517 87.53 136.23C87.0233 135.943 86.3467 135.8 85.5 135.8H84.44V133.82H85.52C86.3133 133.82 86.9133 133.627 87.32 133.24C87.7333 132.853 87.94 132.34 87.94 131.7C87.94 131.067 87.7533 130.627 87.38 130.38C87.0067 130.127 86.44 130 85.68 130C85.4067 130 85.0833 130.05 84.71 130.15C84.3433 130.243 83.9833 130.383 83.63 130.57C83.2767 130.75 82.9867 130.967 82.76 131.22L81.76 129.1C82.2133 128.7 82.8233 128.37 83.59 128.11C84.3633 127.85 85.24 127.72 86.22 127.72C87.14 127.72 87.94 127.86 88.62 128.14C89.3 128.42 89.8233 128.83 90.19 129.37C90.5567 129.903 90.74 130.547 90.74 131.3C90.74 131.813 90.6467 132.317 90.46 132.81C90.28 133.303 90.0133 133.73 89.66 134.09C89.3067 134.443 88.8933 134.68 88.42 134.8C88.9667 134.8 89.4433 134.953 89.85 135.26C90.2633 135.567 90.5767 135.97 90.79 136.47C91.01 136.97 91.12 137.507 91.12 138.08C91.12 138.933 90.89 139.68 90.43 140.32C89.97 140.96 89.3467 141.45 88.56 141.79C87.7733 142.13 86.9 142.3 85.94 142.3Z" fill="#0C5867"/>
<path d="M55.0189 45.6357C58.0314 45.629 60.4348 43.1971 60.4073 40.1847C60.3815 37.3517 58.1743 35.04 55.3841 34.8474C55.2165 34.8359 55.1115 34.6638 55.1772 34.5092C55.4583 33.847 55.6112 33.1172 55.6043 32.3508C55.5778 29.4305 53.1983 27.0398 50.2781 27.0005C47.2613 26.9599 44.8031 29.3932 44.8031 32.4007C44.8031 33.1493 44.9556 33.8623 45.2309 34.5104C45.2964 34.6646 45.1908 34.8359 45.0237 34.8474C42.2334 35.0398 40.0261 37.3516 40.0002 40.1847C39.9728 43.1971 42.3761 45.629 45.3886 45.6356C46.9907 45.6391 48.4301 44.9445 49.4214 43.8394C49.3842 44.0208 49.3417 44.2011 49.2939 44.3799C49.224 44.6338 49.1459 44.8916 49.0546 45.1495C49.0097 45.2784 48.9605 45.4073 48.9115 45.5358C48.8588 45.6642 48.8107 45.7921 48.7539 45.919L48.6717 46.1086L48.5852 46.2963C48.528 46.4207 48.4715 46.5436 48.4003 46.6644C48.1178 47.1479 47.6889 47.5992 47.1755 47.986L46.9854 48.1279C46.956 48.1511 46.9205 48.1739 46.887 48.1965L46.7872 48.2635L46.6899 48.3287L46.6423 48.3607L46.591 48.3922L46.3915 48.5138C46.3296 48.5531 46.2583 48.5911 46.1933 48.6278C46.1267 48.6645 46.0663 48.6999 46.0015 48.7339C45.8678 48.8019 45.7552 48.8643 45.6281 48.9208L45.3047 49.0714C45.2603 49.0933 45.2075 49.1135 45.1632 49.1321L45.0404 49.1827L44.9433 49.2226C44.9158 49.2341 44.8874 49.2438 44.8672 49.2517C44.8486 49.2586 44.8325 49.2711 44.8212 49.2874C44.8098 49.3037 44.8038 49.3232 44.8038 49.343V50.9025C44.8038 50.9563 44.8474 51 44.9013 51H55.507C55.5328 51 55.5576 50.9897 55.5759 50.9714C55.5942 50.9531 55.6045 50.9283 55.6045 50.9025V49.3432C55.6045 49.3025 55.5792 49.266 55.5411 49.2518C55.5209 49.244 55.4925 49.2343 55.465 49.2228L55.3679 49.1828L55.2451 49.1322C55.2008 49.1137 55.1479 49.0934 55.1035 49.0715L54.7801 48.9209C54.6531 48.8645 54.5404 48.802 54.4068 48.7341C54.3419 48.7001 54.2815 48.6647 54.2149 48.628C54.15 48.5913 54.0786 48.5532 54.0167 48.5139L53.8173 48.3924L53.766 48.3608L53.7183 48.3288L53.6211 48.2636L53.5213 48.1967C53.4878 48.1741 53.4523 48.1512 53.4228 48.1281L53.2328 47.9861C52.7195 47.5993 52.2905 47.1481 52.0079 46.6646C51.9367 46.5437 51.8803 46.4208 51.823 46.2964C51.7942 46.2339 51.7653 46.1713 51.7366 46.1088L51.6544 45.9192C51.5975 45.7923 51.5494 45.6643 51.4967 45.5359C51.4478 45.4075 51.3985 45.2786 51.3536 45.1496C51.2624 44.8918 51.1842 44.6339 51.1143 44.3801C51.0666 44.2016 51.0241 44.0216 50.987 43.8406C51.9783 44.945 53.4173 45.6392 55.0189 45.6357Z" fill="#0C5867"/>
<path d="M55.0189 117.636C58.0314 117.629 60.4348 115.197 60.4073 112.185C60.3815 109.352 58.1743 107.04 55.3841 106.847C55.2165 106.836 55.1115 106.664 55.1772 106.509C55.4583 105.847 55.6112 105.117 55.6043 104.351C55.5778 101.43 53.1983 99.0398 50.2781 99.0005C47.2613 98.9599 44.8031 101.393 44.8031 104.401C44.8031 105.149 44.9556 105.862 45.2309 106.51C45.2964 106.665 45.1908 106.836 45.0237 106.847C42.2334 107.04 40.0261 109.352 40.0002 112.185C39.9728 115.197 42.3761 117.629 45.3886 117.636C46.9907 117.639 48.4301 116.944 49.4214 115.839C49.3842 116.021 49.3417 116.201 49.2939 116.38C49.224 116.634 49.1459 116.892 49.0546 117.149C49.0097 117.278 48.9605 117.407 48.9115 117.536C48.8588 117.664 48.8107 117.792 48.7539 117.919L48.6717 118.109L48.5852 118.296C48.528 118.421 48.4715 118.544 48.4003 118.664C48.1178 119.148 47.6889 119.599 47.1755 119.986L46.9854 120.128C46.956 120.151 46.9205 120.174 46.887 120.197L46.7872 120.263L46.6899 120.329L46.6423 120.361L46.591 120.392L46.3915 120.514C46.3296 120.553 46.2583 120.591 46.1933 120.628C46.1267 120.665 46.0663 120.7 46.0015 120.734C45.8678 120.802 45.7552 120.864 45.6281 120.921L45.3047 121.071C45.2603 121.093 45.2075 121.114 45.1632 121.132L45.0404 121.183L44.9433 121.223C44.9158 121.234 44.8874 121.244 44.8672 121.252C44.8486 121.259 44.8325 121.271 44.8212 121.287C44.8098 121.304 44.8038 121.323 44.8038 121.343V122.902C44.8038 122.956 44.8474 123 44.9013 123H55.507C55.5328 123 55.5576 122.99 55.5759 122.971C55.5942 122.953 55.6045 122.928 55.6045 122.902V121.343C55.6045 121.302 55.5792 121.266 55.5411 121.252C55.5209 121.244 55.4925 121.234 55.465 121.223L55.3679 121.183L55.2451 121.132C55.2008 121.114 55.1479 121.093 55.1035 121.072L54.7801 120.921C54.6531 120.864 54.5404 120.802 54.4068 120.734C54.3419 120.7 54.2815 120.665 54.2149 120.628C54.15 120.591 54.0786 120.553 54.0167 120.514L53.8173 120.392L53.766 120.361L53.7183 120.329L53.6211 120.264L53.5213 120.197C53.4878 120.174 53.4523 120.151 53.4228 120.128L53.2328 119.986C52.7195 119.599 52.2905 119.148 52.0079 118.665C51.9367 118.544 51.8803 118.421 51.823 118.296C51.7942 118.234 51.7653 118.171 51.7366 118.109L51.6544 117.919C51.5975 117.792 51.5494 117.664 51.4967 117.536C51.4478 117.407 51.3985 117.279 51.3536 117.15C51.2624 116.892 51.1842 116.634 51.1143 116.38C51.0666 116.202 51.0241 116.022 50.987 115.841C51.9783 116.945 53.4173 117.639 55.0189 117.636Z" fill="#0C5867"/>
<path d="M55.0189 82.6357C58.0314 82.629 60.4348 80.1971 60.4073 77.1847C60.3815 74.3517 58.1743 72.04 55.3841 71.8474C55.2165 71.8359 55.1115 71.6638 55.1772 71.5092C55.4583 70.847 55.6112 70.1172 55.6043 69.3508C55.5778 66.4305 53.1983 64.0398 50.2781 64.0005C47.2613 63.9599 44.8031 66.3932 44.8031 69.4007C44.8031 70.1493 44.9556 70.8623 45.2309 71.5104C45.2964 71.6646 45.1908 71.8359 45.0237 71.8474C42.2334 72.0398 40.0261 74.3516 40.0002 77.1847C39.9728 80.1971 42.3761 82.629 45.3886 82.6356C46.9907 82.6391 48.4301 81.9445 49.4214 80.8394C49.3842 81.0208 49.3417 81.2011 49.2939 81.3799C49.224 81.6338 49.1459 81.8916 49.0546 82.1495C49.0097 82.2784 48.9605 82.4073 48.9115 82.5358C48.8588 82.6642 48.8107 82.7921 48.7539 82.919L48.6717 83.1086L48.5852 83.2963C48.528 83.4207 48.4715 83.5436 48.4003 83.6644C48.1178 84.1479 47.6889 84.5992 47.1755 84.986L46.9854 85.1279C46.956 85.1511 46.9205 85.1739 46.887 85.1965L46.7872 85.2635L46.6899 85.3287L46.6423 85.3607L46.591 85.3922L46.3915 85.5138C46.3296 85.5531 46.2583 85.5911 46.1933 85.6278C46.1267 85.6645 46.0663 85.6999 46.0015 85.7339C45.8678 85.8019 45.7552 85.8643 45.6281 85.9208L45.3047 86.0714C45.2603 86.0933 45.2075 86.1135 45.1632 86.1321L45.0404 86.1827L44.9433 86.2226C44.9158 86.2341 44.8874 86.2438 44.8672 86.2517C44.8486 86.2586 44.8325 86.2711 44.8212 86.2874C44.8098 86.3037 44.8038 86.3232 44.8038 86.343V87.9025C44.8038 87.9563 44.8474 88 44.9013 88H55.507C55.5328 88 55.5576 87.9897 55.5759 87.9714C55.5942 87.9531 55.6045 87.9283 55.6045 87.9025V86.3432C55.6045 86.3025 55.5792 86.266 55.5411 86.2518C55.5209 86.244 55.4925 86.2343 55.465 86.2228L55.3679 86.1828L55.2451 86.1322C55.2008 86.1137 55.1479 86.0934 55.1035 86.0715L54.7801 85.9209C54.6531 85.8645 54.5404 85.802 54.4068 85.7341C54.3419 85.7001 54.2815 85.6647 54.2149 85.628C54.15 85.5913 54.0786 85.5532 54.0167 85.5139L53.8173 85.3924L53.766 85.3608L53.7183 85.3288L53.6211 85.2636L53.5213 85.1967C53.4878 85.1741 53.4523 85.1512 53.4228 85.1281L53.2328 84.9861C52.7195 84.5993 52.2905 84.1481 52.0079 83.6646C51.9367 83.5437 51.8803 83.4208 51.823 83.2964C51.7942 83.2339 51.7653 83.1713 51.7366 83.1088L51.6544 82.9192C51.5975 82.7923 51.5494 82.6643 51.4967 82.5359C51.4478 82.4075 51.3985 82.2786 51.3536 82.1496C51.2624 81.8918 51.1842 81.6339 51.1143 81.3801C51.0666 81.2016 51.0241 81.0216 50.987 80.8406C51.9783 81.945 53.4173 82.6392 55.0189 82.6357Z" fill="#0C5867"/>
</svg>
