<svg width="100" height="150" viewBox="0 0 100 150" fill="none" xmlns="http://www.w3.org/2000/svg">
<rect width="100" height="150" rx="10" fill="#D9D9D9"/>
<path d="M16.24 18.72V21H7.26C7.16667 20.5067 7.12 20.04 7.12 19.6C7.12 18.7733 7.25333 18.06 7.52 17.46C7.78667 16.86 8.17667 16.3267 8.69 15.86C9.21 15.3933 9.89333 14.9133 10.74 14.42C11.3267 14.0733 11.8067 13.76 12.18 13.48C12.56 13.2 12.8833 12.8467 13.15 12.42C13.4233 11.9933 13.56 11.5 13.56 10.94C13.56 10.58 13.4867 10.25 13.34 9.95C13.1933 9.64333 12.9667 9.4 12.66 9.22C12.3533 9.03333 11.9733 8.94 11.52 8.94C10.8 8.94 10.2133 9.17333 9.76 9.64C9.31333 10.1067 9.02667 10.7333 8.9 11.52L6.78 10.52C6.88667 9.82 7.16 9.18333 7.6 8.61C8.04 8.03 8.61333 7.57 9.32 7.23C10.0267 6.89 10.82 6.72 11.7 6.72C12.5333 6.72 13.2867 6.87667 13.96 7.19C14.64 7.50333 15.1767 7.96333 15.57 8.57C15.9633 9.17 16.16 9.88 16.16 10.7C16.16 11.54 16.0067 12.2767 15.7 12.91C15.4 13.5433 14.9567 14.1167 14.37 14.63C13.79 15.1367 13.02 15.68 12.06 16.26C11.5267 16.58 11.12 16.84 10.84 17.04C10.5667 17.24 10.33 17.4767 10.13 17.75C9.93667 18.0167 9.80667 18.34 9.74 18.72H16.24Z" fill="#0C5867"/>
<path d="M91.24 139.72V142H82.26C82.1667 141.507 82.12 141.04 82.12 140.6C82.12 139.773 82.2533 139.06 82.52 138.46C82.7867 137.86 83.1767 137.327 83.69 136.86C84.21 136.393 84.8933 135.913 85.74 135.42C86.3267 135.073 86.8067 134.76 87.18 134.48C87.56 134.2 87.8833 133.847 88.15 133.42C88.4233 132.993 88.56 132.5 88.56 131.94C88.56 131.58 88.4867 131.25 88.34 130.95C88.1933 130.643 87.9667 130.4 87.66 130.22C87.3533 130.033 86.9733 129.94 86.52 129.94C85.8 129.94 85.2133 130.173 84.76 130.64C84.3133 131.107 84.0267 131.733 83.9 132.52L81.78 131.52C81.8867 130.82 82.16 130.183 82.6 129.61C83.04 129.03 83.6133 128.57 84.32 128.23C85.0267 127.89 85.82 127.72 86.7 127.72C87.5333 127.72 88.2867 127.877 88.96 128.19C89.64 128.503 90.1767 128.963 90.57 129.57C90.9633 130.17 91.16 130.88 91.16 131.7C91.16 132.54 91.0067 133.277 90.7 133.91C90.4 134.543 89.9567 135.117 89.37 135.63C88.79 136.137 88.02 136.68 87.06 137.26C86.5267 137.58 86.12 137.84 85.84 138.04C85.5667 138.24 85.33 138.477 85.13 138.75C84.9367 139.017 84.8067 139.34 84.74 139.72H91.24Z" fill="#0C5867"/>
<path d="M55.0189 43.6357C58.0314 43.629 60.4348 41.1971 60.4073 38.1847C60.3815 35.3517 58.1743 33.04 55.3841 32.8474C55.2165 32.8359 55.1115 32.6638 55.1772 32.5092C55.4583 31.847 55.6112 31.1172 55.6043 30.3508C55.5778 27.4305 53.1983 25.0398 50.2781 25.0005C47.2613 24.9599 44.8031 27.3932 44.8031 30.4007C44.8031 31.1493 44.9556 31.8623 45.2309 32.5104C45.2964 32.6646 45.1908 32.8359 45.0237 32.8474C42.2334 33.0398 40.0261 35.3516 40.0002 38.1847C39.9728 41.1971 42.3761 43.629 45.3886 43.6356C46.9907 43.6391 48.4301 42.9445 49.4214 41.8394C49.3842 42.0208 49.3417 42.2011 49.2939 42.3799C49.224 42.6338 49.1459 42.8916 49.0546 43.1495C49.0097 43.2784 48.9605 43.4073 48.9115 43.5358C48.8588 43.6642 48.8107 43.7921 48.7539 43.919L48.6717 44.1086L48.5852 44.2963C48.528 44.4207 48.4715 44.5436 48.4003 44.6644C48.1178 45.1479 47.6889 45.5992 47.1755 45.986L46.9854 46.1279C46.956 46.1511 46.9205 46.1739 46.887 46.1965L46.7872 46.2635L46.6899 46.3287L46.6423 46.3607L46.591 46.3922L46.3915 46.5138C46.3296 46.5531 46.2583 46.5911 46.1933 46.6278C46.1267 46.6645 46.0663 46.6999 46.0015 46.7339C45.8678 46.8019 45.7552 46.8643 45.6281 46.9208L45.3047 47.0714C45.2603 47.0933 45.2075 47.1135 45.1632 47.1321L45.0404 47.1827L44.9433 47.2226C44.9158 47.2341 44.8874 47.2438 44.8672 47.2517C44.8486 47.2586 44.8325 47.2711 44.8212 47.2874C44.8098 47.3037 44.8038 47.3232 44.8038 47.343V48.9025C44.8038 48.9563 44.8474 49 44.9013 49H55.507C55.5328 49 55.5576 48.9897 55.5759 48.9714C55.5942 48.9531 55.6045 48.9283 55.6045 48.9025V47.3432C55.6045 47.3025 55.5792 47.266 55.5411 47.2518C55.5209 47.244 55.4925 47.2343 55.465 47.2228L55.3679 47.1828L55.2451 47.1322C55.2008 47.1137 55.1479 47.0934 55.1035 47.0715L54.7801 46.9209C54.6531 46.8645 54.5404 46.802 54.4068 46.7341C54.3419 46.7001 54.2815 46.6647 54.2149 46.628C54.15 46.5913 54.0786 46.5532 54.0167 46.5139L53.8173 46.3924L53.766 46.3608L53.7183 46.3288L53.6211 46.2636L53.5213 46.1967C53.4878 46.1741 53.4523 46.1512 53.4228 46.1281L53.2328 45.9861C52.7195 45.5993 52.2905 45.1481 52.0079 44.6646C51.9367 44.5437 51.8803 44.4208 51.823 44.2964C51.7942 44.2339 51.7653 44.1713 51.7366 44.1088L51.6544 43.9192C51.5975 43.7923 51.5494 43.6643 51.4967 43.5359C51.4478 43.4075 51.3985 43.2786 51.3536 43.1496C51.2624 42.8918 51.1842 42.6339 51.1143 42.3801C51.0666 42.2016 51.0241 42.0216 50.987 41.8406C51.9783 42.945 53.4173 43.6392 55.0189 43.6357Z" fill="#0C5867"/>
<path d="M55.0189 115.636C58.0314 115.629 60.4348 113.197 60.4073 110.185C60.3815 107.352 58.1743 105.04 55.3841 104.847C55.2165 104.836 55.1115 104.664 55.1772 104.509C55.4583 103.847 55.6112 103.117 55.6043 102.351C55.5778 99.4305 53.1983 97.0398 50.2781 97.0005C47.2613 96.9599 44.8031 99.3932 44.8031 102.401C44.8031 103.149 44.9556 103.862 45.2309 104.51C45.2964 104.665 45.1908 104.836 45.0237 104.847C42.2334 105.04 40.0261 107.352 40.0002 110.185C39.9728 113.197 42.3761 115.629 45.3886 115.636C46.9907 115.639 48.4301 114.944 49.4214 113.839C49.3842 114.021 49.3417 114.201 49.2939 114.38C49.224 114.634 49.1459 114.892 49.0546 115.149C49.0097 115.278 48.9605 115.407 48.9115 115.536C48.8588 115.664 48.8107 115.792 48.7539 115.919L48.6717 116.109L48.5852 116.296C48.528 116.421 48.4715 116.544 48.4003 116.664C48.1178 117.148 47.6889 117.599 47.1755 117.986L46.9854 118.128C46.956 118.151 46.9205 118.174 46.887 118.197L46.7872 118.263L46.6899 118.329L46.6423 118.361L46.591 118.392L46.3915 118.514C46.3296 118.553 46.2583 118.591 46.1933 118.628C46.1267 118.665 46.0663 118.7 46.0015 118.734C45.8678 118.802 45.7552 118.864 45.6281 118.921L45.3047 119.071C45.2603 119.093 45.2075 119.114 45.1632 119.132L45.0404 119.183L44.9433 119.223C44.9158 119.234 44.8874 119.244 44.8672 119.252C44.8486 119.259 44.8325 119.271 44.8212 119.287C44.8098 119.304 44.8038 119.323 44.8038 119.343V120.902C44.8038 120.956 44.8474 121 44.9013 121H55.507C55.5328 121 55.5576 120.99 55.5759 120.971C55.5942 120.953 55.6045 120.928 55.6045 120.902V119.343C55.6045 119.302 55.5792 119.266 55.5411 119.252C55.5209 119.244 55.4925 119.234 55.465 119.223L55.3679 119.183L55.2451 119.132C55.2008 119.114 55.1479 119.093 55.1035 119.072L54.7801 118.921C54.6531 118.864 54.5404 118.802 54.4068 118.734C54.3419 118.7 54.2815 118.665 54.2149 118.628C54.15 118.591 54.0786 118.553 54.0167 118.514L53.8173 118.392L53.766 118.361L53.7183 118.329L53.6211 118.264L53.5213 118.197C53.4878 118.174 53.4523 118.151 53.4228 118.128L53.2328 117.986C52.7195 117.599 52.2905 117.148 52.0079 116.665C51.9367 116.544 51.8803 116.421 51.823 116.296C51.7942 116.234 51.7653 116.171 51.7366 116.109L51.6544 115.919C51.5975 115.792 51.5494 115.664 51.4967 115.536C51.4478 115.407 51.3985 115.279 51.3536 115.15C51.2624 114.892 51.1842 114.634 51.1143 114.38C51.0666 114.202 51.0241 114.022 50.987 113.841C51.9783 114.945 53.4173 115.639 55.0189 115.636Z" fill="#0C5867"/>
</svg>
