<svg width="100" height="150" viewBox="0 0 100 150" fill="none" xmlns="http://www.w3.org/2000/svg">
<rect width="100" height="150" rx="10" fill="#D9D9D9"/>
<path d="M89.5062 139.98H84.5262L83.7862 142H80.9862L86.8862 127.82H87.0862L93.0062 142H90.2862L89.5062 139.98ZM88.7662 138.04L87.3062 134.24L86.9662 133.12L86.6462 134.24L85.2462 138.04H88.7662Z" fill="#0C5867"/>
<path d="M13.5062 17.98H8.52617L7.78617 20H4.98617L10.8862 5.82H11.0862L17.0062 20H14.2862L13.5062 17.98ZM12.7662 16.04L11.3062 12.24L10.9662 11.12L10.6462 12.24L9.24617 16.04H12.7662Z" fill="#0C5867"/>
<path d="M62.9039 68.2791C54.9664 62.3785 52.2287 57.6564 50.3729 54C48.5145 57.6564 45.7795 62.3785 37.842 68.2791C24.3057 78.3401 37.0466 92.3804 48.2494 84.6528C47.5197 89.4484 45.0288 92.9447 42.4984 94.4513V96H58.2474V94.4513C55.7171 92.9447 53.2261 89.4484 52.4964 84.6528C63.6992 92.3804 76.4402 78.3401 62.9039 68.2791Z" fill="#0C5867"/>
</svg>
