<svg width="100" height="150" viewBox="0 0 100 150" fill="none" xmlns="http://www.w3.org/2000/svg">
<rect width="100" height="150" rx="10" fill="#D9D9D9"/>
<path d="M14.75 13.72C15.5833 14 16.24 14.4333 16.72 15.02C17.2 15.6067 17.44 16.3267 17.44 17.18C17.44 18.1333 17.1867 18.9233 16.68 19.55C16.18 20.1767 15.53 20.6367 14.73 20.93C13.9367 21.2167 13.0933 21.36 12.2 21.36C11.3 21.36 10.45 21.2167 9.65 20.93C8.85667 20.6367 8.20667 20.1767 7.7 19.55C7.19333 18.9233 6.94 18.1333 6.94 17.18C6.94 16.3333 7.17667 15.62 7.65 15.04C8.12333 14.4533 8.77667 14.0133 9.61 13.72C8.94333 13.42 8.43 12.99 8.07 12.43C7.71667 11.8633 7.54 11.1667 7.54 10.34C7.54 9.50667 7.76 8.82 8.2 8.28C8.64 7.73333 9.21333 7.33667 9.92 7.09C10.6267 6.84333 11.3933 6.72 12.22 6.72C13.04 6.72 13.7967 6.84333 14.49 7.09C15.19 7.33667 15.7567 7.73333 16.19 8.28C16.6233 8.82 16.84 9.50667 16.84 10.34C16.84 11.1467 16.6533 11.8333 16.28 12.4C15.9133 12.9667 15.4033 13.4067 14.75 13.72ZM12.24 8.56C10.8933 8.56 10.22 9.21333 10.22 10.52C10.22 11.2333 10.4 11.7933 10.76 12.2C11.12 12.6 11.6133 12.8 12.24 12.8C12.86 12.8 13.3367 12.6 13.67 12.2C14.01 11.8 14.18 11.24 14.18 10.52C14.18 9.86 14.0233 9.37 13.71 9.05C13.3967 8.72333 12.9067 8.56 12.24 8.56ZM12.2 19.34C12.9667 19.34 13.5467 19.1567 13.94 18.79C14.34 18.4233 14.54 17.8733 14.54 17.14C14.54 16.3133 14.3133 15.71 13.86 15.33C13.4067 14.95 12.8533 14.76 12.2 14.76C11.5333 14.76 10.97 14.95 10.51 15.33C10.05 15.71 9.82 16.3133 9.82 17.14C9.82 17.8733 10.02 18.4233 10.42 18.79C10.8267 19.1567 11.42 19.34 12.2 19.34Z" fill="#0C5867"/>
<path d="M89.75 134.72C90.5833 135 91.24 135.433 91.72 136.02C92.2 136.607 92.44 137.327 92.44 138.18C92.44 139.133 92.1867 139.923 91.68 140.55C91.18 141.177 90.53 141.637 89.73 141.93C88.9367 142.217 88.0933 142.36 87.2 142.36C86.3 142.36 85.45 142.217 84.65 141.93C83.8567 141.637 83.2067 141.177 82.7 140.55C82.1933 139.923 81.94 139.133 81.94 138.18C81.94 137.333 82.1767 136.62 82.65 136.04C83.1233 135.453 83.7767 135.013 84.61 134.72C83.9433 134.42 83.43 133.99 83.07 133.43C82.7167 132.863 82.54 132.167 82.54 131.34C82.54 130.507 82.76 129.82 83.2 129.28C83.64 128.733 84.2133 128.337 84.92 128.09C85.6267 127.843 86.3933 127.72 87.22 127.72C88.04 127.72 88.7967 127.843 89.49 128.09C90.19 128.337 90.7567 128.733 91.19 129.28C91.6233 129.82 91.84 130.507 91.84 131.34C91.84 132.147 91.6533 132.833 91.28 133.4C90.9133 133.967 90.4033 134.407 89.75 134.72ZM87.24 129.56C85.8933 129.56 85.22 130.213 85.22 131.52C85.22 132.233 85.4 132.793 85.76 133.2C86.12 133.6 86.6133 133.8 87.24 133.8C87.86 133.8 88.3367 133.6 88.67 133.2C89.01 132.8 89.18 132.24 89.18 131.52C89.18 130.86 89.0233 130.37 88.71 130.05C88.3967 129.723 87.9067 129.56 87.24 129.56ZM87.2 140.34C87.9667 140.34 88.5467 140.157 88.94 139.79C89.34 139.423 89.54 138.873 89.54 138.14C89.54 137.313 89.3133 136.71 88.86 136.33C88.4067 135.95 87.8533 135.76 87.2 135.76C86.5333 135.76 85.97 135.95 85.51 136.33C85.05 136.71 84.82 137.313 84.82 138.14C84.82 138.873 85.02 139.423 85.42 139.79C85.8267 140.157 86.42 140.34 87.2 140.34Z" fill="#0C5867"/>
<path d="M81.8203 38.7718C77.5001 35.5602 76.0101 32.9901 75 31C73.9885 32.9901 72.4999 35.5602 68.1797 38.7718C60.8121 44.2478 67.7468 51.8896 73.8442 47.6837C73.4471 50.2938 72.0913 52.1968 70.7141 53.0168V53.8597H79.2859V53.0168C77.9087 52.1968 76.5529 50.2938 76.1558 47.6837C82.2532 51.8896 89.1879 44.2478 81.8203 38.7718Z" fill="#0C5867"/>
<path d="M32.8203 71.7718C28.5001 68.5602 27.0101 65.9901 26 64C24.9885 65.9901 23.4999 68.5602 19.1797 71.7718C11.8121 77.2478 18.7468 84.8896 24.8442 80.6837C24.4471 83.2938 23.0913 85.1968 21.7141 86.0168V86.8597H30.2859V86.0168C28.9087 85.1968 27.5529 83.2938 27.1558 80.6837C33.2532 84.8896 40.1879 77.2478 32.8203 71.7718Z" fill="#0C5867"/>
<path d="M81.8203 71.7718C77.5001 68.5602 76.0101 65.9901 75 64C73.9885 65.9901 72.4999 68.5602 68.1797 71.7718C60.8121 77.2478 67.7468 84.8896 73.8442 80.6837C73.4471 83.2938 72.0913 85.1968 70.7141 86.0168V86.8597H79.2859V86.0168C77.9087 85.1968 76.5529 83.2938 76.1558 80.6837C82.2532 84.8896 89.1879 77.2478 81.8203 71.7718Z" fill="#0C5867"/>
<path d="M56.8203 55.7718C52.5001 52.5602 51.0101 49.9901 50 48C48.9885 49.9901 47.4999 52.5602 43.1797 55.7718C35.8121 61.2478 42.7468 68.8896 48.8442 64.6837C48.4471 67.2938 47.0913 69.1968 45.7141 70.0168V70.8597H54.2859V70.0168C52.9087 69.1968 51.5529 67.2938 51.1558 64.6837C57.2532 68.8896 64.1879 61.2478 56.8203 55.7718Z" fill="#0C5867"/>
<path d="M56.8203 90.7718C52.5001 87.5602 51.0101 84.9901 50 83C48.9885 84.9901 47.4999 87.5602 43.1797 90.7718C35.8121 96.2478 42.7468 103.89 48.8442 99.6837C48.4471 102.294 47.0913 104.197 45.7141 105.017V105.86H54.2859V105.017C52.9087 104.197 51.5529 102.294 51.1558 99.6837C57.2532 103.89 64.1879 96.2478 56.8203 90.7718Z" fill="#0C5867"/>
<path d="M32.8203 38.7718C28.5001 35.5602 27.0101 32.9901 26 31C24.9885 32.9901 23.4999 35.5602 19.1797 38.7718C11.8121 44.2478 18.7468 51.8896 24.8442 47.6837C24.4471 50.2938 23.0913 52.1968 21.7141 53.0168V53.8597H30.2859V53.0168C28.9087 52.1968 27.5529 50.2938 27.1558 47.6837C33.2532 51.8896 40.1879 44.2478 32.8203 38.7718Z" fill="#0C5867"/>
<path d="M81.8203 106.772C77.5001 103.56 76.0101 100.99 75 99C73.9885 100.99 72.4999 103.56 68.1797 106.772C60.8121 112.248 67.7468 119.89 73.8442 115.684C73.4471 118.294 72.0913 120.197 70.7141 121.017V121.86H79.2859V121.017C77.9087 120.197 76.5529 118.294 76.1558 115.684C82.2532 119.89 89.1879 112.248 81.8203 106.772Z" fill="#0C5867"/>
<path d="M32.8203 106.772C28.5001 103.56 27.0101 100.99 26 99C24.9885 100.99 23.4999 103.56 19.1797 106.772C11.8121 112.248 18.7468 119.89 24.8442 115.684C24.4471 118.294 23.0913 120.197 21.7141 121.017V121.86H30.2859V121.017C28.9087 120.197 27.5529 118.294 27.1558 115.684C33.2532 119.89 40.1879 112.248 32.8203 106.772Z" fill="#0C5867"/>
</svg>
