<svg width="100" height="150" viewBox="0 0 100 150" fill="none" xmlns="http://www.w3.org/2000/svg">
<rect width="100" height="150" rx="10" fill="#D9D9D9"/>
<path d="M10.6 21.26C9.92 21.26 9.24667 21.1867 8.58 21.04C7.92 20.8933 7.36 20.6667 6.9 20.36L7.64 18.12C7.93333 18.3933 8.32667 18.6233 8.82 18.81C9.31333 18.99 9.79333 19.08 10.26 19.08C10.8067 19.08 11.3067 19.0233 11.76 18.91C12.2133 18.79 12.6 18.54 12.92 18.16C13.24 17.7733 13.4 17.2133 13.4 16.48C13.4 15.9533 13.28 15.4967 13.04 15.11C12.8067 14.7167 12.46 14.4133 12 14.2C11.5467 13.9867 11 13.88 10.36 13.88C9.84 13.88 9.29667 13.95 8.73 14.09C8.16333 14.23 7.76 14.3733 7.52 14.52L7.78 7.06H15.5V9.18H10.06L9.86 12.16C10.16 12.0733 10.46 12.0133 10.76 11.98C11.0667 11.94 11.4067 11.92 11.78 11.92C12.7067 11.92 13.4933 12.0967 14.14 12.45C14.7867 12.7967 15.2733 13.2933 15.6 13.94C15.9333 14.58 16.1 15.34 16.1 16.22C16.1 17.2467 15.87 18.14 15.41 18.9C14.95 19.66 14.3033 20.2433 13.47 20.65C12.6433 21.0567 11.6867 21.26 10.6 21.26Z" fill="#0C5867"/>
<path d="M85.6 142.26C84.92 142.26 84.2467 142.187 83.58 142.04C82.92 141.893 82.36 141.667 81.9 141.36L82.64 139.12C82.9333 139.393 83.3267 139.623 83.82 139.81C84.3133 139.99 84.7933 140.08 85.26 140.08C85.8067 140.08 86.3067 140.023 86.76 139.91C87.2133 139.79 87.6 139.54 87.92 139.16C88.24 138.773 88.4 138.213 88.4 137.48C88.4 136.953 88.28 136.497 88.04 136.11C87.8067 135.717 87.46 135.413 87 135.2C86.5467 134.987 86 134.88 85.36 134.88C84.84 134.88 84.2967 134.95 83.73 135.09C83.1633 135.23 82.76 135.373 82.52 135.52L82.78 128.06H90.5V130.18H85.06L84.86 133.16C85.16 133.073 85.46 133.013 85.76 132.98C86.0667 132.94 86.4067 132.92 86.78 132.92C87.7067 132.92 88.4933 133.097 89.14 133.45C89.7867 133.797 90.2733 134.293 90.6 134.94C90.9333 135.58 91.1 136.34 91.1 137.22C91.1 138.247 90.87 139.14 90.41 139.9C89.95 140.66 89.3033 141.243 88.47 141.65C87.6433 142.057 86.6867 142.26 85.6 142.26Z" fill="#0C5867"/>
<path d="M81.8203 38.7718C77.5001 35.5602 76.0101 32.9901 75 31C73.9885 32.9901 72.4999 35.5602 68.1797 38.7718C60.8121 44.2478 67.7468 51.8896 73.8442 47.6837C73.4471 50.2938 72.0913 52.1968 70.7141 53.0168V53.8597H79.2859V53.0168C77.9087 52.1968 76.5529 50.2938 76.1558 47.6837C82.2532 51.8896 89.1879 44.2478 81.8203 38.7718Z" fill="#0C5867"/>
<path d="M56.8203 71.7718C52.5001 68.5602 51.0101 65.9901 50 64C48.9885 65.9901 47.4999 68.5602 43.1797 71.7718C35.8121 77.2478 42.7468 84.8896 48.8442 80.6837C48.4471 83.2938 47.0913 85.1968 45.7141 86.0168V86.8597H54.2859V86.0168C52.9087 85.1968 51.5529 83.2938 51.1558 80.6837C57.2532 84.8896 64.1879 77.2478 56.8203 71.7718Z" fill="#0C5867"/>
<path d="M32.8203 38.7718C28.5001 35.5602 27.0101 32.9901 26 31C24.9885 32.9901 23.4999 35.5602 19.1797 38.7718C11.8121 44.2478 18.7468 51.8896 24.8442 47.6837C24.4471 50.2938 23.0913 52.1968 21.7141 53.0168V53.8597H30.2859V53.0168C28.9087 52.1968 27.5529 50.2938 27.1558 47.6837C33.2532 51.8896 40.1879 44.2478 32.8203 38.7718Z" fill="#0C5867"/>
<path d="M81.8203 106.772C77.5001 103.56 76.0101 100.99 75 99C73.9885 100.99 72.4999 103.56 68.1797 106.772C60.8121 112.248 67.7468 119.89 73.8442 115.684C73.4471 118.294 72.0913 120.197 70.7141 121.017V121.86H79.2859V121.017C77.9087 120.197 76.5529 118.294 76.1558 115.684C82.2532 119.89 89.1879 112.248 81.8203 106.772Z" fill="#0C5867"/>
<path d="M32.8203 106.772C28.5001 103.56 27.0101 100.99 26 99C24.9885 100.99 23.4999 103.56 19.1797 106.772C11.8121 112.248 18.7468 119.89 24.8442 115.684C24.4471 118.294 23.0913 120.197 21.7141 121.017V121.86H30.2859V121.017C28.9087 120.197 27.5529 118.294 27.1558 115.684C33.2532 119.89 40.1879 112.248 32.8203 106.772Z" fill="#0C5867"/>
</svg>
