<svg width="100" height="150" viewBox="0 0 100 150" fill="none" xmlns="http://www.w3.org/2000/svg">
<rect width="100" height="150" rx="10" fill="#D9D9D9"/>
<path d="M17.7 18.48H16.02V21H13.4V18.48H6.8L6.66 18.26L11.8 7.06H16.02V16.54H17.7V18.48ZM10.22 16.54H13.52L13.61 8.49L11.36 14.06L10.22 16.54Z" fill="#0C5867"/>
<path d="M92.7 139.48H91.02V142H88.4V139.48H81.8L81.66 139.26L86.8 128.06H91.02V137.54H92.7V139.48ZM85.22 137.54H88.52L88.61 129.49L86.36 135.06L85.22 137.54Z" fill="#0C5867"/>
<path d="M80.8203 38.7718C76.5001 35.5602 75.0101 32.9901 74 31C72.9885 32.9901 71.4999 35.5602 67.1797 38.7718C59.8121 44.2478 66.7468 51.8896 72.8442 47.6837C72.4471 50.2938 71.0913 52.1968 69.7141 53.0168V53.8597H78.2859V53.0168C76.9087 52.1968 75.5529 50.2938 75.1558 47.6837C81.2532 51.8896 88.1879 44.2478 80.8203 38.7718Z" fill="#0C5867"/>
<path d="M31.8203 38.7718C27.5001 35.5602 26.0101 32.9901 25 31C23.9885 32.9901 22.4999 35.5602 18.1797 38.7718C10.8121 44.2478 17.7468 51.8896 23.8442 47.6837C23.4471 50.2938 22.0913 52.1968 20.7141 53.0168V53.8597H29.2859V53.0168C27.9087 52.1968 26.5529 50.2938 26.1558 47.6837C32.2532 51.8896 39.1879 44.2478 31.8203 38.7718Z" fill="#0C5867"/>
<path d="M80.8203 106.772C76.5001 103.56 75.0101 100.99 74 99C72.9885 100.99 71.4999 103.56 67.1797 106.772C59.8121 112.248 66.7468 119.89 72.8442 115.684C72.4471 118.294 71.0913 120.197 69.7141 121.017V121.86H78.2859V121.017C76.9087 120.197 75.5529 118.294 75.1558 115.684C81.2532 119.89 88.1879 112.248 80.8203 106.772Z" fill="#0C5867"/>
<path d="M31.8203 106.772C27.5001 103.56 26.0101 100.99 25 99C23.9885 100.99 22.4999 103.56 18.1797 106.772C10.8121 112.248 17.7468 119.89 23.8442 115.684C23.4471 118.294 22.0913 120.197 20.7141 121.017V121.86H29.2859V121.017C27.9087 120.197 26.5529 118.294 26.1558 115.684C32.2532 119.89 39.1879 112.248 31.8203 106.772Z" fill="#0C5867"/>
</svg>
