<svg width="100" height="150" viewBox="0 0 100 150" fill="none" xmlns="http://www.w3.org/2000/svg">
<rect width="100" height="150" rx="10" fill="#D9D9D9"/>
<path d="M8.38 21.3C8.00667 21.3 7.55 21.2333 7.01 21.1C6.47667 20.9733 6.09333 20.8267 5.86 20.66L6.82 18.28C6.98667 18.5267 7.2 18.7233 7.46 18.87C7.72667 19.01 7.99333 19.08 8.26 19.08C8.59333 19.08 8.87667 19.04 9.11 18.96C9.34333 18.8733 9.54 18.6833 9.7 18.39C9.86 18.09 9.94 17.6467 9.94 17.06V7.06H12.54V16.82C12.54 18.1867 12.2167 19.2767 11.57 20.09C10.9233 20.8967 9.86 21.3 8.38 21.3Z" fill="#0C5867"/>
<path d="M86.38 142.3C86.0067 142.3 85.55 142.233 85.01 142.1C84.4767 141.973 84.0933 141.827 83.86 141.66L84.82 139.28C84.9867 139.527 85.2 139.723 85.46 139.87C85.7267 140.01 85.9933 140.08 86.26 140.08C86.5933 140.08 86.8767 140.04 87.11 139.96C87.3433 139.873 87.54 139.683 87.7 139.39C87.86 139.09 87.94 138.647 87.94 138.06V128.06H90.54V137.82C90.54 139.187 90.2167 140.277 89.57 141.09C88.9233 141.897 87.86 142.3 86.38 142.3Z" fill="#0C5867"/>
<path d="M57.3568 85.256C57.3568 89.4373 57.0794 92.9787 56.5248 95.88C56.0128 98.824 55.1808 101.213 54.0288 103.048C52.8768 104.883 51.3834 106.227 49.5488 107.08C47.7141 107.933 45.4954 108.36 42.8927 108.36C39.9914 108.36 37.8367 107.912 36.4287 107.016C35.0207 106.12 34.3167 104.989 34.3167 103.624C33.3354 103.24 32.5674 102.621 32.0127 101.768C31.4154 100.957 31.1167 100.061 31.1167 99.08C31.1167 97.9707 31.5221 97.096 32.3327 96.456C33.1434 95.816 34.2527 95.496 35.6607 95.496C36.9407 95.496 37.7727 95.7307 38.1567 96.2C37.7727 96.968 37.5807 97.8 37.5807 98.696C37.5807 100.659 38.0927 102.173 39.1167 103.24C40.1407 104.349 41.8901 104.904 44.3648 104.904C45.8154 104.904 47.0528 104.669 48.0768 104.2C49.1008 103.773 49.8688 103.005 50.3808 101.896C50.5941 101.427 50.7648 100.808 50.8928 100.04C51.0634 99.3147 51.1914 98.376 51.2768 97.224C51.4048 96.1147 51.4901 94.7493 51.5328 93.128C51.5754 91.5493 51.5968 89.6293 51.5968 87.368V47.304C51.5968 45.9813 51.1061 44.9787 50.1248 44.296C49.1434 43.5707 47.7354 43.208 45.9008 43.208C45.9008 41.416 47.0528 40.52 49.3568 40.52C51.4474 40.52 53.1541 41.1813 54.4768 42.504C55.7994 41.1813 57.5061 40.52 59.5968 40.52C61.9008 40.52 63.0528 41.416 63.0528 43.208C61.2608 43.208 59.8528 43.5707 58.8288 44.296C57.8474 45.0213 57.3568 46.024 57.3568 47.304V85.256Z" fill="#0C5867"/>
<path d="M89.9803 12.4596C86.3896 9.79026 85.1511 7.65408 84.3116 6C83.4709 7.65408 82.2336 9.79026 78.6428 12.4596C72.5192 17.011 78.283 23.3625 83.3509 19.8668C83.0208 22.0362 81.894 23.6178 80.7493 24.2994V25H87.8738V24.2994C86.7292 23.6178 85.6023 22.0362 85.2722 19.8668C90.3401 23.3625 96.1039 17.011 89.9803 12.4596V12.4596Z" fill="#0C5867"/>
<path d="M19.9803 129.46C16.3896 126.79 15.1511 124.654 14.3116 123C13.4709 124.654 12.2336 126.79 8.64279 129.46C2.51923 134.011 8.283 140.363 13.3509 136.867C13.0208 139.036 11.894 140.618 10.7493 141.299V142H17.8738V141.299C16.7292 140.618 15.6023 139.036 15.2722 136.867C20.3401 140.363 26.1039 134.011 19.9803 129.46V129.46Z" fill="#0C5867"/>
</svg>
