<svg width="100" height="150" viewBox="0 0 100 150" fill="none" xmlns="http://www.w3.org/2000/svg">
<rect width="100" height="150" rx="10" fill="#D9D9D9"/>
<path d="M81.8203 31.7718C77.5001 28.5602 76.0101 25.9901 75 24C73.9885 25.9901 72.4999 28.5602 68.1797 31.7718C60.8121 37.2478 67.7468 44.8896 73.8442 40.6837C73.4471 43.2938 72.0913 45.1968 70.7141 46.0168V46.8597H79.2859V46.0168C77.9087 45.1968 76.5529 43.2938 76.1558 40.6837C82.2532 44.8896 89.1879 37.2478 81.8203 31.7718Z" fill="#0C5867"/>
<path d="M81.8203 56.7718C77.5001 53.5602 76.0101 50.9901 75 49C73.9885 50.9901 72.4999 53.5602 68.1797 56.7718C60.8121 62.2478 67.7468 69.8896 73.8442 65.6837C73.4471 68.2938 72.0913 70.1968 70.7141 71.0168V71.8597H79.2859V71.0168C77.9087 70.1968 76.5529 68.2938 76.1558 65.6837C82.2532 69.8896 89.1879 62.2478 81.8203 56.7718Z" fill="#0C5867"/>
<path d="M81.8203 82.7718C77.5001 79.5602 76.0101 76.9901 75 75C73.9885 76.9901 72.4999 79.5602 68.1797 82.7718C60.8121 88.2478 67.7468 95.8896 73.8442 91.6837C73.4471 94.2938 72.0913 96.1968 70.7141 97.0168V97.8597H79.2859V97.0168C77.9087 96.1968 76.5529 94.2938 76.1558 91.6837C82.2532 95.8896 89.1879 88.2478 81.8203 82.7718Z" fill="#0C5867"/>
<path d="M32.8203 82.7718C28.5001 79.5602 27.0101 76.9901 26 75C24.9885 76.9901 23.4999 79.5602 19.1797 82.7718C11.8121 88.2478 18.7468 95.8896 24.8442 91.6837C24.4471 94.2938 23.0913 96.1968 21.7141 97.0168V97.8597H30.2859V97.0168C28.9087 96.1968 27.5529 94.2938 27.1558 91.6837C33.2532 95.8896 40.1879 88.2478 32.8203 82.7718Z" fill="#0C5867"/>
<path d="M32.8203 56.7718C28.5001 53.5602 27.0101 50.9901 26 49C24.9885 50.9901 23.4999 53.5602 19.1797 56.7718C11.8121 62.2478 18.7468 69.8896 24.8442 65.6837C24.4471 68.2938 23.0913 70.1968 21.7141 71.0168V71.8597H30.2859V71.0168C28.9087 70.1968 27.5529 68.2938 27.1558 65.6837C33.2532 69.8896 40.1879 62.2478 32.8203 56.7718Z" fill="#0C5867"/>
<path d="M32.8203 31.7718C28.5001 28.5602 27.0101 25.9901 26 24C24.9885 25.9901 23.4999 28.5602 19.1797 31.7718C11.8121 37.2478 18.7468 44.8896 24.8442 40.6837C24.4471 43.2938 23.0913 45.1968 21.7141 46.0168V46.8597H30.2859V46.0168C28.9087 45.1968 27.5529 43.2938 27.1558 40.6837C33.2532 44.8896 40.1879 37.2478 32.8203 31.7718Z" fill="#0C5867"/>
<path d="M81.8203 108.772C77.5001 105.56 76.0101 102.99 75 101C73.9885 102.99 72.4999 105.56 68.1797 108.772C60.8121 114.248 67.7468 121.89 73.8442 117.684C73.4471 120.294 72.0913 122.197 70.7141 123.017V123.86H79.2859V123.017C77.9087 122.197 76.5529 120.294 76.1558 117.684C82.2532 121.89 89.1879 114.248 81.8203 108.772Z" fill="#0C5867"/>
<path d="M32.8203 108.772C28.5001 105.56 27.0101 102.99 26 101C24.9885 102.99 23.4999 105.56 19.1797 108.772C11.8121 114.248 18.7468 121.89 24.8442 117.684C24.4471 120.294 23.0913 122.197 21.7141 123.017V123.86H30.2859V123.017C28.9087 122.197 27.5529 120.294 27.1558 117.684C33.2532 121.89 40.1879 114.248 32.8203 108.772Z" fill="#0C5867"/>
<path d="M56.8203 71.7718C52.5001 68.5602 51.0101 65.9901 50 64C48.9885 65.9901 47.4999 68.5602 43.1797 71.7718C35.8121 77.2478 42.7468 84.8896 48.8442 80.6837C48.4471 83.2938 47.0913 85.1968 45.7141 86.0168V86.8597H54.2859V86.0168C52.9087 85.1968 51.5529 83.2938 51.1558 80.6837C57.2532 84.8896 64.1879 77.2478 56.8203 71.7718Z" fill="#0C5867"/>
<path d="M11.54 21.3C10.6533 21.3 9.94667 21.2133 9.42 21.04C8.9 20.8667 8.46667 20.6133 8.12 20.28L9.1 18.28C9.34667 18.5467 9.68333 18.74 10.11 18.86C10.5367 18.98 10.9667 19.04 11.4 19.04C12.08 19.04 12.6833 18.8667 13.21 18.52C13.7433 18.1667 14.1633 17.68 14.47 17.06C14.7767 16.4333 14.9467 15.72 14.98 14.92C14.9933 14.7333 15 14.4867 15 14.18C14.66 14.84 14.16 15.3367 13.5 15.67C12.84 15.9967 12.12 16.16 11.34 16.16C10.4667 16.16 9.71333 15.96 9.08 15.56C8.45333 15.1533 7.97667 14.61 7.65 13.93C7.32333 13.25 7.16 12.5 7.16 11.68C7.16 10.6733 7.38 9.79667 7.82 9.05C8.26667 8.29667 8.88333 7.72 9.67 7.32C10.4633 6.92 11.3733 6.72 12.4 6.72C13.2733 6.72 14.1033 6.95333 14.89 7.42C15.6833 7.88667 16.3367 8.64667 16.85 9.7C17.3633 10.7467 17.62 12.0933 17.62 13.74C17.62 15.2667 17.36 16.6033 16.84 17.75C16.32 18.89 15.6 19.7667 14.68 20.38C13.76 20.9933 12.7133 21.3 11.54 21.3ZM12 14.12C12.4333 14.12 12.8467 14.0133 13.24 13.8C13.64 13.58 13.9667 13.29 14.22 12.93C14.4733 12.5633 14.6133 12.1667 14.64 11.74C14.64 11.2067 14.55 10.7167 14.37 10.27C14.19 9.81667 13.9267 9.45667 13.58 9.19C13.2333 8.91667 12.82 8.78 12.34 8.78C11.9067 8.78 11.5 8.88667 11.12 9.1C10.74 9.30667 10.43 9.61333 10.19 10.02C9.95667 10.42 9.84 10.8933 9.84 11.44C9.84 12.2467 10.0233 12.8967 10.39 13.39C10.7633 13.8767 11.3 14.12 12 14.12Z" fill="#0C5867"/>
<path d="M86.54 142.3C85.6533 142.3 84.9467 142.213 84.42 142.04C83.9 141.867 83.4667 141.613 83.12 141.28L84.1 139.28C84.3467 139.547 84.6833 139.74 85.11 139.86C85.5367 139.98 85.9667 140.04 86.4 140.04C87.08 140.04 87.6833 139.867 88.21 139.52C88.7433 139.167 89.1633 138.68 89.47 138.06C89.7767 137.433 89.9467 136.72 89.98 135.92C89.9933 135.733 90 135.487 90 135.18C89.66 135.84 89.16 136.337 88.5 136.67C87.84 136.997 87.12 137.16 86.34 137.16C85.4667 137.16 84.7133 136.96 84.08 136.56C83.4533 136.153 82.9767 135.61 82.65 134.93C82.3233 134.25 82.16 133.5 82.16 132.68C82.16 131.673 82.38 130.797 82.82 130.05C83.2667 129.297 83.8833 128.72 84.67 128.32C85.4633 127.92 86.3733 127.72 87.4 127.72C88.2733 127.72 89.1033 127.953 89.89 128.42C90.6833 128.887 91.3367 129.647 91.85 130.7C92.3633 131.747 92.62 133.093 92.62 134.74C92.62 136.267 92.36 137.603 91.84 138.75C91.32 139.89 90.6 140.767 89.68 141.38C88.76 141.993 87.7133 142.3 86.54 142.3ZM87 135.12C87.4333 135.12 87.8467 135.013 88.24 134.8C88.64 134.58 88.9667 134.29 89.22 133.93C89.4733 133.563 89.6133 133.167 89.64 132.74C89.64 132.207 89.55 131.717 89.37 131.27C89.19 130.817 88.9267 130.457 88.58 130.19C88.2333 129.917 87.82 129.78 87.34 129.78C86.9067 129.78 86.5 129.887 86.12 130.1C85.74 130.307 85.43 130.613 85.19 131.02C84.9567 131.42 84.84 131.893 84.84 132.44C84.84 133.247 85.0233 133.897 85.39 134.39C85.7633 134.877 86.3 135.12 87 135.12Z" fill="#0C5867"/>
</svg>
