<svg width="100" height="150" viewBox="0 0 100 150" fill="none" xmlns="http://www.w3.org/2000/svg">
<rect width="100" height="150" rx="10" fill="#D9D9D9"/>
<path d="M18.38 14.02C18.38 15.6667 18.0967 17.07 17.53 18.23C16.97 19.39 16.16 20.22 15.1 20.72L16.62 23.22L14.32 24.46L12.8 21.24H12.6C11.36 21.24 10.3033 20.9467 9.43 20.36C8.55667 19.7667 7.89667 18.93 7.45 17.85C7.00333 16.7633 6.78 15.4867 6.78 14.02C6.78 12.5667 7 11.3 7.44 10.22C7.88667 9.13333 8.54 8.29667 9.4 7.71C10.2667 7.11667 11.3133 6.82 12.54 6.82C13.8133 6.82 14.8867 7.12 15.76 7.72C16.6333 8.31333 17.2867 9.15 17.72 10.23C18.16 11.31 18.38 12.5733 18.38 14.02ZM9.46 13.98C9.46 15.1133 9.58667 16.0633 9.84 16.83C10.1 17.59 10.4633 18.16 10.93 18.54C11.4033 18.9133 11.96 19.1 12.6 19.1C13.1933 19.1 13.7233 18.91 14.19 18.53C14.6633 18.15 15.0367 17.5733 15.31 16.8C15.5833 16.0267 15.72 15.08 15.72 13.96C15.72 12.3133 15.44 11.06 14.88 10.2C14.3267 9.33333 13.5467 8.9 12.54 8.9C11.56 8.9 10.8 9.33333 10.26 10.2C9.72667 11.06 9.46 12.32 9.46 13.98Z" fill="#0C5867"/>
<path d="M93.38 135.02C93.38 136.667 93.0967 138.07 92.53 139.23C91.97 140.39 91.16 141.22 90.1 141.72L91.62 144.22L89.32 145.46L87.8 142.24H87.6C86.36 142.24 85.3033 141.947 84.43 141.36C83.5567 140.767 82.8967 139.93 82.45 138.85C82.0033 137.763 81.78 136.487 81.78 135.02C81.78 133.567 82 132.3 82.44 131.22C82.8867 130.133 83.54 129.297 84.4 128.71C85.2667 128.117 86.3133 127.82 87.54 127.82C88.8133 127.82 89.8867 128.12 90.76 128.72C91.6333 129.313 92.2867 130.15 92.72 131.23C93.16 132.31 93.38 133.573 93.38 135.02ZM84.46 134.98C84.46 136.113 84.5867 137.063 84.84 137.83C85.1 138.59 85.4633 139.16 85.93 139.54C86.4033 139.913 86.96 140.1 87.6 140.1C88.1933 140.1 88.7233 139.91 89.19 139.53C89.6633 139.15 90.0367 138.573 90.31 137.8C90.5833 137.027 90.72 136.08 90.72 134.96C90.72 133.313 90.44 132.06 89.88 131.2C89.3267 130.333 88.5467 129.9 87.54 129.9C86.56 129.9 85.8 130.333 85.26 131.2C84.7267 132.06 84.46 133.32 84.46 134.98Z" fill="#0C5867"/>
<path d="M44.504 106.768C42.84 106.512 42.008 105.616 42.008 104.08C42.008 103.525 42.264 102.949 42.776 102.352C42.776 100.517 43.4373 99.2587 44.76 98.576C43.2667 98.4053 41.8373 98.1493 40.472 97.808C39.1493 97.424 37.9547 96.912 36.888 96.272C35.864 95.632 35.032 94.8427 34.392 93.904C33.7947 92.9653 33.496 91.8347 33.496 90.512C32.0453 90.512 30.872 89.9573 29.976 88.848C29.1227 87.7387 28.44 86.288 27.928 84.496C27.4587 82.6613 27.1387 80.6133 26.968 78.352C26.84 76.0907 26.776 73.808 26.776 71.504C26.776 67.6213 27.288 64.08 28.312 60.88C29.3787 57.68 30.936 54.9493 32.984 52.688C35.0747 50.384 37.6347 48.6133 40.664 47.376C43.6933 46.1387 47.192 45.52 51.16 45.52C52.0987 45.52 53.3147 45.584 54.808 45.712C56.3013 45.84 57.752 46.1387 59.16 46.608C60.6107 47.0347 61.848 47.6747 62.872 48.528C63.896 49.3813 64.408 50.5547 64.408 52.048C65.9867 52.048 67.288 52.6667 68.312 53.904C69.3787 55.0987 70.232 56.6347 70.872 58.512C71.512 60.3467 71.96 62.352 72.216 64.528C72.472 66.704 72.6 68.7733 72.6 70.736C72.6 75.1733 72.024 79.12 70.872 82.576C69.7627 85.9893 68.2267 88.8907 66.264 91.28C64.344 93.6267 62.0613 95.44 59.416 96.72C56.7707 98 53.912 98.704 50.84 98.832C51.864 99.1307 52.9093 99.472 53.976 99.856C55.0853 100.283 56.152 100.667 57.176 101.008C58.2427 101.392 59.288 101.712 60.312 101.968C61.336 102.224 62.296 102.352 63.192 102.352C64.1733 102.352 65.0267 102.032 65.752 101.392C66.52 100.752 67.0533 99.6213 67.352 98C67.992 98.3413 68.4827 98.8107 68.824 99.408C69.208 100.005 69.4 100.624 69.4 101.264C69.4 102.203 69.1013 102.907 68.504 103.376C68.504 104.784 68.0133 105.744 67.032 106.256C66.0507 106.768 64.984 107.024 63.832 107.024C62.296 107.024 60.7813 106.811 59.288 106.384C57.7947 105.957 56.344 105.467 54.936 104.912C53.5707 104.4 52.248 103.931 50.968 103.504C49.688 103.077 48.4933 102.864 47.384 102.864C46.5307 102.864 45.848 103.141 45.336 103.696C44.824 104.251 44.5467 105.275 44.504 106.768ZM49.752 95.76C52.568 95.76 55 95.12 57.048 93.84C59.096 92.5173 60.76 90.768 62.04 88.592C63.3627 86.3733 64.3227 83.8133 64.92 80.912C65.56 78.0107 65.88 74.96 65.88 71.76C65.88 68.56 65.56 65.5733 64.92 62.8C64.3227 60.0267 63.3627 57.616 62.04 55.568C60.7173 53.4773 59.032 51.8347 56.984 50.64C54.9787 49.4453 52.5467 48.848 49.688 48.848C46.872 48.848 44.44 49.4453 42.392 50.64C40.344 51.792 38.6587 53.392 37.336 55.44C36.0133 57.488 35.032 59.92 34.392 62.736C33.7947 65.5093 33.496 68.496 33.496 71.696C33.496 74.896 33.7947 77.968 34.392 80.912C35.032 83.8133 36.0133 86.3733 37.336 88.592C38.6587 90.768 40.344 92.5173 42.392 93.84C44.44 95.12 46.8933 95.76 49.752 95.76Z" fill="#0C5867"/>
<path d="M91.9803 12.4596C88.3896 9.79026 87.1511 7.65408 86.3116 6C85.4709 7.65408 84.2336 9.79026 80.6428 12.4596C74.5192 17.011 80.283 23.3625 85.3509 19.8668C85.0208 22.0362 83.894 23.6178 82.7493 24.2994V25H89.8738V24.2994C88.7292 23.6178 87.6023 22.0362 87.2722 19.8668C92.3401 23.3625 98.1039 17.011 91.9803 12.4596V12.4596Z" fill="#0C5867"/>
<path d="M19.9803 129.46C16.3896 126.79 15.1511 124.654 14.3116 123C13.4709 124.654 12.2336 126.79 8.64279 129.46C2.51923 134.011 8.283 140.363 13.3509 136.867C13.0208 139.036 11.894 140.618 10.7493 141.299V142H17.8738V141.299C16.7292 140.618 15.6023 139.036 15.2722 136.867C20.3401 140.363 26.1039 134.011 19.9803 129.46V129.46Z" fill="#0C5867"/>
</svg>
