<svg width="100" height="150" viewBox="0 0 100 150" fill="none" xmlns="http://www.w3.org/2000/svg">
<rect width="100" height="150" rx="10" fill="#D9D9D9"/>
<path d="M16.04 7.06L11.54 21H8.68L12.69 9.42H6.9V7.06H16.04Z" fill="#0C5867"/>
<path d="M91.04 128.06L86.54 142H83.68L87.69 130.42H81.9V128.06H91.04Z" fill="#0C5867"/>
<path d="M81.8203 38.7718C77.5001 35.5602 76.0101 32.9901 75 31C73.9885 32.9901 72.4999 35.5602 68.1797 38.7718C60.8121 44.2478 67.7468 51.8896 73.8442 47.6837C73.4471 50.2938 72.0913 52.1968 70.7141 53.0168V53.8597H79.2859V53.0168C77.9087 52.1968 76.5529 50.2938 76.1558 47.6837C82.2532 51.8896 89.1879 44.2478 81.8203 38.7718Z" fill="#0C5867"/>
<path d="M32.8203 71.7718C28.5001 68.5602 27.0101 65.9901 26 64C24.9885 65.9901 23.4999 68.5602 19.1797 71.7718C11.8121 77.2478 18.7468 84.8896 24.8442 80.6837C24.4471 83.2938 23.0913 85.1968 21.7141 86.0168V86.8597H30.2859V86.0168C28.9087 85.1968 27.5529 83.2938 27.1558 80.6837C33.2532 84.8896 40.1879 77.2478 32.8203 71.7718Z" fill="#0C5867"/>
<path d="M81.8203 71.7718C77.5001 68.5602 76.0101 65.9901 75 64C73.9885 65.9901 72.4999 68.5602 68.1797 71.7718C60.8121 77.2478 67.7468 84.8896 73.8442 80.6837C73.4471 83.2938 72.0913 85.1968 70.7141 86.0168V86.8597H79.2859V86.0168C77.9087 85.1968 76.5529 83.2938 76.1558 80.6837C82.2532 84.8896 89.1879 77.2478 81.8203 71.7718Z" fill="#0C5867"/>
<path d="M56.8203 55.7718C52.5001 52.5602 51.0101 49.9901 50 48C48.9885 49.9901 47.4999 52.5602 43.1797 55.7718C35.8121 61.2478 42.7468 68.8896 48.8442 64.6837C48.4471 67.2938 47.0913 69.1968 45.7141 70.0168V70.8597H54.2859V70.0168C52.9087 69.1968 51.5529 67.2938 51.1558 64.6837C57.2532 68.8896 64.1879 61.2478 56.8203 55.7718Z" fill="#0C5867"/>
<path d="M32.8203 38.7718C28.5001 35.5602 27.0101 32.9901 26 31C24.9885 32.9901 23.4999 35.5602 19.1797 38.7718C11.8121 44.2478 18.7468 51.8896 24.8442 47.6837C24.4471 50.2938 23.0913 52.1968 21.7141 53.0168V53.8597H30.2859V53.0168C28.9087 52.1968 27.5529 50.2938 27.1558 47.6837C33.2532 51.8896 40.1879 44.2478 32.8203 38.7718Z" fill="#0C5867"/>
<path d="M81.8203 106.772C77.5001 103.56 76.0101 100.99 75 99C73.9885 100.99 72.4999 103.56 68.1797 106.772C60.8121 112.248 67.7468 119.89 73.8442 115.684C73.4471 118.294 72.0913 120.197 70.7141 121.017V121.86H79.2859V121.017C77.9087 120.197 76.5529 118.294 76.1558 115.684C82.2532 119.89 89.1879 112.248 81.8203 106.772Z" fill="#0C5867"/>
<path d="M32.8203 106.772C28.5001 103.56 27.0101 100.99 26 99C24.9885 100.99 23.4999 103.56 19.1797 106.772C11.8121 112.248 18.7468 119.89 24.8442 115.684C24.4471 118.294 23.0913 120.197 21.7141 121.017V121.86H30.2859V121.017C28.9087 120.197 27.5529 118.294 27.1558 115.684C33.2532 119.89 40.1879 112.248 32.8203 106.772Z" fill="#0C5867"/>
</svg>
