<svg width="100" height="150" viewBox="0 0 100 150" fill="none" xmlns="http://www.w3.org/2000/svg">
<rect width="100" height="150" rx="10" fill="#D9D9D9"/>
<path d="M12.48 21.3C11.5333 21.3 10.66 21.07 9.86 20.61C9.06 20.1433 8.41 19.3867 7.91 18.34C7.41 17.2933 7.16 15.94 7.16 14.28C7.16 12.7533 7.42 11.42 7.94 10.28C8.46 9.13333 9.18 8.25333 10.1 7.64C11.02 7.02667 12.0667 6.72 13.24 6.72C14.1267 6.72 14.83 6.80667 15.35 6.98C15.8767 7.15333 16.3133 7.40667 16.66 7.74L15.68 9.66C15.4333 9.39333 15.0967 9.2 14.67 9.08C14.2433 8.96 13.8133 8.9 13.38 8.9C12.72 8.9 12.13 9.10333 11.61 9.51C11.09 9.91 10.68 10.4333 10.38 11.08C10.08 11.72 9.90667 12.3933 9.86 13.1C9.84667 13.2867 9.84 13.5333 9.84 13.84C10.1867 13.18 10.68 12.6867 11.32 12.36C11.96 12.0267 12.6667 11.86 13.44 11.86C14.3133 11.86 15.0633 12.0567 15.69 12.45C16.3233 12.8367 16.8033 13.3633 17.13 14.03C17.4567 14.6967 17.62 15.44 17.62 16.26C17.62 17.2733 17.4067 18.16 16.98 18.92C16.5533 19.68 15.95 20.2667 15.17 20.68C14.3967 21.0933 13.5 21.3 12.48 21.3ZM12.62 19.24C13.0467 19.24 13.4367 19.13 13.79 18.91C14.1433 18.69 14.4233 18.3733 14.63 17.96C14.8367 17.54 14.94 17.0533 14.94 16.5C14.94 15.6933 14.7633 15.06 14.41 14.6C14.0633 14.1333 13.54 13.9 12.84 13.9C12.4067 13.9 11.9867 14.01 11.58 14.23C11.1733 14.4433 10.8367 14.7333 10.57 15.1C10.31 15.4667 10.1667 15.86 10.14 16.28C10.14 16.8133 10.24 17.3067 10.44 17.76C10.64 18.2067 10.9267 18.5667 11.3 18.84C11.68 19.1067 12.12 19.24 12.62 19.24Z" fill="#0C5867"/>
<path d="M87.48 142.3C86.5333 142.3 85.66 142.07 84.86 141.61C84.06 141.143 83.41 140.387 82.91 139.34C82.41 138.293 82.16 136.94 82.16 135.28C82.16 133.753 82.42 132.42 82.94 131.28C83.46 130.133 84.18 129.253 85.1 128.64C86.02 128.027 87.0667 127.72 88.24 127.72C89.1267 127.72 89.83 127.807 90.35 127.98C90.8767 128.153 91.3133 128.407 91.66 128.74L90.68 130.66C90.4333 130.393 90.0967 130.2 89.67 130.08C89.2433 129.96 88.8133 129.9 88.38 129.9C87.72 129.9 87.13 130.103 86.61 130.51C86.09 130.91 85.68 131.433 85.38 132.08C85.08 132.72 84.9067 133.393 84.86 134.1C84.8467 134.287 84.84 134.533 84.84 134.84C85.1867 134.18 85.68 133.687 86.32 133.36C86.96 133.027 87.6667 132.86 88.44 132.86C89.3133 132.86 90.0633 133.057 90.69 133.45C91.3233 133.837 91.8033 134.363 92.13 135.03C92.4567 135.697 92.62 136.44 92.62 137.26C92.62 138.273 92.4067 139.16 91.98 139.92C91.5533 140.68 90.95 141.267 90.17 141.68C89.3967 142.093 88.5 142.3 87.48 142.3ZM87.62 140.24C88.0467 140.24 88.4367 140.13 88.79 139.91C89.1433 139.69 89.4233 139.373 89.63 138.96C89.8367 138.54 89.94 138.053 89.94 137.5C89.94 136.693 89.7633 136.06 89.41 135.6C89.0633 135.133 88.54 134.9 87.84 134.9C87.4067 134.9 86.9867 135.01 86.58 135.23C86.1733 135.443 85.8367 135.733 85.57 136.1C85.31 136.467 85.1667 136.86 85.14 137.28C85.14 137.813 85.24 138.307 85.44 138.76C85.64 139.207 85.9267 139.567 86.3 139.84C86.68 140.107 87.12 140.24 87.62 140.24Z" fill="#0C5867"/>
<path d="M81.8203 38.7718C77.5001 35.5602 76.0101 32.9901 75 31C73.9885 32.9901 72.4999 35.5602 68.1797 38.7718C60.8121 44.2478 67.7468 51.8896 73.8442 47.6837C73.4471 50.2938 72.0913 52.1968 70.7141 53.0168V53.8597H79.2859V53.0168C77.9087 52.1968 76.5529 50.2938 76.1558 47.6837C82.2532 51.8896 89.1879 44.2478 81.8203 38.7718Z" fill="#0C5867"/>
<path d="M32.8203 71.7718C28.5001 68.5602 27.0101 65.9901 26 64C24.9885 65.9901 23.4999 68.5602 19.1797 71.7718C11.8121 77.2478 18.7468 84.8896 24.8442 80.6837C24.4471 83.2938 23.0913 85.1968 21.7141 86.0168V86.8597H30.2859V86.0168C28.9087 85.1968 27.5529 83.2938 27.1558 80.6837C33.2532 84.8896 40.1879 77.2478 32.8203 71.7718Z" fill="#0C5867"/>
<path d="M81.8203 71.7718C77.5001 68.5602 76.0101 65.9901 75 64C73.9885 65.9901 72.4999 68.5602 68.1797 71.7718C60.8121 77.2478 67.7468 84.8896 73.8442 80.6837C73.4471 83.2938 72.0913 85.1968 70.7141 86.0168V86.8597H79.2859V86.0168C77.9087 85.1968 76.5529 83.2938 76.1558 80.6837C82.2532 84.8896 89.1879 77.2478 81.8203 71.7718Z" fill="#0C5867"/>
<path d="M32.8203 38.7718C28.5001 35.5602 27.0101 32.9901 26 31C24.9885 32.9901 23.4999 35.5602 19.1797 38.7718C11.8121 44.2478 18.7468 51.8896 24.8442 47.6837C24.4471 50.2938 23.0913 52.1968 21.7141 53.0168V53.8597H30.2859V53.0168C28.9087 52.1968 27.5529 50.2938 27.1558 47.6837C33.2532 51.8896 40.1879 44.2478 32.8203 38.7718Z" fill="#0C5867"/>
<path d="M81.8203 106.772C77.5001 103.56 76.0101 100.99 75 99C73.9885 100.99 72.4999 103.56 68.1797 106.772C60.8121 112.248 67.7468 119.89 73.8442 115.684C73.4471 118.294 72.0913 120.197 70.7141 121.017V121.86H79.2859V121.017C77.9087 120.197 76.5529 118.294 76.1558 115.684C82.2532 119.89 89.1879 112.248 81.8203 106.772Z" fill="#0C5867"/>
<path d="M32.8203 106.772C28.5001 103.56 27.0101 100.99 26 99C24.9885 100.99 23.4999 103.56 19.1797 106.772C11.8121 112.248 18.7468 119.89 24.8442 115.684C24.4471 118.294 23.0913 120.197 21.7141 121.017V121.86H30.2859V121.017C28.9087 120.197 27.5529 118.294 27.1558 115.684C33.2532 119.89 40.1879 112.248 32.8203 106.772Z" fill="#0C5867"/>
</svg>
