<svg width="100" height="150" viewBox="0 0 100 150" fill="none" xmlns="http://www.w3.org/2000/svg">
<rect width="100" height="150" rx="10" fill="#D9D9D9"/>
<path d="M7.78 7.96L10.48 6.7V21H7.78V7.96ZM18.0695 21.36C16.3295 21.36 15.0462 20.71 14.2195 19.41C13.3995 18.11 12.9895 16.3267 12.9895 14.06C12.9895 11.6067 13.4262 9.77 14.2995 8.55C15.1729 7.33 16.4295 6.72 18.0695 6.72C19.7095 6.72 20.9662 7.33 21.8395 8.55C22.7129 9.77 23.1495 11.6067 23.1495 14.06C23.1495 16.3267 22.7362 18.11 21.9095 19.41C21.0895 20.71 19.8095 21.36 18.0695 21.36ZM18.0895 19.22C19.5962 19.22 20.3495 17.4933 20.3495 14.04C20.3495 10.56 19.5962 8.82 18.0895 8.82C16.5562 8.82 15.7895 10.56 15.7895 14.04C15.7895 15.6267 15.9695 16.8867 16.3295 17.82C16.6895 18.7533 17.2762 19.22 18.0895 19.22Z" fill="#0C5867"/>
<path d="M76.78 128.96L79.48 127.7V142H76.78V128.96ZM87.0695 142.36C85.3295 142.36 84.0462 141.71 83.2195 140.41C82.3995 139.11 81.9895 137.327 81.9895 135.06C81.9895 132.607 82.4262 130.77 83.2995 129.55C84.1729 128.33 85.4295 127.72 87.0695 127.72C88.7095 127.72 89.9662 128.33 90.8395 129.55C91.7129 130.77 92.1495 132.607 92.1495 135.06C92.1495 137.327 91.7362 139.11 90.9095 140.41C90.0895 141.71 88.8095 142.36 87.0695 142.36ZM87.0895 140.22C88.5962 140.22 89.3495 138.493 89.3495 135.04C89.3495 131.56 88.5962 129.82 87.0895 129.82C85.5562 129.82 84.7895 131.56 84.7895 135.04C84.7895 136.627 84.9695 137.887 85.3295 138.82C85.6895 139.753 86.2762 140.22 87.0895 140.22Z" fill="#0C5867"/>
<path d="M80.8203 31.7718C76.5001 28.5602 75.0101 25.9901 74 24C72.9885 25.9901 71.4999 28.5602 67.1797 31.7718C59.8121 37.2478 66.7468 44.8896 72.8442 40.6837C72.4471 43.2938 71.0913 45.1968 69.7141 46.0168V46.8597H78.2859V46.0168C76.9087 45.1968 75.5529 43.2938 75.1558 40.6837C81.2532 44.8896 88.1879 37.2478 80.8203 31.7718Z" fill="#0C5867"/>
<path d="M80.8203 56.7718C76.5001 53.5602 75.0101 50.9901 74 49C72.9885 50.9901 71.4999 53.5602 67.1797 56.7718C59.8121 62.2478 66.7468 69.8896 72.8442 65.6837C72.4471 68.2938 71.0913 70.1968 69.7141 71.0168V71.8597H78.2859V71.0168C76.9087 70.1968 75.5529 68.2938 75.1558 65.6837C81.2532 69.8896 88.1879 62.2478 80.8203 56.7718Z" fill="#0C5867"/>
<path d="M80.8203 82.7718C76.5001 79.5602 75.0101 76.9901 74 75C72.9885 76.9901 71.4999 79.5602 67.1797 82.7718C59.8121 88.2478 66.7468 95.8896 72.8442 91.6837C72.4471 94.2938 71.0913 96.1968 69.7141 97.0168V97.8597H78.2859V97.0168C76.9087 96.1968 75.5529 94.2938 75.1558 91.6837C81.2532 95.8896 88.1879 88.2478 80.8203 82.7718Z" fill="#0C5867"/>
<path d="M31.8203 82.7718C27.5001 79.5602 26.0101 76.9901 25 75C23.9885 76.9901 22.4999 79.5602 18.1797 82.7718C10.8121 88.2478 17.7468 95.8896 23.8442 91.6837C23.4471 94.2938 22.0913 96.1968 20.7141 97.0168V97.8597H29.2859V97.0168C27.9087 96.1968 26.5529 94.2938 26.1558 91.6837C32.2532 95.8896 39.1879 88.2478 31.8203 82.7718Z" fill="#0C5867"/>
<path d="M31.8203 56.7718C27.5001 53.5602 26.0101 50.9901 25 49C23.9885 50.9901 22.4999 53.5602 18.1797 56.7718C10.8121 62.2478 17.7468 69.8896 23.8442 65.6837C23.4471 68.2938 22.0913 70.1968 20.7141 71.0168V71.8597H29.2859V71.0168C27.9087 70.1968 26.5529 68.2938 26.1558 65.6837C32.2532 69.8896 39.1879 62.2478 31.8203 56.7718Z" fill="#0C5867"/>
<path d="M31.8203 31.7718C27.5001 28.5602 26.0101 25.9901 25 24C23.9885 25.9901 22.4999 28.5602 18.1797 31.7718C10.8121 37.2478 17.7468 44.8896 23.8442 40.6837C23.4471 43.2938 22.0913 45.1968 20.7141 46.0168V46.8597H29.2859V46.0168C27.9087 45.1968 26.5529 43.2938 26.1558 40.6837C32.2532 44.8896 39.1879 37.2478 31.8203 31.7718Z" fill="#0C5867"/>
<path d="M80.8203 108.772C76.5001 105.56 75.0101 102.99 74 101C72.9885 102.99 71.4999 105.56 67.1797 108.772C59.8121 114.248 66.7468 121.89 72.8442 117.684C72.4471 120.294 71.0913 122.197 69.7141 123.017V123.86H78.2859V123.017C76.9087 122.197 75.5529 120.294 75.1558 117.684C81.2532 121.89 88.1879 114.248 80.8203 108.772Z" fill="#0C5867"/>
<path d="M31.8203 108.772C27.5001 105.56 26.0101 102.99 25 101C23.9885 102.99 22.4999 105.56 18.1797 108.772C10.8121 114.248 17.7468 121.89 23.8442 117.684C23.4471 120.294 22.0913 122.197 20.7141 123.017V123.86H29.2859V123.017C27.9087 122.197 26.5529 120.294 26.1558 117.684C32.2532 121.89 39.1879 114.248 31.8203 108.772Z" fill="#0C5867"/>
<path d="M56.8203 45.7718C52.5001 42.5602 51.0101 39.9901 50 38C48.9885 39.9901 47.4999 42.5602 43.1797 45.7718C35.8121 51.2478 42.7468 58.8896 48.8442 54.6837C48.4471 57.2938 47.0913 59.1968 45.7141 60.0168V60.8597H54.2859V60.0168C52.9087 59.1968 51.5529 57.2938 51.1558 54.6837C57.2532 58.8896 64.1879 51.2478 56.8203 45.7718Z" fill="#0C5867"/>
<path d="M56.8203 96.7718C52.5001 93.5602 51.0101 90.9901 50 89C48.9885 90.9901 47.4999 93.5602 43.1797 96.7718C35.8121 102.248 42.7468 109.89 48.8442 105.684C48.4471 108.294 47.0913 110.197 45.7141 111.017V111.86H54.2859V111.017C52.9087 110.197 51.5529 108.294 51.1558 105.684C57.2532 109.89 64.1879 102.248 56.8203 96.7718Z" fill="#0C5867"/>
</svg>
