<svg width="100" height="150" viewBox="0 0 100 150" fill="none" xmlns="http://www.w3.org/2000/svg">
<rect width="100" height="150" rx="10" fill="#D9D9D9"/>
<path d="M10.94 21.3C10.1533 21.3 9.41 21.2033 8.71 21.01C8.01 20.8167 7.38667 20.5267 6.84 20.14L7.68 17.86C8.05333 18.22 8.51 18.5033 9.05 18.71C9.59667 18.9167 10.14 19.02 10.68 19.02C11.5467 19.02 12.2 18.8167 12.64 18.41C13.08 17.9967 13.3 17.4533 13.3 16.78C13.3 16.0333 13.0433 15.5167 12.53 15.23C12.0233 14.9433 11.3467 14.8 10.5 14.8H9.44V12.82H10.52C11.3133 12.82 11.9133 12.6267 12.32 12.24C12.7333 11.8533 12.94 11.34 12.94 10.7C12.94 10.0667 12.7533 9.62667 12.38 9.38C12.0067 9.12667 11.44 9 10.68 9C10.4067 9 10.0833 9.05 9.71 9.15C9.34333 9.24333 8.98333 9.38333 8.63 9.57C8.27667 9.75 7.98667 9.96667 7.76 10.22L6.76 8.1C7.21333 7.7 7.82333 7.37 8.59 7.11C9.36333 6.85 10.24 6.72 11.22 6.72C12.14 6.72 12.94 6.86 13.62 7.14C14.3 7.42 14.8233 7.83 15.19 8.37C15.5567 8.90333 15.74 9.54667 15.74 10.3C15.74 10.8133 15.6467 11.3167 15.46 11.81C15.28 12.3033 15.0133 12.73 14.66 13.09C14.3067 13.4433 13.8933 13.68 13.42 13.8C13.9667 13.8 14.4433 13.9533 14.85 14.26C15.2633 14.5667 15.5767 14.97 15.79 15.47C16.01 15.97 16.12 16.5067 16.12 17.08C16.12 17.9333 15.89 18.68 15.43 19.32C14.97 19.96 14.3467 20.45 13.56 20.79C12.7733 21.13 11.9 21.3 10.94 21.3Z" fill="#0C5867"/>
<path d="M85.94 142.3C85.1533 142.3 84.41 142.203 83.71 142.01C83.01 141.817 82.3867 141.527 81.84 141.14L82.68 138.86C83.0533 139.22 83.51 139.503 84.05 139.71C84.5967 139.917 85.14 140.02 85.68 140.02C86.5467 140.02 87.2 139.817 87.64 139.41C88.08 138.997 88.3 138.453 88.3 137.78C88.3 137.033 88.0433 136.517 87.53 136.23C87.0233 135.943 86.3467 135.8 85.5 135.8H84.44V133.82H85.52C86.3133 133.82 86.9133 133.627 87.32 133.24C87.7333 132.853 87.94 132.34 87.94 131.7C87.94 131.067 87.7533 130.627 87.38 130.38C87.0067 130.127 86.44 130 85.68 130C85.4067 130 85.0833 130.05 84.71 130.15C84.3433 130.243 83.9833 130.383 83.63 130.57C83.2767 130.75 82.9867 130.967 82.76 131.22L81.76 129.1C82.2133 128.7 82.8233 128.37 83.59 128.11C84.3633 127.85 85.24 127.72 86.22 127.72C87.14 127.72 87.94 127.86 88.62 128.14C89.3 128.42 89.8233 128.83 90.19 129.37C90.5567 129.903 90.74 130.547 90.74 131.3C90.74 131.813 90.6467 132.317 90.46 132.81C90.28 133.303 90.0133 133.73 89.66 134.09C89.3067 134.443 88.8933 134.68 88.42 134.8C88.9667 134.8 89.4433 134.953 89.85 135.26C90.2633 135.567 90.5767 135.97 90.79 136.47C91.01 136.97 91.12 137.507 91.12 138.08C91.12 138.933 90.89 139.68 90.43 140.32C89.97 140.96 89.3467 141.45 88.56 141.79C87.7733 142.13 86.9 142.3 85.94 142.3Z" fill="#0C5867"/>
<path d="M56.8203 71.7718C52.5001 68.5602 51.0101 65.9901 50 64C48.9885 65.9901 47.4999 68.5602 43.1797 71.7718C35.8121 77.2478 42.7468 84.8896 48.8442 80.6837C48.4471 83.2938 47.0913 85.1968 45.7141 86.0168V86.8597H54.2859V86.0168C52.9087 85.1968 51.5529 83.2938 51.1558 80.6837C57.2532 84.8896 64.1879 77.2478 56.8203 71.7718Z" fill="#0C5867"/>
<path d="M56.8203 34.7718C52.5001 31.5602 51.0101 28.9901 50 27C48.9885 28.9901 47.4999 31.5602 43.1797 34.7718C35.8121 40.2478 42.7468 47.8896 48.8442 43.6837C48.4471 46.2938 47.0913 48.1968 45.7141 49.0168V49.8597H54.2859V49.0168C52.9087 48.1968 51.5529 46.2938 51.1558 43.6837C57.2532 47.8896 64.1879 40.2478 56.8203 34.7718Z" fill="#0C5867"/>
<path d="M56.8203 106.772C52.5001 103.56 51.0101 100.99 50 99C48.9885 100.99 47.4999 103.56 43.1797 106.772C35.8121 112.248 42.7468 119.89 48.8442 115.684C48.4471 118.294 47.0913 120.197 45.7141 121.017V121.86H54.2859V121.017C52.9087 120.197 51.5529 118.294 51.1558 115.684C57.2532 119.89 64.1879 112.248 56.8203 106.772Z" fill="#0C5867"/>
</svg>
