<svg width="100" height="150" viewBox="0 0 100 150" fill="none" xmlns="http://www.w3.org/2000/svg">
<rect width="100" height="150" rx="10" fill="#D9D9D9"/>
<rect x="3" y="3" width="94" height="144" rx="10" fill="#1A0E17"/>
<g filter="url(#filter0_f_1_257)">
<path d="M19.0156 73.24C18.7436 73.24 18.5276 73.16 18.3676 73C18.2076 72.824 18.1276 72.584 18.1276 72.28V62.488C18.1276 61.16 18.4076 60.008 18.9676 59.032C19.5436 58.04 20.3596 57.28 21.4156 56.752C22.4716 56.224 23.7116 55.96 25.1356 55.96C26.5596 55.96 27.7916 56.224 28.8316 56.752C29.8876 57.28 30.6956 58.04 31.2556 59.032C31.8316 60.008 32.1196 61.16 32.1196 62.488V72.28C32.1196 72.584 32.0396 72.824 31.8796 73C31.7356 73.16 31.5196 73.24 31.2316 73.24C30.9596 73.24 30.7356 73.16 30.5596 73C30.3996 72.824 30.3196 72.584 30.3196 72.28V62.416C30.3196 60.864 29.8636 59.656 28.9516 58.792C28.0396 57.928 26.7676 57.496 25.1356 57.496C23.5356 57.496 22.2636 57.936 21.3196 58.816C20.3916 59.696 19.9276 60.896 19.9276 62.416V72.28C19.9276 72.584 19.8476 72.824 19.6876 73C19.5276 73.16 19.3036 73.24 19.0156 73.24ZM38.9223 73C37.9463 73 37.1863 72.744 36.6423 72.232C36.0983 71.72 35.8263 71 35.8263 70.072V59.08C35.8263 58.184 36.0903 57.48 36.6183 56.968C37.1623 56.456 37.9143 56.2 38.8743 56.2H46.3143C46.9383 56.2 47.2503 56.456 47.2503 56.968C47.2503 57.192 47.1703 57.368 47.0103 57.496C46.8503 57.624 46.6183 57.688 46.3143 57.688H38.8983C38.5143 57.688 38.2023 57.816 37.9623 58.072C37.7383 58.328 37.6263 58.664 37.6263 59.08V63.664H44.4903C45.1143 63.664 45.4263 63.92 45.4263 64.432C45.4263 64.672 45.3383 64.856 45.1623 64.984C45.0023 65.112 44.7783 65.176 44.4903 65.176H37.6263V70.12C37.6263 70.536 37.7383 70.872 37.9623 71.128C38.2023 71.384 38.5143 71.512 38.8983 71.512H46.8423C47.4663 71.512 47.7783 71.76 47.7783 72.256C47.7783 72.496 47.6903 72.68 47.5143 72.808C47.3543 72.936 47.1303 73 46.8423 73H38.9223ZM57.8556 73.24C56.2396 73.24 54.7836 72.888 53.4876 72.184C52.1916 71.464 51.1676 70.448 50.4156 69.136C49.6796 67.824 49.3116 66.312 49.3116 64.6C49.3116 62.872 49.6796 61.36 50.4156 60.064C51.1676 58.752 52.1916 57.744 53.4876 57.04C54.7836 56.32 56.2396 55.96 57.8556 55.96C59.4716 55.96 60.9276 56.32 62.2236 57.04C63.5196 57.744 64.5356 58.752 65.2716 60.064C66.0236 61.36 66.3996 62.872 66.3996 64.6C66.3996 66.312 66.0236 67.824 65.2716 69.136C64.5356 70.448 63.5196 71.464 62.2236 72.184C60.9276 72.888 59.4716 73.24 57.8556 73.24ZM57.8556 71.704C59.1516 71.704 60.3036 71.424 61.3116 70.864C62.3356 70.304 63.1356 69.496 63.7116 68.44C64.3036 67.368 64.5996 66.088 64.5996 64.6C64.5996 63.096 64.2956 61.808 63.6876 60.736C63.0956 59.664 62.2796 58.856 61.2396 58.312C60.2156 57.768 59.0716 57.496 57.8076 57.496C56.5276 57.496 55.3756 57.776 54.3516 58.336C53.3436 58.896 52.5516 59.712 51.9756 60.784C51.3996 61.856 51.1116 63.128 51.1116 64.6C51.1116 66.088 51.3996 67.368 51.9756 68.44C52.5676 69.496 53.3676 70.304 54.3756 70.864C55.3996 71.424 56.5596 71.704 57.8556 71.704ZM69.7578 73.24C69.4858 73.24 69.2698 73.16 69.1098 73C68.9498 72.824 68.8698 72.584 68.8698 72.28V62.488C68.8698 61.16 69.1498 60.008 69.7098 59.032C70.2858 58.04 71.1018 57.28 72.1578 56.752C73.2138 56.224 74.4538 55.96 75.8778 55.96C77.3018 55.96 78.5338 56.224 79.5738 56.752C80.6298 57.28 81.4378 58.04 81.9978 59.032C82.5738 60.008 82.8618 61.16 82.8618 62.488V72.28C82.8618 72.584 82.7818 72.824 82.6218 73C82.4778 73.16 82.2618 73.24 81.9738 73.24C81.7018 73.24 81.4778 73.16 81.3018 73C81.1418 72.824 81.0618 72.584 81.0618 72.28V62.416C81.0618 60.864 80.6058 59.656 79.6938 58.792C78.7818 57.928 77.5098 57.496 75.8778 57.496C74.2778 57.496 73.0058 57.936 72.0618 58.816C71.1338 59.696 70.6698 60.896 70.6698 62.416V72.28C70.6698 72.584 70.5898 72.824 70.4298 73C70.2698 73.16 70.0458 73.24 69.7578 73.24Z" fill="#00C2EA"/>
<path d="M22.9848 95C22.0088 95 21.2488 94.744 20.7048 94.232C20.1608 93.704 19.8888 92.984 19.8888 92.072V81.08C19.8888 80.184 20.1528 79.48 20.6808 78.968C21.2248 78.456 21.9768 78.2 22.9368 78.2H28.6248C30.2408 78.2 31.4968 78.6 32.3928 79.4C33.2888 80.2 33.7368 81.328 33.7368 82.784C33.7368 83.616 33.5208 84.344 33.0888 84.968C32.6568 85.576 32.0648 86.04 31.3128 86.36V86.408C32.1608 86.712 32.8248 87.192 33.3048 87.848C33.7848 88.488 34.0248 89.248 34.0248 90.128C34.0248 91.632 33.5688 92.824 32.6568 93.704C31.7448 94.568 30.4968 95 28.9128 95H22.9848ZM28.8168 85.688C29.7608 85.688 30.5128 85.424 31.0728 84.896C31.6328 84.368 31.9128 83.664 31.9128 82.784C31.9128 81.776 31.6328 81.008 31.0728 80.48C30.5128 79.952 29.6968 79.688 28.6248 79.688H22.9608C22.5928 79.688 22.2888 79.824 22.0488 80.096C21.8088 80.352 21.6888 80.68 21.6888 81.08V85.688H28.8168ZM28.8168 93.488C29.9208 93.488 30.7608 93.208 31.3368 92.648C31.9128 92.072 32.2008 91.24 32.2008 90.152C32.2008 89.208 31.8968 88.472 31.2888 87.944C30.6808 87.416 29.8488 87.152 28.7928 87.152H21.6888V92.12C21.6888 92.52 21.8088 92.848 22.0488 93.104C22.2888 93.36 22.5928 93.488 22.9608 93.488H28.8168ZM40.3519 95C39.3759 95 38.6159 94.744 38.0719 94.232C37.5279 93.72 37.2559 93 37.2559 92.072V81.08C37.2559 80.184 37.5199 79.48 38.0479 78.968C38.5919 78.456 39.3439 78.2 40.3039 78.2H47.7439C48.3679 78.2 48.6799 78.456 48.6799 78.968C48.6799 79.192 48.5999 79.368 48.4399 79.496C48.2799 79.624 48.0479 79.688 47.7439 79.688H40.3279C39.9439 79.688 39.6319 79.816 39.3919 80.072C39.1679 80.328 39.0559 80.664 39.0559 81.08V85.664H45.9199C46.5439 85.664 46.8559 85.92 46.8559 86.432C46.8559 86.672 46.7679 86.856 46.5919 86.984C46.4319 87.112 46.2079 87.176 45.9199 87.176H39.0559V92.12C39.0559 92.536 39.1679 92.872 39.3919 93.128C39.6319 93.384 39.9439 93.512 40.3279 93.512H48.2719C48.8959 93.512 49.2079 93.76 49.2079 94.256C49.2079 94.496 49.1199 94.68 48.9439 94.808C48.7839 94.936 48.5599 95 48.2719 95H40.3519ZM58.8994 95.24C58.6114 95.24 58.3874 95.16 58.2274 95C58.0834 94.824 58.0114 94.584 58.0114 94.28V79.688H52.5154C52.2274 79.688 51.9954 79.632 51.8194 79.52C51.6594 79.392 51.5794 79.208 51.5794 78.968C51.5794 78.456 51.8914 78.2 52.5154 78.2H65.3314C65.9554 78.2 66.2674 78.456 66.2674 78.968C66.2674 79.192 66.1874 79.368 66.0274 79.496C65.8674 79.624 65.6354 79.688 65.3314 79.688H59.8354V94.28C59.8354 94.584 59.7474 94.824 59.5714 95C59.4114 95.16 59.1874 95.24 58.8994 95.24ZM75.4553 95.24C73.9193 95.24 72.5033 94.984 71.2073 94.472C69.9273 93.944 68.9273 93.224 68.2073 92.312C68.0793 92.152 68.0153 91.984 68.0153 91.808C68.0153 91.584 68.1353 91.368 68.3753 91.16C68.5033 91.064 68.6393 91.016 68.7833 91.016C69.0713 91.016 69.3273 91.152 69.5513 91.424C70.2073 92.144 71.0313 92.704 72.0233 93.104C73.0313 93.488 74.1753 93.68 75.4553 93.68C76.8633 93.68 77.9513 93.424 78.7193 92.912C79.4873 92.384 79.8713 91.64 79.8713 90.68C79.8713 89.848 79.4953 89.176 78.7433 88.664C78.0073 88.152 76.7513 87.696 74.9753 87.296C72.6553 86.784 70.9833 86.144 69.9593 85.376C68.9513 84.592 68.4473 83.56 68.4473 82.28C68.4473 80.952 69.0073 79.904 70.1273 79.136C71.2633 78.352 72.7913 77.96 74.7113 77.96C76.1673 77.96 77.4793 78.216 78.6473 78.728C79.8313 79.24 80.6713 79.928 81.1673 80.792C81.2633 80.952 81.3113 81.104 81.3113 81.248C81.3113 81.504 81.1753 81.728 80.9033 81.92C80.7913 81.984 80.6633 82.016 80.5193 82.016C80.1673 82.016 79.8953 81.88 79.7033 81.608C79.2393 80.936 78.5833 80.424 77.7353 80.072C76.8873 79.704 75.8793 79.52 74.7113 79.52C71.7513 79.52 70.2713 80.44 70.2713 82.28C70.2713 82.84 70.4233 83.312 70.7273 83.696C71.0313 84.064 71.5193 84.4 72.1913 84.704C72.8793 84.992 73.8313 85.28 75.0473 85.568C77.4153 86.128 79.1193 86.808 80.1593 87.608C81.1993 88.392 81.7193 89.416 81.7193 90.68C81.7193 92.088 81.1513 93.2 80.0153 94.016C78.8953 94.832 77.3753 95.24 75.4553 95.24Z" fill="#FB37AE"/>
</g>
<path d="M19.0156 73.24C18.7436 73.24 18.5276 73.16 18.3676 73C18.2076 72.824 18.1276 72.584 18.1276 72.28V62.488C18.1276 61.16 18.4076 60.008 18.9676 59.032C19.5436 58.04 20.3596 57.28 21.4156 56.752C22.4716 56.224 23.7116 55.96 25.1356 55.96C26.5596 55.96 27.7916 56.224 28.8316 56.752C29.8876 57.28 30.6956 58.04 31.2556 59.032C31.8316 60.008 32.1196 61.16 32.1196 62.488V72.28C32.1196 72.584 32.0396 72.824 31.8796 73C31.7356 73.16 31.5196 73.24 31.2316 73.24C30.9596 73.24 30.7356 73.16 30.5596 73C30.3996 72.824 30.3196 72.584 30.3196 72.28V62.416C30.3196 60.864 29.8636 59.656 28.9516 58.792C28.0396 57.928 26.7676 57.496 25.1356 57.496C23.5356 57.496 22.2636 57.936 21.3196 58.816C20.3916 59.696 19.9276 60.896 19.9276 62.416V72.28C19.9276 72.584 19.8476 72.824 19.6876 73C19.5276 73.16 19.3036 73.24 19.0156 73.24ZM38.9223 73C37.9463 73 37.1863 72.744 36.6423 72.232C36.0983 71.72 35.8263 71 35.8263 70.072V59.08C35.8263 58.184 36.0903 57.48 36.6183 56.968C37.1623 56.456 37.9143 56.2 38.8743 56.2H46.3143C46.9383 56.2 47.2503 56.456 47.2503 56.968C47.2503 57.192 47.1703 57.368 47.0103 57.496C46.8503 57.624 46.6183 57.688 46.3143 57.688H38.8983C38.5143 57.688 38.2023 57.816 37.9623 58.072C37.7383 58.328 37.6263 58.664 37.6263 59.08V63.664H44.4903C45.1143 63.664 45.4263 63.92 45.4263 64.432C45.4263 64.672 45.3383 64.856 45.1623 64.984C45.0023 65.112 44.7783 65.176 44.4903 65.176H37.6263V70.12C37.6263 70.536 37.7383 70.872 37.9623 71.128C38.2023 71.384 38.5143 71.512 38.8983 71.512H46.8423C47.4663 71.512 47.7783 71.76 47.7783 72.256C47.7783 72.496 47.6903 72.68 47.5143 72.808C47.3543 72.936 47.1303 73 46.8423 73H38.9223ZM57.8556 73.24C56.2396 73.24 54.7836 72.888 53.4876 72.184C52.1916 71.464 51.1676 70.448 50.4156 69.136C49.6796 67.824 49.3116 66.312 49.3116 64.6C49.3116 62.872 49.6796 61.36 50.4156 60.064C51.1676 58.752 52.1916 57.744 53.4876 57.04C54.7836 56.32 56.2396 55.96 57.8556 55.96C59.4716 55.96 60.9276 56.32 62.2236 57.04C63.5196 57.744 64.5356 58.752 65.2716 60.064C66.0236 61.36 66.3996 62.872 66.3996 64.6C66.3996 66.312 66.0236 67.824 65.2716 69.136C64.5356 70.448 63.5196 71.464 62.2236 72.184C60.9276 72.888 59.4716 73.24 57.8556 73.24ZM57.8556 71.704C59.1516 71.704 60.3036 71.424 61.3116 70.864C62.3356 70.304 63.1356 69.496 63.7116 68.44C64.3036 67.368 64.5996 66.088 64.5996 64.6C64.5996 63.096 64.2956 61.808 63.6876 60.736C63.0956 59.664 62.2796 58.856 61.2396 58.312C60.2156 57.768 59.0716 57.496 57.8076 57.496C56.5276 57.496 55.3756 57.776 54.3516 58.336C53.3436 58.896 52.5516 59.712 51.9756 60.784C51.3996 61.856 51.1116 63.128 51.1116 64.6C51.1116 66.088 51.3996 67.368 51.9756 68.44C52.5676 69.496 53.3676 70.304 54.3756 70.864C55.3996 71.424 56.5596 71.704 57.8556 71.704ZM69.7578 73.24C69.4858 73.24 69.2698 73.16 69.1098 73C68.9498 72.824 68.8698 72.584 68.8698 72.28V62.488C68.8698 61.16 69.1498 60.008 69.7098 59.032C70.2858 58.04 71.1018 57.28 72.1578 56.752C73.2138 56.224 74.4538 55.96 75.8778 55.96C77.3018 55.96 78.5338 56.224 79.5738 56.752C80.6298 57.28 81.4378 58.04 81.9978 59.032C82.5738 60.008 82.8618 61.16 82.8618 62.488V72.28C82.8618 72.584 82.7818 72.824 82.6218 73C82.4778 73.16 82.2618 73.24 81.9738 73.24C81.7018 73.24 81.4778 73.16 81.3018 73C81.1418 72.824 81.0618 72.584 81.0618 72.28V62.416C81.0618 60.864 80.6058 59.656 79.6938 58.792C78.7818 57.928 77.5098 57.496 75.8778 57.496C74.2778 57.496 73.0058 57.936 72.0618 58.816C71.1338 59.696 70.6698 60.896 70.6698 62.416V72.28C70.6698 72.584 70.5898 72.824 70.4298 73C70.2698 73.16 70.0458 73.24 69.7578 73.24Z" fill="#00C2EA"/>
<path d="M22.9848 95C22.0088 95 21.2488 94.744 20.7048 94.232C20.1608 93.704 19.8888 92.984 19.8888 92.072V81.08C19.8888 80.184 20.1528 79.48 20.6808 78.968C21.2248 78.456 21.9768 78.2 22.9368 78.2H28.6248C30.2408 78.2 31.4968 78.6 32.3928 79.4C33.2888 80.2 33.7368 81.328 33.7368 82.784C33.7368 83.616 33.5208 84.344 33.0888 84.968C32.6568 85.576 32.0648 86.04 31.3128 86.36V86.408C32.1608 86.712 32.8248 87.192 33.3048 87.848C33.7848 88.488 34.0248 89.248 34.0248 90.128C34.0248 91.632 33.5688 92.824 32.6568 93.704C31.7448 94.568 30.4968 95 28.9128 95H22.9848ZM28.8168 85.688C29.7608 85.688 30.5128 85.424 31.0728 84.896C31.6328 84.368 31.9128 83.664 31.9128 82.784C31.9128 81.776 31.6328 81.008 31.0728 80.48C30.5128 79.952 29.6968 79.688 28.6248 79.688H22.9608C22.5928 79.688 22.2888 79.824 22.0488 80.096C21.8088 80.352 21.6888 80.68 21.6888 81.08V85.688H28.8168ZM28.8168 93.488C29.9208 93.488 30.7608 93.208 31.3368 92.648C31.9128 92.072 32.2008 91.24 32.2008 90.152C32.2008 89.208 31.8968 88.472 31.2888 87.944C30.6808 87.416 29.8488 87.152 28.7928 87.152H21.6888V92.12C21.6888 92.52 21.8088 92.848 22.0488 93.104C22.2888 93.36 22.5928 93.488 22.9608 93.488H28.8168ZM40.3519 95C39.3759 95 38.6159 94.744 38.0719 94.232C37.5279 93.72 37.2559 93 37.2559 92.072V81.08C37.2559 80.184 37.5199 79.48 38.0479 78.968C38.5919 78.456 39.3439 78.2 40.3039 78.2H47.7439C48.3679 78.2 48.6799 78.456 48.6799 78.968C48.6799 79.192 48.5999 79.368 48.4399 79.496C48.2799 79.624 48.0479 79.688 47.7439 79.688H40.3279C39.9439 79.688 39.6319 79.816 39.3919 80.072C39.1679 80.328 39.0559 80.664 39.0559 81.08V85.664H45.9199C46.5439 85.664 46.8559 85.92 46.8559 86.432C46.8559 86.672 46.7679 86.856 46.5919 86.984C46.4319 87.112 46.2079 87.176 45.9199 87.176H39.0559V92.12C39.0559 92.536 39.1679 92.872 39.3919 93.128C39.6319 93.384 39.9439 93.512 40.3279 93.512H48.2719C48.8959 93.512 49.2079 93.76 49.2079 94.256C49.2079 94.496 49.1199 94.68 48.9439 94.808C48.7839 94.936 48.5599 95 48.2719 95H40.3519ZM58.8994 95.24C58.6114 95.24 58.3874 95.16 58.2274 95C58.0834 94.824 58.0114 94.584 58.0114 94.28V79.688H52.5154C52.2274 79.688 51.9954 79.632 51.8194 79.52C51.6594 79.392 51.5794 79.208 51.5794 78.968C51.5794 78.456 51.8914 78.2 52.5154 78.2H65.3314C65.9554 78.2 66.2674 78.456 66.2674 78.968C66.2674 79.192 66.1874 79.368 66.0274 79.496C65.8674 79.624 65.6354 79.688 65.3314 79.688H59.8354V94.28C59.8354 94.584 59.7474 94.824 59.5714 95C59.4114 95.16 59.1874 95.24 58.8994 95.24ZM75.4553 95.24C73.9193 95.24 72.5033 94.984 71.2073 94.472C69.9273 93.944 68.9273 93.224 68.2073 92.312C68.0793 92.152 68.0153 91.984 68.0153 91.808C68.0153 91.584 68.1353 91.368 68.3753 91.16C68.5033 91.064 68.6393 91.016 68.7833 91.016C69.0713 91.016 69.3273 91.152 69.5513 91.424C70.2073 92.144 71.0313 92.704 72.0233 93.104C73.0313 93.488 74.1753 93.68 75.4553 93.68C76.8633 93.68 77.9513 93.424 78.7193 92.912C79.4873 92.384 79.8713 91.64 79.8713 90.68C79.8713 89.848 79.4953 89.176 78.7433 88.664C78.0073 88.152 76.7513 87.696 74.9753 87.296C72.6553 86.784 70.9833 86.144 69.9593 85.376C68.9513 84.592 68.4473 83.56 68.4473 82.28C68.4473 80.952 69.0073 79.904 70.1273 79.136C71.2633 78.352 72.7913 77.96 74.7113 77.96C76.1673 77.96 77.4793 78.216 78.6473 78.728C79.8313 79.24 80.6713 79.928 81.1673 80.792C81.2633 80.952 81.3113 81.104 81.3113 81.248C81.3113 81.504 81.1753 81.728 80.9033 81.92C80.7913 81.984 80.6633 82.016 80.5193 82.016C80.1673 82.016 79.8953 81.88 79.7033 81.608C79.2393 80.936 78.5833 80.424 77.7353 80.072C76.8873 79.704 75.8793 79.52 74.7113 79.52C71.7513 79.52 70.2713 80.44 70.2713 82.28C70.2713 82.84 70.4233 83.312 70.7273 83.696C71.0313 84.064 71.5193 84.4 72.1913 84.704C72.8793 84.992 73.8313 85.28 75.0473 85.568C77.4153 86.128 79.1193 86.808 80.1593 87.608C81.1993 88.392 81.7193 89.416 81.7193 90.68C81.7193 92.088 81.1513 93.2 80.0153 94.016C78.8953 94.832 77.3753 95.24 75.4553 95.24Z" fill="#FB37AE"/>
<defs>
<filter id="filter0_f_1_257" x="15.1276" y="52.96" width="70.7342" height="45.28" filterUnits="userSpaceOnUse" color-interpolation-filters="sRGB">
<feFlood flood-opacity="0" result="BackgroundImageFix"/>
<feBlend mode="normal" in="SourceGraphic" in2="BackgroundImageFix" result="shape"/>
<feGaussianBlur stdDeviation="1.5" result="effect1_foregroundBlur_1_257"/>
</filter>
</defs>
</svg>
