<svg width="100" height="150" viewBox="0 0 100 150" fill="none" xmlns="http://www.w3.org/2000/svg">
<rect width="100" height="150" rx="10" fill="#D9D9D9"/>
<path d="M89.5062 139.98H84.5262L83.7862 142H80.9862L86.8862 127.82H87.0862L93.0062 142H90.2862L89.5062 139.98ZM88.7662 138.04L87.3062 134.24L86.9662 133.12L86.6462 134.24L85.2462 138.04H88.7662Z" fill="#C20C7A"/>
<path d="M13.5062 17.98H8.52617L7.78617 20H4.98617L10.8862 5.82H11.0862L17.0062 20H14.2862L13.5062 17.98ZM12.7662 16.04L11.3062 12.24L10.9662 11.12L10.6462 12.24L9.24617 16.04H12.7662Z" fill="#C20C7A"/>
<path d="M49.8295 96.0751L36.1369 75.6662C36.0477 75.5331 36 75.3765 36 75.2163C36 75.0561 36.0477 74.8996 36.1369 74.7665L49.8295 54.3576C50.1494 53.8808 50.8506 53.8808 51.1704 54.3576L64.8631 74.7665C64.9523 74.8996 65 75.0561 65 75.2163C65 75.3765 64.9523 75.5331 64.8631 75.6662L51.1705 96.0751C50.8506 96.5519 50.1494 96.5519 49.8295 96.0751Z" fill="#C20C7A"/>
</svg>
