<svg width="100" height="150" viewBox="0 0 100 150" fill="none" xmlns="http://www.w3.org/2000/svg">
<rect width="100" height="150" rx="10" fill="#D9D9D9"/>
<path d="M14.75 13.72C15.5833 14 16.24 14.4333 16.72 15.02C17.2 15.6067 17.44 16.3267 17.44 17.18C17.44 18.1333 17.1867 18.9233 16.68 19.55C16.18 20.1767 15.53 20.6367 14.73 20.93C13.9367 21.2167 13.0933 21.36 12.2 21.36C11.3 21.36 10.45 21.2167 9.65 20.93C8.85667 20.6367 8.20667 20.1767 7.7 19.55C7.19333 18.9233 6.94 18.1333 6.94 17.18C6.94 16.3333 7.17667 15.62 7.65 15.04C8.12333 14.4533 8.77667 14.0133 9.61 13.72C8.94333 13.42 8.43 12.99 8.07 12.43C7.71667 11.8633 7.54 11.1667 7.54 10.34C7.54 9.50667 7.76 8.82 8.2 8.28C8.64 7.73333 9.21333 7.33667 9.92 7.09C10.6267 6.84333 11.3933 6.72 12.22 6.72C13.04 6.72 13.7967 6.84333 14.49 7.09C15.19 7.33667 15.7567 7.73333 16.19 8.28C16.6233 8.82 16.84 9.50667 16.84 10.34C16.84 11.1467 16.6533 11.8333 16.28 12.4C15.9133 12.9667 15.4033 13.4067 14.75 13.72ZM12.24 8.56C10.8933 8.56 10.22 9.21333 10.22 10.52C10.22 11.2333 10.4 11.7933 10.76 12.2C11.12 12.6 11.6133 12.8 12.24 12.8C12.86 12.8 13.3367 12.6 13.67 12.2C14.01 11.8 14.18 11.24 14.18 10.52C14.18 9.86 14.0233 9.37 13.71 9.05C13.3967 8.72333 12.9067 8.56 12.24 8.56ZM12.2 19.34C12.9667 19.34 13.5467 19.1567 13.94 18.79C14.34 18.4233 14.54 17.8733 14.54 17.14C14.54 16.3133 14.3133 15.71 13.86 15.33C13.4067 14.95 12.8533 14.76 12.2 14.76C11.5333 14.76 10.97 14.95 10.51 15.33C10.05 15.71 9.82 16.3133 9.82 17.14C9.82 17.8733 10.02 18.4233 10.42 18.79C10.8267 19.1567 11.42 19.34 12.2 19.34Z" fill="#C20C7A"/>
<path d="M89.75 134.72C90.5833 135 91.24 135.433 91.72 136.02C92.2 136.607 92.44 137.327 92.44 138.18C92.44 139.133 92.1867 139.923 91.68 140.55C91.18 141.177 90.53 141.637 89.73 141.93C88.9367 142.217 88.0933 142.36 87.2 142.36C86.3 142.36 85.45 142.217 84.65 141.93C83.8567 141.637 83.2067 141.177 82.7 140.55C82.1933 139.923 81.94 139.133 81.94 138.18C81.94 137.333 82.1767 136.62 82.65 136.04C83.1233 135.453 83.7767 135.013 84.61 134.72C83.9433 134.42 83.43 133.99 83.07 133.43C82.7167 132.863 82.54 132.167 82.54 131.34C82.54 130.507 82.76 129.82 83.2 129.28C83.64 128.733 84.2133 128.337 84.92 128.09C85.6267 127.843 86.3933 127.72 87.22 127.72C88.04 127.72 88.7967 127.843 89.49 128.09C90.19 128.337 90.7567 128.733 91.19 129.28C91.6233 129.82 91.84 130.507 91.84 131.34C91.84 132.147 91.6533 132.833 91.28 133.4C90.9133 133.967 90.4033 134.407 89.75 134.72ZM87.24 129.56C85.8933 129.56 85.22 130.213 85.22 131.52C85.22 132.233 85.4 132.793 85.76 133.2C86.12 133.6 86.6133 133.8 87.24 133.8C87.86 133.8 88.3367 133.6 88.67 133.2C89.01 132.8 89.18 132.24 89.18 131.52C89.18 130.86 89.0233 130.37 88.71 130.05C88.3967 129.723 87.9067 129.56 87.24 129.56ZM87.2 140.34C87.9667 140.34 88.5467 140.157 88.94 139.79C89.34 139.423 89.54 138.873 89.54 138.14C89.54 137.313 89.3133 136.71 88.86 136.33C88.4067 135.95 87.8533 135.76 87.2 135.76C86.5333 135.76 85.97 135.95 85.51 136.33C85.05 136.71 84.82 137.313 84.82 138.14C84.82 138.873 85.02 139.423 85.42 139.79C85.8267 140.157 86.42 140.34 87.2 140.34Z" fill="#C20C7A"/>
<path d="M27.107 121.665L19.0803 109.701C19.0279 109.623 19 109.531 19 109.437C19 109.343 19.0279 109.251 19.0803 109.173L27.107 97.2096C27.2945 96.9301 27.7055 96.9301 27.893 97.2096L35.9197 109.173C35.9721 109.251 36 109.343 36 109.437C36 109.531 35.9721 109.623 35.9197 109.701L27.893 121.665C27.7055 121.944 27.2945 121.944 27.107 121.665Z" fill="#C20C7A"/>
<path d="M27.107 53.6647L19.0803 41.7009C19.0279 41.6229 19 41.5311 19 41.4372C19 41.3433 19.0279 41.2515 19.0803 41.1735L27.107 29.2096C27.2945 28.9301 27.7055 28.9301 27.893 29.2096L35.9197 41.1735C35.9721 41.2515 36 41.3433 36 41.4372C36 41.5311 35.9721 41.6229 35.9197 41.7009L27.893 53.6647C27.7055 53.9442 27.2945 53.9442 27.107 53.6647Z" fill="#C20C7A"/>
<path d="M27.107 86.6647L19.0803 74.7009C19.0279 74.6229 19 74.5311 19 74.4372C19 74.3433 19.0279 74.2515 19.0803 74.1735L27.107 62.2096C27.2945 61.9301 27.7055 61.9301 27.893 62.2096L35.9197 74.1735C35.9721 74.2515 36 74.3433 36 74.4372C36 74.5311 35.9721 74.6229 35.9197 74.7009L27.893 86.6647C27.7055 86.9442 27.2945 86.9442 27.107 86.6647Z" fill="#C20C7A"/>
<path d="M73.107 53.6647L65.0803 41.7009C65.0279 41.6229 65 41.5311 65 41.4372C65 41.3433 65.0279 41.2515 65.0803 41.1735L73.107 29.2096C73.2945 28.9301 73.7055 28.9301 73.893 29.2096L81.9197 41.1735C81.9721 41.2515 82 41.3433 82 41.4372C82 41.5311 81.9721 41.6229 81.9197 41.7009L73.893 53.6647C73.7055 53.9442 73.2945 53.9442 73.107 53.6647Z" fill="#C20C7A"/>
<path d="M73.107 86.6647L65.0803 74.7009C65.0279 74.6229 65 74.5311 65 74.4372C65 74.3433 65.0279 74.2515 65.0803 74.1735L73.107 62.2096C73.2945 61.9301 73.7055 61.9301 73.893 62.2096L81.9197 74.1735C81.9721 74.2515 82 74.3433 82 74.4372C82 74.5311 81.9721 74.6229 81.9197 74.7009L73.893 86.6647C73.7055 86.9442 73.2945 86.9442 73.107 86.6647Z" fill="#C20C7A"/>
<path d="M73.107 121.665L65.0803 109.701C65.0279 109.623 65 109.531 65 109.437C65 109.343 65.0279 109.251 65.0803 109.173L73.107 97.2096C73.2945 96.9301 73.7055 96.9301 73.893 97.2096L81.9197 109.173C81.9721 109.251 82 109.343 82 109.437C82 109.531 81.9721 109.623 81.9197 109.701L73.893 121.665C73.7055 121.944 73.2945 121.944 73.107 121.665Z" fill="#C20C7A"/>
<path d="M50.107 70.6647L42.0803 58.7009C42.0279 58.6229 42 58.5311 42 58.4372C42 58.3433 42.0279 58.2515 42.0803 58.1735L50.107 46.2096C50.2945 45.9301 50.7055 45.9301 50.893 46.2096L58.9197 58.1735C58.9721 58.2515 59 58.3433 59 58.4372C59 58.5311 58.9721 58.6229 58.9197 58.7009L50.893 70.6647C50.7055 70.9442 50.2945 70.9442 50.107 70.6647Z" fill="#C20C7A"/>
<path d="M50.107 105.665L42.0803 93.7009C42.0279 93.6229 42 93.5311 42 93.4372C42 93.3433 42.0279 93.2515 42.0803 93.1735L50.107 81.2096C50.2945 80.9301 50.7055 80.9301 50.893 81.2096L58.9197 93.1735C58.9721 93.2515 59 93.3433 59 93.4372C59 93.5311 58.9721 93.6229 58.9197 93.7009L50.893 105.665C50.7055 105.944 50.2945 105.944 50.107 105.665Z" fill="#C20C7A"/>
</svg>
