<svg width="100" height="150" viewBox="0 0 100 150" fill="none" xmlns="http://www.w3.org/2000/svg">
<rect width="100" height="150" rx="10" fill="#D9D9D9"/>
<path d="M10.6 21.26C9.92 21.26 9.24667 21.1867 8.58 21.04C7.92 20.8933 7.36 20.6667 6.9 20.36L7.64 18.12C7.93333 18.3933 8.32667 18.6233 8.82 18.81C9.31333 18.99 9.79333 19.08 10.26 19.08C10.8067 19.08 11.3067 19.0233 11.76 18.91C12.2133 18.79 12.6 18.54 12.92 18.16C13.24 17.7733 13.4 17.2133 13.4 16.48C13.4 15.9533 13.28 15.4967 13.04 15.11C12.8067 14.7167 12.46 14.4133 12 14.2C11.5467 13.9867 11 13.88 10.36 13.88C9.84 13.88 9.29667 13.95 8.73 14.09C8.16333 14.23 7.76 14.3733 7.52 14.52L7.78 7.06H15.5V9.18H10.06L9.86 12.16C10.16 12.0733 10.46 12.0133 10.76 11.98C11.0667 11.94 11.4067 11.92 11.78 11.92C12.7067 11.92 13.4933 12.0967 14.14 12.45C14.7867 12.7967 15.2733 13.2933 15.6 13.94C15.9333 14.58 16.1 15.34 16.1 16.22C16.1 17.2467 15.87 18.14 15.41 18.9C14.95 19.66 14.3033 20.2433 13.47 20.65C12.6433 21.0567 11.6867 21.26 10.6 21.26Z" fill="#C20C7A"/>
<path d="M85.6 142.26C84.92 142.26 84.2467 142.187 83.58 142.04C82.92 141.893 82.36 141.667 81.9 141.36L82.64 139.12C82.9333 139.393 83.3267 139.623 83.82 139.81C84.3133 139.99 84.7933 140.08 85.26 140.08C85.8067 140.08 86.3067 140.023 86.76 139.91C87.2133 139.79 87.6 139.54 87.92 139.16C88.24 138.773 88.4 138.213 88.4 137.48C88.4 136.953 88.28 136.497 88.04 136.11C87.8067 135.717 87.46 135.413 87 135.2C86.5467 134.987 86 134.88 85.36 134.88C84.84 134.88 84.2967 134.95 83.73 135.09C83.1633 135.23 82.76 135.373 82.52 135.52L82.78 128.06H90.5V130.18H85.06L84.86 133.16C85.16 133.073 85.46 133.013 85.76 132.98C86.0667 132.94 86.4067 132.92 86.78 132.92C87.7067 132.92 88.4933 133.097 89.14 133.45C89.7867 133.797 90.2733 134.293 90.6 134.94C90.9333 135.58 91.1 136.34 91.1 137.22C91.1 138.247 90.87 139.14 90.41 139.9C89.95 140.66 89.3033 141.243 88.47 141.65C87.6433 142.057 86.6867 142.26 85.6 142.26Z" fill="#C20C7A"/>
<path d="M50.107 87.6647L42.0803 75.7009C42.0279 75.6229 42 75.5311 42 75.4372C42 75.3433 42.0279 75.2515 42.0803 75.1735L50.107 63.2096C50.2945 62.9301 50.7055 62.9301 50.893 63.2096L58.9197 75.1735C58.9721 75.2515 59 75.3433 59 75.4372C59 75.5311 58.9721 75.6229 58.9197 75.7009L50.893 87.6647C50.7055 87.9442 50.2945 87.9442 50.107 87.6647Z" fill="#C20C7A"/>
<path d="M74.107 121.665L66.0803 109.701C66.0279 109.623 66 109.531 66 109.437C66 109.343 66.0279 109.251 66.0803 109.173L74.107 97.2096C74.2945 96.9301 74.7055 96.9301 74.893 97.2096L82.9197 109.173C82.9721 109.251 83 109.343 83 109.437C83 109.531 82.9721 109.623 82.9197 109.701L74.893 121.665C74.7055 121.944 74.2945 121.944 74.107 121.665Z" fill="#C20C7A"/>
<path d="M25.107 121.665L17.0803 109.701C17.0279 109.623 17 109.531 17 109.437C17 109.343 17.0279 109.251 17.0803 109.173L25.107 97.2096C25.2945 96.9301 25.7055 96.9301 25.893 97.2096L33.9197 109.173C33.9721 109.251 34 109.343 34 109.437C34 109.531 33.9721 109.623 33.9197 109.701L25.893 121.665C25.7055 121.944 25.2945 121.944 25.107 121.665Z" fill="#C20C7A"/>
<path d="M25.107 55.6647L17.0803 43.7009C17.0279 43.6229 17 43.5311 17 43.4372C17 43.3433 17.0279 43.2515 17.0803 43.1735L25.107 31.2096C25.2945 30.9301 25.7055 30.9301 25.893 31.2096L33.9197 43.1735C33.9721 43.2515 34 43.3433 34 43.4372C34 43.5311 33.9721 43.6229 33.9197 43.7009L25.893 55.6647C25.7055 55.9442 25.2945 55.9442 25.107 55.6647Z" fill="#C20C7A"/>
<path d="M74.107 55.6647L66.0803 43.7009C66.0279 43.6229 66 43.5311 66 43.4372C66 43.3433 66.0279 43.2515 66.0803 43.1735L74.107 31.2096C74.2945 30.9301 74.7055 30.9301 74.893 31.2096L82.9197 43.1735C82.9721 43.2515 83 43.3433 83 43.4372C83 43.5311 82.9721 43.6229 82.9197 43.7009L74.893 55.6647C74.7055 55.9442 74.2945 55.9442 74.107 55.6647Z" fill="#C20C7A"/>
</svg>
