<svg width="100" height="150" viewBox="0 0 100 150" fill="none" xmlns="http://www.w3.org/2000/svg">
<rect width="100" height="150" rx="10" fill="#D9D9D9"/>
<path d="M17.7 18.48H16.02V21H13.4V18.48H6.8L6.66 18.26L11.8 7.06H16.02V16.54H17.7V18.48ZM10.22 16.54H13.52L13.61 8.49L11.36 14.06L10.22 16.54Z" fill="#C20C7A"/>
<path d="M92.7 139.48H91.02V142H88.4V139.48H81.8L81.66 139.26L86.8 128.06H91.02V137.54H92.7V139.48ZM85.22 137.54H88.52L88.61 129.49L86.36 135.06L85.22 137.54Z" fill="#C20C7A"/>
<path d="M74.107 52.6647L66.0803 40.7009C66.0279 40.6229 66 40.5311 66 40.4372C66 40.3433 66.0279 40.2515 66.0803 40.1735L74.107 28.2096C74.2945 27.9301 74.7055 27.9301 74.893 28.2096L82.9197 40.1735C82.9721 40.2515 83 40.3433 83 40.4372C83 40.5311 82.9721 40.6229 82.9197 40.7009L74.893 52.6647C74.7055 52.9442 74.2945 52.9442 74.107 52.6647Z" fill="#C20C7A"/>
<path d="M25.107 52.6647L17.0803 40.7009C17.0279 40.6229 17 40.5311 17 40.4372C17 40.3433 17.0279 40.2515 17.0803 40.1735L25.107 28.2096C25.2945 27.9301 25.7055 27.9301 25.893 28.2096L33.9197 40.1735C33.9721 40.2515 34 40.3433 34 40.4372C34 40.5311 33.9721 40.6229 33.9197 40.7009L25.893 52.6647C25.7055 52.9442 25.2945 52.9442 25.107 52.6647Z" fill="#C20C7A"/>
<path d="M74.107 120.665L66.0803 108.701C66.0279 108.623 66 108.531 66 108.437C66 108.343 66.0279 108.251 66.0803 108.173L74.107 96.2096C74.2945 95.9301 74.7055 95.9301 74.893 96.2096L82.9197 108.173C82.9721 108.251 83 108.343 83 108.437C83 108.531 82.9721 108.623 82.9197 108.701L74.893 120.665C74.7055 120.944 74.2945 120.944 74.107 120.665Z" fill="#C20C7A"/>
<path d="M25.107 120.665L17.0803 108.701C17.0279 108.623 17 108.531 17 108.437C17 108.343 17.0279 108.251 17.0803 108.173L25.107 96.2096C25.2945 95.9301 25.7055 95.9301 25.893 96.2096L33.9197 108.173C33.9721 108.251 34 108.343 34 108.437C34 108.531 33.9721 108.623 33.9197 108.701L25.893 120.665C25.7055 120.944 25.2945 120.944 25.107 120.665Z" fill="#C20C7A"/>
</svg>
