<svg width="100" height="150" viewBox="0 0 100 150" fill="none" xmlns="http://www.w3.org/2000/svg">
<rect width="100" height="150" rx="10" fill="#D9D9D9"/>
<path d="M8.38 21.3C8.00667 21.3 7.55 21.2333 7.01 21.1C6.47667 20.9733 6.09333 20.8267 5.86 20.66L6.82 18.28C6.98667 18.5267 7.2 18.7233 7.46 18.87C7.72667 19.01 7.99333 19.08 8.26 19.08C8.59333 19.08 8.87667 19.04 9.11 18.96C9.34333 18.8733 9.54 18.6833 9.7 18.39C9.86 18.09 9.94 17.6467 9.94 17.06V7.06H12.54V16.82C12.54 18.1867 12.2167 19.2767 11.57 20.09C10.9233 20.8967 9.86 21.3 8.38 21.3Z" fill="#C20C7A"/>
<path d="M86.38 142.3C86.0067 142.3 85.55 142.233 85.01 142.1C84.4767 141.973 84.0933 141.827 83.86 141.66L84.82 139.28C84.9867 139.527 85.2 139.723 85.46 139.87C85.7267 140.01 85.9933 140.08 86.26 140.08C86.5933 140.08 86.8767 140.04 87.11 139.96C87.3433 139.873 87.54 139.683 87.7 139.39C87.86 139.09 87.94 138.647 87.94 138.06V128.06H90.54V137.82C90.54 139.187 90.2167 140.277 89.57 141.09C88.9233 141.897 87.86 142.3 86.38 142.3Z" fill="#C20C7A"/>
<path d="M59.3568 86.256C59.3568 90.4373 59.0794 93.9787 58.5248 96.88C58.0128 99.824 57.1808 102.213 56.0288 104.048C54.8768 105.883 53.3834 107.227 51.5488 108.08C49.7141 108.933 47.4954 109.36 44.8927 109.36C41.9914 109.36 39.8367 108.912 38.4287 108.016C37.0207 107.12 36.3167 105.989 36.3167 104.624C35.3354 104.24 34.5674 103.621 34.0127 102.768C33.4154 101.957 33.1167 101.061 33.1167 100.08C33.1167 98.9707 33.5221 98.096 34.3327 97.456C35.1434 96.816 36.2527 96.496 37.6607 96.496C38.9407 96.496 39.7727 96.7307 40.1567 97.2C39.7727 97.968 39.5807 98.8 39.5807 99.696C39.5807 101.659 40.0927 103.173 41.1167 104.24C42.1407 105.349 43.8901 105.904 46.3648 105.904C47.8154 105.904 49.0528 105.669 50.0768 105.2C51.1008 104.773 51.8688 104.005 52.3808 102.896C52.5941 102.427 52.7648 101.808 52.8928 101.04C53.0634 100.315 53.1914 99.376 53.2768 98.224C53.4048 97.1147 53.4901 95.7493 53.5328 94.128C53.5754 92.5493 53.5968 90.6293 53.5968 88.368V48.304C53.5968 46.9813 53.1061 45.9787 52.1248 45.296C51.1434 44.5707 49.7354 44.208 47.9008 44.208C47.9008 42.416 49.0528 41.52 51.3568 41.52C53.4474 41.52 55.1541 42.1813 56.4768 43.504C57.7994 42.1813 59.5061 41.52 61.5968 41.52C63.9008 41.52 65.0528 42.416 65.0528 44.208C63.2608 44.208 61.8528 44.5707 60.8288 45.296C59.8474 46.0213 59.3568 47.024 59.3568 48.304V86.256Z" fill="#C20C7A"/>
<path d="M86.8665 23.8483L81.0581 15.1908C81.0202 15.1344 81 15.068 81 15C81 14.932 81.0202 14.8656 81.0581 14.8092L86.8665 6.15169C87.0022 5.94944 87.2997 5.94944 87.4353 6.15169L93.2438 14.8092C93.2816 14.8656 93.3018 14.932 93.3018 15C93.3018 15.068 93.2816 15.1344 93.2438 15.1908L87.4353 23.8483C87.2997 24.0506 87.0022 24.0506 86.8665 23.8483Z" fill="#C20C7A"/>
<path d="M11.8665 143.848L6.05808 135.191C6.02022 135.134 6 135.068 6 135C6 134.932 6.02022 134.866 6.05808 134.809L11.8665 126.152C12.0022 125.949 12.2997 125.949 12.4353 126.152L18.2438 134.809C18.2816 134.866 18.3018 134.932 18.3018 135C18.3018 135.068 18.2816 135.134 18.2438 135.191L12.4353 143.848C12.2997 144.051 12.0022 144.051 11.8665 143.848Z" fill="#C20C7A"/>
</svg>
