<svg width="100" height="150" viewBox="0 0 100 150" fill="none" xmlns="http://www.w3.org/2000/svg">
<rect width="100" height="150" rx="10" fill="#D9D9D9"/>
<path d="M14.72 21L10.22 14.31V21H7.68V7.06H10.22V14L14.66 7.06H17.6L12.85 13.98L17.92 21H14.72Z" fill="#C20C7A"/>
<path d="M89.72 142L85.22 135.31V142H82.68V128.06H85.22V135L89.66 128.06H92.6L87.85 134.98L92.92 142H89.72Z" fill="#C20C7A"/>
<path d="M39.656 93.896C39.656 94.92 39.8907 95.7307 40.36 96.328C40.8293 96.9253 41.384 97.3733 42.024 97.672C42.7067 97.928 43.4107 98.0987 44.136 98.184C44.8613 98.2693 45.48 98.312 45.992 98.312V101C45.48 101 44.7973 100.979 43.944 100.936C43.1333 100.851 42.28 100.765 41.384 100.68C40.488 100.595 39.6133 100.531 38.76 100.488C37.9493 100.403 37.288 100.36 36.776 100.36C36.264 100.36 35.5813 100.403 34.728 100.488C33.9173 100.531 33.064 100.595 32.168 100.68C31.272 100.765 30.3973 100.851 29.544 100.936C28.7333 100.979 28.072 101 27.56 101V98.312C28.1147 98.312 28.7547 98.2693 29.48 98.184C30.248 98.0987 30.952 97.928 31.592 97.672C32.232 97.3733 32.7653 96.9253 33.192 96.328C33.6613 95.7307 33.896 94.92 33.896 93.896V55.304C33.896 53.9813 33.384 52.9787 32.36 52.296C31.3787 51.5707 29.992 51.208 28.2 51.208C28.2 50.4827 28.456 49.864 28.968 49.352C29.48 48.7973 30.376 48.52 31.656 48.52C32.7653 48.52 33.7467 48.712 34.6 49.096C35.496 49.48 36.2213 49.9493 36.776 50.504C37.3307 49.9493 38.0347 49.48 38.888 49.096C39.784 48.712 40.7867 48.52 41.896 48.52C43.176 48.52 44.072 48.7973 44.584 49.352C45.096 49.864 45.352 50.4827 45.352 51.208C43.6027 51.208 42.216 51.5707 41.192 52.296C40.168 52.9787 39.656 53.9813 39.656 55.304V77L53.608 60.36C53.992 59.9333 54.4613 59.3573 55.016 58.632C55.5707 57.9067 56.1253 57.16 56.68 56.392C57.2347 55.624 57.704 54.8987 58.088 54.216C58.472 53.5333 58.664 52.9787 58.664 52.552C58.664 52.168 58.4933 51.8907 58.152 51.72C57.8533 51.5067 57.4693 51.3787 57 51.336C56.5733 51.2507 56.1253 51.208 55.656 51.208C55.1867 51.208 54.7813 51.1867 54.44 51.144C54.4827 50.7173 54.6533 50.3547 54.952 50.056C55.2507 49.7147 55.592 49.4373 55.976 49.224C56.4027 49.0107 56.8507 48.8613 57.32 48.776C57.7893 48.6907 58.2373 48.648 58.664 48.648C59.3893 48.7333 60.072 48.9253 60.712 49.224C61.3947 49.48 61.9707 49.9707 62.44 50.696C62.9093 50.1413 63.5493 49.6507 64.36 49.224C65.2133 48.7973 66.1947 48.584 67.304 48.584C68.2853 48.584 69.1173 48.7973 69.8 49.224C70.5253 49.608 70.9093 50.2693 70.952 51.208C70.824 51.208 70.7173 51.208 70.632 51.208C70.5467 51.1653 70.3973 51.144 70.184 51.144C69.032 51.144 67.8587 51.5493 66.664 52.36C65.512 53.1707 64.4027 54.1307 63.336 55.24C62.2693 56.3493 61.2667 57.5013 60.328 58.696C59.432 59.848 58.6853 60.7867 58.088 61.512L50.216 70.664L67.24 93.896C67.8373 94.7067 68.52 95.3893 69.288 95.944C70.056 96.4987 70.8453 96.968 71.656 97.352C72.4667 97.6933 73.2347 97.9493 73.96 98.12C74.728 98.248 75.3893 98.312 75.944 98.312V101C75.432 101 74.664 100.979 73.64 100.936C72.6587 100.851 71.6133 100.765 70.504 100.68C69.3947 100.595 68.328 100.531 67.304 100.488C66.3227 100.403 65.576 100.36 65.064 100.36C64.552 100.36 63.8267 100.403 62.888 100.488C61.9493 100.531 60.968 100.595 59.944 100.68C58.92 100.765 57.9387 100.851 57 100.936C56.104 100.979 55.4 101 54.888 101V98.312C55.4 98.312 55.976 98.2907 56.616 98.248C57.2987 98.1627 57.9387 98.0347 58.536 97.864C59.1333 97.6933 59.624 97.4373 60.008 97.096C60.4347 96.7547 60.648 96.2853 60.648 95.688C60.648 94.9627 60.4133 94.216 59.944 93.448C59.4747 92.6373 59.1333 92.104 58.92 91.848L46.504 75.016L39.656 82.952V93.896Z" fill="#C20C7A"/>
<path d="M86.8665 23.8483L81.0581 15.1908C81.0202 15.1344 81 15.068 81 15C81 14.932 81.0202 14.8656 81.0581 14.8092L86.8665 6.15169C87.0022 5.94944 87.2997 5.94944 87.4353 6.15169L93.2438 14.8092C93.2816 14.8656 93.3018 14.932 93.3018 15C93.3018 15.068 93.2816 15.1344 93.2438 15.1908L87.4353 23.8483C87.2997 24.0506 87.0022 24.0506 86.8665 23.8483Z" fill="#C20C7A"/>
<path d="M11.8665 141.848L6.05808 133.191C6.02022 133.134 6 133.068 6 133C6 132.932 6.02022 132.866 6.05808 132.809L11.8665 124.152C12.0022 123.949 12.2997 123.949 12.4353 124.152L18.2438 132.809C18.2816 132.866 18.3018 132.932 18.3018 133C18.3018 133.068 18.2816 133.134 18.2438 133.191L12.4353 141.848C12.2997 142.051 12.0022 142.051 11.8665 141.848Z" fill="#C20C7A"/>
</svg>
