<svg width="100" height="150" viewBox="0 0 100 150" fill="none" xmlns="http://www.w3.org/2000/svg">
<rect width="100" height="150" rx="10" fill="#D9D9D9"/>
<path d="M11.54 21.3C10.6533 21.3 9.94667 21.2133 9.42 21.04C8.9 20.8667 8.46667 20.6133 8.12 20.28L9.1 18.28C9.34667 18.5467 9.68333 18.74 10.11 18.86C10.5367 18.98 10.9667 19.04 11.4 19.04C12.08 19.04 12.6833 18.8667 13.21 18.52C13.7433 18.1667 14.1633 17.68 14.47 17.06C14.7767 16.4333 14.9467 15.72 14.98 14.92C14.9933 14.7333 15 14.4867 15 14.18C14.66 14.84 14.16 15.3367 13.5 15.67C12.84 15.9967 12.12 16.16 11.34 16.16C10.4667 16.16 9.71333 15.96 9.08 15.56C8.45333 15.1533 7.97667 14.61 7.65 13.93C7.32333 13.25 7.16 12.5 7.16 11.68C7.16 10.6733 7.38 9.79667 7.82 9.05C8.26667 8.29667 8.88333 7.72 9.67 7.32C10.4633 6.92 11.3733 6.72 12.4 6.72C13.2733 6.72 14.1033 6.95333 14.89 7.42C15.6833 7.88667 16.3367 8.64667 16.85 9.7C17.3633 10.7467 17.62 12.0933 17.62 13.74C17.62 15.2667 17.36 16.6033 16.84 17.75C16.32 18.89 15.6 19.7667 14.68 20.38C13.76 20.9933 12.7133 21.3 11.54 21.3ZM12 14.12C12.4333 14.12 12.8467 14.0133 13.24 13.8C13.64 13.58 13.9667 13.29 14.22 12.93C14.4733 12.5633 14.6133 12.1667 14.64 11.74C14.64 11.2067 14.55 10.7167 14.37 10.27C14.19 9.81667 13.9267 9.45667 13.58 9.19C13.2333 8.91667 12.82 8.78 12.34 8.78C11.9067 8.78 11.5 8.88667 11.12 9.1C10.74 9.30667 10.43 9.61333 10.19 10.02C9.95667 10.42 9.84 10.8933 9.84 11.44C9.84 12.2467 10.0233 12.8967 10.39 13.39C10.7633 13.8767 11.3 14.12 12 14.12Z" fill="#C20C7A"/>
<path d="M86.54 142.3C85.6533 142.3 84.9467 142.213 84.42 142.04C83.9 141.867 83.4667 141.613 83.12 141.28L84.1 139.28C84.3467 139.547 84.6833 139.74 85.11 139.86C85.5367 139.98 85.9667 140.04 86.4 140.04C87.08 140.04 87.6833 139.867 88.21 139.52C88.7433 139.167 89.1633 138.68 89.47 138.06C89.7767 137.433 89.9467 136.72 89.98 135.92C89.9933 135.733 90 135.487 90 135.18C89.66 135.84 89.16 136.337 88.5 136.67C87.84 136.997 87.12 137.16 86.34 137.16C85.4667 137.16 84.7133 136.96 84.08 136.56C83.4533 136.153 82.9767 135.61 82.65 134.93C82.3233 134.25 82.16 133.5 82.16 132.68C82.16 131.673 82.38 130.797 82.82 130.05C83.2667 129.297 83.8833 128.72 84.67 128.32C85.4633 127.92 86.3733 127.72 87.4 127.72C88.2733 127.72 89.1033 127.953 89.89 128.42C90.6833 128.887 91.3367 129.647 91.85 130.7C92.3633 131.747 92.62 133.093 92.62 134.74C92.62 136.267 92.36 137.603 91.84 138.75C91.32 139.89 90.6 140.767 89.68 141.38C88.76 141.993 87.7133 142.3 86.54 142.3ZM87 135.12C87.4333 135.12 87.8467 135.013 88.24 134.8C88.64 134.58 88.9667 134.29 89.22 133.93C89.4733 133.563 89.6133 133.167 89.64 132.74C89.64 132.207 89.55 131.717 89.37 131.27C89.19 130.817 88.9267 130.457 88.58 130.19C88.2333 129.917 87.82 129.78 87.34 129.78C86.9067 129.78 86.5 129.887 86.12 130.1C85.74 130.307 85.43 130.613 85.19 131.02C84.9567 131.42 84.84 131.893 84.84 132.44C84.84 133.247 85.0233 133.897 85.39 134.39C85.7633 134.877 86.3 135.12 87 135.12Z" fill="#C20C7A"/>
<path d="M50.107 87.6647L42.0803 75.7009C42.0279 75.6229 42 75.5311 42 75.4372C42 75.3433 42.0279 75.2515 42.0803 75.1735L50.107 63.2096C50.2945 62.9301 50.7055 62.9301 50.893 63.2096L58.9197 75.1735C58.9721 75.2515 59 75.3433 59 75.4372C59 75.5311 58.9721 75.6229 58.9197 75.7009L50.893 87.6647C50.7055 87.9442 50.2945 87.9442 50.107 87.6647Z" fill="#C20C7A"/>
<path d="M72.107 130.665L64.0803 118.701C64.0279 118.623 64 118.531 64 118.437C64 118.343 64.0279 118.251 64.0803 118.173L72.107 106.21C72.2945 105.93 72.7055 105.93 72.893 106.21L80.9197 118.173C80.9721 118.251 81 118.343 81 118.437C81 118.531 80.9721 118.623 80.9197 118.701L72.893 130.665C72.7055 130.944 72.2945 130.944 72.107 130.665Z" fill="#C20C7A"/>
<path d="M72.107 102.665L64.0803 90.7009C64.0279 90.6229 64 90.5311 64 90.4372C64 90.3433 64.0279 90.2515 64.0803 90.1735L72.107 78.2096C72.2945 77.9301 72.7055 77.9301 72.893 78.2096L80.9197 90.1735C80.9721 90.2515 81 90.3433 81 90.4372C81 90.5311 80.9721 90.6229 80.9197 90.7009L72.893 102.665C72.7055 102.944 72.2945 102.944 72.107 102.665Z" fill="#C20C7A"/>
<path d="M72.107 74.6647L64.0803 62.7009C64.0279 62.6229 64 62.5311 64 62.4372C64 62.3433 64.0279 62.2515 64.0803 62.1735L72.107 50.2096C72.2945 49.9301 72.7055 49.9301 72.893 50.2096L80.9197 62.1735C80.9721 62.2515 81 62.3433 81 62.4372C81 62.5311 80.9721 62.6229 80.9197 62.7009L72.893 74.6647C72.7055 74.9442 72.2945 74.9442 72.107 74.6647Z" fill="#C20C7A"/>
<path d="M72.107 46.6647L64.0803 34.7009C64.0279 34.6229 64 34.5311 64 34.4372C64 34.3433 64.0279 34.2515 64.0803 34.1735L72.107 22.2096C72.2945 21.9301 72.7055 21.9301 72.893 22.2096L80.9197 34.1735C80.9721 34.2515 81 34.3433 81 34.4372C81 34.5311 80.9721 34.6229 80.9197 34.7009L72.893 46.6647C72.7055 46.9442 72.2945 46.9442 72.107 46.6647Z" fill="#C20C7A"/>
<path d="M28.107 74.6647L20.0803 62.7009C20.0279 62.6229 20 62.5311 20 62.4372C20 62.3433 20.0279 62.2515 20.0803 62.1735L28.107 50.2096C28.2945 49.9301 28.7055 49.9301 28.893 50.2096L36.9197 62.1735C36.9721 62.2515 37 62.3433 37 62.4372C37 62.5311 36.9721 62.6229 36.9197 62.7009L28.893 74.6647C28.7055 74.9442 28.2945 74.9442 28.107 74.6647Z" fill="#C20C7A"/>
<path d="M28.107 102.665L20.0803 90.7009C20.0279 90.6229 20 90.5311 20 90.4372C20 90.3433 20.0279 90.2515 20.0803 90.1735L28.107 78.2096C28.2945 77.9301 28.7055 77.9301 28.893 78.2096L36.9197 90.1735C36.9721 90.2515 37 90.3433 37 90.4372C37 90.5311 36.9721 90.6229 36.9197 90.7009L28.893 102.665C28.7055 102.944 28.2945 102.944 28.107 102.665Z" fill="#C20C7A"/>
<path d="M28.107 130.665L20.0803 118.701C20.0279 118.623 20 118.531 20 118.437C20 118.343 20.0279 118.251 20.0803 118.173L28.107 106.21C28.2945 105.93 28.7055 105.93 28.893 106.21L36.9197 118.173C36.9721 118.251 37 118.343 37 118.437C37 118.531 36.9721 118.623 36.9197 118.701L28.893 130.665C28.7055 130.944 28.2945 130.944 28.107 130.665Z" fill="#C20C7A"/>
<path d="M28.107 46.6647L20.0803 34.7009C20.0279 34.6229 20 34.5311 20 34.4372C20 34.3433 20.0279 34.2515 20.0803 34.1735L28.107 22.2096C28.2945 21.9301 28.7055 21.9301 28.893 22.2096L36.9197 34.1735C36.9721 34.2515 37 34.3433 37 34.4372C37 34.5311 36.9721 34.6229 36.9197 34.7009L28.893 46.6647C28.7055 46.9442 28.2945 46.9442 28.107 46.6647Z" fill="#C20C7A"/>
</svg>
