<svg width="100" height="150" viewBox="0 0 100 150" fill="none" xmlns="http://www.w3.org/2000/svg">
<rect width="100" height="150" rx="10" fill="#D9D9D9"/>
<path d="M18.38 14.02C18.38 15.6667 18.0967 17.07 17.53 18.23C16.97 19.39 16.16 20.22 15.1 20.72L16.62 23.22L14.32 24.46L12.8 21.24H12.6C11.36 21.24 10.3033 20.9467 9.43 20.36C8.55667 19.7667 7.89667 18.93 7.45 17.85C7.00333 16.7633 6.78 15.4867 6.78 14.02C6.78 12.5667 7 11.3 7.44 10.22C7.88667 9.13333 8.54 8.29667 9.4 7.71C10.2667 7.11667 11.3133 6.82 12.54 6.82C13.8133 6.82 14.8867 7.12 15.76 7.72C16.6333 8.31333 17.2867 9.15 17.72 10.23C18.16 11.31 18.38 12.5733 18.38 14.02ZM9.46 13.98C9.46 15.1133 9.58667 16.0633 9.84 16.83C10.1 17.59 10.4633 18.16 10.93 18.54C11.4033 18.9133 11.96 19.1 12.6 19.1C13.1933 19.1 13.7233 18.91 14.19 18.53C14.6633 18.15 15.0367 17.5733 15.31 16.8C15.5833 16.0267 15.72 15.08 15.72 13.96C15.72 12.3133 15.44 11.06 14.88 10.2C14.3267 9.33333 13.5467 8.9 12.54 8.9C11.56 8.9 10.8 9.33333 10.26 10.2C9.72667 11.06 9.46 12.32 9.46 13.98Z" fill="#C20C7A"/>
<path d="M93.38 135.02C93.38 136.667 93.0967 138.07 92.53 139.23C91.97 140.39 91.16 141.22 90.1 141.72L91.62 144.22L89.32 145.46L87.8 142.24H87.6C86.36 142.24 85.3033 141.947 84.43 141.36C83.5567 140.767 82.8967 139.93 82.45 138.85C82.0033 137.763 81.78 136.487 81.78 135.02C81.78 133.567 82 132.3 82.44 131.22C82.8867 130.133 83.54 129.297 84.4 128.71C85.2667 128.117 86.3133 127.82 87.54 127.82C88.8133 127.82 89.8867 128.12 90.76 128.72C91.6333 129.313 92.2867 130.15 92.72 131.23C93.16 132.31 93.38 133.573 93.38 135.02ZM84.46 134.98C84.46 136.113 84.5867 137.063 84.84 137.83C85.1 138.59 85.4633 139.16 85.93 139.54C86.4033 139.913 86.96 140.1 87.6 140.1C88.1933 140.1 88.7233 139.91 89.19 139.53C89.6633 139.15 90.0367 138.573 90.31 137.8C90.5833 137.027 90.72 136.08 90.72 134.96C90.72 133.313 90.44 132.06 89.88 131.2C89.3267 130.333 88.5467 129.9 87.54 129.9C86.56 129.9 85.8 130.333 85.26 131.2C84.7267 132.06 84.46 133.32 84.46 134.98Z" fill="#C20C7A"/>
<path d="M44.504 107.768C42.84 107.512 42.008 106.616 42.008 105.08C42.008 104.525 42.264 103.949 42.776 103.352C42.776 101.517 43.4373 100.259 44.76 99.576C43.2667 99.4053 41.8373 99.1493 40.472 98.808C39.1493 98.424 37.9547 97.912 36.888 97.272C35.864 96.632 35.032 95.8427 34.392 94.904C33.7947 93.9653 33.496 92.8347 33.496 91.512C32.0453 91.512 30.872 90.9573 29.976 89.848C29.1227 88.7387 28.44 87.288 27.928 85.496C27.4587 83.6613 27.1387 81.6133 26.968 79.352C26.84 77.0907 26.776 74.808 26.776 72.504C26.776 68.6213 27.288 65.08 28.312 61.88C29.3787 58.68 30.936 55.9493 32.984 53.688C35.0747 51.384 37.6347 49.6133 40.664 48.376C43.6933 47.1387 47.192 46.52 51.16 46.52C52.0987 46.52 53.3147 46.584 54.808 46.712C56.3013 46.84 57.752 47.1387 59.16 47.608C60.6107 48.0347 61.848 48.6747 62.872 49.528C63.896 50.3813 64.408 51.5547 64.408 53.048C65.9867 53.048 67.288 53.6667 68.312 54.904C69.3787 56.0987 70.232 57.6347 70.872 59.512C71.512 61.3467 71.96 63.352 72.216 65.528C72.472 67.704 72.6 69.7733 72.6 71.736C72.6 76.1733 72.024 80.12 70.872 83.576C69.7627 86.9893 68.2267 89.8907 66.264 92.28C64.344 94.6267 62.0613 96.44 59.416 97.72C56.7707 99 53.912 99.704 50.84 99.832C51.864 100.131 52.9093 100.472 53.976 100.856C55.0853 101.283 56.152 101.667 57.176 102.008C58.2427 102.392 59.288 102.712 60.312 102.968C61.336 103.224 62.296 103.352 63.192 103.352C64.1733 103.352 65.0267 103.032 65.752 102.392C66.52 101.752 67.0533 100.621 67.352 99C67.992 99.3413 68.4827 99.8107 68.824 100.408C69.208 101.005 69.4 101.624 69.4 102.264C69.4 103.203 69.1013 103.907 68.504 104.376C68.504 105.784 68.0133 106.744 67.032 107.256C66.0507 107.768 64.984 108.024 63.832 108.024C62.296 108.024 60.7813 107.811 59.288 107.384C57.7947 106.957 56.344 106.467 54.936 105.912C53.5707 105.4 52.248 104.931 50.968 104.504C49.688 104.077 48.4933 103.864 47.384 103.864C46.5307 103.864 45.848 104.141 45.336 104.696C44.824 105.251 44.5467 106.275 44.504 107.768ZM49.752 96.76C52.568 96.76 55 96.12 57.048 94.84C59.096 93.5173 60.76 91.768 62.04 89.592C63.3627 87.3733 64.3227 84.8133 64.92 81.912C65.56 79.0107 65.88 75.96 65.88 72.76C65.88 69.56 65.56 66.5733 64.92 63.8C64.3227 61.0267 63.3627 58.616 62.04 56.568C60.7173 54.4773 59.032 52.8347 56.984 51.64C54.9787 50.4453 52.5467 49.848 49.688 49.848C46.872 49.848 44.44 50.4453 42.392 51.64C40.344 52.792 38.6587 54.392 37.336 56.44C36.0133 58.488 35.032 60.92 34.392 63.736C33.7947 66.5093 33.496 69.496 33.496 72.696C33.496 75.896 33.7947 78.968 34.392 81.912C35.032 84.8133 36.0133 87.3733 37.336 89.592C38.6587 91.768 40.344 93.5173 42.392 94.84C44.44 96.12 46.8933 96.76 49.752 96.76Z" fill="#C20C7A"/>
<path d="M87.8665 24.8483L82.0581 16.1908C82.0202 16.1344 82 16.068 82 16C82 15.932 82.0202 15.8656 82.0581 15.8092L87.8665 7.15169C88.0022 6.94944 88.2997 6.94944 88.4353 7.15169L94.2438 15.8092C94.2816 15.8656 94.3018 15.932 94.3018 16C94.3018 16.068 94.2816 16.1344 94.2438 16.1908L88.4353 24.8483C88.2997 25.0506 88.0022 25.0506 87.8665 24.8483Z" fill="#C20C7A"/>
<path d="M11.8665 143.848L6.05808 135.191C6.02022 135.134 6 135.068 6 135C6 134.932 6.02022 134.866 6.05808 134.809L11.8665 126.152C12.0022 125.949 12.2997 125.949 12.4353 126.152L18.2438 134.809C18.2816 134.866 18.3018 134.932 18.3018 135C18.3018 135.068 18.2816 135.134 18.2438 135.191L12.4353 143.848C12.2997 144.051 12.0022 144.051 11.8665 143.848Z" fill="#C20C7A"/>
</svg>
