<svg width="100" height="150" viewBox="0 0 100 150" fill="none" xmlns="http://www.w3.org/2000/svg">
<rect width="100" height="150" rx="10" fill="#D9D9D9"/>
<path d="M16.04 7.06L11.54 21H8.68L12.69 9.42H6.9V7.06H16.04Z" fill="#C20C7A"/>
<path d="M91.04 128.06L86.54 142H83.68L87.69 130.42H81.9V128.06H91.04Z" fill="#C20C7A"/>
<path d="M27.107 122.665L19.0803 110.701C19.0279 110.623 19 110.531 19 110.437C19 110.343 19.0279 110.251 19.0803 110.173L27.107 98.2096C27.2945 97.9301 27.7055 97.9301 27.893 98.2096L35.9197 110.173C35.9721 110.251 36 110.343 36 110.437C36 110.531 35.9721 110.623 35.9197 110.701L27.893 122.665C27.7055 122.944 27.2945 122.944 27.107 122.665Z" fill="#C20C7A"/>
<path d="M27.107 54.6647L19.0803 42.7009C19.0279 42.6229 19 42.5311 19 42.4372C19 42.3433 19.0279 42.2515 19.0803 42.1735L27.107 30.2096C27.2945 29.9301 27.7055 29.9301 27.893 30.2096L35.9197 42.1735C35.9721 42.2515 36 42.3433 36 42.4372C36 42.5311 35.9721 42.6229 35.9197 42.7009L27.893 54.6647C27.7055 54.9442 27.2945 54.9442 27.107 54.6647Z" fill="#C20C7A"/>
<path d="M27.107 87.6647L19.0803 75.7009C19.0279 75.6229 19 75.5311 19 75.4372C19 75.3433 19.0279 75.2515 19.0803 75.1735L27.107 63.2096C27.2945 62.9301 27.7055 62.9301 27.893 63.2096L35.9197 75.1735C35.9721 75.2515 36 75.3433 36 75.4372C36 75.5311 35.9721 75.6229 35.9197 75.7009L27.893 87.6647C27.7055 87.9442 27.2945 87.9442 27.107 87.6647Z" fill="#C20C7A"/>
<path d="M73.107 54.6647L65.0803 42.7009C65.0279 42.6229 65 42.5311 65 42.4372C65 42.3433 65.0279 42.2515 65.0803 42.1735L73.107 30.2096C73.2945 29.9301 73.7055 29.9301 73.893 30.2096L81.9197 42.1735C81.9721 42.2515 82 42.3433 82 42.4372C82 42.5311 81.9721 42.6229 81.9197 42.7009L73.893 54.6647C73.7055 54.9442 73.2945 54.9442 73.107 54.6647Z" fill="#C20C7A"/>
<path d="M73.107 87.6647L65.0803 75.7009C65.0279 75.6229 65 75.5311 65 75.4372C65 75.3433 65.0279 75.2515 65.0803 75.1735L73.107 63.2096C73.2945 62.9301 73.7055 62.9301 73.893 63.2096L81.9197 75.1735C81.9721 75.2515 82 75.3433 82 75.4372C82 75.5311 81.9721 75.6229 81.9197 75.7009L73.893 87.6647C73.7055 87.9442 73.2945 87.9442 73.107 87.6647Z" fill="#C20C7A"/>
<path d="M73.107 122.665L65.0803 110.701C65.0279 110.623 65 110.531 65 110.437C65 110.343 65.0279 110.251 65.0803 110.173L73.107 98.2096C73.2945 97.9301 73.7055 97.9301 73.893 98.2096L81.9197 110.173C81.9721 110.251 82 110.343 82 110.437C82 110.531 81.9721 110.623 81.9197 110.701L73.893 122.665C73.7055 122.944 73.2945 122.944 73.107 122.665Z" fill="#C20C7A"/>
<path d="M50.107 71.6647L42.0803 59.7009C42.0279 59.6229 42 59.5311 42 59.4372C42 59.3433 42.0279 59.2515 42.0803 59.1735L50.107 47.2096C50.2945 46.9301 50.7055 46.9301 50.893 47.2096L58.9197 59.1735C58.9721 59.2515 59 59.3433 59 59.4372C59 59.5311 58.9721 59.6229 58.9197 59.7009L50.893 71.6647C50.7055 71.9442 50.2945 71.9442 50.107 71.6647Z" fill="#C20C7A"/>
</svg>
