<svg width="100" height="150" viewBox="0 0 100 150" fill="none" xmlns="http://www.w3.org/2000/svg">
<rect width="100" height="150" rx="10" fill="#D9D9D9"/>
<path d="M7.78 7.96L10.48 6.7V21H7.78V7.96ZM18.0695 21.36C16.3295 21.36 15.0462 20.71 14.2195 19.41C13.3995 18.11 12.9895 16.3267 12.9895 14.06C12.9895 11.6067 13.4262 9.77 14.2995 8.55C15.1729 7.33 16.4295 6.72 18.0695 6.72C19.7095 6.72 20.9662 7.33 21.8395 8.55C22.7129 9.77 23.1495 11.6067 23.1495 14.06C23.1495 16.3267 22.7362 18.11 21.9095 19.41C21.0895 20.71 19.8095 21.36 18.0695 21.36ZM18.0895 19.22C19.5962 19.22 20.3495 17.4933 20.3495 14.04C20.3495 10.56 19.5962 8.82 18.0895 8.82C16.5562 8.82 15.7895 10.56 15.7895 14.04C15.7895 15.6267 15.9695 16.8867 16.3295 17.82C16.6895 18.7533 17.2762 19.22 18.0895 19.22Z" fill="#C20C7A"/>
<path d="M76.78 128.96L79.48 127.7V142H76.78V128.96ZM87.0695 142.36C85.3295 142.36 84.0462 141.71 83.2195 140.41C82.3995 139.11 81.9895 137.327 81.9895 135.06C81.9895 132.607 82.4262 130.77 83.2995 129.55C84.1729 128.33 85.4295 127.72 87.0695 127.72C88.7095 127.72 89.9662 128.33 90.8395 129.55C91.7129 130.77 92.1495 132.607 92.1495 135.06C92.1495 137.327 91.7362 139.11 90.9095 140.41C90.0895 141.71 88.8095 142.36 87.0695 142.36ZM87.0895 140.22C88.5962 140.22 89.3495 138.493 89.3495 135.04C89.3495 131.56 88.5962 129.82 87.0895 129.82C85.5562 129.82 84.7895 131.56 84.7895 135.04C84.7895 136.627 84.9695 137.887 85.3295 138.82C85.6895 139.753 86.2762 140.22 87.0895 140.22Z" fill="#C20C7A"/>
<path d="M50.107 57.6647L42.0803 45.7009C42.0279 45.6229 42 45.5311 42 45.4372C42 45.3433 42.0279 45.2515 42.0803 45.1735L50.107 33.2096C50.2945 32.9301 50.7055 32.9301 50.893 33.2096L58.9197 45.1735C58.9721 45.2515 59 45.3433 59 45.4372C59 45.5311 58.9721 45.6229 58.9197 45.7009L50.893 57.6647C50.7055 57.9442 50.2945 57.9442 50.107 57.6647Z" fill="#C20C7A"/>
<path d="M50.107 113.665L42.0803 101.701C42.0279 101.623 42 101.531 42 101.437C42 101.343 42.0279 101.251 42.0803 101.173L50.107 89.2096C50.2945 88.9301 50.7055 88.9301 50.893 89.2096L58.9197 101.173C58.9721 101.251 59 101.343 59 101.437C59 101.531 58.9721 101.623 58.9197 101.701L50.893 113.665C50.7055 113.944 50.2945 113.944 50.107 113.665Z" fill="#C20C7A"/>
<path d="M72.107 128.665L64.0803 116.701C64.0279 116.623 64 116.531 64 116.437C64 116.343 64.0279 116.251 64.0803 116.173L72.107 104.21C72.2945 103.93 72.7055 103.93 72.893 104.21L80.9197 116.173C80.9721 116.251 81 116.343 81 116.437C81 116.531 80.9721 116.623 80.9197 116.701L72.893 128.665C72.7055 128.944 72.2945 128.944 72.107 128.665Z" fill="#C20C7A"/>
<path d="M72.107 100.665L64.0803 88.7009C64.0279 88.6229 64 88.5311 64 88.4372C64 88.3433 64.0279 88.2515 64.0803 88.1735L72.107 76.2096C72.2945 75.9301 72.7055 75.9301 72.893 76.2096L80.9197 88.1735C80.9721 88.2515 81 88.3433 81 88.4372C81 88.5311 80.9721 88.6229 80.9197 88.7009L72.893 100.665C72.7055 100.944 72.2945 100.944 72.107 100.665Z" fill="#C20C7A"/>
<path d="M72.107 72.6647L64.0803 60.7009C64.0279 60.6229 64 60.5311 64 60.4372C64 60.3433 64.0279 60.2515 64.0803 60.1735L72.107 48.2096C72.2945 47.9301 72.7055 47.9301 72.893 48.2096L80.9197 60.1735C80.9721 60.2515 81 60.3433 81 60.4372C81 60.5311 80.9721 60.6229 80.9197 60.7009L72.893 72.6647C72.7055 72.9442 72.2945 72.9442 72.107 72.6647Z" fill="#C20C7A"/>
<path d="M72.107 44.6647L64.0803 32.7009C64.0279 32.6229 64 32.5311 64 32.4372C64 32.3433 64.0279 32.2515 64.0803 32.1735L72.107 20.2096C72.2945 19.9301 72.7055 19.9301 72.893 20.2096L80.9197 32.1735C80.9721 32.2515 81 32.3433 81 32.4372C81 32.5311 80.9721 32.6229 80.9197 32.7009L72.893 44.6647C72.7055 44.9442 72.2945 44.9442 72.107 44.6647Z" fill="#C20C7A"/>
<path d="M28.107 72.6647L20.0803 60.7009C20.0279 60.6229 20 60.5311 20 60.4372C20 60.3433 20.0279 60.2515 20.0803 60.1735L28.107 48.2096C28.2945 47.9301 28.7055 47.9301 28.893 48.2096L36.9197 60.1735C36.9721 60.2515 37 60.3433 37 60.4372C37 60.5311 36.9721 60.6229 36.9197 60.7009L28.893 72.6647C28.7055 72.9442 28.2945 72.9442 28.107 72.6647Z" fill="#C20C7A"/>
<path d="M28.107 100.665L20.0803 88.7009C20.0279 88.6229 20 88.5311 20 88.4372C20 88.3433 20.0279 88.2515 20.0803 88.1735L28.107 76.2096C28.2945 75.9301 28.7055 75.9301 28.893 76.2096L36.9197 88.1735C36.9721 88.2515 37 88.3433 37 88.4372C37 88.5311 36.9721 88.6229 36.9197 88.7009L28.893 100.665C28.7055 100.944 28.2945 100.944 28.107 100.665Z" fill="#C20C7A"/>
<path d="M28.107 128.665L20.0803 116.701C20.0279 116.623 20 116.531 20 116.437C20 116.343 20.0279 116.251 20.0803 116.173L28.107 104.21C28.2945 103.93 28.7055 103.93 28.893 104.21L36.9197 116.173C36.9721 116.251 37 116.343 37 116.437C37 116.531 36.9721 116.623 36.9197 116.701L28.893 128.665C28.7055 128.944 28.2945 128.944 28.107 128.665Z" fill="#C20C7A"/>
<path d="M28.107 44.6647L20.0803 32.7009C20.0279 32.6229 20 32.5311 20 32.4372C20 32.3433 20.0279 32.2515 20.0803 32.1735L28.107 20.2096C28.2945 19.9301 28.7055 19.9301 28.893 20.2096L36.9197 32.1735C36.9721 32.2515 37 32.3433 37 32.4372C37 32.5311 36.9721 32.6229 36.9197 32.7009L28.893 44.6647C28.7055 44.9442 28.2945 44.9442 28.107 44.6647Z" fill="#C20C7A"/>
</svg>
