<svg width="100" height="150" viewBox="0 0 100 150" fill="none" xmlns="http://www.w3.org/2000/svg">
<rect width="100" height="150" rx="10" fill="#D9D9D9"/>
<path d="M16.24 18.72V21H7.26C7.16667 20.5067 7.12 20.04 7.12 19.6C7.12 18.7733 7.25333 18.06 7.52 17.46C7.78667 16.86 8.17667 16.3267 8.69 15.86C9.21 15.3933 9.89333 14.9133 10.74 14.42C11.3267 14.0733 11.8067 13.76 12.18 13.48C12.56 13.2 12.8833 12.8467 13.15 12.42C13.4233 11.9933 13.56 11.5 13.56 10.94C13.56 10.58 13.4867 10.25 13.34 9.95C13.1933 9.64333 12.9667 9.4 12.66 9.22C12.3533 9.03333 11.9733 8.94 11.52 8.94C10.8 8.94 10.2133 9.17333 9.76 9.64C9.31333 10.1067 9.02667 10.7333 8.9 11.52L6.78 10.52C6.88667 9.82 7.16 9.18333 7.6 8.61C8.04 8.03 8.61333 7.57 9.32 7.23C10.0267 6.89 10.82 6.72 11.7 6.72C12.5333 6.72 13.2867 6.87667 13.96 7.19C14.64 7.50333 15.1767 7.96333 15.57 8.57C15.9633 9.17 16.16 9.88 16.16 10.7C16.16 11.54 16.0067 12.2767 15.7 12.91C15.4 13.5433 14.9567 14.1167 14.37 14.63C13.79 15.1367 13.02 15.68 12.06 16.26C11.5267 16.58 11.12 16.84 10.84 17.04C10.5667 17.24 10.33 17.4767 10.13 17.75C9.93667 18.0167 9.80667 18.34 9.74 18.72H16.24Z" fill="#C20C7A"/>
<path d="M91.24 139.72V142H82.26C82.1667 141.507 82.12 141.04 82.12 140.6C82.12 139.773 82.2533 139.06 82.52 138.46C82.7867 137.86 83.1767 137.327 83.69 136.86C84.21 136.393 84.8933 135.913 85.74 135.42C86.3267 135.073 86.8067 134.76 87.18 134.48C87.56 134.2 87.8833 133.847 88.15 133.42C88.4233 132.993 88.56 132.5 88.56 131.94C88.56 131.58 88.4867 131.25 88.34 130.95C88.1933 130.643 87.9667 130.4 87.66 130.22C87.3533 130.033 86.9733 129.94 86.52 129.94C85.8 129.94 85.2133 130.173 84.76 130.64C84.3133 131.107 84.0267 131.733 83.9 132.52L81.78 131.52C81.8867 130.82 82.16 130.183 82.6 129.61C83.04 129.03 83.6133 128.57 84.32 128.23C85.0267 127.89 85.82 127.72 86.7 127.72C87.5333 127.72 88.2867 127.877 88.96 128.19C89.64 128.503 90.1767 128.963 90.57 129.57C90.9633 130.17 91.16 130.88 91.16 131.7C91.16 132.54 91.0067 133.277 90.7 133.91C90.4 134.543 89.9567 135.117 89.37 135.63C88.79 136.137 88.02 136.68 87.06 137.26C86.5267 137.58 86.12 137.84 85.84 138.04C85.5667 138.24 85.33 138.477 85.13 138.75C84.9367 139.017 84.8067 139.34 84.74 139.72H91.24Z" fill="#C20C7A"/>
<path d="M50.107 121.665L42.0803 109.701C42.0279 109.623 42 109.531 42 109.437C42 109.343 42.0279 109.251 42.0803 109.173L50.107 97.2096C50.2945 96.9301 50.7055 96.9301 50.893 97.2096L58.9197 109.173C58.9721 109.251 59 109.343 59 109.437C59 109.531 58.9721 109.623 58.9197 109.701L50.893 121.665C50.7055 121.944 50.2945 121.944 50.107 121.665Z" fill="#C20C7A"/>
<path d="M50.107 49.6647L42.0803 37.7009C42.0279 37.6229 42 37.5311 42 37.4372C42 37.3433 42.0279 37.2515 42.0803 37.1735L50.107 25.2096C50.2945 24.9301 50.7055 24.9301 50.893 25.2096L58.9197 37.1735C58.9721 37.2515 59 37.3433 59 37.4372C59 37.5311 58.9721 37.6229 58.9197 37.7009L50.893 49.6647C50.7055 49.9442 50.2945 49.9442 50.107 49.6647Z" fill="#C20C7A"/>
</svg>
