<svg width="369" height="233" viewBox="0 0 369 233" fill="none" xmlns="http://www.w3.org/2000/svg">
<g filter="url(#filter0_f_17_106)">
<path d="M16.583 106.28C15.1323 106.28 13.9803 105.853 13.127 105C12.2737 104.061 11.847 102.781 11.847 101.16V48.936C11.847 41.8533 13.3403 35.7093 16.327 30.504C19.399 25.2133 23.751 21.16 29.383 18.344C35.015 15.528 41.6283 14.12 49.223 14.12C56.8177 14.12 63.3883 15.528 68.935 18.344C74.567 21.16 78.8763 25.2133 81.863 30.504C84.935 35.7093 86.471 41.8533 86.471 48.936V101.16C86.471 102.781 86.0443 104.061 85.191 105C84.423 105.853 83.271 106.28 81.735 106.28C80.2843 106.28 79.0897 105.853 78.151 105C77.2977 104.061 76.871 102.781 76.871 101.16V48.552C76.871 40.2747 74.439 33.832 69.575 29.224C64.711 24.616 57.927 22.312 49.223 22.312C40.6897 22.312 33.9057 24.6587 28.871 29.352C23.9217 34.0453 21.447 40.4453 21.447 48.552V101.16C21.447 102.781 21.0203 104.061 20.167 105C19.3137 105.853 18.119 106.28 16.583 106.28ZM122.752 105C117.547 105 113.493 103.635 110.592 100.904C107.691 98.1733 106.24 94.3333 106.24 89.384V30.76C106.24 25.9813 107.648 22.2267 110.464 19.496C113.365 16.7653 117.376 15.4 122.496 15.4H162.176C165.504 15.4 167.168 16.7653 167.168 19.496C167.168 20.6907 166.741 21.6293 165.888 22.312C165.035 22.9947 163.797 23.336 162.176 23.336H122.624C120.576 23.336 118.912 24.0187 117.632 25.384C116.437 26.7493 115.84 28.5413 115.84 30.76V55.208H152.448C155.776 55.208 157.44 56.5733 157.44 59.304C157.44 60.584 156.971 61.5653 156.032 62.248C155.179 62.9307 153.984 63.272 152.448 63.272H115.84V89.64C115.84 91.8587 116.437 93.6507 117.632 95.016C118.912 96.3813 120.576 97.064 122.624 97.064H164.992C168.32 97.064 169.984 98.3867 169.984 101.032C169.984 102.312 169.515 103.293 168.576 103.976C167.723 104.659 166.528 105 164.992 105H122.752ZM223.73 106.28C215.111 106.28 207.346 104.403 200.434 100.648C193.522 96.808 188.061 91.3893 184.05 84.392C180.125 77.3947 178.162 69.3307 178.162 60.2C178.162 50.984 180.125 42.92 184.05 36.008C188.061 29.0107 193.522 23.6347 200.434 19.88C207.346 16.04 215.111 14.12 223.73 14.12C232.349 14.12 240.114 16.04 247.026 19.88C253.938 23.6347 259.357 29.0107 263.282 36.008C267.293 42.92 269.298 50.984 269.298 60.2C269.298 69.3307 267.293 77.3947 263.282 84.392C259.357 91.3893 253.938 96.808 247.026 100.648C240.114 104.403 232.349 106.28 223.73 106.28ZM223.73 98.088C230.642 98.088 236.786 96.5947 242.162 93.608C247.623 90.6213 251.89 86.312 254.962 80.68C258.119 74.9627 259.698 68.136 259.698 60.2C259.698 52.1787 258.077 45.3093 254.834 39.592C251.677 33.8747 247.325 29.5653 241.778 26.664C236.317 23.7627 230.215 22.312 223.474 22.312C216.647 22.312 210.503 23.8053 205.042 26.792C199.666 29.7787 195.442 34.1307 192.37 39.848C189.298 45.5653 187.762 52.3493 187.762 60.2C187.762 68.136 189.298 74.9627 192.37 80.68C195.527 86.312 199.794 90.6213 205.17 93.608C210.631 96.5947 216.818 98.088 223.73 98.088ZM287.208 106.28C285.757 106.28 284.605 105.853 283.752 105C282.899 104.061 282.472 102.781 282.472 101.16V48.936C282.472 41.8533 283.965 35.7093 286.952 30.504C290.024 25.2133 294.376 21.16 300.008 18.344C305.64 15.528 312.253 14.12 319.848 14.12C327.443 14.12 334.013 15.528 339.56 18.344C345.192 21.16 349.501 25.2133 352.488 30.504C355.56 35.7093 357.096 41.8533 357.096 48.936V101.16C357.096 102.781 356.669 104.061 355.816 105C355.048 105.853 353.896 106.28 352.36 106.28C350.909 106.28 349.715 105.853 348.776 105C347.923 104.061 347.496 102.781 347.496 101.16V48.552C347.496 40.2747 345.064 33.832 340.2 29.224C335.336 24.616 328.552 22.312 319.848 22.312C311.315 22.312 304.531 24.6587 299.496 29.352C294.547 34.0453 292.072 40.4453 292.072 48.552V101.16C292.072 102.781 291.645 104.061 290.792 105C289.939 105.853 288.744 106.28 287.208 106.28Z" fill="#00C2EA"/>
<path d="M37.752 220C32.5467 220 28.4933 218.635 25.592 215.904C22.6907 213.088 21.24 209.248 21.24 204.384V145.76C21.24 140.981 22.648 137.227 25.464 134.496C28.3653 131.765 32.376 130.4 37.496 130.4H67.832C76.4507 130.4 83.1493 132.533 87.928 136.8C92.7067 141.067 95.096 147.083 95.096 154.848C95.096 159.285 93.944 163.168 91.64 166.496C89.336 169.739 86.1787 172.213 82.168 173.92V174.176C86.6907 175.797 90.232 178.357 92.792 181.856C95.352 185.269 96.632 189.323 96.632 194.016C96.632 202.037 94.2 208.395 89.336 213.088C84.472 217.696 77.816 220 69.368 220H37.752ZM68.856 170.336C73.8907 170.336 77.9013 168.928 80.888 166.112C83.8747 163.296 85.368 159.541 85.368 154.848C85.368 149.472 83.8747 145.376 80.888 142.56C77.9013 139.744 73.5493 138.336 67.832 138.336H37.624C35.6613 138.336 34.04 139.061 32.76 140.512C31.48 141.877 30.84 143.627 30.84 145.76V170.336H68.856ZM68.856 211.936C74.744 211.936 79.224 210.443 82.296 207.456C85.368 204.384 86.904 199.947 86.904 194.144C86.904 189.109 85.2827 185.184 82.04 182.368C78.7973 179.552 74.36 178.144 68.728 178.144H30.84V204.64C30.84 206.773 31.48 208.523 32.76 209.888C34.04 211.253 35.6613 211.936 37.624 211.936H68.856ZM130.377 220C125.172 220 121.118 218.635 118.217 215.904C115.316 213.173 113.865 209.333 113.865 204.384V145.76C113.865 140.981 115.273 137.227 118.089 134.496C120.99 131.765 125.001 130.4 130.121 130.4H169.801C173.129 130.4 174.793 131.765 174.793 134.496C174.793 135.691 174.366 136.629 173.513 137.312C172.66 137.995 171.422 138.336 169.801 138.336H130.249C128.201 138.336 126.537 139.019 125.257 140.384C124.062 141.749 123.465 143.541 123.465 145.76V170.208H160.073C163.401 170.208 165.065 171.573 165.065 174.304C165.065 175.584 164.596 176.565 163.657 177.248C162.804 177.931 161.609 178.272 160.073 178.272H123.465V204.64C123.465 206.859 124.062 208.651 125.257 210.016C126.537 211.381 128.201 212.064 130.249 212.064H172.617C175.945 212.064 177.609 213.387 177.609 216.032C177.609 217.312 177.14 218.293 176.201 218.976C175.348 219.659 174.153 220 172.617 220H130.377ZM229.297 221.28C227.761 221.28 226.566 220.853 225.713 220C224.945 219.061 224.561 217.781 224.561 216.16V138.336H195.249C193.713 138.336 192.476 138.037 191.537 137.44C190.684 136.757 190.257 135.776 190.257 134.496C190.257 131.765 191.921 130.4 195.249 130.4H263.601C266.929 130.4 268.593 131.765 268.593 134.496C268.593 135.691 268.166 136.629 267.313 137.312C266.46 137.995 265.222 138.336 263.601 138.336H234.289V216.16C234.289 217.781 233.82 219.061 232.881 220C232.028 220.853 230.833 221.28 229.297 221.28ZM317.595 221.28C309.403 221.28 301.851 219.915 294.939 217.184C288.112 214.368 282.779 210.528 278.939 205.664C278.256 204.811 277.915 203.915 277.915 202.976C277.915 201.781 278.555 200.629 279.835 199.52C280.518 199.008 281.243 198.752 282.011 198.752C283.547 198.752 284.912 199.477 286.107 200.928C289.606 204.768 294 207.755 299.291 209.888C304.667 211.936 310.768 212.96 317.595 212.96C325.104 212.96 330.907 211.595 335.003 208.864C339.099 206.048 341.147 202.08 341.147 196.96C341.147 192.523 339.142 188.939 335.131 186.208C331.206 183.477 324.507 181.045 315.035 178.912C302.662 176.181 293.744 172.768 288.283 168.672C282.907 164.491 280.219 158.987 280.219 152.16C280.219 145.077 283.206 139.488 289.179 135.392C295.238 131.211 303.387 129.12 313.627 129.12C321.392 129.12 328.39 130.485 334.619 133.216C340.934 135.947 345.414 139.616 348.059 144.224C348.571 145.077 348.827 145.888 348.827 146.656C348.827 148.021 348.102 149.216 346.651 150.24C346.054 150.581 345.371 150.752 344.603 150.752C342.726 150.752 341.275 150.027 340.251 148.576C337.776 144.992 334.278 142.261 329.755 140.384C325.232 138.421 319.856 137.44 313.627 137.44C297.84 137.44 289.947 142.347 289.947 152.16C289.947 155.147 290.758 157.664 292.379 159.712C294 161.675 296.603 163.467 300.187 165.088C303.856 166.624 308.934 168.16 315.419 169.696C328.048 172.683 337.136 176.309 342.683 180.576C348.23 184.757 351.003 190.219 351.003 196.96C351.003 204.469 347.974 210.4 341.915 214.752C335.942 219.104 327.835 221.28 317.595 221.28Z" fill="#FB37AE"/>
</g>
<path d="M16.583 106.28C15.1323 106.28 13.9803 105.853 13.127 105C12.2737 104.061 11.847 102.781 11.847 101.16V48.936C11.847 41.8533 13.3403 35.7093 16.327 30.504C19.399 25.2133 23.751 21.16 29.383 18.344C35.015 15.528 41.6283 14.12 49.223 14.12C56.8177 14.12 63.3883 15.528 68.935 18.344C74.567 21.16 78.8763 25.2133 81.863 30.504C84.935 35.7093 86.471 41.8533 86.471 48.936V101.16C86.471 102.781 86.0443 104.061 85.191 105C84.423 105.853 83.271 106.28 81.735 106.28C80.2843 106.28 79.0897 105.853 78.151 105C77.2977 104.061 76.871 102.781 76.871 101.16V48.552C76.871 40.2747 74.439 33.832 69.575 29.224C64.711 24.616 57.927 22.312 49.223 22.312C40.6897 22.312 33.9057 24.6587 28.871 29.352C23.9217 34.0453 21.447 40.4453 21.447 48.552V101.16C21.447 102.781 21.0203 104.061 20.167 105C19.3137 105.853 18.119 106.28 16.583 106.28ZM122.752 105C117.547 105 113.493 103.635 110.592 100.904C107.691 98.1733 106.24 94.3333 106.24 89.384V30.76C106.24 25.9813 107.648 22.2267 110.464 19.496C113.365 16.7653 117.376 15.4 122.496 15.4H162.176C165.504 15.4 167.168 16.7653 167.168 19.496C167.168 20.6907 166.741 21.6293 165.888 22.312C165.035 22.9947 163.797 23.336 162.176 23.336H122.624C120.576 23.336 118.912 24.0187 117.632 25.384C116.437 26.7493 115.84 28.5413 115.84 30.76V55.208H152.448C155.776 55.208 157.44 56.5733 157.44 59.304C157.44 60.584 156.971 61.5653 156.032 62.248C155.179 62.9307 153.984 63.272 152.448 63.272H115.84V89.64C115.84 91.8587 116.437 93.6507 117.632 95.016C118.912 96.3813 120.576 97.064 122.624 97.064H164.992C168.32 97.064 169.984 98.3867 169.984 101.032C169.984 102.312 169.515 103.293 168.576 103.976C167.723 104.659 166.528 105 164.992 105H122.752ZM223.73 106.28C215.111 106.28 207.346 104.403 200.434 100.648C193.522 96.808 188.061 91.3893 184.05 84.392C180.125 77.3947 178.162 69.3307 178.162 60.2C178.162 50.984 180.125 42.92 184.05 36.008C188.061 29.0107 193.522 23.6347 200.434 19.88C207.346 16.04 215.111 14.12 223.73 14.12C232.349 14.12 240.114 16.04 247.026 19.88C253.938 23.6347 259.357 29.0107 263.282 36.008C267.293 42.92 269.298 50.984 269.298 60.2C269.298 69.3307 267.293 77.3947 263.282 84.392C259.357 91.3893 253.938 96.808 247.026 100.648C240.114 104.403 232.349 106.28 223.73 106.28ZM223.73 98.088C230.642 98.088 236.786 96.5947 242.162 93.608C247.623 90.6213 251.89 86.312 254.962 80.68C258.119 74.9627 259.698 68.136 259.698 60.2C259.698 52.1787 258.077 45.3093 254.834 39.592C251.677 33.8747 247.325 29.5653 241.778 26.664C236.317 23.7627 230.215 22.312 223.474 22.312C216.647 22.312 210.503 23.8053 205.042 26.792C199.666 29.7787 195.442 34.1307 192.37 39.848C189.298 45.5653 187.762 52.3493 187.762 60.2C187.762 68.136 189.298 74.9627 192.37 80.68C195.527 86.312 199.794 90.6213 205.17 93.608C210.631 96.5947 216.818 98.088 223.73 98.088ZM287.208 106.28C285.757 106.28 284.605 105.853 283.752 105C282.899 104.061 282.472 102.781 282.472 101.16V48.936C282.472 41.8533 283.965 35.7093 286.952 30.504C290.024 25.2133 294.376 21.16 300.008 18.344C305.64 15.528 312.253 14.12 319.848 14.12C327.443 14.12 334.013 15.528 339.56 18.344C345.192 21.16 349.501 25.2133 352.488 30.504C355.56 35.7093 357.096 41.8533 357.096 48.936V101.16C357.096 102.781 356.669 104.061 355.816 105C355.048 105.853 353.896 106.28 352.36 106.28C350.909 106.28 349.715 105.853 348.776 105C347.923 104.061 347.496 102.781 347.496 101.16V48.552C347.496 40.2747 345.064 33.832 340.2 29.224C335.336 24.616 328.552 22.312 319.848 22.312C311.315 22.312 304.531 24.6587 299.496 29.352C294.547 34.0453 292.072 40.4453 292.072 48.552V101.16C292.072 102.781 291.645 104.061 290.792 105C289.939 105.853 288.744 106.28 287.208 106.28Z" fill="#00C2EA"/>
<path d="M37.752 220C32.5467 220 28.4933 218.635 25.592 215.904C22.6907 213.088 21.24 209.248 21.24 204.384V145.76C21.24 140.981 22.648 137.227 25.464 134.496C28.3653 131.765 32.376 130.4 37.496 130.4H67.832C76.4507 130.4 83.1493 132.533 87.928 136.8C92.7067 141.067 95.096 147.083 95.096 154.848C95.096 159.285 93.944 163.168 91.64 166.496C89.336 169.739 86.1787 172.213 82.168 173.92V174.176C86.6907 175.797 90.232 178.357 92.792 181.856C95.352 185.269 96.632 189.323 96.632 194.016C96.632 202.037 94.2 208.395 89.336 213.088C84.472 217.696 77.816 220 69.368 220H37.752ZM68.856 170.336C73.8907 170.336 77.9013 168.928 80.888 166.112C83.8747 163.296 85.368 159.541 85.368 154.848C85.368 149.472 83.8747 145.376 80.888 142.56C77.9013 139.744 73.5493 138.336 67.832 138.336H37.624C35.6613 138.336 34.04 139.061 32.76 140.512C31.48 141.877 30.84 143.627 30.84 145.76V170.336H68.856ZM68.856 211.936C74.744 211.936 79.224 210.443 82.296 207.456C85.368 204.384 86.904 199.947 86.904 194.144C86.904 189.109 85.2827 185.184 82.04 182.368C78.7973 179.552 74.36 178.144 68.728 178.144H30.84V204.64C30.84 206.773 31.48 208.523 32.76 209.888C34.04 211.253 35.6613 211.936 37.624 211.936H68.856ZM130.377 220C125.172 220 121.118 218.635 118.217 215.904C115.316 213.173 113.865 209.333 113.865 204.384V145.76C113.865 140.981 115.273 137.227 118.089 134.496C120.99 131.765 125.001 130.4 130.121 130.4H169.801C173.129 130.4 174.793 131.765 174.793 134.496C174.793 135.691 174.366 136.629 173.513 137.312C172.66 137.995 171.422 138.336 169.801 138.336H130.249C128.201 138.336 126.537 139.019 125.257 140.384C124.062 141.749 123.465 143.541 123.465 145.76V170.208H160.073C163.401 170.208 165.065 171.573 165.065 174.304C165.065 175.584 164.596 176.565 163.657 177.248C162.804 177.931 161.609 178.272 160.073 178.272H123.465V204.64C123.465 206.859 124.062 208.651 125.257 210.016C126.537 211.381 128.201 212.064 130.249 212.064H172.617C175.945 212.064 177.609 213.387 177.609 216.032C177.609 217.312 177.14 218.293 176.201 218.976C175.348 219.659 174.153 220 172.617 220H130.377ZM229.297 221.28C227.761 221.28 226.566 220.853 225.713 220C224.945 219.061 224.561 217.781 224.561 216.16V138.336H195.249C193.713 138.336 192.476 138.037 191.537 137.44C190.684 136.757 190.257 135.776 190.257 134.496C190.257 131.765 191.921 130.4 195.249 130.4H263.601C266.929 130.4 268.593 131.765 268.593 134.496C268.593 135.691 268.166 136.629 267.313 137.312C266.46 137.995 265.222 138.336 263.601 138.336H234.289V216.16C234.289 217.781 233.82 219.061 232.881 220C232.028 220.853 230.833 221.28 229.297 221.28ZM317.595 221.28C309.403 221.28 301.851 219.915 294.939 217.184C288.112 214.368 282.779 210.528 278.939 205.664C278.256 204.811 277.915 203.915 277.915 202.976C277.915 201.781 278.555 200.629 279.835 199.52C280.518 199.008 281.243 198.752 282.011 198.752C283.547 198.752 284.912 199.477 286.107 200.928C289.606 204.768 294 207.755 299.291 209.888C304.667 211.936 310.768 212.96 317.595 212.96C325.104 212.96 330.907 211.595 335.003 208.864C339.099 206.048 341.147 202.08 341.147 196.96C341.147 192.523 339.142 188.939 335.131 186.208C331.206 183.477 324.507 181.045 315.035 178.912C302.662 176.181 293.744 172.768 288.283 168.672C282.907 164.491 280.219 158.987 280.219 152.16C280.219 145.077 283.206 139.488 289.179 135.392C295.238 131.211 303.387 129.12 313.627 129.12C321.392 129.12 328.39 130.485 334.619 133.216C340.934 135.947 345.414 139.616 348.059 144.224C348.571 145.077 348.827 145.888 348.827 146.656C348.827 148.021 348.102 149.216 346.651 150.24C346.054 150.581 345.371 150.752 344.603 150.752C342.726 150.752 341.275 150.027 340.251 148.576C337.776 144.992 334.278 142.261 329.755 140.384C325.232 138.421 319.856 137.44 313.627 137.44C297.84 137.44 289.947 142.347 289.947 152.16C289.947 155.147 290.758 157.664 292.379 159.712C294 161.675 296.603 163.467 300.187 165.088C303.856 166.624 308.934 168.16 315.419 169.696C328.048 172.683 337.136 176.309 342.683 180.576C348.23 184.757 351.003 190.219 351.003 196.96C351.003 204.469 347.974 210.4 341.915 214.752C335.942 219.104 327.835 221.28 317.595 221.28Z" fill="#FB37AE"/>
<defs>
<filter id="filter0_f_17_106" x="0.846924" y="3.12" width="367.249" height="229.16" filterUnits="userSpaceOnUse" color-interpolation-filters="sRGB">
<feFlood flood-opacity="0" result="BackgroundImageFix"/>
<feBlend mode="normal" in="SourceGraphic" in2="BackgroundImageFix" result="shape"/>
<feGaussianBlur stdDeviation="5.5" result="effect1_foregroundBlur_17_106"/>
</filter>
</defs>
</svg>
